<svg width="43" height="43" viewBox="0 0 43 43" fill="none" xmlns="http://www.w3.org/2000/svg">
<path d="M10.0972 20.8765L14.9333 22.6463L16.8052 28.5484C16.9248 28.9266 17.3966 29.0662 17.7095 28.8153L20.405 26.6607C20.6876 26.435 21.09 26.4237 21.3855 26.634L26.2475 30.0951C26.5823 30.3336 27.0564 30.1538 27.1405 29.7572L30.7023 12.9591C30.7939 12.5262 30.3597 12.1644 29.9389 12.3241L10.0918 19.8309C9.60188 20.0161 9.60599 20.696 10.0972 20.8765ZM16.5036 21.7042L25.9551 15.9966C26.1249 15.8945 26.2998 16.1196 26.1539 16.2522L18.3534 23.3614C18.0795 23.6116 17.9025 23.9465 17.8523 24.3099L17.5869 26.2404C17.5516 26.4984 17.1824 26.5238 17.1097 26.2746L16.0879 22.7538C15.9707 22.3522 16.1412 21.9235 16.5036 21.7042Z" fill="#2992FA"/>
</svg>
