<?xml version="1.0" encoding="utf-8"?>
<!-- Generator: Adobe Illustrator 23.0.1, SVG Export Plug-In . SVG Version: 6.00 Build 0)  -->
<svg version="1.1" id="Layer_1" xmlns="http://www.w3.org/2000/svg" xmlns:xlink="http://www.w3.org/1999/xlink" x="0px" y="0px"
	 viewBox="0 0 686 298" style="enable-background:new 0 0 686 298;" xml:space="preserve">
<style type="text/css">
	.st0{opacity:0.1;}
	.st1{fill:#0093FD;}
	.st2{opacity:0.08;}
	.st3{fill:#F5F5F5;}
	.st4{fill:#F4F3EE;}
	.st5{fill:#E6E6E6;}
	.st6{fill:#FFD931;}
	.st7{fill:#1F263A;}
	.st8{fill:#284F4C;}
	.st9{fill:#FFFFFF;}
	.st10{fill:#B3B3B3;}
	.st11{fill:#2992FA;}
	.st12{fill:#27374D;}
	.st13{fill:#DE614B;}
	.st14{fill:#2C294C;}
	.st15{fill:#EAEAEA;}
	.st16{fill:#D6D6D6;}
	.st17{fill:#223359;}
	.st18{fill:#FCD846;}
	.st19{fill:#DADAEA;}
	.st20{fill:#E8BC05;}
	.st21{fill:#CECECE;}
	.st22{opacity:0.4;fill:#E6E6E6;}
	.st23{opacity:0.4;}
	.st24{fill:#2A2BEE;}
	.st25{fill:url(#SVGID_1_);}
	.st26{fill:url(#SVGID_2_);}
	.st27{fill:none;stroke:#2A2BEE;stroke-width:8;stroke-miterlimit:10;}
	.st28{fill:none;stroke:url(#SVGID_3_);stroke-width:8;stroke-miterlimit:10;}
	.st29{fill:none;stroke:url(#SVGID_4_);stroke-width:7;stroke-miterlimit:10;}
	.st30{fill:url(#SVGID_5_);}
	.st31{fill:url(#SVGID_6_);}
	.st32{fill:url(#SVGID_7_);}
	.st33{fill:url(#SVGID_8_);}
	.st34{fill:url(#SVGID_9_);}
	.st35{fill:url(#SVGID_10_);}
	.st36{fill:url(#SVGID_11_);}
	.st37{fill:url(#SVGID_12_);}
	.st38{fill:url(#SVGID_13_);}
	.st39{fill:url(#SVGID_14_);}
	.st40{fill:url(#SVGID_15_);}
	.st41{fill:url(#SVGID_16_);}
	.st42{fill:url(#SVGID_17_);}
	.st43{fill:url(#SVGID_18_);}
	.st44{fill:url(#SVGID_19_);}
	.st45{fill:url(#SVGID_20_);}
	.st46{fill:#F9FBFF;}
	.st47{fill:#EDF5FC;}
	.st48{fill:none;stroke:#2A2BEE;stroke-width:3;stroke-miterlimit:10;}
	.st49{fill:url(#SVGID_21_);}
	.st50{fill:url(#SVGID_22_);}
	.st51{fill:url(#SVGID_23_);}
	.st52{fill:url(#SVGID_24_);}
	.st53{fill:url(#SVGID_25_);}
	.st54{fill:#DBDBDB;}
	.st55{fill:#AF9279;}
	.st56{fill:#F7DABC;}
	.st57{fill:#027FCC;}
	.st58{fill:#747489;}
	.st59{fill:#E2B705;}
	.st60{fill:#263556;}
	.st61{fill:#E0E0E0;}
	.st62{fill:#C4C4C4;}
	.st63{fill:#006EB2;}
	.st64{fill:#B8B8C9;}
	.st65{fill:#9393AB;}
	.st66{fill:#E5B900;}
	.st67{fill:#5578A3;}
	.st68{opacity:0.3;fill:#DADAEA;}
	.st69{fill:#C6C6C6;}
	.st70{fill:#0469BC;}
	.st71{opacity:0.2;}
	.st72{fill:#C1C1C1;}
	.st73{fill:#F2F2F2;}
	.st74{opacity:0.51;fill:#E6E1FF;}
	.st75{fill:#709FE0;}
	.st76{fill:#5183BF;}
	.st77{fill:#D1D1D1;}
	.st78{fill:#D6AE05;}
	.st79{fill:#DCDAE0;}
	.st80{fill:#F3F3F5;}
	.st81{fill:#D9924E;}
	.st82{fill:#C2C2ED;}
	.st83{fill:#636375;}
	.st84{fill:#543237;}
	.st85{fill:#3F3E66;}
	.st86{fill:#585866;}
	.st87{fill:#A04B40;}
	.st88{fill:#B7743D;}
	.st89{fill:#0074D3;}
</style>
<g class="st2">
	<path class="st1" d="M52,163c61.52-7.07,81.28-22.22,136.73-49.8c24.49-12.18,48.57-26.43,75.46-31.44
		c18.89-3.52,38.66-2.24,56.94,3.68c24.71,8,45.96,24.01,69.41,35.19c69.61,33.2,152.06,21.65,226.62,41.35
		c14.02,3.7,27.21,5.79,37.74,15.75c10.54,9.96,16.58,25.87,11.36,39.4c-7.31,18.93-30.22,27.44-50.49,28.35
		c-49.14,2.22-98.75-6.61-144.11-25.66c-22.92-9.62-45.19-7.94-69.77-11.61c-35.86-5.35-71.42,8.31-106.22,18.48
		c-52.96,15.48-108.17,9.26-163.35,9.01c-32.34-0.15-45.35-3.2-74.97-16.18c-9.15-4.01-18.13-9.13-24.37-16.93
		c-6.24-7.8-9.28-18.76-5.61-28.05c3.67-9.29,24.3-11.31,24.3-11.31"/>
</g>
<g>
	<g>
		<path class="st7" d="M356.04,127.64c3.47,0,6.27-2.81,6.27-6.27v-9.01h-12.55v9.01C349.77,124.83,352.58,127.64,356.04,127.64z"/>
	</g>
	<g>
		<polygon class="st7" points="367.34,148.89 367.14,147.19 305.21,147.19 304.5,148.89 		"/>
	</g>
	<g>
		<path class="st5" d="M396.36,195.41c0.27-2.26,3.44-1.18,4.78-0.93c0.16,0.03,0.27,0.12,0.34,0.25c0.23-0.04,0.45,0.08,0.48,0.41
			c0.17,2.42,0.29,11.19,0.34,13.1c0,0.18-5.26,0.11-5.29-0.13C396.76,206.21,396.13,197.38,396.36,195.41z"/>
	</g>
	<g>
		<path class="st1" d="M382.15,211.72c0.67-0.86,3.06-1.31,3.99-1.54c2.91-0.72,6.63-2.11,9.11-3.77c1.44-0.97,0.55-0.84,2.33-0.78
			c1.51,0.05,3.07-0.16,4.54-0.12c0.63,0.02,1.53-0.12,1.66,0.88c0.13,2,0.17,3.99,0.15,5.99c0.01,1.25-0.68,1.23-0.79,1.23
			c-1.58,0.02-3.16,0.03-4.73,0.04c-0.39,0-0.5-0.97-2.2-0.85c-2.19,0.15-3.57,0.93-5.5,1c-2.02,0.07-3.57,0.06-5.62-0.08
			C383.38,213.59,380.39,213.96,382.15,211.72z"/>
	</g>
	<g>
		<polygon class="st7" points="372.84,182.66 371.77,180.95 299.74,180.95 299.74,182.66 		"/>
	</g>
	<g>
		<polygon class="st7" points="378.85,218.98 380.52,218.69 365.56,129.04 363.88,129.33 		"/>
	</g>
	<g>
		<polygon class="st7" points="293.03,218.84 291.36,218.55 306.63,129.04 308.31,129.33 		"/>
	</g>
	
		<rect x="291.5" y="127.52" transform="matrix(-1 -1.224647e-16 1.224647e-16 -1 672.9563 267.0175)" class="st19" width="89.95" height="11.97"/>
	<g>
		<g>
			
				<rect x="122.86" y="183.99" transform="matrix(0.4268 -0.9043 0.9043 0.4268 -75.5832 250.138)" class="st7" width="73.34" height="1.41"/>
		</g>
	</g>
	<g>
		<g>
			
				<rect x="151.91" y="183.99" transform="matrix(0.2217 -0.9751 0.9751 0.2217 -35.6666 324.7024)" class="st7" width="67.31" height="1.41"/>
		</g>
	</g>
	<g>
		<g>
			
				<rect x="221.75" y="151.47" transform="matrix(0.9752 -0.2214 0.2214 0.9752 -35.3889 53.8491)" class="st7" width="1.41" height="66.56"/>
		</g>
	</g>
	<g>
		<g>
			
				<rect x="247.48" y="149.12" transform="matrix(0.9043 -0.427 0.427 0.9043 -55.5687 123.7646)" class="st7" width="1.41" height="73.34"/>
		</g>
	</g>
	<g>
		
			<rect x="203.15" y="123.41" transform="matrix(0.0191 -0.9998 0.9998 0.0191 47.9035 352.9936)" class="st14" width="1.41" height="57.35"/>
	</g>
	<g>
		<g>
			
				<rect x="203.3" y="138.26" transform="matrix(0.0192 -0.9998 0.9998 0.0192 19.968 380.6897)" class="st7" width="1.41" height="83.82"/>
		</g>
	</g>
	<g>
		<circle class="st7" cx="144.4" cy="216.74" r="2.47"/>
	</g>
	<g>
		<circle class="st7" cx="178.29" cy="216.74" r="2.47"/>
	</g>
	<g>
		<circle class="st7" cx="229.83" cy="217.2" r="2.47"/>
	</g>
	<g>
		<circle class="st7" cx="263.73" cy="218.69" r="2.47"/>
	</g>
	<g>
		<path class="st67" d="M244.84,116.06c0.08-0.02,0.13-0.03,0.13-0.03C244.96,116.03,244.9,116.04,244.84,116.06z"/>
	</g>
	<g>
		<path class="st7" d="M255.44,98.33c-6.57-10.02-15.08-18.41-24.91-25.21c-9.79-6.77-21.52-12.25-33.29-14.28
			c-13.6-2.35-29.2-0.18-38.7,10.87c-8.4,9.76-10.34,22.75-9.54,35.24c0.82,12.64,3.55,24.89,8.67,36.48
			c5.78,13.09,15.71,26.5,29.37,31.9c7.19,2.84,15.58,3.43,23.25,3.47c3.71,0.02,7.72,0.06,11.26-1.16
			c3.48-1.2,15.24-5.47,20.86-10.46c9.35-8.31,20.48-16.61,22.85-29.03C267.83,122.74,262.75,109.48,255.44,98.33z"/>
	</g>
	<path class="st18" d="M255.44,98.33c-6.57-10.02-15.08-18.41-24.91-25.21c-9.79-6.77-21.52-12.25-33.29-14.28
		c-13.6-2.35-29.2-0.18-38.7,10.87c-0.45,0.52-0.87,1.06-1.29,1.6c-0.19,8.83,1.8,17.94,4.9,26.08
		c6.54,17.13,16.75,33.54,31.08,45.22c14.71,11.98,32.87,20.03,52.05,20.04c8.63-7.51,17.84-15.34,19.98-26.5
		C267.83,122.74,262.75,109.48,255.44,98.33z"/>
	<g>
		<g>
			
				<rect x="514.68" y="148.02" transform="matrix(0.9043 -0.427 0.427 0.9043 -29.5165 237.7519)" class="st7" width="1.41" height="73.34"/>
		</g>
	</g>
	<g>
		<g>
			
				<rect x="488.65" y="151.04" transform="matrix(0.9752 -0.2214 0.2214 0.9752 -28.7502 112.9525)" class="st7" width="1.41" height="67.31"/>
		</g>
	</g>
	<g>
		<g>
			
				<rect x="419.18" y="184.04" transform="matrix(0.2217 -0.9751 0.9751 0.2217 171.995 584.9923)" class="st7" width="66.56" height="1.41"/>
		</g>
	</g>
	<g>
		<g>
			
				<rect x="390.06" y="185.08" transform="matrix(0.4268 -0.9043 0.9043 0.4268 76.5711 492.3946)" class="st7" width="73.34" height="1.41"/>
		</g>
	</g>
	<g>
		
			<rect x="442.39" y="151.38" transform="matrix(0.9998 -0.019 0.019 0.9998 -2.8112 8.9997)" class="st14" width="57.35" height="1.41"/>
	</g>
	<g>
		<g>
			
				<rect x="429" y="179.46" transform="matrix(0.9998 -0.019 0.019 0.9998 -3.3461 9.0019)" class="st7" width="83.82" height="1.41"/>
		</g>
	</g>
	<g>
		<circle class="st7" cx="530.53" cy="216.74" r="2.47"/>
	</g>
	<g>
		<circle class="st7" cx="496.64" cy="216.74" r="2.47"/>
	</g>
	<g>
		<circle class="st7" cx="445.09" cy="217.2" r="2.47"/>
	</g>
	<g>
		<circle class="st7" cx="411.19" cy="218.69" r="2.47"/>
	</g>
	<g>
		<path class="st67" d="M430.08,116.06c-0.08-0.02-0.13-0.03-0.13-0.03C429.97,116.03,430.02,116.04,430.08,116.06z"/>
	</g>
	<g>
		<path class="st7" d="M419.49,98.33c6.57-10.02,15.08-18.41,24.91-25.21c9.79-6.77,21.52-12.25,33.29-14.28
			c13.6-2.35,29.2-0.18,38.7,10.87c8.4,9.76,10.34,22.75,9.54,35.24c-0.82,12.64-3.55,24.89-8.67,36.48
			c-5.78,13.09-15.71,26.5-29.37,31.9c-7.19,2.84-15.58,3.43-23.25,3.47c-3.71,0.02-7.72,0.06-11.26-1.16
			c-3.48-1.2-15.24-5.47-20.86-10.46c-9.35-8.31-20.48-16.61-22.85-29.03C407.1,122.74,412.18,109.48,419.49,98.33z"/>
	</g>
	<g>
		<path class="st1" d="M419.49,98.33c6.57-10.02,15.08-18.41,24.91-25.21c9.79-6.77,21.52-12.25,33.29-14.28
			c13.6-2.35,29.2-0.18,38.7,10.87c0.45,0.52,0.87,1.06,1.29,1.6c0.19,8.83-1.8,17.94-4.9,26.08
			c-6.54,17.13-16.75,33.54-31.08,45.22c-14.71,11.98-32.87,20.03-52.05,20.04c-8.63-7.51-17.84-15.34-19.98-26.5
			C407.1,122.74,412.18,109.48,419.49,98.33z"/>
	</g>
	<g>
		<path class="st7" d="M368.49,113.2c-2.23-4.3-7.19-0.99-9.01,1.71c-0.51,0.76,0.71,1.46,1.22,0.71c0.99-1.45,2.34-3.08,4.27-2.93
			c2.93,0.23,2.72,3.16,1.62,5.11c-1.28,2.29-3.25,4.22-5.26,5.86c-0.71,0.58,0.3,1.58,1.01,1.01
			C365.15,122.4,370.64,117.35,368.49,113.2z"/>
	</g>
	<path class="st65" d="M331.73,127.52h-26.07c-2.25,0-4.07-1.82-4.07-4.07v-21.22c0-2.25,1.82-4.07,4.07-4.07h26.07
		c2.25,0,4.07,1.82,4.07,4.07v21.22C335.8,125.7,333.98,127.52,331.73,127.52z"/>
	<path class="st65" d="M292.9,123.71h42.9v3.82h-42.9c-0.85,0-1.54-0.69-1.54-1.54v-0.73C291.36,124.4,292.05,123.71,292.9,123.71z"
		/>
	<path class="st68" d="M353.47,89.95c-2.98-2.09-4.22-4.35-6.01-7.39c-0.99-1.69-2.2-3.42-4.07-4.22c-3.54-1.52-6.45,1.28-6.27,4.87
		c0.09,1.89,1.03,3.42,2.42,4.62c0.88,0.76,2.11,1.25,2.87,2.14c1.11,1.3,0.95,3.2,1.53,4.71c0.7,1.79,1.92,2.82,3.61,3.66
		c1.09,0.54,2.3,0.84,3.39,1.39c1.33,0.67,2.24,2,3.53,2.64c1.24,0.62,1.94,0.93,2.72,0.55c0.67-0.33,1.35-1.34,1.37-2.31
		C358.66,95.87,357.35,92.68,353.47,89.95z"/>
	<g>
		<path class="st5" d="M219.74,70.49c2.42-0.51,4.84-0.97,7.27-1.37c0.22-0.04,0.42-0.03,0.61-0.01c1.26,0,2.58,1.07,2.17,2.7
			c-1.52,6.03-1.31,9.7-2.2,15.87c-0.4,2.76-10.78,1.48-10.73,0.36c0.19-4.27,0.7-11.23,1.2-15.48
			C218.16,71.63,218.76,70.69,219.74,70.49z"/>
	</g>
	<g>
		<path class="st69" d="M224.27,83.63c-0.96-0.87-2.29-1.19-3.17-2.15c-1-1.08-1.21-3.71,0.9-3.38c0.25,0.04,0.42,0.18,0.52,0.36
			c0.91,0.15,2.06,1,2.79,1.58c0.13-0.1,0.29-0.16,0.44-0.15c0.84,0.07,1.79,0.55,2.57,1.23c-0.17,1.61-0.33,3.23-0.5,4.85
			c-0.38,0.01-0.77-0.06-1.13-0.21C225.65,85.32,225.08,84.36,224.27,83.63z"/>
	</g>
	<g>
		<path class="st5" d="M216.93,55.24c1.33-2.03,4.38-0.45,6.58-0.87c2.6-0.49,4.39-2.63,6.14-0.72c2.03,1.53,3.96,3.16,4.47,5.77
			c0.94,4.81,1.99,12.81,0.43,17.41c-1.24,3.63-3.42,5.1-5.21,5.23c-3,0.22-5.41-1.77-7.13-3.58c-1.49-1.57-3.29-4.05-3.8-5.13
			C215.47,67.16,212.97,61.29,216.93,55.24z"/>
	</g>
	<g>
		<path class="st5" d="M278.14,187.69c-1.39-1.8-3.56,0.76-4.58,1.66c-0.12,0.11-0.17,0.24-0.17,0.39c-0.21,0.08-0.35,0.3-0.2,0.59
			c1.1,2.16,5.49,9.75,6.43,11.42c0.09,0.16,4.57-2.6,4.47-2.83C283.34,197.15,279.35,189.25,278.14,187.69z"/>
	</g>
	<g>
		<path class="st7" d="M298.72,194.38c-1.02-0.39-3.3,0.44-4.21,0.72c-2.87,0.87-6.77,1.59-9.75,1.44c-1.74-0.09-0.91-0.44-2.4,0.53
			c-1.27,0.82-2.72,1.43-3.96,2.22c-0.53,0.34-1.37,0.68-0.97,1.61c0.91,1.78,1.9,3.52,2.94,5.22c0.63,1.08,1.22,0.7,1.31,0.65
			c1.37-0.8,2.73-1.59,4.08-2.39c0.34-0.2-0.07-1.09,1.45-1.86c1.96-0.99,3.55-1.03,5.23-1.97c1.77-0.98,3.1-1.78,4.78-2.96
			C298.62,196.62,301.38,195.4,298.72,194.38z"/>
	</g>
	<g>
		<path class="st5" d="M255.33,203.15c-0.27-2.26-3.44-1.18-4.78-0.93c-0.16,0.03-0.27,0.12-0.34,0.25
			c-0.23-0.04-0.45,0.08-0.48,0.41c-0.17,2.42-0.29,11.19-0.34,13.1c0,0.18,5.26,0.11,5.29-0.13
			C254.93,213.94,255.56,205.11,255.33,203.15z"/>
	</g>
	<g>
		<path class="st7" d="M269.54,219.46c-0.67-0.86-3.06-1.31-3.99-1.54c-2.91-0.72-6.63-2.11-9.11-3.77
			c-1.44-0.97-0.55-0.84-2.33-0.78c-1.51,0.05-3.07-0.16-4.54-0.12c-0.63,0.02-1.53-0.12-1.66,0.88c-0.13,2-0.17,3.99-0.15,5.99
			c-0.01,1.25,0.68,1.23,0.79,1.23c1.58,0.02,3.16,0.03,4.73,0.04c0.39,0,0.5-0.97,2.2-0.85c2.19,0.15,3.57,0.93,5.5,1
			c2.02,0.07,3.57,0.06,5.62-0.08C268.31,221.33,271.3,221.7,269.54,219.46z"/>
	</g>
	<g>
		<path class="st1" d="M279.9,188.13c-1.22-5.5-6.99-30.4-8.81-35.97c-0.57-1.75-2.41-5.39-3.82-6.64
			c-2.61-2.33-6.64-2.66-9.99-3.17c-0.44-0.07-5.96-0.14-11.58-0.2c-1.33-4.39-2.73-8.92-5.03-12.64c-0.85-1.37-2.63-0.87-3.16,0.23
			c-0.08-0.1-0.16-0.19-0.24-0.29c-1.03-1.19-3.04-0.18-3.04,1.23c-0.55-0.34-1.17-0.33-1.68-0.1c-0.11-0.07-0.23-0.13-0.36-0.19
			c-0.98-0.43-2.17-0.09-2.55,0.87c-0.66-1.09-1.33-1.99-1.94-2.57c-4.11-3.93-11.09,3.27-16.25,4.52
			c-0.77,0.19-1.26,0.92-1.29,1.68c-0.14,0.25-0.21,0.56-0.16,0.94c0.64,5.63,1.33,11.34,2.56,16.87c0.99,4.42,3.29,7.51,7.74,8.77
			c5.12,1.45,28.69,0.32,33.83-0.08c3.9,10,14.04,34.78,15.34,35.14c1.46,0.4,2.57-0.34,3.76-0.93c2.74-1.35,1.86-0.58,4.59-1.95
			C281.83,191.65,280.81,192.24,279.9,188.13z"/>
	</g>
	<g>
		<path class="st1" d="M258.73,171.63c0.14-1.42,0.28-2.85,0.42-4.27c0.18-1.8-3.18-1.97-3.15-2.45c0.12-1.53-2.83-5-2.81-6.77
			c0.01-1.08-0.69-1.63-1.47-1.7c-0.08-0.54-0.17-1.07-0.28-1.61c-0.36-1.71-3.06-1.68-3.43,0c-0.31,1.38-0.82,1.15-0.87-0.34
			c-0.07-2.27-3.6-2.28-3.53,0c0.34,12.06,0.09,24.13-0.83,36.16c-0.21,2.78-0.46,5.55-0.74,8.32c-0.2,2-0.9,4.48,0.58,6.17
			c0.8,0.91,1.69,1.02,2.83,1.19c3.15,0.48,6.53,0.37,9.7,0.55c0.72,0.04,1.58-0.58,1.72-1.31c1.92-10.65,3.17-21.39,3.74-32.19
			C260.68,172.27,259.68,171.63,258.73,171.63z"/>
	</g>
	<path class="st70" d="M259.32,173.64c-0.75-1.93-1.57-3.83-2.46-5.7c-0.78-1.63-1.54-3.42-2.8-4.76c-2.38-2.53-6.29-2.07-9.44-2.02
		c-0.46,0.01-0.46,0.71,0,0.71c3.28-0.05,7.17-0.54,9.4,2.38c2.09,2.74,3.36,6.4,4.62,9.58
		C258.81,174.24,259.49,174.06,259.32,173.64z"/>
	<path class="st70" d="M253.77,154.46c-0.72,1.64-1.31,3.32-1.75,5.05c-0.11,0.44,0.56,0.63,0.68,0.19c0.44-1.67,0.99-3.3,1.68-4.88
		C254.55,154.41,253.95,154.05,253.77,154.46z"/>
	<path class="st70" d="M256.37,157.62c-0.71,1.19-1.47,2.36-2.26,3.5c-0.26,0.38,0.35,0.73,0.61,0.36c0.79-1.14,1.54-2.31,2.25-3.5
		C257.21,157.59,256.6,157.23,256.37,157.62z"/>
	<path class="st70" d="M235.26,142.34c-1.96,0.36-3.82,1.02-5.57,1.96c-0.4,0.21-0.04,0.82,0.35,0.61c1.71-0.92,3.5-1.54,5.4-1.89
		C235.89,142.94,235.7,142.26,235.26,142.34z"/>
	<path class="st70" d="M244.03,142.47c-2.49,0-4.99,0-7.48,0c-0.45,0-0.45,0.7,0,0.7c2.49,0,4.99,0,7.48,0
		C244.48,143.17,244.48,142.47,244.03,142.47z"/>
	<g>
		<path class="st7" d="M244.12,123.34c-1.81-7.54-4.56-14.8-5.71-22.48c-0.97-6.47-0.18-11.74-6.93-14.3
			c-5.25-1.99-14.69-1.39-19.89,1.03c-3.62,1.68-6.97,3.46-8.09,6.08c-1.1,2.57,0,5.93-0.36,11.56c-0.56,8.7,2.59,26.06,2.96,29.97
			c0.27,2.78,0.85,6.58,3.37,8.41c3.05,2.21,6.77-0.4,9.74-1.37c3.46-1.12,7.08-1.83,10.71-2.21c3.66-0.38,10.14,0.24,13.66-0.83
			C246.45,138.31,245.25,128.08,244.12,123.34z"/>
	</g>
	<g>
		<path class="st7" d="M230.05,52.11c-3.11-1.57-6.05-0.46-9.1,0.56c-3.33,1.11-5.9,0.98-7.9,4.29c-1.22,2.03-1.06,3.26-0.12,4.6
			c1.49,5.34,1.34,6.65,5.34,12.31c0.35,0.49,1.61-0.28,1.6-0.95c-0.03-1.75-0.11-3.5-0.21-5.25c1.66-0.47,1.09-2.61,1.93-4.05
			c2.03-3.46,8.21-4.08,11.79-4.45c0.42-0.04,0.64-0.37,0.68-0.7c0.02-0.05,0.05-0.1,0.05-0.17
			C234.41,55.71,232.28,53.24,230.05,52.11z"/>
	</g>
	<g>
		<path class="st5" d="M218.13,69.34c0.23-0.85,0.93-1.6,1.94-1.81c1.12-0.23,1.85,0.32,2.56,0.93c1.11,0.96-0.42,2.27-1.67,1.9
			c0.02,0.2,0.03,0.41,0.08,0.55c0.26,0.73,0.77,1.31,1.4,1.82c1.29,1.06-0.9,2.7-2.18,1.67C218.79,73.22,217.64,71.17,218.13,69.34
			z"/>
	</g>
	<g>
		<path class="st7" d="M237.42,66.81c-0.02-0.16-0.31-0.35-0.38-0.38c-1.85-0.68-3.26-0.69-5.04,0.15c-0.01,0-0.13,0.09-0.13,0.1
			c-0.25,0.2-0.3,0.52-0.26,0.87c-0.62,0-1.24,0.08-1.84,0.24c-0.01-0.37-0.11-0.68-0.39-0.84c-0.01-0.01-0.14-0.08-0.15-0.08
			c-1.89-0.57-3.83-0.38-5.56,0.57c-0.06,0.03-0.09,0.07-0.12,0.11c-1.41-0.59-3.02-0.77-4.49-1.19c-0.44-0.13-0.63,0.56-0.19,0.69
			c1.47,0.43,3.08,0.6,4.49,1.19c0.04,1.08,0.1,2.41,0.78,3.25c0.76,0.94,2.16,0.54,3.17,0.36c1.51-0.27,1.82-0.81,2.14-2.3
			c0.05-0.24,0.16-0.61,0.23-1c0.68-0.2,1.37-0.3,2.08-0.29c0.13,0.39,0.3,0.76,0.39,1c0.54,1.43,0.92,1.91,2.45,1.96
			c1.03,0.03,1.83,0.05,2.44-0.99C237.67,69.2,237.54,67.94,237.42,66.81z M228.64,69.96c-0.37,1.09-1.01,1.15-2.02,1.29
			c-1,0.14-1.74,0.23-2.21-0.83c-0.31-0.69-0.31-1.58-0.34-2.35c0-0.01,0.01-0.02,0.01-0.03c1.57-0.82,3.28-0.99,4.98-0.47
			C229.16,67.6,228.75,69.62,228.64,69.96z M236.65,69.21c-0.32,1.12-0.41,1.31-1.42,1.32c-1.03,0.01-1.67,0.05-2.19-0.98
			c-0.16-0.32-0.86-2.26-0.77-2.3c1.62-0.77,2.8-0.76,4.47-0.17C236.83,67.84,236.86,68.47,236.65,69.21z"/>
	</g>
	<g>
		<path class="st5" d="M267.1,140.82c-1.86-2.67-5.38-3.37-7.16-6.09c-0.23-0.35-0.78,0-0.55,0.35c0.28,0.43,0.61,0.8,0.96,1.14
			c-0.28-0.18-0.55-0.37-0.84-0.54c-0.27-0.16-0.56,0.17-0.46,0.41c-0.07,0.06-0.12,0.14-0.14,0.24c-0.17,0.05-0.31,0.22-0.26,0.38
			c-0.07,0.08-0.1,0.19-0.05,0.31c-0.13,0.09-0.2,0.26-0.1,0.43c0.1,0.16,0.19,0.32,0.28,0.48c0,0.03,0,0.05,0.01,0.08
			c0.01,0.02,0.01,0.04,0.02,0.06c-0.27-0.27-0.7,0.02-0.51,0.38c0.08,0.15,0.16,0.3,0.25,0.45c-0.07-0.06-0.13-0.13-0.21-0.18
			c-0.33-0.25-0.78,0.23-0.44,0.48c0.77,0.58,1.02,1.53,1.56,2.3c0.44,0.62,0.98,1.17,1.59,1.63c1.18,0.89,2.54,1.35,4.01,1.46
			c0.63-0.03,1.05-0.32,2.91,2.96c0.22,0.38,0.43,0.77,0.65,1.15c0.15,0.26,0.51,0.14,0.59-0.11
			C269.98,146.23,268.44,142.76,267.1,140.82z"/>
	</g>
	<g>
		<path class="st5" d="M217,85.96c0.83,5,9.52,4.23,11.06-0.27C224.67,85.16,220.6,85.29,217,85.96z"/>
	</g>
	<g>
		<path class="st7" d="M222.86,124.8c-2.45,0.52-4.89,1.08-7.35,1.62c0.11-0.23,0.21-0.47,0.29-0.73c0.34-1.22,0.05-2.02-0.62-2.52
			c0.15-0.18,0.28-0.36,0.38-0.57c1.04-2.06-0.84-3.66-2.47-4.5c-1.62-0.84-3.06,1.6-1.43,2.45c1.5,0.79,0.19,1.49-1.47,2
			c-1.35,0.17-2.62,0.49-3.39,0.78c-0.11,0.04-0.18,0.07-0.25,0.1c-0.06-0.92-0.18-2.05-0.39-3.25c0-0.25,0.01-0.5,0.02-0.75
			c0.65-3,0.97-6.24,1.41-8.95c0.13-0.78-0.32-1.38-0.88-1.64c0.14-0.72,0.28-1.44,0.42-2.16c0.31-1.59-1.68-2.45-2.6-1.1
			c-0.06,0.08-0.1,0.17-0.16,0.25c0.08-0.49,0.15-0.99,0.21-1.49c0.32-0.82,0.66-1.63,1.02-2.43c0.51-1.14-0.5-2.17-1.41-2.15
			c1.31-2.67,2.88-5.2,4.79-7.48c1.15-1.38-1.49-2.79-2.9-1.64c-5.72,4.66-7.02,8.4-8.84,14.03c-1.7,5.23-2.53,12.78-2.07,18.36
			c1.1,13.53,20.85,6.1,28.45,4.5C225.41,127.17,224.65,124.42,222.86,124.8z"/>
	</g>
	<g>
		<path class="st7" d="M257.29,129.66c-6.47-4.08-9.96-11.74-11.38-19.03c-1.45-7.47-3.71-17.12-11.45-22.41
			c-3.19-2.18-1.87,0.36-1.54,1.83c0.07,0.3,0.13,0.53,0.19,0.73c-0.01,0.26,0.04,0.51,0.16,0.73c0.09,0.29,0.27,0.56,0.59,0.77
			c0.38,0.24,0.66,0.39,0.94,0.46c0.06,0.08,0.12,0.16,0.18,0.25c-0.51,0.21-0.9,0.67-0.85,1.26c0.05,0.59,0.11,1.17,0.16,1.76
			c0.06,0.66,0.49,1.08,0.99,1.25c0.17,0.43,0.33,0.86,0.49,1.29c0.01,0.11,0.03,0.22,0.07,0.34c1.87,5.48,3.29,11.05,4.3,16.74
			c0.1,0.54,0.4,0.84,0.77,0.96c-0.28,0.22-0.46,0.57-0.4,1.09c0.14,1.17,0.31,2.32,0.52,3.46c-0.48,0.31-0.79,0.87-0.62,1.54
			c0.85,3.29,2.18,8.19,5.15,10.52c0,0.02,0,0.05,0.01,0.07c-1.62-1.19-3.01-2.65-4.04-4.53c-0.88-1.6-3.34-0.17-2.46,1.44
			c1.71,3.13,4.29,5.4,7.44,7.05c2.88,1.5,7.1,3.69,10.41,3.34c2.56-0.27,3.48-2.92,3.67-5.22
			C260.81,132.68,259.45,131.03,257.29,129.66z"/>
	</g>
	<g>
		<path class="st7" d="M237.65,129.46c3.47,0,6.27-2.81,6.27-6.27v-9.01h-12.55v9.01C231.38,126.65,234.19,129.46,237.65,129.46z"/>
	</g>
	<g>
		<path class="st7" d="M226.01,115.39c2.23-4.3,7.19-0.99,9.01,1.71c0.51,0.76-0.71,1.46-1.22,0.71c-0.99-1.45-2.34-3.08-4.27-2.93
			c-2.93,0.23-2.72,3.16-1.62,5.11c1.28,2.29,3.25,4.22,5.26,5.86c0.71,0.58-0.3,1.58-1.01,1.01
			C229.36,124.59,223.86,119.54,226.01,115.39z"/>
	</g>
	<g>
		<path class="st5" d="M229.5,121.1c-0.01-0.64-0.35-0.35-0.35-0.81c0-0.6,0.44-0.56,0.41-1.08c-0.04-0.62-0.4-0.47-0.47-1.5
			c-0.05-0.77,0.47-0.75,0.05-1.59c-0.22-0.45-3.95,0.05-4.3,0.05c0.04-0.03,0.08-0.05,0.13-0.08c0.79-0.53,1.7-0.84,2.44-1.41
			c0.25-0.2,0.1-0.59-0.2-0.63c-1.26-0.17-2.81,0.11-4.01,0.52c-1.57,0.54-2.69,1.77-4.17,2.46c-0.16,0.07-0.21,0.22-0.19,0.35
			c-0.25,0.98-0.12,3.8,0.77,4.27c1.32,0.69,6.31,1.34,7.45,1.17c0.52-0.08,1.11-0.1,1.7-0.13
			C229.29,122.45,229.51,121.78,229.5,121.1z"/>
	</g>
	<g class="st71">
		<path class="st1" d="M208.62,101.23c-0.35-1.96-0.68-3.94-2.24-5.31c-0.34-0.3-0.84,0.2-0.5,0.5c1.61,1.41,1.84,3.67,2.17,5.67
			c0.45,2.73,0.67,5.39-0.02,8.1c-0.59,2.31-1.28,4.17-2.98,5.89c-1.37,1.38-2.49,2.85-3.4,4.58c-0.21,0.4,0.4,0.76,0.61,0.36
			c1.22-2.31,3.09-3.82,4.6-5.87c1.27-1.72,1.84-4.19,2.17-6.27C209.45,106.33,209.06,103.75,208.62,101.23z"/>
	</g>
	<g class="st71">
		<path class="st1" d="M205.93,117.38c-0.61,1.44-1.22,2.89-1.83,4.33c-0.18,0.41,0.43,0.77,0.61,0.36l1.83-4.33
			C206.72,117.33,206.11,116.97,205.93,117.38z"/>
	</g>
	<g class="st71">
		<path class="st1" d="M217.7,116.39c-1.89,0.15-3.36-1.15-5.18-1.38c-1.64-0.21-3.19,0.49-4.61,1.22c-0.4,0.21-0.05,0.82,0.36,0.61
			c1.94-1,3.62-1.49,5.73-0.67c1.25,0.48,2.32,1.03,3.7,0.92C218.15,117.06,218.16,116.36,217.7,116.39z"/>
	</g>
	<g class="st71">
		<path class="st1" d="M219,122.97c-1.63,0.86-2.41,2.56-3.8,3.71c-1.68,1.39-3.81,2.05-5.86,2.68c-0.43,0.13-0.25,0.82,0.19,0.68
			c1.87-0.58,3.79-1.17,5.42-2.28c1.7-1.16,2.6-3.22,4.41-4.18C219.76,123.37,219.41,122.76,219,122.97z"/>
	</g>
	<g class="st71">
		<path class="st1" d="M237.88,98.92c-0.05-0.45-0.76-0.45-0.71,0c0.59,4.88-0.13,9.81,0.76,14.66c0.08,0.45,0.76,0.26,0.68-0.19
			C237.74,108.61,238.46,103.73,237.88,98.92z"/>
	</g>
	<g class="st71">
		<path class="st1" d="M244.63,133.52c-0.64-1.11-1.11-2.27-1.45-3.51c-0.12-0.44-0.8-0.25-0.68,0.19c0.35,1.29,0.85,2.52,1.52,3.68
			C244.24,134.27,244.85,133.91,244.63,133.52z"/>
	</g>
	<g>
		<path class="st67" d="M426.06,117.32c-0.08-0.02-0.13-0.03-0.13-0.03C425.94,117.28,425.99,117.3,426.06,117.32z"/>
	</g>
	<g>
		<path class="st5" d="M455.22,72.48c-2.42-0.51-4.84-0.97-7.27-1.37c-0.22-0.04-0.42-0.03-0.61-0.01c-1.26,0-2.58,1.07-2.17,2.7
			c1.52,6.03,1.31,9.7,2.2,15.87c0.4,2.76,10.78,1.48,10.73,0.36c-0.19-4.27-0.7-11.23-1.2-15.48
			C456.8,73.62,456.19,72.69,455.22,72.48z"/>
	</g>
	<g>
		<path class="st72" d="M450.68,85.62c0.96-0.87,2.29-1.19,3.17-2.15c1-1.08,1.21-3.71-0.9-3.38c-0.25,0.04-0.42,0.18-0.52,0.36
			c-0.91,0.15-2.06,1-2.79,1.58c-0.13-0.1-0.29-0.16-0.44-0.15c-0.84,0.07-1.79,0.55-2.57,1.23c0.17,1.61,0.33,3.23,0.5,4.85
			c0.38,0.01,0.77-0.06,1.13-0.21C449.3,87.31,449.87,86.36,450.68,85.62z"/>
	</g>
	<g>
		<path class="st5" d="M440.84,61.42c-0.94,4.81-1.99,12.81-0.43,17.41c1.24,3.63,3.42,5.1,5.21,5.23c3,0.22,5.41-1.77,7.13-3.58
			c1.49-1.57,3.29-4.05,3.8-5.13c1.5-3.18,1.41-13.3-2.95-16.36C449.47,56.09,441.09,60.15,440.84,61.42z"/>
	</g>
	<g>
		<path class="st5" d="M414.75,198.16c0.27-2.26,3.44-1.18,4.78-0.93c0.16,0.03,0.27,0.12,0.34,0.25c0.23-0.04,0.45,0.08,0.48,0.41
			c0.17,2.42,0.29,11.19,0.34,13.1c0,0.18-5.26,0.11-5.29-0.13C415.14,208.96,414.51,200.13,414.75,198.16z"/>
	</g>
	<g>
		<path class="st1" d="M400.53,214.47c0.67-0.86,3.06-1.31,3.99-1.54c2.91-0.72,6.63-2.11,9.11-3.77c1.44-0.97,0.55-0.84,2.33-0.78
			c1.51,0.05,3.07-0.16,4.54-0.12c0.63,0.02,1.53-0.12,1.66,0.88c0.13,2,0.17,3.99,0.15,5.99c0.01,1.25-0.68,1.23-0.79,1.23
			c-1.58,0.02-3.16,0.03-4.73,0.04c-0.39,0-0.5-0.97-2.2-0.85c-2.19,0.15-3.57,0.93-5.5,1c-2.02,0.07-3.57,0.06-5.62-0.08
			C401.76,216.34,398.77,216.71,400.53,214.47z"/>
	</g>
	<g>
		<path class="st7" d="M460.74,136.15c-0.03-0.76-0.52-1.5-1.29-1.68c-5.17-1.26-12.15-8.45-16.25-4.52
			c-0.61,0.58-1.28,1.49-1.94,2.57c-0.37-0.96-1.57-1.3-2.55-0.87c-0.13,0.06-0.25,0.12-0.36,0.19c-0.51-0.24-1.13-0.24-1.68,0.1
			c0-1.41-2-2.43-3.04-1.23c-0.08,0.09-0.16,0.19-0.24,0.29c-0.54-1.1-2.32-1.6-3.16-0.23c-2.3,3.73-3.7,8.25-5.03,12.64
			c-4.15,0.05-8.23,0.1-10.27,0.15c-10.37-0.58-4.66,25.14-4.59,32.31c0,0.02,0.04-0.03,0.1-0.12c0.68,8.21,1.76,16.38,3.22,24.5
			c0.13,0.73,1,1.35,1.72,1.31c3.17-0.18,6.56-0.07,9.7-0.55c1.14-0.18,2.03-0.28,2.83-1.19c1.49-1.69,0.78-4.16,0.58-6.17
			c-0.28-2.77-0.52-5.54-0.74-8.32c-0.56-7.37-0.87-14.75-0.95-22.14c8.87,0.34,20.39,0.51,23.78-0.45
			c4.46-1.26,6.75-4.35,7.74-8.77c1.24-5.53,1.92-11.24,2.56-16.87C460.94,136.71,460.87,136.4,460.74,136.15z"/>
	</g>
	<g>
		<path class="st7" d="M424.91,163.55c-0.5-1.67-0.38-3.38-0.94-5.17c-0.79-2.54-4.08-4.3-5.66-6.43c-1.77-2.38-2.83-5.12-4.29-7.68
			c-0.14-0.25-0.26-0.49-0.37-0.74c-5.43,0.04-17.47,0.09-19.3,0.13c-10.37-0.58-4.66,25.14-4.59,32.31c0,0.02,0.04-0.03,0.1-0.12
			c0.68,8.21,1.76,16.38,3.22,24.5c0.13,0.73,1,1.35,1.72,1.31c3.17-0.18,6.56-0.07,9.7-0.55c1.14-0.18,2.03-0.28,2.83-1.19
			c1.49-1.69,0.78-4.16,0.58-6.17c-0.28-2.77-0.52-5.54-0.74-8.32c-0.56-7.37-0.87-14.75-0.95-22.14
			C410.55,163.45,418,163.57,424.91,163.55z"/>
	</g>
	<path d="M437.25,144.42c1.96,0.36,3.82,1.02,5.57,1.96c0.4,0.21,0.04,0.82-0.35,0.61c-1.71-0.92-3.5-1.54-5.4-1.89
		C436.62,145.01,436.81,144.34,437.25,144.42z"/>
	<path d="M426.87,143.73c2.49,0,4.99,0,7.48,0c0.45,0,0.45,0.7,0,0.7c-2.49,0-4.99,0-7.48,0
		C426.41,144.43,426.41,143.73,426.87,143.73z"/>
	<path class="st9" d="M467.41,94.93c-1.12-2.62-4.48-4.4-8.1-6.08c-0.26-0.12-0.54-0.23-0.82-0.34c0-0.38-0.01-0.74-0.01-1.06
		c0-1.13-0.07-1.85-0.38-2.94c-0.04-0.14-0.19-0.28-0.34-0.26c-1.69,0.2-2.54,0.12-4.58,0.69c-0.78,0.22-1.38,0.67-1.91,1.23
		c-0.75-0.88-2.39-1.2-3.41-1.43c-0.52-0.12-1.43-0.42-1.76,0.16c-0.16,0.28-0.3,1.53-0.27,1.78c-2.51,0.09-4.57,0.45-6.41,1.15
		c-6.76,2.56-5.96,7.83-6.93,14.3c-1.15,7.68-3.9,14.94-5.71,22.48c-1.13,4.73-2.33,14.97,0.55,15.85c3.52,1.07,10,0.45,13.66,0.83
		c3.63,0.38,7.26,1.09,10.71,2.21c2.96,0.96,6.69,3.58,9.74,1.37c2.52-1.83,3.1-5.62,3.37-8.41c0.37-3.91,3.53-21.26,2.96-29.97
		C467.41,100.86,468.51,97.5,467.41,94.93z"/>
	<path d="M412.48,144.58c-4.85,4.19-4.35,10.93-3.66,16.69c0.05,0.45,0.76,0.45,0.71,0c-0.67-5.6-1.24-12.1,3.45-16.19
		C413.32,144.78,412.82,144.29,412.48,144.58z"/>
	<g>
		<path class="st7" d="M458.86,57.83c-0.05-0.08-0.12-0.16-0.23-0.22c-4.31-2.69-14.03-3.28-17.07,1.48
			c-0.72,1.13-1.12,2.28,0.28,2.92c1.4,0.64,3.75,0.14,5.22,0.22c2.55,0.14,4.46,0.79,5.15,3.42c0.18,0.68,0.22,2.19,0.39,2.87
			c0.33,1.35,0.69,0.37,1.57,1.61c1,1.41,0.21,3.79,1.29,4.31c1.39,0.68,1.82,0.62,2.43-0.81C460.13,68.3,463.61,61.41,458.86,57.83
			z"/>
	</g>
	<g>
		<path class="st5" d="M456.4,71.17c-0.23-0.85-0.93-1.6-1.94-1.81c-1.12-0.23-1.85,0.32-2.56,0.93c-1.11,0.96,0.42,2.27,1.67,1.9
			c-0.02,0.2-0.03,0.41-0.08,0.55c-0.26,0.73-0.77,1.31-1.4,1.82c-1.29,1.06,0.9,2.7,2.18,1.67
			C455.74,75.05,456.89,73.01,456.4,71.17z"/>
	</g>
	<g>
		<path class="st7" d="M446.86,55.88c-2.88,0.8-5.98-1.36-8.23,1.54c-0.93,1.2-1.15,2.88-1.82,4.21c-0.43,0.84-0.91,1.52-0.46,2.47
			c1.13,2.35,3.99,0.62,5.26-0.56c0.86-0.8,2.74-2.89,3.08-4.57c0.48,0,0.96,0.01,1.44,0.04c0.88,0.06,0.9-1.23,0.1-1.4
			c0.06-0.06,0.1-0.13,0.14-0.21c0.28-0.03,0.57-0.08,0.86-0.16C448.11,57,447.74,55.63,446.86,55.88z"/>
	</g>
	<g>
		<path class="st1" d="M218.02,88.07c1.23,0.93,1.77,1.19,2.98,1.33c3.99,0.46,5.74-1.26,6.66-2.77c0.01-0.02,0.42-0.91,0.44-0.93
			c-0.04-0.46-0.04-0.66-0.04-1.6c0-0.31-0.47-0.41-0.63-0.37c-1.13,0.26-2.68,0.51-3.4,1.53c-0.6,0.84-0.76,2.08-0.89,3.22
			c-0.19-1.75-0.82-3.4-2.61-4.14c-0.6-0.25-2.14-0.82-2.8-0.52c-0.56,0.26-0.68,1.23-0.74,1.98C217,86.7,217.54,87.54,218.02,88.07
			z"/>
	</g>
	<path class="st65" d="M433.27,139.9h-42.9v3.82h42.9c0.85,0,1.54-0.69,1.54-1.54v-0.73C434.81,140.6,434.12,139.9,433.27,139.9z"/>
	<path class="st9" d="M472.26,103.8c-0.66-3.05-1.76-6.96-5.99-10.6c-0.9-1.4-0.27,1.66-0.98,2.9c-0.09,0.14-0.16,0.29-0.21,0.45
		c-0.65,0.1-1.26,0.45-1.5,1.02c-0.19,0.45-0.28,0.86-0.32,1.26c-0.29,0.43-0.4,1-0.16,1.66c1.11,3.04,2.21,6.08,3.32,9.12
		c0.03,0.09,0.07,0.16,0.11,0.24c-0.8,10.51-7.94,19.1-18.2,21.86c-0.97,0.26-1.45,1.14-1.49,2.02c-0.53,0.06-1.07,0.13-1.6,0.18
		c-2.69,0.26-3.45,5.56-0.72,5.31c4.82-0.44,9.54-1.41,14.16-2.86c4.04-1.27,9.12-3.73,12.41-6.5
		C476.42,125.38,475.04,116.54,472.26,103.8z"/>
	<g>
		<path class="st5" d="M425.32,136.92c1.25-1.53,2.72-2.88,4.58-3.63c2.23-0.9,3.96-1.01,4.49-0.95c3.65,0.38,8.25,2.54,10.36,3.48
			c0.38,0.17,0.42,0.51,0.3,0.8c0.06,0.3-0.02,0.62-0.32,0.75c-2.02,0.86-4.56,1.27-7.06,1.17c-1.72-0.06-3.57-2.92-4.71-1.72
			c-0.76,0.94-1.76,2.65-2.62,3.51c-0.21,0.21-0.62,0.06-0.61-0.25c0.03-1.2,1.47-3.8,1.49-3.91c-1.12,0.98-2.07,2.17-3.25,3.1
			c-0.28,0.22-0.67,0.02-0.59-0.35c0.36-1.77,1.24-3.03,2.45-3.93c-0.34,0.18-2.87,2.44-4.24,2.54
			C425.23,137.55,425.14,137.13,425.32,136.92z"/>
	</g>
	<path class="st9" d="M448.75,136.89c-0.02-1.68,0.14-4.14-0.92-5.55c-0.69-0.92-1.88-0.83-2.4,0c-0.44-0.1-0.94-0.01-1.3,0.25
		c-0.62-0.3-1.4-0.2-1.77,0.29c-0.05-0.14-0.09-0.26-0.14-0.36c-0.03-0.07-1.28,0.01-1.8,0.06c-0.79,0.08-0.46,0.7-0.36,1.6
		c0.19,1.61,0.77,6.22,0.92,6.92c0.13,0.64,2.5,0.21,2.54,0c0.03-0.15,0.04-0.37,0.04-0.64c0.47,0.37,1.12,0.46,1.62,0.25
		c0.09,0.14,0.2,0.27,0.32,0.39c0.47,0.46,1.16,0.52,1.73,0.22c0.83-0.43,0.95-1.39,0.94-2.29
		C448.51,137.81,448.75,137.43,448.75,136.89z"/>
	<path class="st9" d="M440.9,87.35c-9.99,2.68-11.4,9.4-14.18,14.99c-3.07,6.18-5.92,12.49-6.1,19.49c-0.02,0.73,0.61,1.28,1.28,1.4
		c-0.27,0.87-0.53,1.75-0.78,2.63c-0.16,0.58,0.06,1.11,0.46,1.45c-0.15,0.36-0.3,0.73-0.45,1.09c-0.34,0.83,0.22,1.47,0.93,1.67
		c0,0.02,0,0.03,0.01,0.05c-0.01,0.31-0.02,0.63-0.01,0.96c0.04,1.63,2.29,1.9,2.8,0.38c0.3-0.89,0.38-1.23,0.44-1.81
		c3.04-5.7,5.59-11.61,7.66-17.74c0.35-1.02-0.38-1.64-1.2-1.7c0.2-0.8,6.37-18.51,8.04-19.44C441.4,89.88,442.67,86.88,440.9,87.35
		z"/>
	<path class="st65" d="M394.44,143.72h26.07c2.25,0,4.07-1.82,4.07-4.07v-21.22c0-2.25-1.82-4.07-4.07-4.07h-26.07
		c-2.25,0-4.07,1.82-4.07,4.07v21.22C390.37,141.9,392.19,143.72,394.44,143.72z"/>
	<g>
		<path class="st1" d="M451.46,87.47c-0.12-0.17-0.49-0.22-0.62-0.18c-0.19,0.06-0.32,0.25-0.39,0.35
			c-0.45,0.69-1.38,1.66-1.46,2.52c-0.06,0.67,0.44,1.54,0.83,2.19c-3.62,6.09-5.35,12.41-6.86,19.33
			c-1.49,6.79-4.87,13.47-4.29,20.55c0.03,0.37,0.3,0.57,0.59,0.61c0.11,0.42,0.68,0.75,1.12,0.36c5.23-4.56,6.93-12.16,8.72-18.56
			c1.02-3.66,2.23-7.42,2.8-11.19c0.55-3.6,0.11-7.21-0.41-10.78c0.41-0.63,0.94-1.62,1.1-2.01
			C452.92,89.93,451.73,87.87,451.46,87.47z"/>
	</g>
	<path class="st64" d="M462.73,99.43c0.18-0.41-0.42-0.77-0.61-0.35c-1.35,2.99-1.61,6.2-1.28,9.44c0.37,3.64,1.99,7.46,0.73,11.06
		c-0.15,0.43,0.53,0.61,0.68,0.19c1.05-2.96,0.15-5.92-0.37-8.89C461.21,107.04,461.12,103.06,462.73,99.43z"/>
	<path class="st64" d="M465.58,121.35c-0.73-0.34-1.47-0.66-2.2-0.99c-0.41-0.18-0.76,0.42-0.35,0.61c0.73,0.33,1.46,0.67,2.2,1
		C465.64,122.14,465.99,121.54,465.58,121.35z"/>
	<path class="st64" d="M464.78,123.67c-0.23-0.72-0.68-1.31-1.31-1.72c-0.38-0.25-0.73,0.36-0.35,0.61c0.48,0.31,0.81,0.76,0.99,1.3
		C464.24,124.29,464.92,124.1,464.78,123.67z"/>
	<path class="st64" d="M460.69,120.6c-2.09,4.51-6.73,6.41-11.21,7.76c-1.46,0.44-3.27,0.74-4.35,1.92
		c-0.77,0.85-0.7,1.98-1.95,2.58c-0.7,0.34-1.38,0.32-2.04,0.79c-0.37,0.26-0.02,0.87,0.36,0.61c1.26-0.89,2.63-0.57,3.44-2.05
		c0.45-0.82,0.68-1.6,1.54-2.08c0.54-0.3,1.14-0.47,1.72-0.65c1.27-0.39,2.55-0.75,3.8-1.19c3.84-1.35,7.54-3.49,9.3-7.34
		C461.49,120.55,460.88,120.19,460.69,120.6z"/>
	<path class="st64" d="M435.91,95.59c-1,1.07-1.74,2.31-2.21,3.69c-0.15,0.43,0.53,0.61,0.68,0.19c0.44-1.27,1.12-2.4,2.03-3.38
		C436.71,95.76,436.22,95.26,435.91,95.59z"/>
	<g>
		<path class="st7" d="M238.07,162.28c-11.19-1.9-16.13-3.49-24.7-6.97c-0.02-0.01-0.38,0.09-0.73,0.09
			c-0.04-0.01-0.08-0.02-0.11-0.02c-1.89-1.01-4.16,2.04-2.33,3.45c-0.01-0.06-0.02-0.12-0.03-0.17c0.17,0.47,0.5,0.9,0.92,1.1
			c0.07,0.03,0.14,0.07,0.21,0.1c0.58,0.27,1.2,0.32,1.76,0.15c0.04,0.01,0.08,0.01,0.12,0.01c7.78,2.6,15.65,4.93,23.61,6.92
			C239.45,167.61,240.79,162.74,238.07,162.28z"/>
	</g>
	<g>
		<path class="st7" d="M432.03,163.34c11.31-0.9,19.49-4.52,28.34-7.22c0.02-0.01,0.37,0.12,0.72,0.16c0.04,0,0.08-0.01,0.11-0.01
			c1.97-0.83,3.96,2.4,2.02,3.65c0.02-0.06,0.03-0.11,0.05-0.17c-0.21,0.45-0.57,0.86-1.02,1.01c-0.07,0.03-0.15,0.05-0.22,0.08
			c-0.6,0.21-1.23,0.21-1.76-0.01c-0.04,0-0.08,0-0.12,0c-7.98,1.9-12.13,3.57-20.24,4.84
			C437.19,166.09,429.29,163.56,432.03,163.34z"/>
	</g>
</g>
</svg>
