<?xml version="1.0" encoding="utf-8"?>
<!-- Generator: Adobe Illustrator 23.0.1, SVG Export Plug-In . SVG Version: 6.00 Build 0)  -->
<svg version="1.1" id="Layer_1" xmlns="http://www.w3.org/2000/svg" xmlns:xlink="http://www.w3.org/1999/xlink" x="0px" y="0px"
	 viewBox="0 0 487 328" style="enable-background:new 0 0 487 328;" xml:space="preserve">
<style type="text/css">
	.st0{opacity:0.1;}
	.st1{fill:#0093FD;}
	.st2{opacity:0.08;}
	.st3{fill:#F5F5F5;}
	.st4{fill:#F4F3EE;}
	.st5{fill:#E6E6E6;}
	.st6{fill:#FFD931;}
	.st7{fill:#1F263A;}
	.st8{fill:#284F4C;}
	.st9{fill:#FFFFFF;}
	.st10{fill:#B3B3B3;}
	.st11{fill:#2992FA;}
	.st12{fill:#27374D;}
	.st13{fill:#DE614B;}
	.st14{fill:#2C294C;}
	.st15{fill:#EAEAEA;}
	.st16{fill:#D6D6D6;}
	.st17{fill:#223359;}
	.st18{fill:#FCD846;}
	.st19{fill:#DADAEA;}
	.st20{fill:#E8BC05;}
	.st21{fill:#CECECE;}
	.st22{opacity:0.4;fill:#E6E6E6;}
	.st23{opacity:0.4;}
	.st24{fill:#2A2BEE;}
	.st25{fill:url(#SVGID_1_);}
	.st26{fill:url(#SVGID_2_);}
	.st27{fill:none;stroke:#2A2BEE;stroke-width:8;stroke-miterlimit:10;}
	.st28{fill:none;stroke:url(#SVGID_3_);stroke-width:8;stroke-miterlimit:10;}
	.st29{fill:none;stroke:url(#SVGID_4_);stroke-width:7;stroke-miterlimit:10;}
	.st30{fill:url(#SVGID_5_);}
	.st31{fill:url(#SVGID_6_);}
	.st32{fill:url(#SVGID_7_);}
	.st33{fill:url(#SVGID_8_);}
	.st34{fill:url(#SVGID_9_);}
	.st35{fill:url(#SVGID_10_);}
	.st36{fill:url(#SVGID_11_);}
	.st37{fill:url(#SVGID_12_);}
	.st38{fill:url(#SVGID_13_);}
	.st39{fill:url(#SVGID_14_);}
	.st40{fill:url(#SVGID_15_);}
	.st41{fill:url(#SVGID_16_);}
	.st42{fill:url(#SVGID_17_);}
	.st43{fill:url(#SVGID_18_);}
	.st44{fill:url(#SVGID_19_);}
	.st45{fill:url(#SVGID_20_);}
	.st46{fill:#F9FBFF;}
	.st47{fill:#EDF5FC;}
	.st48{fill:none;stroke:#2A2BEE;stroke-width:3;stroke-miterlimit:10;}
	.st49{fill:url(#SVGID_21_);}
	.st50{fill:url(#SVGID_22_);}
	.st51{fill:url(#SVGID_23_);}
	.st52{fill:url(#SVGID_24_);}
	.st53{fill:url(#SVGID_25_);}
	.st54{fill:#DBDBDB;}
	.st55{fill:#AF9279;}
	.st56{fill:#F7DABC;}
	.st57{fill:#027FCC;}
	.st58{fill:#747489;}
	.st59{fill:#E2B705;}
	.st60{fill:#263556;}
	.st61{fill:#E0E0E0;}
	.st62{fill:#C4C4C4;}
	.st63{fill:#006EB2;}
	.st64{fill:#B8B8C9;}
	.st65{fill:#9393AB;}
	.st66{fill:#E5B900;}
	.st67{fill:#5578A3;}
	.st68{opacity:0.3;fill:#DADAEA;}
	.st69{fill:#C6C6C6;}
	.st70{fill:#0469BC;}
	.st71{opacity:0.2;}
	.st72{fill:#C1C1C1;}
	.st73{fill:#F2F2F2;}
	.st74{opacity:0.51;fill:#E6E1FF;}
	.st75{fill:#709FE0;}
	.st76{fill:#5183BF;}
	.st77{fill:#D1D1D1;}
	.st78{fill:#D6AE05;}
	.st79{fill:#DCDAE0;}
	.st80{fill:#F3F3F5;}
	.st81{fill:#D9924E;}
	.st82{fill:#C2C2ED;}
	.st83{fill:#636375;}
	.st84{fill:#543237;}
	.st85{fill:#3F3E66;}
	.st86{fill:#585866;}
	.st87{fill:#A04B40;}
	.st88{fill:#B7743D;}
	.st89{fill:#0074D3;}
</style>
<g class="st2">
	<path class="st1" d="M297.96,48.93c-8.19,0.31-15.54,5.76-19.97,12.66c-4.43,6.9-6.35,15.09-7.61,23.19
		c-1.51,9.69-2.33,19.93-7.7,28.15c-6.51,9.96-18.3,14.87-27.48,22.44c-14.61,12.06-22.37,31.34-22.21,50.28s7.74,37.39,19.32,52.38
		c12.81,16.57,30.9,29.38,51.3,34.1c20.4,4.72,43.02,0.85,59.63-11.91c16.96-13.03,28.41-35.03,49.27-39.76
		c13.98-3.17,29.07,2.52,42.73-1.84c14.76-4.71,23.63-19.85,28.06-34.7c8.3-27.83,5.47-58.82-7.73-84.69
		c-6.66-13.05-16.42-25.25-29.91-30.95c-15.34-6.49-32.76-3.68-49.42-3.44c-26.3,0.38-45.69-17.67-78.03-15.93"/>
</g>
<g>
	<g>
		<rect x="191.1" y="67.75" class="st7" width="4.25" height="9.27"/>
	</g>
	<g>
		<rect x="186.84" y="58.01" class="st1" width="4.25" height="19.02"/>
	</g>
	
		<rect x="195.35" y="55.71" transform="matrix(-1 -4.447166e-11 4.447166e-11 -1 394.9539 132.7406)" class="st19" width="4.25" height="21.31"/>
	<g>
		<rect x="165.17" y="67.75" class="st7" width="4.25" height="9.27"/>
	</g>
	<g>
		<rect x="160.92" y="50.97" class="st1" width="4.25" height="26.05"/>
	</g>
	
		<rect x="169.43" y="69.89" transform="matrix(-1 -4.532697e-11 4.532697e-11 -1 343.1093 146.9173)" class="st19" width="4.25" height="7.14"/>
	<g>
		<rect x="131.95" y="54.81" class="st7" width="4.25" height="22.22"/>
	</g>
	<g>
		<rect x="127.69" y="74.89" class="st1" width="4.25" height="2.14"/>
	</g>
	
		<rect x="136.2" y="56.62" transform="matrix(-1 -4.447121e-11 4.447121e-11 -1 276.6578 133.6487)" class="st19" width="4.25" height="20.4"/>
	
		<rect x="127.69" y="77.03" transform="matrix(-1 -4.484913e-11 4.484913e-11 -1 327.2981 154.6635)" class="st14" width="71.91" height="0.61"/>
	<g>
		<rect x="190.49" y="87.9" class="st7" width="4.25" height="22.8"/>
	</g>
	
		<rect x="186.24" y="91.68" transform="matrix(-1 -4.489843e-11 4.489843e-11 -1 376.7341 202.3826)" class="st19" width="4.25" height="19.02"/>
	<g>
		<rect x="164.57" y="101.43" class="st7" width="4.25" height="9.27"/>
	</g>
	<g>
		<rect x="194.75" y="84.65" class="st1" width="4.25" height="26.05"/>
	</g>
	
		<rect x="168.83" y="103.56" transform="matrix(-1 -4.447166e-11 4.447166e-11 -1 341.905 214.2637)" class="st19" width="4.25" height="7.14"/>
	<g>
		<rect x="131.35" y="99.78" class="st7" width="4.25" height="10.92"/>
	</g>
	<g>
		<rect x="127.09" y="108.56" class="st1" width="4.25" height="2.14"/>
	</g>
	<g>
		<rect x="160.32" y="106.06" class="st1" width="4.25" height="4.64"/>
	</g>
	
		<rect x="135.6" y="100.68" transform="matrix(-1 -4.575463e-11 4.575463e-11 -1 275.4536 211.3764)" class="st19" width="4.25" height="10.02"/>
	
		<rect x="127.09" y="110.7" transform="matrix(-1 -4.489976e-11 4.489976e-11 -1 326.0938 222.0099)" class="st14" width="71.91" height="0.61"/>
	<g>
		<g>
			<path class="st7" d="M238.65,246.58c-0.15-12.29-0.3-24.57-0.44-36.86c-0.01-0.78,1.23-0.78,1.24,0
				c0.14,10.7,0.26,21.4,0.39,32.1c0.06,5.15,0.12,10.3,0.19,15.46c0.03,2.77,0.07,5.55,0.1,8.32c0.01,1.1-0.13,2.48,0.04,3.57
				c-0.3,1.23,0.25,2.05,1.64,2.47c0.41,0.14,0.83,0.27,1.24,0.41c0.6-9.62,0.29-19.25,0.24-28.88
				c-0.06-10.19,0.03-20.39,0.26-30.58c0.02-0.78,1.25-0.78,1.23,0c-0.21,10.19-0.31,20.38-0.25,30.58
				c0.06,9.91,0.39,19.82-0.28,29.71c-0.03,0.37-0.38,0.72-0.79,0.59c-1.51-0.5-3.64-0.73-4.4-2.24c-0.83-1.64-0.18-5.01-0.2-6.82
				C238.79,258.47,238.72,252.52,238.65,246.58z"/>
		</g>
		<g>
			<path class="st7" d="M202.74,246.58c-0.15-12.29-0.3-24.57-0.44-36.86c-0.01-0.78,1.23-0.78,1.24,0
				c0.14,10.7,0.26,21.4,0.39,32.1c0.06,5.15,0.12,10.3,0.19,15.46c0.03,2.77,0.07,5.55,0.1,8.32c0.01,1.1-0.13,2.48,0.04,3.57
				c-0.3,1.23,0.25,2.05,1.64,2.47c0.41,0.14,0.83,0.27,1.24,0.41c0.6-9.62,0.29-19.25,0.24-28.88
				c-0.06-10.19,0.03-20.39,0.26-30.58c0.02-0.78,1.25-0.78,1.23,0c-0.21,10.19-0.31,20.38-0.25,30.58
				c0.06,9.91,0.39,19.82-0.28,29.71c-0.03,0.37-0.38,0.72-0.79,0.59c-1.51-0.5-3.64-0.73-4.4-2.24c-0.83-1.64-0.18-5.01-0.2-6.82
				C202.88,258.47,202.81,252.52,202.74,246.58z"/>
		</g>
		<g>
			<path class="st7" d="M250.72,219.51c-0.17,3.03-2.08,4.88-6.06,4.88c-11.22,0-18.35,0.54-29.56-0.06
				c-2.8-0.15-15.43-0.18-19.08-0.55c-2.67-0.28-3.53-0.5-3.68-4.43c-0.1-2.64-0.09-7.02,0.32-9.58c0.16-1.03,0.43-2.06,1.23-2.68
				c1.18-0.91,3.43-0.83,4.75-0.97c1.49-0.16,2.98-0.26,4.47-0.31c0.01-1.33,0.02-2.48,0.01-3.3c-0.28-4.46,1.44-5.99,2.19-6.47
				c9.79-6.25,20.89-6.92,32.28-5.2c2.58,0.39,5.19,0.88,7.68,1.99c1.76,0.78,4.29,1.78,5.04,4.52
				C251.21,200.62,250.97,215,250.72,219.51z"/>
		</g>
	</g>
	<g>
		<path class="st7" d="M233.49,256.32c-0.05,0.06-0.08,0.12-0.11,0.18c-0.23-0.12-0.54-0.11-0.73,0.16
			c-0.93,1.25-1.05,2.58-0.57,4.06c0.36,1.11,1.09,2.04,1.69,3.04c0.81,1.36,1.15,2.72,1.58,4.22c0.4,1.38,3.79,7.35,5.97,5.06
			c0.98-1.03,0.81-3.85,0.48-5.13c-0.6-2.35-1.7-3.96-2.54-6.14C238.73,260.42,235.61,253.92,233.49,256.32z"/>
	</g>
	<g>
		<path class="st1" d="M237.46,155.91c9.96,4.71,10.95,19.33,13.1,28.62c1.32,5.71,3.08,11.52,3.68,17.36
			c0.13,1.29,0.24,2.37-0.99,3.07c-2.07,1.16-6.17,0.67-8.46,0.62c-1.6-0.03-1.6-2.46,0-2.44c0.12,0,0.26,0.01,0.41,0.02
			c-0.02-0.07-0.04-0.15-0.05-0.22c-0.38-0.17-0.67-0.53-0.65-1.06c0.02-0.54,0.03-1.07,0.05-1.61c0.02-0.55,0.38-0.94,0.83-1.1
			c-0.03-0.1-0.06-0.2-0.07-0.31c-0.76-6.12-0.81-12.31-2.1-18.34c-0.15-0.64-0.3-1.27-0.45-1.91c-0.09-0.39-0.01-0.72,0.18-0.97
			c-0.5-3.84-0.94-7.68-1.33-11.53c-0.02-0.17,0-0.33,0.05-0.46c-0.07-0.18-0.14-0.37-0.21-0.55c-0.28-0.7,0.14-1.21,0.7-1.38
			c-1.43-2.44-3.32-4.46-5.92-5.69C234.78,157.32,236.03,155.23,237.46,155.91z"/>
	</g>
	<g>
		<path class="st1" d="M188.73,195.95c2.27-8.22,4.66-16.41,7.21-24.55c1.98-6.32,3.59-13.81,9.98-17.26
			c1.39-0.75,2.63,1.33,1.25,2.09c-3.4,1.87-5.38,5.23-6.79,8.93c0.64,0.12,1.22,0.68,1.05,1.48c-1.04,4.97-2.1,9.93-3.15,14.89
			c-0.69,3.23-1.14,6.67-2.2,9.85c-0.16,0.6-0.35,1.19-0.57,1.77c0.48,0.03,0.94,0.3,1.09,0.86c0.25,0.95,0.27,2.16-0.24,2.98
			c0.45-0.28,1.05-0.33,1.55,0.09c0.17,0.14,0.34,0.29,0.52,0.43c0.78,0.65,0.18,2.2-0.88,2.09c-2.91-0.31-5.6-1.05-8.25-2.28
			C188.81,197.1,188.6,196.44,188.73,195.95z"/>
	</g>
	<g>
		<path class="st5" d="M235.82,256.39c1.18,2.3,2.61,5.24,3.48,7.67c0.47,1.31,1.14,2.73-0.4,3.41c-1.51,0.67-1.85-0.05-2.71-1.34
			c-1.35-2.02-3.05-4.24-3.82-6.55c-0.12-0.37,0.48-0.48,0.61-0.12c0.04,0.13,0.09,0.25,0.14,0.37c-0.02-0.09-0.04-0.18-0.05-0.27
			c-0.03-0.27,0.35-0.53,0.54-0.26c0.05,0.07,0.09,0.14,0.14,0.21c0.05-0.06,0.13-0.1,0.21-0.11c0.04-0.16,0.19-0.26,0.34-0.24
			c-0.09-0.26,0.15-0.46,0.36-0.42c-0.02-0.06-0.04-0.13-0.07-0.19c-0.14-0.36,0.37-0.62,0.55-0.27c-0.01-0.02-0.01-0.04-0.02-0.06
			c-0.01-0.03-0.02-0.06-0.03-0.08c-0.11-0.33,0.45-0.5,0.58-0.19c0.07,0.15,0.14,0.3,0.21,0.45c-0.06-0.17-0.12-0.34-0.18-0.51
			c-0.01-0.04-0.02-0.06-0.03-0.09c-0.04-0.13,0.02-0.23,0.11-0.29c-0.04-0.09-0.09-0.19-0.13-0.29
			C235.48,256.88,235.64,256.03,235.82,256.39z"/>
	</g>
	<g>
		<path class="st5" d="M210.12,162.48c-1.23-0.56-0.46-2.17,0.63-2.27c0.09-0.01,0.17-0.02,0.26-0.02
			c-0.17-0.45-0.07-1.03,0.27-1.34c0.05-0.05,0.11-0.09,0.17-0.14c-0.37-0.62-0.11-1.54,0.71-1.82c0.08-0.03,0.16-0.05,0.24-0.08
			c-0.11-0.48,0.04-1.03,0.53-1.33c-0.48-0.42-0.6-1.13-0.08-1.73c1.79-2.05,4.26-2.59,6.94-2.37c2.27,0.19,5.65,0.44,7.34,2.13
			c0.55,0.55,0.86,1.29,0.78,1.96c0.77,0.46,0.79,1.65-0.02,2.09c-0.12,0.06-0.24,0.11-0.36,0.17c0.09,0.36-0.05,0.87-0.33,1.1
			c-0.03,0.03-0.08,0.05-0.11,0.08c0.4,0.54,0.41,1.25-0.1,1.69c0.76,0.23,1.49,0.54,2.16,0.99c0.57,0.38,0.71,1.04,0.47,1.55
			c0.07,0.55-0.19,1.1-0.88,1.2c-0.24,0.03-0.48,0.06-0.72,0.1c0.63,0.18,1.25,0.39,1.85,0.65c1.13,0.49,0.56,2.35-0.63,2.27
			c-0.14,0.15-0.34,0.26-0.6,0.32c-5.44,1.13-10.84,0.87-16.12-0.85c-0.47-0.15-0.74-0.51-0.84-0.9c-0.12-0.01-0.23-0.01-0.35-0.02
			c-1.5-0.14-1.61-2.2-0.18-2.41c-0.23-0.2-0.38-0.48-0.43-0.77C210.5,162.64,210.31,162.56,210.12,162.48z"/>
	</g>
	<g>
		<path class="st7" d="M220.87,259.19c0.08,0.01,0.14,0.04,0.2,0.07c0.1-0.24,0.33-0.43,0.66-0.36c1.54,0.34,2.53,1.25,3.17,2.68
			c0.48,1.07,0.56,2.24,0.78,3.37c0.31,1.55,0.98,2.79,1.66,4.19c0.63,1.3,2.11,7.97-1.07,7.67c-1.43-0.14-3.2-2.36-3.82-3.53
			c-1.14-2.15-1.4-4.07-2.24-6.25C219.71,265.67,217.67,258.77,220.87,259.19z"/>
	</g>
	<path class="st18" d="M202.88,211.97c0.44-4.99,1.8-10,2.75-14.92c0.36-1.87,0.4-4.02,2.39-4.89c1.75-0.77,4.27-0.52,6.14-0.6
		c5.65-0.25,11.29-0.09,16.92,0.39c0.82-0.98,2.83-0.7,2.74,0.88c-0.29,5.33,2.18,10.24,2.66,15.5c0.33,3.58,0.5,10.27-2.78,12.73
		c-3.15,2.36-8.57,2.42-12.38,2.5c-4.42,0.1-9.57,0.21-13.56-1.96C204.08,219.58,202.52,216.02,202.88,211.97z"/>
	<g>
		<path class="st5" d="M123.05,275.21c-0.03,0.21-4.62,0.27-4.62,0.11c0.04-1.64,0.15-9.14,0.3-11.22c0.02-0.28,0.22-0.38,0.42-0.35
			c0.06-0.1,0.16-0.19,0.3-0.21c1.17-0.21,3.94-1.14,4.18,0.8C123.81,266.02,123.26,273.58,123.05,275.21z"/>
	</g>
	<g>
		<path class="st5" d="M218.13,140.23c1.87-0.67,3.75-1.31,5.64-1.89c0.17-0.05,0.33-0.07,0.48-0.07c1-0.13,2.15,0.66,1.98,2.1
			c-0.62,5.31-0.11,10.59-0.22,15.96c-0.05,2.4-8.41,0.17-8.48-0.79c-0.26-3.67-0.53-9.67-0.55-13.36
			C216.99,141.36,217.38,140.5,218.13,140.23z"/>
	</g>
	<g>
		<path class="st7" d="M204.1,185.92c0.78-0.33,1.55-0.59,2.32-0.78c-0.05-0.41,0.16-0.87,0.51-1.17c-0.21-0.06-0.41-0.12-0.62-0.18
			c-1.41-0.41-1.02-2.26,0.33-2.39c0.15-0.02,0.3-0.02,0.44-0.04c0.07-0.04,0.14-0.08,0.23-0.1c-0.26-0.23-0.36-0.57-0.33-0.9
			c-0.36-0.02-0.72-0.05-1.08-0.07c-1.59-0.09-1.61-2.42,0-2.44c0.58-0.01,1.16-0.01,1.74-0.01c-1.31-0.36-1.06-2.45,0.35-2.38
			c0.5,0.02,1,0.04,1.51,0.06c-0.19-0.2-0.3-0.46-0.34-0.73c-0.34-0.03-0.69-0.06-1.03-0.09c-1.57-0.14-1.62-2.39,0-2.43
			c1.69-0.05,3.38-0.09,5.07-0.12c-1.49-0.31-2.97-0.65-4.45-1.02c-1.07-0.27-1.12-1.73-0.36-2.23c-0.17-0.71,0.29-1.63,1.18-1.62
			l0.18,0c-0.4-0.55-0.32-1.4,0.25-1.76c-0.28-0.11-0.56-0.22-0.84-0.34c-0.12-0.05-0.22-0.09-0.32-0.13
			c-1.3-0.56-0.37-2.58,0.95-2.22c6.89,1.9,13.9,1.92,20.81,0.07c1.53-0.41,2.19,1.91,0.67,2.33c0.38,0.68,0.03,1.82-1.04,1.93
			c-0.15,0.02-0.31,0.03-0.46,0.04c0.55,0.12,1.09,0.24,1.63,0.38c1.35,0.34,1.08,2.41-0.33,2.39c-1.06-0.01-2.12-0.03-3.18-0.04
			l3.61,0.53c0.87,0.13,1.06,1.08,0.74,1.75c0.82,0.62,0.59,2.2-0.72,2.19c-0.81,0-1.61,0-2.42,0c0.59,0.19,1.16,0.44,1.67,0.75
			c1.1,0.67,0.57,2.16-0.63,2.27c-1.48,0.14-2.96,0.24-4.44,0.34c1.37,0.12,2.73,0.24,4.07,0.39c1.45,0.16,1.62,2.2,0.29,2.42
			c0.03,0.01,0.07,0.02,0.1,0.03c0.44,0.12,0.71,0.39,0.82,0.69c1.17,0.29,2.33,0.64,2.86,1.79c0.36,0.8-0.05,1.86-1.07,1.83
			c-0.88-0.03-1.75-0.07-2.63-0.12c0.53,0.71,0.12,1.96-0.98,1.97c-0.21,0-0.41,0-0.62,0c0.82,0.23,1.63,0.48,2.44,0.77
			c1.24,0.44,1.16,2.46-0.33,2.39c-4.78-0.22-9.55-0.43-14.33-0.65c-3.86-0.17-8.26,0.19-11.95-1.11
			C203.51,187.84,203.03,186.38,204.1,185.92z"/>
	</g>
	<path class="st62" d="M220.33,143.65c0.64-0.06,1.3,0.32,1.15,1.13c-0.1,0.56-0.59,0.82-0.94,1.16c-0.59,0.57-0.91,1.34-1.45,1.95
		c-0.53,0.6-1.21,0.89-1.92,1.05c-0.06-1.44-0.12-3.67-0.15-5C216.82,143.89,218.09,143.86,220.33,143.65z"/>
	<g>
		<path class="st5" d="M210.03,137.54c-0.82-0.49-1.99-1.27-1.57-2.26c0.27-0.63,1.52-2.72,1.74-3.16c0.35-1.65,0.76-3.93,1.12-5.77
			c0.43-2.24,2.27-2.74,4.04-4.06c1.8-0.52,9.25,0.08,10.42,1.82c3.48,5.16,2.3,9.66-0.23,14.97c-0.44,0.93-1.77,3.03-2.56,3.99
			c-1.37,1.68-8.08,2.5-10.58,1.7c-1.55-0.5-2.13-2.57-2.37-5.33c-0.05-0.57-0.03-0.84-0.03-1.44
			C210,137.64,210.02,137.89,210.03,137.54z"/>
	</g>
	<path class="st9" d="M206.86,206.29c-0.03-1.04,0.23-2.28,0.25-3.29c0.01-0.98,1.27-5.12,2.05-6.14c0.33-0.43-1.88-5.41-1.57-7.1
		c0.19-1.02,2.82,0.76,3.12,0.89c-1.19-6.43,2.46,6.21,2.5,6.36c0.39,1.35,1.3,2.46,1.54,3.86c0.19,1.07,0.21,2.41-0.11,3.46
		c-0.07,0.24-0.43,0.32-0.57,0.08c-0.39-0.7-0.54-1.51-0.88-2.25c-0.02-0.04-0.03-0.08-0.05-0.12c-0.05,0.3-0.11,0.59-0.17,0.73
		c-0.26,2.08,0.27,4.57,0.31,6.67c0.01,0.3-0.46,0.39-0.59,0.12c-0.41-0.88-0.89-2.89-1.15-3.8c0.01,0.34,0.03,0.68,0.06,1.02
		c0.1,1.01,0.69,2.9,0.56,3.91c-0.03,0.23-0.37,0.42-0.54,0.19c-0.69-0.98-1.17-3.3-1.43-4.45c-0.08-0.35-0.21-0.75-0.32-1.16
		c0,0.32-0.2,1.59-0.2,1.76c0.05,1.12,0.45,2.04,0.5,3.17c0.01,0.29-0.46,0.7-0.69,0.24c-0.84-1.72-1.11-3.81-1.19-5.69
		c-0.13,1.17-0.28,2.2-0.13,3.38c0.11,0.84,0.2,1.09,0.05,1.45c-0.08,0.2-0.44,0.19-0.54-0.03
		C207.01,208.04,206.9,207.93,206.86,206.29z"/>
	<path class="st9" d="M211.65,208.74c1.02-0.3,2.14-0.94,3.11-1.27c0.95-0.32,4.56-2.79,5.3-3.84c0.21-0.29,8.56-3.66,9.95-5.45
		c1.94-2.5-3.03-4.06-3.37-4.44c-0.04-0.11-7.85,6.15-8,6.15c-1.43,0.06-2.79-0.43-4.22-0.22c-1.09,0.16-2.4,0.56-3.31,1.19
		c-0.21,0.15-0.18,0.5,0.1,0.55c0.8,0.15,1.63,0.02,2.46,0.11c0.04,0,0.09,0.01,0.13,0.01c-0.27,0.14-0.53,0.29-0.65,0.38
		c-1.93,0.9-4.5,1.18-6.55,1.81c-0.29,0.09-0.23,0.55,0.07,0.58c0.98,0.1,3.07-0.08,4.04-0.12c-0.33,0.09-0.67,0.19-1.01,0.27
		c-1.01,0.23-3.02,0.27-3.96,0.71c-0.21,0.1-0.29,0.48-0.01,0.56c1.17,0.34,3.56,0.05,4.75-0.07c0.36-0.04,0.79-0.04,1.22-0.07
		c-0.31,0.1-1.48,0.69-1.64,0.74c-1.1,0.31-2.12,0.22-3.22,0.53c-0.29,0.08-0.53,0.65-0.01,0.71c1.93,0.24,4.04-0.17,5.88-0.69
		c-1.09,0.49-2.04,0.95-3.23,1.18c-0.85,0.16-1.12,0.16-1.42,0.41c-0.17,0.14-0.05,0.47,0.2,0.49
		C209.9,209.15,210.04,209.21,211.65,208.74z"/>
	<g>
		<path class="st1" d="M225.94,152.72c0.08-0.85-0.2-2.02,2.38-1.24c3.97,1.19,8.89,2.83,11.4,6.23c2.79,3.79,3.73,8.94,4.19,13.49
			c0.61,5.95,0.83,11.95,1.22,17.92c0.37,5.56,0.78,11.13,0.5,16.71c-0.16,3.18,0.07,8.39-3.11,10.4c-3.26,2.06-7.23-0.48-9.22-3.02
			c-2.92-3.72-4.72-8.86-5.35-13.45c-0.44-3.13-0.39-6.29-0.46-9.44C225.36,177.89,224.82,165.29,225.94,152.72z"/>
	</g>
	<g>
		<path class="st1" d="M195.8,189.38c0.73-4.6,1.67-9.18,2.25-13.8c0.52-4.1,1.89-9.79,2.56-13.86c1.23-7.43,6.72-9.75,13.69-10.89
			c2.97-0.49,2.65,0.51,2.53,1.56c-1.19,10.12-2.47,20.26-4.56,30.24c-1.07,5.09-2.35,10.13-3.97,15.08
			c-1.32,4.01-3.26,11.23-5.63,14.35c-1.28,1.69-4.04,1.58-5.99-0.25c-2.21-2.07-1.98-6.83-2.03-9.53
			C194.58,197.96,195.12,193.65,195.8,189.38z"/>
	</g>
	<g>
		<path class="st7" d="M211.8,124.97c1.78-2.96,4.56-3.5,9.7-3.5c5.34,0,7.93,3.71,8.43,8c0.35,1.98,0.38,3.98,0,5.98
			c-0.11,0.58-0.28,1.33-0.5,2.12c0.36,0.23,0.75,0.43,1.08,0.67c0.56,0.42,1.05,0.88,1.48,1.43c0.84,1.06,1.47,2.41,1.41,3.77
			c-0.11,2.63-3.05,3.98-5.36,2.98c-1.97-0.85-2.87-2.76-3.01-4.74c-1.27-0.83-2.24-2.98-2.55-4.68c-0.18,0-0.35,0.01-0.52,0.02
			c-0.13-0.97-0.31-1.7-0.47-2.03c-0.74-0.16-1.97-0.39-2.26-0.63c-0.25-0.2-2.22-1.7-3.47-4.22c-0.51-1.04-1-2.21-1.96-2.88
			C211.98,126.01,211.58,125.33,211.8,124.97z"/>
	</g>
	<g>
		<path class="st5" d="M219.44,138.65c1.13,0.83,1.7-0.91,1.72-1.72c0.01-0.44-0.05-1.02-0.29-1.4c-0.28-0.44-0.91-0.43-1.09,0.12
			c-0.24,0.74-1.4,0.43-1.19-0.32c0.24-0.85,1.32-1.63,2.24-1.37c1.06,0.29,1.46,1.59,1.54,2.53c0.1,1.09-0.18,2.38-1.07,3.11
			c-0.8,0.65-1.81,0.63-2.61,0.01C218.15,139.18,218.88,138.24,219.44,138.65z"/>
	</g>
	<g>
		<path class="st7" d="M133.47,280.01c-1.79,0.12-3.14,0.13-4.91,0.07c-1.68-0.05-2.89-0.72-4.8-0.85c-1.49-0.1-1.59,0.73-1.92,0.73
			c-1.37-0.01-2.75-0.02-4.13-0.04c-0.1,0-0.7,0.02-0.69-1.05c-0.02-1.71,0.02-3.42,0.13-5.13c0.11-0.86,0.9-0.74,1.45-0.75
			c1.29-0.04,2.64,0.15,3.96,0.1c1.55-0.05,0.78-0.16,2.04,0.67c2.16,1.42,5.41,2.61,7.95,3.23c0.81,0.2,2.89,0.59,3.48,1.32
			C137.56,280.23,134.95,279.91,133.47,280.01z"/>
	</g>
	<g>
		<path class="st5" d="M151.66,272.66c0.09,0.2-3.85,2.53-3.92,2.4c-0.81-1.43-4.6-7.95-5.55-9.81c-0.13-0.25-0.01-0.44,0.18-0.51
			c0-0.12,0.04-0.24,0.15-0.33c0.9-0.77,2.81-2.95,4.01-1.39C147.57,264.36,151,271.15,151.66,272.66z"/>
	</g>
	<g>
		<path class="st63" d="M241.67,161.4c0.05-0.38,0.66-0.39,0.62,0c-0.37,3.07-1.77,5.88-1.75,9.01c0.03,3.5,0.89,7.04,1.51,10.47
			c1.16,6.38,2.35,12.77,2.64,19.26c0.02,0.39-0.6,0.39-0.62,0c-0.32-6.82-1.62-13.53-2.83-20.24c-0.55-3.03-1.24-6.12-1.32-9.2
			C239.85,167.44,241.28,164.58,241.67,161.4z"/>
	</g>
	<g>
		<path class="st63" d="M194.38,196.03c1.77-5.62,3.56-11.23,5.33-16.85c0.85-2.67,1.89-5.37,2.45-8.12c0.33-1.63,0.31-3.08,0-4.7
			c-0.23-1.23-0.49-2.38-0.4-3.64c0.03-0.38,0.64-0.39,0.61,0c-0.18,2.51,0.9,4.85,0.56,7.4c-0.39,2.94-1.56,5.82-2.46,8.65
			c-1.84,5.81-3.67,11.62-5.52,17.42C194.85,196.56,194.26,196.41,194.38,196.03z"/>
	</g>
	<g>
		<path class="st7" d="M162.04,279.1c-1.79,0.12-3.14,0.13-4.91,0.07c-1.68-0.05-2.89-0.72-4.8-0.85c-1.49-0.1-1.59,0.73-1.92,0.73
			c-1.37-0.01-2.75-0.02-4.13-0.04c-0.1,0-0.7,0.02-0.69-1.05c-0.02-1.71,0.02-3.42,0.13-5.13c0.11-0.86,0.9-0.74,1.45-0.75
			c1.29-0.04,2.64,0.15,3.96,0.1c1.55-0.05,0.78-0.16,2.04,0.67c2.16,1.42,5.41,2.61,7.95,3.23c0.81,0.2,2.89,0.59,3.48,1.32
			C166.12,279.32,163.51,279,162.04,279.1z"/>
	</g>
	<g>
		<path class="st7" d="M84.51,195.32c0.11-1.12,1.51-2.01,2.6-0.98c1.93,1.82,4.14-0.44,5.39-0.01c0.56-0.74,5.35-3.93,5.58-2
			c0.34,2.84,3.95,11.25,5.89,13.09c3.14,2.98,18.82,11.58,23.98,15.11c5.41,3.7,8.75,13.89,12.54,22.7
			c3.13,7.28,7.26,14.01,10.46,21.28c0.46,1.06-0.07,2.23-1.34,2.29c-2.38,0.1-4.75,0.19-7.13,0.29c-1.94,0.08-3.74,0.32-5.33-0.97
			c-2.78-2.26-4.62-6.28-6.34-9.34c-4.42-7.9-8.72-15.58-14.51-22.63c-5.56-6.77-11.76-13-18.05-19.11
			c-3.03-2.94-6.09-5.86-9.11-8.81c-2.79-2.71-5.86-5.32-6.87-9.19C81.93,195.69,83.38,194.76,84.51,195.32z"/>
	</g>
	<g>
		<path class="st7" d="M67.37,194.32c0-0.11-0.01-0.21-0.02-0.32c-0.05-1.45,1.92-1.95,2.75-1.02c0.78-0.59,2.03-0.5,2.38,0.74
			c0.18,0.62,0.35,1.25,0.52,1.87c0.45-0.01,0.91,0.16,1.22,0.56c0.69-0.42,1.69-0.37,2.17,0.48c0.01,0.02,0.02,0.03,0.03,0.05
			c0.15-0.67,0.79-1.16,1.45-1.25c-0.02-1.32,2.22-2.06,2.94-0.7c0.03,0.06,0.06,0.12,0.1,0.19c0.25-1.21,2.03-1.69,2.85-0.49
			c0.31,0.03,0.62,0.16,0.87,0.44c0.8,0.89,1.62,1.76,2.45,2.61c0.42-0.06,0.87,0.03,1.27,0.37c0.07,0.06,0.15,0.13,0.22,0.19
			c-0.04-1.3-0.74,0.59,0.17,1.97c4.08,6.18,13.51,6.79,20.08,9.89c2.97,1.4,6.59,2.63,9.05,4.84c2.34,2.1,2.84,5.15,3.42,8.06
			c3.08,15.25,4.88,30.73,5.46,46.26c0.03,0.85-0.74,1.48-1.55,1.52c-3.58,0.19-4.75,0.23-8.33,0.42c-0.67,0.04-1.33-0.5-1.5-1.12
			c-4.15-15.21-10.96-31.17-12.4-42.78c-0.6-0.01-20.83-1.17-28.13-4.19c-3.93-1.63-5.68-8.33-6.78-12.13
			c-1.41-4.89-2.06-9.94-2.05-15.02C66.02,194.87,66.67,194.4,67.37,194.32z"/>
	</g>
	<path class="st19" d="M279.79,183.97c0.19-1.7-0.07-2.97,0.55-4.67c0.5-1.39,1.23-2.69,1.92-3.99c1.65-3.12,2.56-6.04,3.09-9.5
		c0.89-5.86,4.24-12.07,11.71-14.52c1.89-0.62,0.13,4.07-1.74,4.69c-5,1.65-6.26,6-6.97,10.64c-0.31,2.03-0.79,3.83-1.41,5.58
		c1.13-0.35,2.52,0.85,1.84,2.22c-0.17,0.35-0.33,0.7-0.49,1.05c0.53,0.17,0.95,0.63,0.97,1.39c0.09,3.57-0.29,7.08-0.86,10.6
		c-0.34,2.08-0.22,4.85-2.75,5.32c-2.14,0.4-5.04-0.21-6.42-1.95C277.2,188.27,279.5,186.57,279.79,183.97z"/>
	<path class="st19" d="M321.73,183.67c-0.34-0.77-0.46-1.65-0.49-2.5c-0.03-0.92,0.79-1.3,1.52-1.12c-0.25-0.59-0.5-1.18-0.74-1.77
		c-0.54-1.28,1.63-2.15,2.27-0.94c0.15,0.28,0.32,0.64,0.49,1.04c0.07,0.13,0.14,0.27,0.22,0.42c-0.24-0.72-0.48-1.43-0.71-2.15
		c-0.37-1.16-2.61-14.08-5.65-16.79c-1.18-1.05,3.1-4.02,4.28-2.99c2.88,2.51,5.36,5.84,6.29,9.41c1.13,4.3,2.98,8.49,3.74,12.87
		c0.48,2.79,1.35,6.37-1.28,8.38c-2.86,2.19-6.42,0.77-9.25-0.64c-0.65-0.32-0.74-0.93-0.51-1.43
		C321.25,185.03,321.27,184.19,321.73,183.67z"/>
	<g>
		<g>
			<path class="st7" d="M309.15,250.31c-0.15-12.29-0.3-24.57-0.44-36.86c-0.01-0.78,1.23-0.78,1.24,0
				c0.14,10.7,0.26,21.4,0.39,32.1c0.06,5.15,0.12,10.3,0.19,15.46c0.03,2.77,0.07,5.55,0.1,8.32c0.01,1.1-0.13,2.48,0.04,3.57
				c-0.3,1.23,0.25,2.05,1.64,2.47c0.41,0.14,0.83,0.27,1.24,0.41c0.6-9.62,0.29-19.25,0.24-28.88
				c-0.06-10.19,0.03-20.39,0.26-30.58c0.02-0.78,1.25-0.78,1.23,0c-0.21,10.19-0.31,20.38-0.25,30.58
				c0.06,9.91,0.39,19.82-0.28,29.71c-0.03,0.37-0.38,0.72-0.79,0.59c-1.51-0.5-3.64-0.73-4.4-2.24c-0.83-1.64-0.18-5.01-0.2-6.82
				C309.29,262.2,309.22,256.25,309.15,250.31z"/>
		</g>
		<g>
			<path class="st7" d="M273.23,250.31c-0.15-12.29-0.3-24.57-0.44-36.86c-0.01-0.78,1.23-0.78,1.24,0
				c0.14,10.7,0.26,21.4,0.39,32.1c0.06,5.15,0.12,10.3,0.19,15.46c0.03,2.77,0.07,5.55,0.1,8.32c0.01,1.1-0.13,2.48,0.04,3.57
				c-0.3,1.23,0.25,2.05,1.64,2.47c0.41,0.14,0.83,0.27,1.24,0.41c0.6-9.62,0.29-19.25,0.24-28.88
				c-0.06-10.19,0.03-20.39,0.26-30.58c0.02-0.78,1.25-0.78,1.23,0c-0.21,10.19-0.31,20.38-0.25,30.58
				c0.06,9.91,0.39,19.82-0.28,29.71c-0.03,0.37-0.38,0.72-0.79,0.59c-1.51-0.5-3.64-0.73-4.4-2.24c-0.83-1.64-0.18-5.01-0.2-6.82
				C273.38,262.2,273.31,256.25,273.23,250.31z"/>
		</g>
		<g>
			<path class="st7" d="M321.21,223.24c-0.17,3.03-2.08,4.88-6.06,4.88c-11.22,0-18.35,0.54-29.56-0.06
				c-2.8-0.15-15.43-0.18-19.08-0.55c-2.67-0.28-3.53-0.5-3.68-4.43c-0.1-2.64-0.09-7.02,0.32-9.58c0.16-1.03,0.43-2.06,1.23-2.68
				c1.18-0.91,3.43-0.83,4.75-0.97c1.49-0.16,2.98-0.26,4.47-0.31c0.01-1.33,0.02-2.48,0.01-3.3c-0.28-4.46,1.44-5.99,2.19-6.47
				c9.79-6.25,20.89-6.92,32.28-5.2c2.58,0.39,5.19,0.88,7.68,1.99c1.76,0.78,4.29,1.78,5.04,4.52
				C321.71,204.35,321.47,218.73,321.21,223.24z"/>
		</g>
	</g>
	<g>
		<path class="st5" d="M306.86,141.99c1.95-0.4,3.9-0.76,5.86-1.07c0.17-0.03,0.33-0.02,0.49,0c1.01,0.02,2.03,0.96,1.66,2.36
			c-1.39,5.17-1.67,10.46-2.56,15.76c-0.4,2.37-8.34-1.02-8.27-1.98c0.28-3.67,0.89-9.65,1.42-13.3
			C305.56,142.95,306.07,142.15,306.86,141.99z"/>
	</g>
	<g>
		<path class="st5" d="M308.53,145.69c0.64,0.03,1.24,0.5,0.97,1.28c-0.19,0.54-0.7,0.72-1.1,1.01c-0.67,0.48-1.09,1.2-1.72,1.73
			c-0.61,0.51-1.33,0.71-2.06,0.77c0.15-1.44,0.42-3.65,0.58-4.97C305.02,145.44,306.28,145.58,308.53,145.69z"/>
	</g>
	<g>
		<path class="st5" d="M256.41,248.61c0.99-1.69,3.17,0.24,4.16,0.89c0.12,0.08,0.17,0.19,0.19,0.31c0.2,0.05,0.34,0.21,0.24,0.48
			c-0.7,1.96-3.62,8.9-4.25,10.42c-0.06,0.14-4.26-1.69-4.2-1.89C253.01,257.24,255.55,250.08,256.41,248.61z"/>
	</g>
	<g>
		<path class="st7" d="M239.39,256.63c0.84-0.45,2.91,0,3.73,0.13c2.58,0.42,6.04,0.58,8.6,0.12c1.49-0.27,0.73-0.47,2.14,0.17
			c1.19,0.55,2.52,0.91,3.68,1.44c0.5,0.23,1.27,0.43,1.03,1.25c-0.59,1.61-1.24,3.2-1.94,4.77c-0.42,0.99-0.97,0.74-1.06,0.7
			c-1.28-0.52-2.55-1.04-3.81-1.57c-0.31-0.13-0.07-0.93-1.47-1.42c-1.81-0.62-3.19-0.47-4.75-1.08c-1.65-0.63-2.89-1.16-4.48-1.97
			C239.73,258.52,237.2,257.8,239.39,256.63z"/>
	</g>
	<g>
		<path class="st5" d="M276.85,261.45c0.23-1.94,3-1.01,4.18-0.8c0.14,0.03,0.24,0.11,0.3,0.21c0.2-0.03,0.4,0.06,0.42,0.35
			c0.15,2.07,0.25,9.58,0.3,11.22c0,0.15-4.59,0.1-4.62-0.11C277.2,270.7,276.65,263.14,276.85,261.45z"/>
	</g>
	<g>
		<path class="st7" d="M264.44,275.42c0.59-0.74,2.67-1.12,3.48-1.32c2.54-0.62,5.79-1.8,7.95-3.23c1.26-0.83,0.48-0.72,2.04-0.67
			c1.32,0.04,2.68-0.14,3.96-0.1c0.55,0.02,1.34-0.1,1.45,0.75c0.11,1.71,0.15,3.42,0.13,5.13c0.01,1.07-0.6,1.05-0.69,1.05
			c-1.38,0.02-2.76,0.03-4.13,0.04c-0.34,0-0.44-0.83-1.92-0.73c-1.91,0.13-3.12,0.8-4.8,0.85c-1.77,0.06-3.12,0.05-4.91-0.07
			C265.52,277.02,262.9,277.34,264.44,275.42z"/>
	</g>
	<path class="st18" d="M253.08,248.53c1.06-4.71,6.1-26.03,7.69-30.8c0.5-1.5,2.11-4.61,3.34-5.69c2.28-1.99,5.8-2.28,8.72-2.72
		c0.79-0.12,20.09-0.24,20.89-0.33c-0.16-3,2.83-9.39,4.94-11.38c3.59-3.36,9.68,2.8,14.19,3.87c0.67,0.16,1.1,0.79,1.13,1.44
		c0.12,0.21,0.18,0.48,0.14,0.8c-0.56,4.82-1.16,9.71-2.24,14.44c-0.86,3.79-2.87,6.43-6.76,7.51c-4.47,1.24-25.05,0.27-29.53-0.07
		c-3.4,8.56-12.25,29.78-13.39,30.09c-1.27,0.34-2.24-0.29-3.28-0.8c-2.39-1.15-1.63-0.5-4.01-1.67
		C251.4,251.55,252.29,252.05,253.08,248.53z"/>
	<path class="st18" d="M281.43,213.87c1.76-5.03,3.04-10.98,5.9-15.54c0.74-1.18,2.29-0.75,2.76,0.19c0.07-0.08,0.14-0.17,0.21-0.25
		c0.9-1.02,2.65-0.15,2.65,1.05c0.48-0.29,1.02-0.29,1.47-0.08c0.1-0.06,0.2-0.11,0.31-0.16c1.03-0.44,2.35,0.06,2.34,1.32
		c-0.07,4.77-0.33,9.56-3.03,13.68c-0.67,1.03-1.98,0.81-2.59,0.1c-1.05,0.57-2.68-0.21-2.28-1.68c0.13-0.48,0.25-0.96,0.38-1.43
		c-0.52,0.98-1.05,1.96-1.57,2.93c-0.7,1.31-2.75,0.7-2.9-0.56c-0.27,0.54-0.53,1.07-0.81,1.6
		C283.46,216.55,280.86,215.51,281.43,213.87z"/>
	<path class="st18" d="M271.56,234.4c-0.12-1.22-0.24-2.44-0.36-3.66c-0.15-1.54,2.78-1.68,2.75-2.1c-0.1-1.31,2.47-4.28,2.45-5.8
		c-0.01-0.92,0.6-1.4,1.29-1.45c0.07-0.46,0.15-0.92,0.24-1.38c0.31-1.46,2.67-1.44,3,0c0.27,1.18,0.72,0.99,0.76-0.29
		c0.06-1.94,3.14-1.95,3.08,0c-0.3,10.33-0.08,20.66,0.72,30.97c0.18,2.38,0.4,4.75,0.64,7.12c0.18,1.71,0.79,3.84-0.51,5.28
		c-0.7,0.78-1.48,0.87-2.47,1.02c-2.75,0.41-5.7,0.32-8.47,0.47c-0.63,0.03-1.38-0.49-1.5-1.12c-1.68-9.12-2.77-18.31-3.27-27.57
		C269.86,234.95,270.73,234.4,271.56,234.4z"/>
	<path class="st19" d="M284.97,179.33c1.06-3.89,4.29-22.49,7.15-24.95c3.35-2.87,6.95-4.17,10.82-4.55
		c0.05-0.16,0.1-0.31,0.16-0.43c0.38-0.82,0.87-1.53,1.87-1.22c1.08,0.35,2.15,1,3.17,1.55c1.63-0.52,3.57-0.86,5.18-0.7
		c1.08,0.11,1.32,1.21,1.45,2.23c3.37,1.52,5.96,3.25,8.78,6.25c3.85,4.08,0.99,27.99-0.46,33.77c-1.36,5.41-3.25,8.27-6.71,12.55
		c-0.16,0.2-2.62,2.93-3.78,2.86c-6.93-0.41-18.19-4.94-20.82-5.75c-2.92-0.91-4.91-1.82-5.49-2.86c-0.8-1.43-0.51-2.08-0.75-3.66
		c-0.29-1.95,0.28-2.58-0.35-4.43C283.94,186.38,283.97,183,284.97,179.33z"/>
	<g>
		<path class="st7" d="M437.91,269.51c1.32,0,2.53-0.6,3.31-1.65c0.78-1.06,0.99-2.37,0.58-3.62l-17.4-51.75l-1.17,0.38l17.4,51.75
			c0.29,0.87,0.14,1.79-0.4,2.52c-0.54,0.73-1.38,1.15-2.31,1.15c-0.02,0-42.19-0.21-42.19-0.21c-0.77,0-1.49-0.3-2.03-0.84
			c-0.54-0.54-0.83-1.25-0.81-2.01l0.96-51.98l-1.23-0.02l-0.96,51.98c-0.02,1.08,0.39,2.1,1.16,2.88c0.77,0.77,1.8,1.2,2.91,1.21
			l42.18,0.21C437.89,269.51,437.9,269.51,437.91,269.51z"/>
	</g>
	<g>
		<path class="st5" d="M387.32,266.68c2.02-1.69,4.67-2.29,3.62-5.85c-0.22-0.75,1.45-0.85,1.5-0.07c0.05,0.71-0.05,1.31-0.24,1.86
			c0.24,0.01,0.48,0.17,0.58,0.38c0.23-0.13,0.47-0.26,0.72-0.37c0.09-0.04,0.19-0.05,0.29-0.05c0.36-0.13,0.75-0.22,1.16-0.24
			c0.37-0.02,0.75,0.4,0.61,0.77c-0.69,1.76-3.09,2.94-4.74,3.65c-0.3,0.13-0.62,0.04-0.8-0.16c-0.21,0.14-0.41,0.29-0.6,0.44
			c-0.25,0.2-0.54,0.17-0.77,0.04c-0.25,0.15-0.49,0.31-0.74,0.46C387.29,267.93,386.81,267.1,387.32,266.68z"/>
	</g>
	<g>
		<path class="st5" d="M388.97,253.4c-0.2-1.94,2.71-1.63,3.9-1.67c0.14-0.01,0.25,0.05,0.34,0.14c0.19-0.07,0.4-0.02,0.48,0.25
			c0.6,1.99,2.38,9.29,2.78,10.88c0.04,0.15-4.46,1.08-4.53,0.88C391.37,262.35,389.15,255.09,388.97,253.4z"/>
	</g>
	<g>
		<path class="st7" d="M382.04,269.89c2.14-1.28,4.6-3,6.14-3.92c1.22-0.72,2.06-0.13,3.41-0.46c2.29-0.54,3.22-2.14,4.77-3.46
			c0.12-0.1,0.55-0.1,0.68,0.3c0.42,1.36,1.37,4.15,0.26,5.44c-0.11,0.12-0.19,0.26-0.24,0.41c-0.23,0.63-0.07,1.51-0.02,2.1
			c0.01,0.16-0.15,0.31-0.31,0.31c-0.2-0.01-0.38,0-0.57,0.01c-0.16,0.01-0.33-0.15-0.31-0.3c0.06-0.61,0.02-1.19-0.12-1.76
			c-1.38,0.23-2.68,0.13-3.73,0.51c-1.4,0.5-1.78,0.97-2.89,1.62c-0.85,0.49-2.41,0.5-3.35,0.53c-0.98,0.04-3.18,0.33-3.75-0.77
			C381.91,270.29,381.87,270,382.04,269.89z"/>
	</g>
	<path class="st64" d="M309.05,153.29c-0.21-0.33,0.33-0.64,0.54-0.31c0.34,0.55,0.66,1.45,1.32,1.56c0.64,0.1,1.25-0.66,1.71-1.08
		c0.76-0.69,1.46-1.44,2.14-2.2c0,0.02,0,0.03,0.01,0.05c0.19,0.08,0.36,0.17,0.55,0.26c-0.51,0.6-1.04,1.18-1.61,1.73
		c-0.68,0.66-1.5,1.6-2.36,2.03C310.13,155.93,309.58,154.13,309.05,153.29z"/>
	<path class="st64" d="M304.58,154.02c-0.15,0.12-0.39,0.13-0.49-0.06c-0.69-1.3-1.23-2.66-1.64-4.07c0.16-0.02,0.31-0.04,0.47-0.05
		c0.03-0.09,0.06-0.18,0.09-0.26c0.37,1.29,0.85,2.53,1.45,3.73c0.66-0.56,1.28-1.15,1.83-1.82c0.25-0.3,0.68,0.13,0.43,0.43
		C306.09,152.69,305.37,153.39,304.58,154.02z"/>
	<g>
		<path class="st7" d="M303.64,168.62c0.37-4.93,1.62-9.63,2.88-14.39c-0.07-0.17-0.12-0.34-0.17-0.46
			c-0.23-0.53-0.63-1.23-0.63-1.8c0-0.29,0.11-0.46,0.34-0.64c0.57-0.45,1.38-0.73,2.04-1.03c0.17-0.07,0.37-0.01,0.44,0.14
			c0.03,0.03,0.04,0.08,0.06,0.13c0.26,0.81,0.56,1.48,0.75,2.24c0.08,0.31,0.16,0.57-0.08,0.82c-0.15,0.16-0.46,0.23-0.65,0.34
			c-0.15,0.08-0.29,0.17-0.43,0.26c-0.11,2.38,0.26,4.7,0.3,7.1c0.04,2.14-0.31,4.24-0.62,6.36c-0.87,5.86-2.7,24.76-4,30.54
			c-0.63,2.81-2.68,2.67-2.84,2.72c-0.21,0.62-0.8-1.92,0.78-9.93C303.02,184.94,303.21,174.23,303.64,168.62z"/>
	</g>
	<path class="st64" d="M298.25,203.12c-0.38-4.89,1.69-9.67,1.83-14.58c0.08-2.84-0.27-5.72,0.32-8.53
		c0.57-2.66,2.21-4.93,2.87-7.56c0.09-0.38,0.69-0.22,0.59,0.16c-0.61,2.46-2.11,4.57-2.75,7.02c-0.76,2.91-0.34,5.95-0.43,8.91
		c-0.14,4.96-2.31,9.83-1.82,14.78C298.67,203.26,298.46,203.19,298.25,203.12z"/>
	<g>
		<path class="st1" d="M372.94,222c0.12-1.01,1.79-1.56,2.32-0.47c0.05,0.1,0.09,0.2,0.14,0.3c0.45-0.46,1.27-0.59,1.77-0.12
			c-0.01-0.11-0.01-0.21-0.02-0.32c-0.04-1.16,1.78-1.72,2.31-0.61c0.41,0.85,0.81,1.7,1.22,2.56c0.09-0.08,0.19-0.15,0.3-0.21
			c-0.71-1.44-1.42-2.89-2.12-4.33c-0.68-1.4,1.45-2.63,2.13-1.22c3.34,6.84,6.28,14.33,9.52,21.21c2.7,5.75,4.47,10.75,7.28,18.24
			c0.19,0.5-0.39,1.03-0.91,1.17c-2.97,0.79-5.03,1.59-8,2.38c-0.5,0.13-1.16-0.08-1.4-0.56c-6-11.94-12.11-24.23-16.52-36.82
			C370.5,221.94,372.06,221.37,372.94,222z"/>
	</g>
	<g>
		<path class="st5" d="M295.45,186.43c1.02-1.37,2.25-2.58,3.83-3.3c1.91-0.87,3.4-1.03,3.87-1.01c3.2,0.17,7.3,1.82,9.18,2.53
			c0.34,0.13,0.39,0.42,0.29,0.67c0.07,0.25,0.01,0.53-0.25,0.65c-1.72,0.82-3.92,1.28-6.11,1.31c-1.5,0.02-3.25-2.34-4.19-1.27
			c-0.62,0.84-1.42,2.34-2.13,3.11c-0.18,0.19-0.53,0.08-0.54-0.19c-0.02-1.03,1.12-3.31,1.13-3.41c-0.94,0.89-1.71,1.94-2.69,2.79
			c-0.23,0.2-0.58,0.05-0.53-0.27c0.23-1.53,0.95-2.65,1.96-3.47c-0.29,0.17-2.4,2.21-3.58,2.36
			C295.4,186.98,295.3,186.62,295.45,186.43z"/>
	</g>
	<g>
		<path class="st5" d="M150.92,144.02c-0.53,1.61-1.31,3.14-2.58,4.31c-1.53,1.41-2.9,2.03-3.36,2.15c-2.39,0.64-5.04,0.62-7.3,0.53
			c-0.66-0.03-6.57,3.28-7.02,3.25c-0.36-0.02-2.5-2.72-2.29-2.91c0.3-0.28,8.11-3.18,8.46-3.44c1.25-0.95,1.91-0.82,3.53-1.37
			c1.42-0.48,3.83,1.22,4.38-0.08c0.32-0.98,0.6-2.66,1.03-3.61c0.11-0.24,0.48-0.24,0.57,0.01c0.35,0.97,0,3.49,0.02,3.58
			c0.61-1.13,1-2.37,1.66-3.48c0.16-0.26,0.54-0.22,0.59,0.09c0.27,1.52-0.06,2.8-0.75,3.9c0.22-0.25,1.57-2.84,2.65-3.34
			C150.79,143.49,151,143.79,150.92,144.02z"/>
	</g>
	<g>
		<path class="st5" d="M368.27,272.52c2.04-1.67,4.69-2.25,3.67-5.82c-0.21-0.75,1.45-0.83,1.5-0.06c0.05,0.71-0.06,1.31-0.26,1.86
			c0.24,0.01,0.47,0.17,0.58,0.39c0.23-0.13,0.47-0.25,0.72-0.36c0.09-0.04,0.19-0.05,0.29-0.04c0.37-0.13,0.75-0.21,1.17-0.23
			c0.37-0.01,0.75,0.4,0.6,0.77c-0.71,1.76-3.12,2.92-4.77,3.61c-0.31,0.13-0.62,0.03-0.8-0.17c-0.21,0.14-0.41,0.28-0.61,0.43
			c-0.25,0.19-0.55,0.17-0.77,0.04c-0.25,0.15-0.5,0.3-0.74,0.46C368.23,273.78,367.76,272.94,368.27,272.52z"/>
	</g>
	<g>
		<path class="st5" d="M370.04,259.27c-0.19-1.94,2.72-1.6,3.91-1.64c0.14,0,0.25,0.06,0.34,0.14c0.19-0.07,0.4-0.02,0.48,0.25
			c0.59,2,2.3,9.31,2.69,10.91c0.04,0.15-4.47,1.04-4.54,0.84C372.36,268.23,370.2,260.95,370.04,259.27z"/>
	</g>
	<g>
		<path class="st1" d="M359.96,217.37c2.69-4.34,22.45-14.24,26.42-16.33c2.52-1.33,3.95-2.32,3.86-5.34
			c-0.04-1.66-0.2-3.18,0.05-4.83c0.2-1.35,1.72-1.34,2.51-0.55c0.02-0.12,0.03-0.24,0.05-0.35c0.23-1.63,3.05-1.33,3.06,0.25
			c0.41-1.06,1.81-1.25,2.54-0.57c0.43-1.37,2.86-1.14,3.04,0.57c0.04,0.35,0.06,0.69,0.1,1.04c0.21-0.3,0.44-0.6,0.68-0.89
			c0.41-0.5,1.11-0.54,1.69-0.31c0.08-0.3,0.17-0.6,0.25-0.9c0.4-1.35,2.72-1.55,2.99,0c0.11,0.62,0.21,1.23,0.31,1.85
			c0.03-0.35,0.06-0.7,0.11-1.05c0.28-1.92,3.24-1.1,2.97,0.8c-1.09,7.73,4.67,17.53-0.49,24.56c-1.95,2.65-5.3,3.66-8.39,4.4
			c-4.42,1.06-26.08,4.41-28.84,5.62c-0.95,0.42,0.09,4.83,0.9,9.35c1.71,9.58,3.29,17.34,5.11,27.46c0.17,0.96-0.28,1.59-1.01,1.8
			c-0.25,0.24-7.38,1.11-9.67,1.18c-0.64,0.02-1.31-0.5-1.5-1.12c-2.2-7.15-3.21-13.84-4.94-22.1
			C359.06,229.04,356.48,222.98,359.96,217.37z"/>
	</g>
	<path class="st19" d="M275.22,199.85c0.42-1.36,0.77-2.5,0.75-3.95c-0.03-2.32-0.42-4.18,0.62-6.4c1.01-2.14,3.19-3.45,3.57-5.89
		c0.24-1.54,2.61-0.88,2.38,0.64c-0.22,1.44-0.84,2.48-1.74,3.63c-0.03,0.03-0.05,0.06-0.07,0.09c0.55,0.06,1.01,0.43,0.92,1.14
		c-0.05,0.45-0.11,0.9-0.16,1.35c0.22-0.53,0.45-1.06,0.69-1.59c0.53-1.14,2.32-0.52,2.31,0.61c0,0.26-0.02,0.52-0.04,0.78
		c0.71-0.26,1.73,0.23,1.79,1.13c0.2,2.68,0,5.59-1.11,8.09c-1.1,2.47-3.73,3.06-5.07,5.41c-0.41,0.72-1.37,0.76-1.95,0.25
		c-1.01-0.89-2.85-1.91-3.21-3.33C274.74,201.17,275.03,200.46,275.22,199.85z"/>
	<g>
		<rect x="350.31" y="191.28" class="st7" width="5.34" height="90.72"/>
	</g>
	<g>
		<rect x="128.3" y="191.28" class="st7" width="5.34" height="90.72"/>
	</g>
	
		<rect x="108.51" y="186.87" transform="matrix(-1 -4.489354e-11 4.489354e-11 -1 484.1055 381.2893)" class="st18" width="267.1" height="7.55"/>
	<g>
		<path class="st5" d="M389.89,136.95c1.7-1.02,3.41-2.01,5.14-2.95c0.15-0.08,0.31-0.13,0.46-0.16c0.95-0.32,2.24,0.23,2.37,1.67
			c0.47,5.32,2.03,10.4,3.02,15.68c0.44,2.36-8.21,1.8-8.47,0.87c-1-3.55-2.48-9.37-3.25-12.99
			C389,138.28,389.21,137.37,389.89,136.95z"/>
	</g>
	<g>
		<path class="st5" d="M380.7,131.99c0.16-0.74,1.59-2.91,1.95-4.4c0.31-1.98,0.65-4.67,0.93-5.96c0.22-1.02,9.31-2.68,10.85-0.77
			c0.04,0.03,0.08,0.06,0.11,0.09c4.12,3.58,6.7,9.53,5.54,14.93c-0.37,1.74-8.43,4.51-11.48,5.16c-1.8,0.38-3.5,0.36-4.99-0.78
			c-1.27-0.96-1.37-2.23-1.54-5.25c-0.01-0.17,0.02-0.97,0.01-1.14C381.1,133.6,380.46,133.1,380.7,131.99z"/>
	</g>
	<g>
		<path class="st5" d="M392.75,139.88c0.61-0.18,1.34,0.06,1.35,0.89c0.01,0.57-0.41,0.92-0.69,1.32c-0.46,0.67-0.62,1.49-1.02,2.2
			c-0.4,0.69-1,1.11-1.67,1.4c-0.35-1.4-0.86-3.58-1.16-4.87C389.35,140.8,390.59,140.52,392.75,139.88z"/>
	</g>
	<path class="st18" d="M384.77,119.99c4.09-1.75,9.63-2.7,13.76-0.31c2.37,1.37,4.1,3.07,4.83,6.71c0.65,3.23-0.8,5.96-1.91,8.92
		c-0.64,1.71-1.77,4.27-2.43,4.52c-2,0.74-2.46-0.84-3.51-2.4c-2.14-3.2-0.31-4.16-3.97-5.98c-0.88-0.44-1.36-0.86-1.86-1.72
		c-0.71-1.19-0.27-3.26-1.01-4.44c-1.08-1.72-3.34-2.51-5.05-3.58C383.29,121.51,384.03,120.32,384.77,119.99z"/>
	<g>
		<path class="st7" d="M386.37,177.04c-0.53-5.71-2.71-12.51-0.89-17.97c1.03-3.09,3.38-8.27,4.46-11.46
			c0.25-0.73-0.18-0.6-0.12-1.47c0.06-0.74,3.09-1.1,3.83-1.23c2.64-0.58,5.67-1.28,6.83-0.83c1.22,0.47,1.31,1.05,2.03,3.09
			c2.64,7.53,5.73,8.96,8.23,22.06c0.75,3.91,2.3,14.27,2.28,18.24c-0.01,2.83-1.65,6.3-5.52,6.9c-3.42,0.53-16.67-0.69-16.79-1.13
			c-2.28-0.79-3.48-1.22-4.78-3.36C383.45,185.78,386.79,181.56,386.37,177.04z"/>
	</g>
	<path class="st18" d="M398.67,125.19c1.53,5.46,4.57,8.78,9.48,11.56c3.26,1.85,5.25,4.17,7.18,7.29c1.13,1.84,2.18,3.73,3.66,5.33
		c1.18,1.28,2.63,2.32,3.74,3.67c1.5,1.82,2.66,4.21,0,5.41c-3.08,1.39-6.1,2.16-9.09,0.41c-2.81-1.64-5.09-4.16-6.5-7.05
		c-0.91-1.87-1.32-3.9-2-5.84c-0.77-2.17-2.03-3.36-3.36-5.1c-0.96-1.26-1.38-2.75-1.76-4.24c-0.71-2.78-1.64-5.25-2.88-7.85
		c-0.13-0.28-0.15-0.54-0.09-0.77c-0.3-0.82-0.57-1.65-0.8-2.5C395.82,124.03,398.26,123.72,398.67,125.19z"/>
	<g>
		<path class="st7" d="M433.3,279.54c1.32,0,2.53-0.6,3.31-1.65c0.78-1.06,0.99-2.37,0.58-3.62l-17.4-51.75l-1.17,0.38l17.4,51.75
			c0.29,0.87,0.14,1.79-0.4,2.52c-0.54,0.73-1.38,1.15-2.31,1.15c-0.02,0-42.19-0.21-42.19-0.21c-0.77,0-1.49-0.3-2.03-0.84
			c-0.54-0.54-0.83-1.25-0.81-2.01l0.96-51.98l-1.23-0.02l-0.96,51.98c-0.02,1.08,0.39,2.1,1.16,2.88c0.77,0.77,1.8,1.2,2.91,1.21
			l42.18,0.21C433.28,279.54,433.29,279.54,433.3,279.54z"/>
	</g>
	<g>
		<path class="st7" d="M434.63,220.77c-0.17,3.03-2.08,4.88-6.06,4.88c-11.22,0-18.35,0.54-29.56-0.06
			c-2.8-0.15-15.43-0.18-19.08-0.55c-2.67-0.28-3.53-0.5-3.68-4.43c-0.1-2.64-0.09-7.02,0.32-9.58c0.16-1.03,0.43-2.06,1.23-2.68
			c1.18-0.91,3.43-0.83,4.75-0.97c1.49-0.16,2.98-0.26,4.47-0.31c0.01-1.33,0.02-2.48,0.01-3.3c-0.28-4.46,1.44-5.99,2.19-6.47
			c9.79-6.25,20.89-6.92,32.28-5.2c2.58,0.39,5.19,0.88,7.68,1.99c1.76,0.78,4.29,1.78,5.04,4.52
			C435.13,201.88,434.89,216.26,434.63,220.77z"/>
	</g>
	<g>
		<path class="st7" d="M362.96,275.7c2.15-1.27,4.62-2.96,6.17-3.86c1.22-0.71,2.06-0.12,3.42-0.43c2.3-0.53,3.24-2.11,4.8-3.42
			c0.12-0.1,0.55-0.1,0.67,0.31c0.41,1.36,1.33,4.16,0.21,5.45c-0.11,0.12-0.19,0.26-0.25,0.41c-0.23,0.63-0.09,1.51-0.04,2.1
			c0.01,0.16-0.15,0.31-0.31,0.31c-0.2-0.01-0.38-0.01-0.57,0.01c-0.16,0.01-0.33-0.15-0.31-0.31c0.07-0.6,0.03-1.19-0.11-1.76
			c-1.38,0.22-2.68,0.11-3.73,0.47c-1.41,0.49-1.78,0.96-2.9,1.59c-0.86,0.49-2.41,0.48-3.36,0.51c-0.98,0.03-3.19,0.31-3.74-0.8
			C362.83,276.09,362.79,275.8,362.96,275.7z"/>
	</g>
	<path class="st65" d="M333.33,186.87h13.59c2.25,0,4.07-1.82,4.07-4.07v-17c0-2.25-1.82-4.07-4.07-4.07h-13.59
		c-2.25,0-4.07,1.82-4.07,4.07v17C329.26,185.05,331.08,186.87,333.33,186.87z"/>
	<path class="st19" d="M334.01,186.25h12.25c2.25,0,4.07-1.82,4.07-4.07v-15.76c0-2.25-1.82-4.07-4.07-4.07h-12.25
		c-2.25,0-4.07,1.82-4.07,4.07v15.76C329.94,184.43,331.77,186.25,334.01,186.25z"/>
	<path class="st65" d="M366.55,183.6h-37.29v3.27h37.29c0.83,0,1.51-0.67,1.51-1.51v-0.26C368.06,184.28,367.38,183.6,366.55,183.6z
		"/>
	<path class="st65" d="M145.47,186.97h-13.59c-2.25,0-4.07-1.82-4.07-4.07v-17c0-2.25,1.82-4.07,4.07-4.07h13.59
		c2.25,0,4.07,1.82,4.07,4.07v17C149.54,185.14,147.72,186.97,145.47,186.97z"/>
	<path class="st65" d="M112.24,183.7h37.29v3.27h-37.29c-0.83,0-1.51-0.67-1.51-1.51v-0.26C110.74,184.37,111.41,183.7,112.24,183.7
		z"/>
	<g>
		<path class="st5" d="M348.34,183.64c1.56-1.6,3.32-2.65,5.47-2.47c1.67,0.13,2.58,0.76,5.53,0.42c0.32-0.04,0.57-0.09,0.81-0.14
			c4.74-1.47,9.54-2.29,13.71-3.83c2.55-0.94,5.03-0.83,6.17-1.69c0.46-1.14,0.95-2.27,1.43-3.4c1.72-4.07,3.63-8.07,5.71-11.98
			c1.03-1.94,2.49-6.19,5.35-6.16c2.38,0.02,3.27,2.65,3.31,4.57c0.01,0.6-0.04,1.19-0.15,1.77c0.66-0.15,1.46,0.68,0.98,1.46
			c-2.49,4.08-4.95,8.18-7.4,12.29c-1.73,2.9-3.38,7.3-6.39,9.17c-0.79,0.49-3.18,0.96-8.65,1.01c-3.57,0.03-14.78-0.19-16.02-0.22
			c-1.19-0.03-2.27-0.68-3.39-1.02c-2.27-0.68-3.95,0.36-6.08,1.02C348.33,184.56,348.03,183.96,348.34,183.64z"/>
	</g>
	<g>
		<path class="st7" d="M384.17,165.78c0.43,1.33,2.4,2.12,3.49,2.82c2.13,1.36,4.32,2.61,6.54,3.8c0.53,0.29,1.2,0.03,1.37-0.55
			c1.52-5.05,2.59-10.15,3.27-15.37c0.01-0.08,0.02-0.16,0.03-0.24c0.13-1.02-1.27-1.11-1.74-0.42c-0.06-0.88-1.69-1.04-1.83-0.08
			c-0.01,0.09-0.03,0.18-0.04,0.26c0.01-0.36,0.03-0.71,0.04-1.07c0.02-0.64-0.49-0.92-0.97-0.87c0.02-0.31,0.04-0.62,0.06-0.93
			c0.06-0.87-0.87-1.07-1.44-0.69c-0.46-0.49-1.56-0.26-1.66,0.62c0,0.04-0.01,0.08-0.01,0.13c-0.38-0.17-0.87-0.13-1.13,0.19
			c0.17-0.45,0.33-0.9,0.5-1.34c0.42-1.1-1.38-1.57-1.79-0.48c-1.04,2.75-2.04,5.52-2.99,8.3
			C385.4,161.29,383.69,164.27,384.17,165.78z M389.96,153.92c-0.1,0.51-0.19,1.03-0.29,1.54c-0.09-0.02-0.18-0.02-0.27-0.02
			C389.58,154.93,389.77,154.43,389.96,153.92z"/>
	</g>
	<path d="M394.73,168.67c1.16-2.35,2.24-4.74,3.15-7.2c0.97-2.65,1.99-5.53,0.71-8.25c-0.16-0.35,0.36-0.65,0.53-0.3
		c1.21,2.53,0.6,5.15-0.28,7.69c-0.99,2.87-2.22,5.66-3.58,8.38C395.09,169.32,394.56,169.02,394.73,168.67z"/>
	<g>
		<path class="st63" d="M368.35,220.26c1.1,0.85,2.25,1.63,3.44,2.37c0.33,0.21,0.03,0.73-0.31,0.52c-1.24-0.75-2.42-1.58-3.56-2.46
			C367.61,220.45,368.04,220.03,368.35,220.26z"/>
	</g>
	<g>
		<path class="st63" d="M368.42,223.63c0.78,0.22,1.58,0.41,2.37,0.58c0.39,0.08,0.22,0.66-0.16,0.58c-0.8-0.16-1.59-0.36-2.37-0.58
			C367.87,224.11,368.03,223.53,368.42,223.63z"/>
	</g>
	<g>
		<path class="st5" d="M390.65,130.63c0.1-0.01,0.42-0.66,0.57-0.76c0.19-0.13,0.43-0.2,0.67-0.21c0.8-0.01,1.38,0.7,1.7,1.33
			c0.43,0.83,1.1,3.28-0.45,3.47c-0.75,0.09-1.37-0.67-1.79-1.18c-0.46-0.56-0.92-1.35-0.56-2.07c-0.05,0.01-0.09,0.03-0.15,0.03
			C390.25,131.25,390.25,130.65,390.65,130.63z"/>
	</g>
	<g>
		<path class="st5" d="M298.79,137.38c-0.74-0.6-1.44-1.5-0.87-2.42c0.36-0.59,1-1.04,1.46-1.55c0.34-0.38,0.64-0.76,0.92-1.17
			c0.59-1.59,1.24-3.18,1.86-4.95c0.75-2.15,2.62-3.3,4.56-4.36c1.74-1.41,3.03,0.62,5.22,1.34c1.85,0.61,4.68-0.37,5.58,1.51
			c2.69,5.6,0.12,11.21-3.15,16.11c-0.57,0.86-2.2,2.75-3.12,3.59c-1.6,1.47-8.7,1.64-11.06,0.5c-1.77-0.86-2.09-4.07-1.59-7.55
			C298.66,138.08,298.72,137.73,298.79,137.38z"/>
	</g>
	<g>
		<path class="st7" d="M307.83,143.32c-0.15-0.5-0.43-0.96-0.61-1.46c-0.06-0.16-0.08-0.22-0.09-0.24c0-0.01-0.01-0.06-0.06-0.24
			c-0.18-0.67-0.51-1.17-0.92-1.54c0.89-2.07,0.99-4.21,0.42-6.34c-0.13-0.49-0.39-0.95-0.5-1.47c-0.18-0.86-0.01-1.21-0.51-1.77
			c-0.4-0.46-1.5-0.68-2.04-1.07c-1.83-1.3-3.02-3.79-1.61-5.83c0.93-1.34,2.05-1.57,3.25-1.37c-0.26-0.93,0.02-1.84,1.28-2.57
			c1.21-0.7,2.56-0.45,3.65,0.34c0.65,0.47,1.08,1.14,1.53,1.8c0.02,0.03,0.05,0.08,0.08,0.13c0.49-0.61,1.31-0.94,2.1-0.88
			c1.69,0.14,2.66,1.61,3.11,3.21c0.28-0.04,0.52-0.07,0.64-0.05c0.48,0.1,1.03,0.38,1.42,0.67c1.19,0.89,1.8,2.48,1.51,3.91
			c-0.05,0.23-0.12,0.44-0.2,0.64c1.04,1.96,1.62,4.47,1.4,5.7c-0.33,1.88-1.35,2.44-2.51,2.29c-0.5,2.25-1.98,4.32-4.08,5.57
			c-0.45,0.27-1.12,0.29-1.57,0c-1.34-0.86-2.02-2.79-2.39-4.83c-0.11-0.61-0.52-1.14-1.11-1.37c-0.07-0.03-0.13-0.06-0.19-0.08
			c-1.09,1.5-1.15,4.06-1.61,5.78c-0.11,0.4-0.22,0.8-0.35,1.2C307.85,143.39,307.84,143.36,307.83,143.32z"/>
	</g>
	<g>
		<path class="st7" d="M305.53,141.04c1.45-2.44,1.7-4.99,1.03-7.54c-0.13-0.49-0.39-0.95-0.5-1.47c-0.18-0.86-0.01-1.21-0.51-1.77
			c-0.4-0.46-1.5-0.68-2.04-1.07c-0.58-0.41-1.09-0.94-1.48-1.54c0.04-0.12,0.08-0.23,0.13-0.35c0.75-2.15,2.62-3.3,4.56-4.36
			c1.74-1.41,3.03,0.62,5.22,1.34c1.85,0.61,4.68-0.37,5.58,1.51c2.69,5.6,0.12,11.21-3.15,16.11c-0.16,0.24-0.4,0.55-0.68,0.9
			c-0.05-0.02-0.11-0.04-0.16-0.07c-1.34-0.86-2.02-2.79-2.39-4.83c-0.11-0.61-0.52-1.14-1.11-1.37c-0.07-0.03-0.13-0.06-0.19-0.08
			c-1.09,1.5-1.15,4.06-1.61,5.78c-0.32,1.19-0.68,2.4-1.42,3.4c-0.32,0.43-0.68,0.79-1.08,1.09c-2.18,0.05-4.39-0.19-5.52-0.73
			c-0.54-0.26-0.95-0.75-1.23-1.39C301.56,144.45,304.25,143.22,305.53,141.04z"/>
	</g>
	<g>
		<path class="st5" d="M309.05,136.73c0.04-0.42,0.04-0.92,0.11-1.39c0.9-0.35,1.93-0.07,2.54,0.71c0.8,1.02,0.66,2.41-0.01,3.46
			c-0.42,0.65-1.7,2.27-2.62,1.52c-0.19-0.15-0.3-0.34-0.36-0.56C308.82,139.22,308.94,137.97,309.05,136.73z"/>
	</g>
	<g>
		<path class="st5" d="M268.13,209.21c0.52-0.91,1.39-1.85,1.93-2.7c0.53-0.84,3.76-3.77,4.96-4.25c0.81-0.33,2.77,1.14,3.29,1.84
			c0.1,0.06,0.16,0.17,0.13,0.32c-0.36,1.35-0.17,2.77-0.69,4.09c-0.4,1.01-1.08,2.18-1.9,2.92c-0.19,0.17-0.54,0.06-0.53-0.22
			c0.03-0.8,0.33-1.57,0.42-2.38c0.01-0.04,0.01-0.08,0.02-0.13c-0.2,0.23-0.4,0.45-0.52,0.54c-1.31,1.66-2.15,4.06-3.21,5.89
			c-0.15,0.26-0.6,0.1-0.57-0.19c0.11-0.96,0.74-2.93,0.99-3.84c-0.17,0.3-0.33,0.6-0.48,0.91c-0.44,0.91-0.92,2.84-1.56,3.64
			c-0.14,0.18-0.54,0.17-0.56-0.11c-0.09-1.19,0.72-3.42,1.09-4.54c0.11-0.34,0.21-0.75,0.33-1.15c-0.17,0.27-1.01,1.27-1.09,1.42
			c-0.54,0.99-0.68,1.98-1.22,2.97c-0.14,0.26-0.76,0.37-0.71-0.14c0.18-1.9,1.03-3.83,1.95-5.49c-0.72,0.94-1.38,1.75-1.87,2.84
			c-0.35,0.77-0.4,1.03-0.72,1.27c-0.18,0.13-0.48-0.06-0.45-0.29C267.35,210.79,267.31,210.64,268.13,209.21z"/>
	</g>
	<path class="st14" d="M303.97,165.69c1.49-0.81,2.99-1.6,4.47-2.43c0.05-0.64,0.07-1.29,0.06-1.94c-0.01-0.76-0.06-1.51-0.12-2.26
		c-1.17,0.68-2.37,1.33-3.56,1.98C304.49,162.58,304.2,164.13,303.97,165.69z M303.25,175.81c1.31-0.71,2.62-1.44,3.92-2.17
		c0.16-1.55,0.32-3.05,0.5-4.46c-1.4,0.79-2.8,1.58-4.21,2.36C303.39,172.86,303.32,174.3,303.25,175.81z"/>
	<path class="st66" d="M271.05,236.12c0.66-1.65,1.37-3.28,2.15-4.89c0.68-1.4,1.35-2.93,2.44-4.07c2.07-2.16,5.49-1.77,8.24-1.73
		c0.4,0.01,0.4,0.61,0,0.61c-2.86-0.04-6.26-0.46-8.21,2.04c-1.82,2.35-2.94,5.48-4.03,8.2
		C271.5,236.64,270.91,236.49,271.05,236.12z"/>
	<path class="st66" d="M275.9,218.75c0.63,1.4,1.14,2.84,1.53,4.33c0.1,0.38-0.49,0.54-0.59,0.16c-0.39-1.43-0.87-2.82-1.46-4.18
		C275.21,218.7,275.74,218.39,275.9,218.75z"/>
	<g>
		<path class="st5" d="M81.64,145.11c-0.14-0.14-0.28-0.28-0.42-0.42c-0.01-0.01-0.02-0.02-0.03-0.03
			c-0.25-0.33-0.51-0.67-0.79-0.97c-0.03-0.03-0.05-0.06-0.08-0.08c-0.48-0.64-0.91-1.25-1.64-1.59c-0.28-0.13-0.56-0.22-0.84-0.29
			c0.34-4.11,0.81-8.17,0.54-12.29c-0.1-1.44,1.25-2.18,2.36-2c0.17,0.01,0.35,0.03,0.54,0.09c2.08,0.67,4.15,1.4,6.2,2.16
			c0.83,0.31,1.21,1.18,1.15,2c-0.26,3.68-0.94,9.66-1.48,13.32c-0.07,0.46-2.26,1.11-4.52,1.41
			C82.37,145.95,82.05,145.52,81.64,145.11z"/>
	</g>
	<path class="st66" d="M274.56,220.61c0.62,1.02,1.28,2.02,1.97,3c0.23,0.32-0.31,0.62-0.53,0.3c-0.69-0.98-1.35-1.98-1.97-3
		C273.82,220.58,274.35,220.28,274.56,220.61z"/>
	<path class="st66" d="M292.06,209.32c1.71,0.3,3.33,0.87,4.86,1.68c0.35,0.18,0.04,0.7-0.31,0.52c-1.49-0.79-3.06-1.32-4.72-1.62
		C291.5,209.83,291.67,209.25,292.06,209.32z"/>
	<path class="st66" d="M292.15,210.2c1.45,1.83,2.75,3.74,3.9,5.76c0.19,0.34-0.34,0.64-0.53,0.3c-1.13-1.97-2.4-3.85-3.81-5.64
		C291.47,210.32,291.9,209.89,292.15,210.2z"/>
	<path class="st66" d="M284.4,209.43c2.18,0,4.35,0,6.53,0c0.4,0,0.4,0.6,0,0.6c-2.18,0-4.35,0-6.53,0
		C284,210.03,284,209.43,284.4,209.43z"/>
	<path class="st64" d="M287.3,174.37c1.49-4,2.2-8.25,3.12-12.41c0.08-0.38,0.67-0.22,0.59,0.16c-0.87,3.96-1.52,8.06-2.92,11.88
		c-0.68,1.84-1.33,3.65-1.66,5.59c-0.37,2.16-0.44,4.35-0.53,6.53c-0.02,0.39-0.63,0.39-0.62,0
		C285.45,182.03,285.86,178.23,287.3,174.37z"/>
	<path class="st64" d="M320.08,172.98c0.01-3.57,0.24-6.78,2.14-9.92c0.2-0.33,0.73-0.03,0.53,0.3c-2.08,3.43-2.02,6.96-2.06,10.82
		c-0.04,3.81-0.23,7.61-0.56,11.4c-0.03,0.39-0.65,0.39-0.62,0C319.87,181.39,320.07,177.19,320.08,172.98z"/>
	<path class="st64" d="M317.84,164.7c0,2.02,0.38,3.95,1.13,5.83c0.14,0.36-0.45,0.52-0.59,0.16c-0.77-1.93-1.15-3.92-1.15-5.99
		C317.23,164.32,317.84,164.32,317.84,164.7z"/>
	<g>
		<path class="st1" d="M68.69,179.46c1.03,9.18,1.91,14.51,1.96,14.53c1.04,2.35-0.77,1.72,2.23,2.35
			c4.57,0.96,9.23,1.84,13.92,1.82c4.01-0.01,8.33-0.64,11.89-2.56c3.58-1.93,3.42-5.06,3.53-8.65c0.17-5.64-0.31-17.64,0.66-23.19
			c0.77-4.4-2.03-15.13-4.47-18.16c-2.04-2.53-6.61-4.04-10.04-4.76c-0.18-0.31-6.95-1.17-9.89-0.66c-2.84,0.5-7.11,2.07-9.49,3.61
			c-4.46,2.88-6.1,7.77-6.03,12.03C63.07,162.91,67.9,172.44,68.69,179.46z M72.53,193.78c-0.37-0.12-0.69-0.26-0.98-0.4
			c0.16-0.04,0.32-0.1,0.48-0.17c0.58,0.35,1.19,0.65,1.83,0.92C73.4,194.03,72.95,193.92,72.53,193.78z"/>
	</g>
	<g>
		<path class="st1" d="M89.48,141.1c7.15,1.15,13.08,5.08,15.9,7.82c1.16,1.13,2.87,4.19,4.62,4.42c1.83,0.24,3.42-2.34,5.31-2.53
			c0.63-0.06,1.32,0.14,1.93,0.32c2.66,0.76,2.91-0.21,3.62-0.47c1.55-0.56,2.6,0.14,3.98-0.97c1.08-0.88,2.03-1.47,3.52-1.34
			c0.69,0.06,1.33,0.27,1.93,0.6c0.76-0.4,1.56-0.7,2.41-0.92c1.28-0.33,1.57,0.42,2.13,1.5c0.51,0.99,1.52,2.76,1.33,3.89
			c-0.12,0.71-1.19,1.2-2.11,1.57c0.29,2.45-0.6,4.82-3.21,5.65c-0.97,0.31-1.37,0.13-2.11,1c-3.41,4-9.6,4.7-10.99,5.59
			c-5.79,3.71-11.68,1.62-15.17-1.1c-5.88-4.58-2.36-5.27-3.96-7.56c-2.72-2.34-4.03-4.97-2.12-7.11c0.19-0.21,0.43-0.34,0.68-0.39
			c-0.15-0.3-0.28-0.62-0.41-0.94c-0.09-0.22-0.1-0.45-0.05-0.67c-0.35-0.31-0.7-0.63-1.04-0.94c-0.68-0.61-0.54-1.47-0.05-2.03
			c-0.36-0.13-0.74-0.26-1.12-0.37C92.6,145.54,87.52,140.79,89.48,141.1z"/>
	</g>
	<g>
		<path class="st7" d="M79.99,150.21c-1.93-2.79-3.15-6.11-3.94-9.41c0.75-0.22,1.46-0.39,2.12-0.52c1.56,2.14,2.46,4.77,4.04,6.92
			c1.88,2.54,4.3,4.28,6.2,6.63c-0.05-1.57,0.11-3.1,0.29-4.72c0.31-2.89,0.03-5.53-0.61-8.34c0.15,0.04,0.24,0.08,0.26,0.11
			c0.6,0.13,1.23,0.28,1.88,0.45c0.79,2.04,1.56,4.15,1.52,6.31c-0.04,2.14-0.55,4.31-1.03,6.43c0.27,0.61,0.45,1.25,0.5,1.93
			c0.06,0.79,0.01,2-0.51,2.68c0.89,5.67,3.61,10.92,3.73,16.74c0.07,3.5,0.3,6.6,1.17,10.03c0.76,3,1.09,5.96,0.99,9.05
			c-0.02,0.47-0.51,0.75-0.93,0.52c-2.26-1.2-2.61-3.37-3.1-5.69c-0.81-3.89-1.56-7.8-2.42-11.68c-0.64-2.88-1.65-5.59-1.7-8.56
			c-0.06-3.63-0.01-7.27,0-10.9c-0.65-0.71-1.21-1.64-1.43-2.03c-0.07-0.12-0.08-0.22-0.08-0.33
			C84.37,154.31,81.65,152.61,79.99,150.21z"/>
	</g>
	<g>
		<path class="st1" d="M88,146.86c-0.11-0.04-0.19-0.13-0.19-0.28c0.04-1.89-0.16-3.99,0.2-5.86c-0.03-0.05-0.06-0.1-0.09-0.15
			c-0.21-0.33,0.32-0.64,0.53-0.31c0.1,0.03,0.18,0.1,0.2,0.21c0.01,0.06,0.02,0.12,0.03,0.18c1.2,2.17,0.88,4.53,1.87,6.78
			c0.47,1.07,1.56,3.88,0.52,4.82c-0.08,0.07-0.2,0.12-0.3,0.08c-0.95-0.38-2.42-1.29-2.85-2.26C87.48,149.11,87.72,147.9,88,146.86
			z"/>
	</g>
	<path class="st18" d="M72.28,116.54c-0.07-1.31,0.19-2.6,0.87-3.68c2.31-3.67,7.89-2.44,11.7-3.59c0.47-0.23,0.94-0.46,1.39-0.68
		c1.27-0.64,3.27-1.59,4.73-1.15c1.3,0.39,2.08,1.95,3.04,2.78c1.22,1.06,1.96,1.49,2.22,3.22c0.17,1.19,0.14,2.25-0.81,3.08
		c-1.4,1.24-4.47,0.51-4.96-1.41c-0.08-0.31-0.07-0.68,0.01-1.06c-0.18-0.02-0.35-0.05-0.53-0.08c-0.94,0.06-1.96-0.05-2.72-0.38
		c-0.66,0-1.25-0.09-1.7-0.27c-0.2-0.06-0.38-0.15-0.52-0.27c-0.5,0.13-1.01,0.18-1.52,0.11c-0.1,0.1-0.21,0.21-0.3,0.32
		c-0.3,0.36-0.84,0.14-1.02-0.21c-0.27,0.17-0.53,0.34-0.78,0.53c-0.5,0.38-0.99-0.2-0.87-0.7c-1.37,0.73-2.65,1.55-3.74,2.79
		c-0.02,0.02-0.04,0.03-0.06,0.05c0.1,0.64-0.81,1.11-1.11,0.45c-0.01-0.03-0.02-0.05-0.03-0.08c-0.07,0.05-0.14,0.1-0.21,0.15
		c0.43,0.55,0.39,1.51-0.07,2.16c-0.11,0.16-0.24,0.29-0.37,0.41c0.45,0.98,1.06,1.93,1.52,2.85c0.25,0.5-0.29,1.2-0.85,0.84
		c-0.82-0.54-1.51-1.31-2.06-2.2C72.15,119.49,71.76,117.95,72.28,116.54z"/>
	<g>
		<path class="st5" d="M84.79,133.01c-0.64-0.28-1.47,0.26-1.36,1.08c0.08,0.57,0.61,0.84,0.98,1.2c0.62,0.6,0.93,1.39,1.5,2.02
			c0.56,0.62,1.3,0.95,2.09,1.14c0.16-1.44,0.31-2.88,0.43-4.21C88.66,134.2,86.68,133.84,84.79,133.01z"/>
	</g>
	<g>
		<path class="st5" d="M96.38,124.73c-0.15-0.74-0.71-1.44-1.04-2.12c-0.46-0.93-0.85-1.89-1.21-2.85c-0.28-1.98-0.8-4.05-1.05-5.34
			c-0.2-1.02-9.26-2.85-10.84-0.96c-0.04,0.03-0.08,0.06-0.11,0.09c-4.19,3.51-6.88,9.4-5.82,14.82c0.34,1.74,3.47,5.32,6.53,5.9
			c3.88,0.73,9.39,2.25,10.41,0.01c1.06-2.33,1.38-4.22,1.36-7.58C95.6,126.42,96.6,125.85,96.38,124.73z"/>
	</g>
	<path class="st18" d="M89.03,116.81c-1.03,1.81,0.26,4.38-0.88,5.11c-1.13,0.73-3.01-0.3-3.79,1.6c-0.2,0.48-0.58,3.28-0.77,3.79
		c-0.67,1.84-1.93,3.39-2.65,3.67c-0.53,0.21-1.63,1.22-2.71,0.54c-0.8-0.51-3.47-5.91-4.51-8.69c-1.29-3.43-0.17-5.25,1.44-7.15
		c3.48-4.09,17.76-5.09,17.92-1.28C93.13,115.4,90.6,114.06,89.03,116.81z"/>
	<g>
		<path class="st5" d="M77.95,140.29c-0.07-0.39,1-2.1,0.75-1.8c-0.09,0.11-0.11,0.27-0.1,0.45c0.3-0.44,1.02-0.62,1.46-0.18
			c0.28,0.28,0.57,0.56,0.86,0.83c0.17-0.12,0.37-0.18,0.58-0.16c0.1-0.7,0.96-1.24,1.51-0.56c0.13,0.17,0.26,0.34,0.39,0.51
			c0.36-0.28,0.9-0.34,1.22,0.05c0.19,0.23,0.36,0.46,0.53,0.69c0.15-0.14,0.33-0.27,0.56-0.36c0.16-0.06,0.33-0.05,0.49,0
			c0.37-0.25,0.9-0.23,1.22,0.12c0-0.04,0-0.08,0-0.12c-0.02-0.39,0.57-1.69,0.59-1.3c0.12,2.28,0.09,6.32-0.66,8.52
			c-0.43,1.26-1.43,0.86-2.21,0.07c-0.81-0.82-1.35-1.86-2.21-2.64C81.89,143.48,78.16,141.43,77.95,140.29z"/>
	</g>
	<g>
		<path class="st1" d="M77.62,138.97c0.43-0.64,5.1,4.95,6.25,6.52c0.23,0.32-1.27,1.33-1.51,1.02c-0.42-0.57-0.93-0.95-0.79-0.56
			c0.19,0.36,0.38,0.71,0.58,1.07c0.07,0.02,0.13,0.06,0.17,0.12c0.13,0.18,0.25,0.37,0.37,0.55c-0.01-0.03-0.02-0.06-0.02-0.08
			c-0.08-0.33,0.38-0.54,0.57-0.24c0.2,0.32,0.37,0.65,0.53,0.98c0.1,0.02,0.19,0.08,0.22,0.21c0.02,0.08,0.04,0.15,0.06,0.23
			c0.18-0.77,0.59-1.72,1.45-1.12c0.32,0.22,0.02,0.75-0.31,0.52c-0.46-0.31-0.6,2.43-0.7,2.83c-0.07,0.3-0.16,0.61-0.4,0.84
			c-0.53,0.5-1,0.23-1.4-0.24c-1.14-1.35-6.14-9.25-6.73-10.51C75.63,140.37,76.64,140.41,77.62,138.97z"/>
	</g>
	<g>
		<g>
			<path class="st7" d="M45.84,280.77c-1.32,0-2.53-0.6-3.31-1.65c-0.78-1.06-0.99-2.37-0.58-3.62l17.4-51.75l1.17,0.38l-17.4,51.75
				c-0.29,0.87-0.14,1.79,0.4,2.52c0.54,0.73,1.38,1.15,2.31,1.15c0.02,0,42.19-0.21,42.19-0.21c0.77,0,1.49-0.3,2.03-0.84
				c0.54-0.54,0.83-1.25,0.81-2.01l-0.96-51.98l1.23-0.02l0.96,51.98c0.02,1.08-0.39,2.1-1.16,2.88c-0.77,0.77-1.8,1.2-2.91,1.21
				l-42.18,0.21C45.85,280.77,45.85,280.77,45.84,280.77z"/>
		</g>
		<g>
			<path class="st7" d="M41.23,270.74c-1.32,0-2.53-0.6-3.31-1.65c-0.78-1.06-0.99-2.37-0.58-3.62l17.4-51.75l1.17,0.38l-17.4,51.75
				c-0.29,0.87-0.14,1.79,0.4,2.52c0.54,0.73,1.38,1.15,2.31,1.15c0.02,0,42.19-0.21,42.19-0.21c0.77,0,1.49-0.3,2.03-0.84
				c0.54-0.54,0.83-1.25,0.81-2.01l-0.96-51.98l1.23-0.02l0.96,51.98c0.02,1.08-0.39,2.1-1.16,2.88c-0.77,0.77-1.8,1.2-2.91,1.21
				l-42.18,0.21C41.24,270.74,41.24,270.74,41.23,270.74z"/>
		</g>
		<path class="st18" d="M44.9,199.84c0.75-2.74,3.29-3.74,5.04-4.52c2.49-1.11,5.1-1.6,7.68-1.99c11.39-1.72,22.5-1.04,32.28,5.2
			c0.76,0.48,2.47,2.01,2.19,6.47c0,0.81,0,1.96,0.01,3.3c1.49,0.05,2.98,0.15,4.47,0.31c1.32,0.14,3.57,0.06,4.75,0.97
			c0.8,0.61,1.07,1.65,1.23,2.68c0.4,2.56,0.41,6.95,0.32,9.58c-0.14,3.93-1,4.16-3.68,4.43c-3.65,0.38-16.28,0.41-19.08,0.55
			c-11.21,0.59-18.34,0.06-29.56,0.06c-3.97,0-5.88-1.85-6.06-4.88C44.24,217.49,44,203.11,44.9,199.84z"/>
	</g>
	<g>
		<path class="st5" d="M121.85,181.4c-1.16-1.26-2.5-2.34-4.15-2.9c-1.99-0.67-3.49-0.69-3.96-0.61c-3.16,0.49-7.07,2.54-8.87,3.44
			c-0.32,0.16-0.35,0.46-0.22,0.7c-0.04,0.26,0.04,0.53,0.31,0.62c1.8,0.64,4.04,0.88,6.21,0.69c1.5-0.13,2.98-2.65,4.03-1.68
			c0.7,0.77,1.66,2.19,2.44,2.88c0.2,0.17,0.54,0.02,0.52-0.24c-0.08-1.02-1.46-3.18-1.48-3.28c1.02,0.79,1.9,1.76,2.97,2.51
			c0.25,0.18,0.58-0.01,0.5-0.32c-0.39-1.49-1.22-2.54-2.31-3.26c0.31,0.14,2.62,1.96,3.81,1.98
			C121.96,181.94,122.02,181.58,121.85,181.4z"/>
	</g>
	<g>
		<path class="st1" d="M72.42,154.47c0.04,0.04,0.09,0.08,0.13,0.12c0.29,0.27,0.62,0.36,0.93,0.34c1.51,1.16,2.89,3.2,4.23,4.41
			c1.51,1.36,3.15,2.58,4.68,3.93c2.43,2.13,4.21,4.83,6.15,7.39c-0.76-0.37-1.5-0.73-2.21-1.08c-0.45-0.22-0.93-0.15-1.29,0.09
			c-0.58-0.39-1.16-0.78-1.76-1.15c-1.21-0.76-2.47,0.95-1.5,1.91c0.55,0.54,1.11,1.08,1.66,1.62c-0.2-0.11-0.39-0.22-0.59-0.33
			c-1.4-0.75-2.65,1.35-1.25,2.1c1.09,0.58,2.12,1.21,3.12,1.9c-0.15,0.01-0.31,0.03-0.46,0.06c-0.53,0.11-0.85,0.59-0.89,1.1
			c-0.15-0.16-0.3-0.31-0.45-0.47c-1.47-1.59-4.13-4.15-5.07-6.44c0.17-0.31,0.17-0.69-0.11-1.08l-0.1-0.13
			c-0.31-0.42-0.85-0.75-1.4-0.56c-0.06,0.02-0.12,0.04-0.19,0.07c-0.67,0.24-1,0.81-0.87,1.5c0.48,2.4,3.04,4.97,4.61,6.82
			c2.1,2.49,4.48,4.79,7.09,6.77c1.9,1.44,4.05,2.77,6.53,2.83c1.83,0.05,3.62-0.55,5.44-0.66c2.07-0.12,3.88-0.66,5.88-0.17
			c0.92,0.22,1.67-0.34,1.62-1.28c-0.08-1.56,0.81-5.05-0.9-5.32c-1.57-0.25-2.8-1.16-4.1-2.03c-1.51-1.01-3-1.41-4.69-2.02
			c-2.59-0.92-4-2.7-5.63-4.75c-2.66-3.35-4.84-6.67-8.17-9.44c-1.73-1.43-3.46-2.84-5.06-4.41c-1.22-1.19-2.27-2.88-3.78-3.7
			c-0.59-0.32-1.33-0.13-1.69,0.43c-0.04,0.06-0.08,0.13-0.12,0.19C71.95,153.45,72.03,154.11,72.42,154.47z M94.54,176.77
			c0.13,0.08,0.27,0.15,0.4,0.23c2.22,1.32,4.46,2.66,6.28,4.43c-0.82-0.37-1.79-0.88-2.7-1C97.21,179.21,95.88,177.98,94.54,176.77
			z"/>
	</g>
	<g>
		<path class="st63" d="M101.24,154.64c0.88,2.74,1.42,5.54,1.64,8.4c0.03,0.39-0.59,0.39-0.61,0c-0.22-2.82-0.76-5.55-1.61-8.24
			C100.53,154.43,101.12,154.27,101.24,154.64z"/>
	</g>
	<g>
		<path class="st63" d="M111.22,154.78c0.46,1.61,0.92,3.23,1.38,4.85c0.11,0.37-0.49,0.53-0.59,0.16
			c-0.46-1.61-0.92-3.23-1.38-4.85C110.52,154.57,111.11,154.41,111.22,154.78z"/>
	</g>
	<g>
		<path class="st63" d="M113.8,157.14c0.68,1.01,1.32,2.05,1.92,3.1c0.19,0.34-0.33,0.64-0.53,0.3c-0.61-1.05-1.25-2.09-1.93-3.1
			C113.05,157.12,113.58,156.82,113.8,157.14z"/>
	</g>
	<g>
		<path class="st63" d="M70.45,147.13c3.37,1.89,6.56,3.86,8.82,7.02c2.66,3.74,5.08,7.68,7.6,11.51c0.21,0.33-0.32,0.63-0.53,0.3
			c-2.34-3.54-4.64-7.11-7.01-10.64c-2.35-3.51-5.54-5.62-9.19-7.68C69.8,147.46,70.11,146.94,70.45,147.13z"/>
	</g>
	<g>
		<path class="st63" d="M69.19,165.65c2.78,3.5,5.55,7,8.33,10.5c2.47,3.11,4.94,6.26,8.39,8.37c0.33,0.2,0.03,0.72-0.31,0.52
			c-3.33-2.02-5.76-4.99-8.14-7.98c-2.9-3.66-5.81-7.32-8.71-10.98C68.52,165.78,68.95,165.35,69.19,165.65z"/>
	</g>
	<path class="st65" d="M261.06,186.87h21.73c2.25,0,4.07-1.82,4.07-4.07v-17c0-2.25-1.82-4.07-4.07-4.07h-21.73
		c-2.25,0-4.07,1.82-4.07,4.07v17C256.99,185.05,258.81,186.87,261.06,186.87z"/>
	<path class="st65" d="M294.28,183.6h-37.29v3.27h37.29c0.83,0,1.51-0.67,1.51-1.51v-0.26C295.79,184.28,295.12,183.6,294.28,183.6z
		"/>
	<g>
		<path class="st63" d="M225.94,152.72c0.08-0.85-0.2-2.02,2.38-1.24c0.45,0.14,0.92,0.28,1.39,0.43c0.51,1.08,1.01,2.15,1.52,3.23
			c0.36,0.77,1.44,2.2,1.21,3.09c-0.12,0.48-0.81,0.8-1.16,1.08c-1.1,0.86-1.03,1.39-0.31,2.5c0.86,1.32,2.14,2.77,2.68,4.27
			c0.07,0.12,0.11,0.26,0.11,0.4c0.16,0.91-0.33,1.7-0.77,2.51c-0.35,0.65-0.7,1.31-1.05,1.96c-1.7,3.87-3.51,7.7-5.6,11.39
			C225.21,172.51,225.06,162.61,225.94,152.72z"/>
	</g>
	<g>
		<path class="st63" d="M216.85,152.35c0.05-0.85,0.49-1.97-2.18-1.56c-0.47,0.07-0.95,0.15-1.43,0.23
			c-0.66,0.99-1.31,1.99-1.97,2.98c-0.47,0.71-1.74,1.98-1.64,2.9c0.05,0.49,0.69,0.91,0.99,1.23c0.97,1.01,0.82,1.52-0.05,2.52
			c-1.04,1.19-2.52,2.45-3.26,3.86c-0.08,0.11-0.14,0.24-0.17,0.38c-0.29,0.88,0.09,1.73,0.41,2.59c0.26,0.69,0.5,1.39,0.75,2.09
			c1.13,4.07,2.6,8.32,4.14,12.25C214.98,172.25,216.32,162.26,216.85,152.35z"/>
	</g>
	<g>
		<path class="st5" d="M203.94,217.25c0.53-4.03,2.6-6.2,6.93-5.57c1.39,0.2,3.07,1.73,3.9,3.76c3.66,8.98,7.35,41.01,9.98,48.15
			c0.4,1.08-3.53,2.88-4.4,0.64c-1.32-3.37-2.63-6.73-3.95-10.1C213.84,247.59,203.17,223.1,203.94,217.25z"/>
	</g>
	<g>
		<path class="st5" d="M216.31,214.33c0.53-4.03,2.6-6.2,6.93-5.57c1.39,0.2,3.07,1.73,3.9,3.76c3.66,8.98,8.02,38.23,9.98,48.15
			c0.22,1.13-3.53,2.88-4.4,0.64c-1.32-3.37-2.63-6.73-3.95-10.1C226.21,244.67,215.53,220.18,216.31,214.33z"/>
	</g>
	<g>
		<path class="st5" d="M219.87,261.28c0.03,0.1,0.06,0.2,0.09,0.3c0.11-0.01,0.22,0.02,0.28,0.15c0.01,0.02,0.02,0.05,0.03,0.07
			c0.08,0.18,0.14,0.35,0.21,0.51c-0.05-0.16-0.09-0.32-0.15-0.48c-0.1-0.32,0.43-0.56,0.57-0.23c0.01,0.02,0.02,0.05,0.03,0.07
			c0.01,0.03,0.02,0.05,0.03,0.06c-0.09-0.38,0.46-0.51,0.6-0.15c0.02,0.06,0.05,0.12,0.08,0.18c0.13-0.17,0.45-0.18,0.55,0.08
			c0.1-0.11,0.28-0.14,0.42-0.05c0.07-0.05,0.15-0.06,0.23-0.05c-0.01-0.08-0.03-0.16-0.04-0.25c-0.04-0.33,0.43-0.38,0.58-0.15
			c0.05,0.08,0.1,0.16,0.14,0.24c-0.05-0.13-0.09-0.25-0.14-0.37c-0.15-0.35,0.38-0.66,0.53-0.31c0.98,2.23,1.2,5,1.55,7.39
			c0.22,1.52,0.46,2.28-1.13,2.76c-1.61,0.49-2.06-1.01-2.6-2.3c-0.99-2.38-1.9-5.52-2.56-8.01
			C219.07,260.37,219.76,260.9,219.87,261.28z"/>
	</g>
	<g>
		<path class="st5" d="M205.22,213.03c1.64-3.64,4.95-4.6,8.76-5.08c2.99-0.38,5.85-0.29,10.41,0.54c2.82,0.51,5.24,1.84,6.09,4.84
			c0.53,1.88,0.19,3.96,0.33,5.87c0.09,1.27,0.27,2.39-0.86,3.27c-1.25,0.97-3.35,0.76-4.8,0.84c-2.5,0.14-5.01,0.34-7.52,0.39
			c-4,0.07-8.77-0.68-12-3.25C203.31,218.6,204.17,215.37,205.22,213.03z"/>
	</g>
</g>
</svg>
