<?xml version="1.0" encoding="utf-8"?>
<!-- Generator: Adobe Illustrator 23.0.1, SVG Export Plug-In . SVG Version: 6.00 Build 0)  -->
<svg version="1.1" id="Layer_1" xmlns="http://www.w3.org/2000/svg" xmlns:xlink="http://www.w3.org/1999/xlink" x="0px" y="0px"
	 viewBox="0 0 502 535" style="enable-background:new 0 0 502 535;" xml:space="preserve">
<style type="text/css">
	.st0{fill:#0093FD;}
	.st1{fill:#F5F5F5;}
	.st2{fill:#F4F3EE;}
	.st3{fill:#E6E6E6;}
	.st4{fill:#FFD931;}
	.st5{fill:#1F263A;}
	.st6{fill:#284F4C;}
	.st7{fill:#FFFFFF;}
	.st8{fill:#B3B3B3;}
	.st9{fill:#2992FA;}
	.st10{fill:#27374D;}
	.st11{fill:#DE614B;}
	.st12{fill:#2C294C;}
	.st13{fill:#EAEAEA;}
	.st14{fill:#D6D6D6;}
	.st15{fill:#223359;}
	.st16{fill:#FCD846;}
	.st17{fill:#DADAEA;}
	.st18{fill:#E8BC05;}
	.st19{fill:#CECECE;}
	.st20{opacity:0.4;fill:#E6E6E6;}
	.st21{opacity:0.4;}
	.st22{fill:#2A2BEE;}
	.st23{fill:url(#SVGID_1_);}
	.st24{fill:url(#SVGID_2_);}
	.st25{fill:none;stroke:#2A2BEE;stroke-width:8;stroke-miterlimit:10;}
	.st26{fill:none;stroke:url(#SVGID_3_);stroke-width:8;stroke-miterlimit:10;}
	.st27{fill:none;stroke:url(#SVGID_4_);stroke-width:7;stroke-miterlimit:10;}
	.st28{fill:url(#SVGID_5_);}
	.st29{fill:url(#SVGID_6_);}
	.st30{fill:url(#SVGID_7_);}
	.st31{fill:url(#SVGID_8_);}
	.st32{fill:url(#SVGID_9_);}
	.st33{fill:url(#SVGID_10_);}
	.st34{fill:url(#SVGID_11_);}
	.st35{fill:url(#SVGID_12_);}
	.st36{fill:url(#SVGID_13_);}
	.st37{fill:url(#SVGID_14_);}
	.st38{fill:url(#SVGID_15_);}
	.st39{fill:url(#SVGID_16_);}
	.st40{fill:url(#SVGID_17_);}
	.st41{fill:url(#SVGID_18_);}
	.st42{fill:url(#SVGID_19_);}
	.st43{fill:url(#SVGID_20_);}
	.st44{fill:#F9FBFF;}
	.st45{fill:#EDF5FC;}
	.st46{fill:none;stroke:#2A2BEE;stroke-width:3;stroke-miterlimit:10;}
	.st47{fill:url(#SVGID_21_);}
	.st48{fill:url(#SVGID_22_);}
	.st49{fill:url(#SVGID_23_);}
	.st50{fill:url(#SVGID_24_);}
	.st51{fill:url(#SVGID_25_);}
	.st52{fill:#DBDBDB;}
	.st53{fill:#AF9279;}
	.st54{fill:#F7DABC;}
	.st55{opacity:0.1;}
	.st56{fill:#027FCC;}
	.st57{fill:#747489;}
	.st58{fill:#E2B705;}
	.st59{fill:#263556;}
	.st60{fill:#E0E0E0;}
	.st61{fill:#C4C4C4;}
	.st62{fill:#006EB2;}
	.st63{fill:#B8B8C9;}
	.st64{fill:#9393AB;}
	.st65{fill:#E5B900;}
	.st66{fill:#5578A3;}
	.st67{opacity:0.3;fill:#DADAEA;}
	.st68{fill:#C6C6C6;}
	.st69{fill:#0469BC;}
	.st70{opacity:0.2;}
	.st71{fill:#C1C1C1;}
	.st72{fill:#F2F2F2;}
	.st73{opacity:0.51;fill:#E6E1FF;}
	.st74{fill:#709FE0;}
	.st75{fill:#5183BF;}
	.st76{fill:#D1D1D1;}
	.st77{fill:#D6AE05;}
	.st78{fill:#DCDAE0;}
	.st79{fill:#F3F3F5;}
	.st80{fill:#D9924E;}
	.st81{fill:#C2C2ED;}
	.st82{fill:#636375;}
	.st83{fill:#543237;}
	.st84{fill:#3F3E66;}
	.st85{fill:#585866;}
	.st86{fill:#A04B40;}
	.st87{fill:#B7743D;}
	.st88{fill:#0074D3;}
</style>
<g>
	<path class="st11" d="M141.58,378.33c-0.56-2.13-3.46-0.66-4.71-0.24c-0.15,0.05-0.24,0.16-0.29,0.28
		c-0.22-0.01-0.43,0.13-0.4,0.45c0.17,2.35,1.24,10.77,1.46,12.61c0.02,0.17,5.06-0.6,5.06-0.85
		C142.67,388.74,142.07,380.18,141.58,378.33z"/>
	<g>
		<path class="st5" d="M156.17,394.48c-0.65-0.83-2.97-1.27-3.86-1.5c-2.82-0.7-6.42-2.04-8.82-3.65c-1.4-0.94-0.53-0.81-2.26-0.76
			c-1.46,0.05-2.97-0.16-4.4-0.12c-0.61,0.02-1.48-0.11-1.61,0.85c-0.12,1.93-0.17,3.87-0.15,5.81c-0.01,1.21,0.66,1.19,0.77,1.19
			c1.53,0.02,3.06,0.03,4.58,0.04c0.38,0,0.49-0.94,2.14-0.83c2.12,0.15,3.46,0.91,5.33,0.97c1.96,0.06,3.46,0.06,5.45-0.08
			C154.98,396.3,157.88,396.66,156.17,394.48z"/>
	</g>
	<path class="st12" d="M143.92,391.85c-0.29,0.33,0.24,0.75,0.53,0.43c0.47-0.52,0.9-1.08,1.3-1.65c-0.21-0.1-0.41-0.21-0.61-0.32
		C144.75,390.84,144.35,391.36,143.92,391.85z M146.57,391.02c-0.35,0.54-0.72,1.07-1.14,1.57c-0.28,0.34,0.25,0.76,0.53,0.43
		c0.46-0.54,0.88-1.11,1.26-1.71C147,391.2,146.78,391.11,146.57,391.02z M142.43,390.74c-0.31,0.31,0.23,0.73,0.53,0.43
		c0.44-0.44,0.86-0.9,1.26-1.37c-0.2-0.12-0.4-0.24-0.59-0.37C143.25,389.88,142.85,390.32,142.43,390.74z"/>
	<path class="st11" d="M169.96,376.79c-0.63-2.11-3.48-0.55-4.72-0.09c-0.15,0.05-0.24,0.16-0.28,0.29c-0.22,0-0.42,0.15-0.39,0.47
		c0.24,2.34,1.58,10.73,1.85,12.56c0.03,0.17,5.04-0.76,5.03-1C171.37,387.15,170.51,378.62,169.96,376.79z"/>
	<g>
		<path class="st5" d="M185.88,392.86c-0.65-0.83-2.97-1.27-3.86-1.5c-2.82-0.7-6.42-2.04-8.82-3.65c-1.4-0.94-0.53-0.81-2.26-0.76
			c-1.46,0.05-2.97-0.16-4.4-0.12c-0.61,0.02-1.48-0.11-1.61,0.85c-0.12,1.93-0.17,3.87-0.15,5.81c-0.01,1.21,0.66,1.19,0.77,1.19
			c1.53,0.02,3.06,0.03,4.58,0.04c0.38,0,0.49-0.94,2.14-0.83c2.12,0.15,3.46,0.91,5.33,0.97c1.96,0.06,3.46,0.06,5.45-0.08
			C184.69,394.67,187.59,395.03,185.88,392.86z"/>
	</g>
	<path class="st12" d="M173.63,390.22c-0.29,0.33,0.24,0.75,0.53,0.43c0.47-0.52,0.9-1.08,1.3-1.65c-0.21-0.1-0.41-0.21-0.61-0.32
		C174.46,389.21,174.06,389.73,173.63,390.22z M176.28,389.39c-0.35,0.54-0.72,1.07-1.14,1.57c-0.28,0.34,0.25,0.76,0.53,0.43
		c0.46-0.54,0.88-1.11,1.26-1.71C176.71,389.58,176.49,389.49,176.28,389.39z M172.14,389.12c-0.31,0.31,0.23,0.73,0.53,0.43
		c0.44-0.44,0.86-0.9,1.26-1.37c-0.2-0.12-0.4-0.24-0.59-0.37C172.95,388.26,172.56,388.69,172.14,389.12z"/>
	<g>
		<path class="st4" d="M173.83,352.95c-0.15-9.08,0.36-18.21-0.23-27.28c-1.16-17.94-5.81-35.92-8.58-53.68
			c-0.22-1.44-0.75-1.67-1.83-1.16c-0.67-1.86-3.58-1.96-4.01,0.03c-1.16-0.78-3.25,0.03-3.39,1.65c-0.01,0.07-0.01,0.15-0.01,0.22
			c-0.37,0.23-0.7,0.58-0.91,1.07c-0.07,0.16-0.13,0.32-0.19,0.48c-1.37-0.65-3.15,0.66-2.91,2.34c0.07,0.49,0.13,0.98,0.19,1.47
			c-0.65-0.37-1.49-0.46-2.14-0.17c-0.39-1.23-2.23-1.64-3.3-0.94c0-0.13,0.01-0.25,0.01-0.38c0.05-2.29-3.4-2.61-4.1-0.53
			c-0.07,0.22-0.14,0.44-0.22,0.66c0.04-1.29,0.09-2.58,0.12-3.87c0.02-0.88-0.52-1.48-1.22-1.76c0.52-4.79-5.72-6.54-8.71-3.62
			c-0.07,0.03-0.13,0.07-0.19,0.11c-0.59,0.26-1.03,0.79-1.07,1.57c-0.21,0.66,0.95,1.12,1.02,1.7c-1.53,9.59-4.8,19.56-4.03,29.25
			c0.9,11.46,1.93,22.85,2.34,34.35c0.41,11.65,0.67,23.31,1.64,34.93c0.22,2.58,0.29,10.53,0.58,13.1c0.24,2.13,0.5,6.5,2.82,6.64
			c5.26,0.32,3.9,0.3,7.47-0.34c0.99-0.18,1.49-1.08,1.54-1.91c1.03-18.45,5.23-62.77,6.46-80.72c3.06,17.09,9.3,63.37,13.62,80.22
			c0.22,0.84,1.12,1.46,2.01,1.45c2.91-0.01,3.55,0.06,6.47,0.06c1.07,0,2.17-0.91,2.09-1.98
			C174.43,376.51,173.98,362.34,173.83,352.95z"/>
	</g>
	<g>
		<g>
			<path class="st5" d="M247.24,367.42c0.16-13.9,0.33-27.8,0.49-41.7c0.01-0.89-1.37-0.89-1.38,0
				c-0.15,12.11-0.29,24.21-0.43,36.32c-0.07,5.83-0.14,11.66-0.21,17.49c-0.04,3.14-0.07,6.28-0.11,9.42
				c-0.01,1.25,0.15,2.8-0.05,4.04c0.33,1.39-0.28,2.32-1.83,2.79c-0.46,0.16-0.92,0.31-1.38,0.47
				c-0.67-10.88-0.32-21.78-0.26-32.67c0.06-11.53-0.03-23.06-0.29-34.59c-0.02-0.88-1.38-0.88-1.37,0
				c0.23,11.53,0.34,23.06,0.28,34.59c-0.06,11.21-0.43,22.42,0.31,33.62c0.03,0.42,0.42,0.82,0.87,0.67
				c1.68-0.57,4.03-0.82,4.88-2.53c0.92-1.85,0.2-5.66,0.22-7.72C247.08,380.87,247.16,374.14,247.24,367.42z"/>
		</g>
		<g>
			<path class="st5" d="M287.09,367.42c0.16-13.9,0.33-27.8,0.49-41.7c0.01-0.89-1.37-0.89-1.38,0
				c-0.15,12.11-0.29,24.21-0.43,36.32c-0.07,5.83-0.14,11.66-0.21,17.49c-0.04,3.14-0.07,6.28-0.11,9.42
				c-0.01,1.25,0.15,2.8-0.05,4.04c0.33,1.39-0.28,2.32-1.83,2.79c-0.46,0.16-0.92,0.31-1.38,0.47
				c-0.67-10.88-0.32-21.78-0.26-32.67c0.06-11.53-0.03-23.06-0.29-34.59c-0.02-0.88-1.38-0.88-1.37,0
				c0.23,11.53,0.34,23.06,0.28,34.59c-0.06,11.21-0.43,22.42,0.31,33.62c0.03,0.42,0.42,0.82,0.87,0.67
				c1.68-0.57,4.03-0.82,4.88-2.53c0.92-1.85,0.2-5.66,0.22-7.72C286.93,380.87,287.01,374.14,287.09,367.42z"/>
		</g>
		<path class="st72" d="M233.84,336.79c0.19,3.43,2.31,5.52,6.72,5.52c12.45,0,20.36,0.61,32.81-0.06c3.1-0.17,17.13-0.2,21.17-0.63
			c2.97-0.31,3.92-0.56,4.08-5.02c0.11-2.98,0.1-7.95-0.35-10.84c-0.18-1.16-0.48-2.34-1.37-3.03c-1.31-1.03-3.8-0.94-5.27-1.1
			c-1.65-0.18-3.31-0.29-4.96-0.35c-0.01-1.51-0.02-2.81-0.01-3.73c0.31-5.05-1.59-6.77-2.44-7.32
			c-10.86-7.07-23.19-7.83-35.83-5.89c-2.86,0.44-5.76,0.99-8.52,2.25c-1.95,0.89-4.77,2.02-5.6,5.12
			C233.29,315.42,233.56,331.69,233.84,336.79z"/>
	</g>
	<path class="st17" d="M201.01,291.24c-1.02-1.01-2.16-1.96-3.53-2.44c-2.96-1.03-5.44,0.95-8.16,1.62
		c-0.46-3.86-1.12-7.69-1.72-11.52c-0.37-2.35-0.74-5.1-3.74-3.73c-3.13,1.44-3.1,4.04-2.11,6.89c1.26,3.64,2.49,8.55,4.99,11.6
		c0.73,0.74,1.34,0.82,2.71,0.8c1.94-0.13,4.09-1.35,5.5-2.13c1.61-0.89,2.91-1.02,4.42,0.1c0.52,0.38,1.08,0.97,1.69,1.2
		c0.43,0.16,1.06,0.31,1.32-0.23C202.76,292.62,201.43,291.65,201.01,291.24z"/>
	<g>
		<path class="st5" d="M190.01,281.58c-1.65-6.71-4.93-18.33-6.4-25.09c-2.15-9.84-2.49-22-7.87-29.94
			c-2.07-3.05-8.66-8.36-17.93-9.48c-9.99-2.56-19.07,0.47-26.12,8.47c-2.43,2.76,1.72,4.7,1.35,8.12
			c-0.48,4.43-0.95,8.87-1.4,13.31c-0.44,4.24-1.55,14.67-1.94,18.91c-0.28,3.09-2.31,9.29,0.09,11.97
			c2.17,2.42,17.74,6.4,20.08,6.34c3.77-0.1,12.03-0.16,15.4-1.78c3.79-1.83,3.52-13.32,4.4-16.76c0.46-1.79,0.9-3.58,1.34-5.37
			c2.27,8.57,7.58,21.25,11.17,29.4c0.31,0.71,1.28,0.79,1.89,0.49c2.05-1.01,4.83-1.31,6.19-3.25
			C191.35,285.35,190.42,283.24,190.01,281.58z"/>
	</g>
	<g>
		<path class="st5" d="M145.8,216.76c-17.8,1.38-22.48,16.1-27.56,27.21c-2.15,4.71-4.03,10.15,0.93,13.74
			c4.96,3.59,10.96,1.33,15.99-0.84c1.3-0.56,0.59-2.59-0.7-2.57c-0.24,0-0.48,0.01-0.72,0.01c0.53-0.71,0.43-1.58-0.33-2.1
			c-0.1-0.07-0.2-0.12-0.3-0.18c-0.3-0.35-0.76-0.57-1.22-0.51c0.22-0.52,0.48-1.03,0.69-1.51c0.77-1.72,1.69-3.32,2.72-4.89
			c0.74-1.14-0.46-2.21-1.51-2.01c0.78-1.15,1.56-2.31,2.31-3.48c0.86-1.32-0.81-2.46-1.93-1.81c0.59-0.94,1.19-1.87,1.78-2.81
			c0.44-0.69,0.18-1.34-0.32-1.72c0.08-0.11,0.16-0.23,0.23-0.34c0.46-0.69,0.2-1.34-0.3-1.7c0.89-1.08,1.79-2.15,2.68-3.23
			c0.94-1.13-0.18-2.64-1.33-2.32c-0.15-0.16-0.33-0.29-0.54-0.38c3.05-2.36,6.4-4.24,10.02-5.28
			C148.07,219.56,147.56,216.62,145.8,216.76z"/>
	</g>
	<path class="st1" d="M239.64,383.51c0.26-2.19,3.33-1.14,4.63-0.9c0.15,0.03,0.26,0.12,0.33,0.24c0.22-0.04,0.44,0.07,0.46,0.39
		c0.16,2.35,0.28,10.84,0.33,12.69c0,0.17-5.09,0.11-5.13-0.13C240.03,393.97,239.42,385.41,239.64,383.51z"/>
	<g>
		<path class="st5" d="M225.87,399.31c0.65-0.83,2.97-1.27,3.86-1.5c2.82-0.7,6.42-2.04,8.82-3.65c1.4-0.94,0.53-0.81,2.26-0.76
			c1.46,0.05,2.97-0.16,4.4-0.12c0.61,0.02,1.48-0.11,1.61,0.85c0.12,1.93,0.17,3.87,0.15,5.81c0.01,1.21-0.66,1.19-0.77,1.19
			c-1.53,0.02-3.06,0.03-4.58,0.04c-0.38,0-0.49-0.94-2.14-0.83c-2.12,0.15-3.46,0.91-5.33,0.97c-1.96,0.06-3.46,0.06-5.45-0.08
			C227.06,401.12,224.16,401.48,225.87,399.31z"/>
	</g>
	<path class="st1" d="M256.91,384.03c0.26-2.19,3.33-1.14,4.63-0.9c0.15,0.03,0.26,0.12,0.33,0.24c0.22-0.04,0.44,0.07,0.46,0.39
		c0.16,2.35,0.28,10.84,0.33,12.69c0,0.17-5.09,0.11-5.13-0.13C257.29,394.48,256.68,385.93,256.91,384.03z"/>
	<g>
		<path class="st5" d="M243.13,399.82c0.65-0.83,2.97-1.27,3.86-1.5c2.82-0.7,6.42-2.04,8.82-3.65c1.4-0.94,0.53-0.81,2.26-0.76
			c1.46,0.05,2.97-0.16,4.4-0.12c0.61,0.02,1.48-0.11,1.61,0.85c0.12,1.93,0.17,3.87,0.15,5.81c0.01,1.21-0.66,1.19-0.77,1.19
			c-1.53,0.02-3.06,0.03-4.58,0.04c-0.38,0-0.49-0.94-2.14-0.83c-2.12,0.15-3.46,0.91-5.33,0.97c-1.96,0.06-3.46,0.06-5.45-0.08
			C244.33,401.64,241.43,402,243.13,399.82z"/>
	</g>
	<g>
		<path class="st5" d="M285.72,300.7c-0.07-1.64-18.85,4.15-19.59,4.86c-0.99,0.94,1,9.12,0.05,10.08c-1.19,1.11-2.3,2.28-3.31,3.53
			c-4.98,5.65-8.74,11.92-9.17,20.04c-0.73,13.76-0.88,32.25-0.95,46.03c0,0.79,0.64,1.33,1.38,1.38c3.77,0.27,7.51,0.2,11.26-0.21
			c0.77-0.09,1.34-0.56,1.38-1.38l1.26-26.31c0.39-7.17,0.22-14.73,4.24-20.99c3.19-4.96,10.54-11.33,13.7-16.27
			C289.22,316.36,285.98,306.49,285.72,300.7z"/>
	</g>
	<g>
		<path class="st5" d="M268.47,303.42c-0.07-1.64-16.56-1.56-16.67-0.54c-0.86,7.67-0.07,8.36-1.02,9.32
			c-1.19,1.11-15.52,14.71-15.95,22.83c-0.73,13.76-0.99,36.98-1.06,50.75c0,0.79,0.64,1.33,1.38,1.38
			c3.77,0.27,7.51,0.2,11.26-0.21c0.77-0.09,1.34-0.56,1.38-1.38l1.17-25.96c0.39-7.17,0.22-14.73,4.24-20.99
			c3.19-4.96,8.01-8.68,11.16-13.62C267.6,319.92,268.72,309.21,268.47,303.42z"/>
	</g>
	<path class="st1" d="M274.65,229.26c-2.33-0.55-4.66-1.06-7.01-1.5c-0.21-0.04-0.4-0.04-0.59-0.03c-1.22-0.03-2.52,0.98-2.16,2.57
		c1.33,5.88,1.04,9.42,1.76,15.43c0.32,2.69,10.41,1.69,10.39,0.61c-0.08-4.14-0.42-10.89-0.8-15.02
		C276.16,230.4,275.59,229.48,274.65,229.26z"/>
	<path class="st73" d="M269.95,241.88c0.95-0.82,2.24-1.1,3.12-2c0.99-1.02,1.26-3.56-0.79-3.29c-0.24,0.03-0.41,0.17-0.51,0.33
		c-0.88,0.13-2.02,0.92-2.74,1.47c-0.12-0.1-0.28-0.16-0.43-0.15c-0.82,0.04-1.89-1.02-2.66-0.38c0.13,1.57,0.38,4.65,0.51,6.22
		c0.37,0.02,0.75-0.04,1.1-0.18C268.57,243.48,269.15,242.57,269.95,241.88z"/>
	<path class="st1" d="M277.96,213.38c-1.38-1.91-4.26-0.24-6.4-0.54c-2.54-0.36-4.37-2.35-5.97-0.43c-1.9,1.57-3.69,3.23-4.07,5.78
		c-0.69,4.7-1.36,12.49,0.36,16.86c1.36,3.46,3.53,4.78,5.28,4.82c2.91,0.08,5.9-2.34,7.67-4c0.96-0.9,2.6-2.87,3.05-3.94
		C280.43,225.82,282.06,219.06,277.96,213.38z"/>
	<g>
		<path class="st5" d="M281.67,214.58c-0.93-2.14-3.48-2.57-5.59-3c-0.4-0.4-0.81-0.79-1.21-1.14c-1.26-1.13-2.26-1.66-3.93-1.12
			c-0.65,0.21-1.14,0.69-1.77,0.93c-1.24,0.47-2.34,0.31-3.6,0.47c-0.91,0.12-1.65,0.26-2.42,0.8c-2.27,1.58-4.02,6.98-0.8,8.47
			c0.78,0.36,1.61,0.18,2.41,0.13c2.06-0.11,3.67,0.41,5.6,0.89c1.86,0.47,2.9-0.79,4.13-1.82c0.48,0.33,0.64,4.42,1.93,5.36
			c0.81,0.59,1.17,0.55,1.27,0.88c0.35,1.14,0.12,2.39-0.19,3.51c-0.29,1.04-1.05,2.39-0.84,3.48c0.02,0.11-0.21,1.53-0.1,1.55
			c1.4,0.26,2.61-4.32,2.92-5.23c0.69-2.01,1.24-4.05,1.59-6.13c0.06-0.23,0.12-0.45,0.17-0.68
			C281.68,219.38,282.64,216.8,281.67,214.58z"/>
	</g>
	<path class="st1" d="M276.48,224.9c-0.88,0.04-0.88,1.39,0,1.37c1.86-0.04,0.33,2.72,0,3.26c-0.51,0.86-1.09,1.67-1.7,2.46
		c-0.53,0.69,0.41,1.66,0.97,0.97c1.15-1.43,2.63-3.23,2.94-5.1C278.94,226.36,278.15,224.83,276.48,224.9z"/>
	<path class="st17" d="M155.55,201.9c2.37-0.28,4.75-0.52,7.13-0.7c0.21-0.02,0.4,0,0.59,0.04c1.22,0.11,2.4,1.25,1.86,2.8
		c-1.98,5.69-2.1,9.25-3.48,15.13c-0.62,2.63-10.53,0.51-10.39-0.57c0.55-4.11,1.64-10.77,2.49-14.84
		C153.93,202.86,154.59,202.01,155.55,201.9z"/>
	<path class="st73" d="M158.8,214.97c-0.85-0.92-2.11-1.34-2.88-2.34c-0.87-1.13-0.85-3.68,1.15-3.18c0.24,0.06,0.39,0.21,0.47,0.39
		c0.86,0.22,1.9,1.14,2.56,1.77c0.13-0.08,0.29-0.13,0.44-0.1c0.81,0.14,1.99-0.8,2.69-0.08c-0.3,1.54-0.9,4.57-1.21,6.12
		c-0.37-0.02-0.74-0.12-1.07-0.3C159.99,216.72,159.52,215.74,158.8,214.97z"/>
	<path class="st17" d="M154.05,185.75c1.58-1.74,4.26,0.24,6.42,0.18c2.56-0.07,4.61-1.84,5.98,0.25c1.71,1.78,3.31,3.63,3.39,6.2
		c0.16,4.75-0.06,12.56-2.26,16.72c-1.74,3.28-4.05,4.35-5.79,4.2c-2.9-0.25-5.6-2.99-7.18-4.83c-0.86-1-2.26-3.15-2.58-4.26
		C150.19,197.83,149.33,190.93,154.05,185.75z"/>
	<path class="st74" d="M284.91,247.9c-1.14-0.37-4.57-1.43-6.86-1.69c0.02-1.6-0.15-3.66-1.8-3.34c-1.05,0.2-2.16,0.69-3.13,1.15
		c-0.66,0.31-1.22,0.73-1.79,1.14c-1.06-0.96-2.5-1.45-4.01-1.67c-0.74-0.11-1.58-0.32-2.12,0.34c-0.31,0.38-0.39,1.05-0.52,1.5
		c-0.1,0.33-0.19,0.67-0.29,1c-3.78,0.62-6.87,1.71-7.83,2.26c-2.33,1.33-4.14,3.39-5.35,5.69c-3.02,5.77-2.66,12.78-3.02,19.06
		c-0.41,7.14-1.09,28.61,4.54,30.56c2.83,0.98,8.22,0.86,11.18,0.99c4.04,0.18,8.09,0.25,12.14,0.22c2.23-0.02,8.27-0.93,9.81-2.71
		c4.58-5.28,2.21-14.85,3.12-21.39c0.98-7.03,1.78-9.5,2.27-16.58C291.68,258.41,291.37,249.98,284.91,247.9z"/>
	<g>
		<path class="st5" d="M380.7,247.68c-0.59-1.34-1.54-2.45-2.2-3.76c-0.98-1.95-0.45-3.97-0.55-6.06c-0.15-3.09-1.55-4.71-3.35-6.99
			c-1.76-2.23-1.47-3.86-1.08-6.43c0.19-1.22,0.32-2.41,0.12-3.63c-0.44-2.67-2.01-5.01-4.14-6.63c-3.63-2.77-10.47-4.36-14.14-0.93
			c-1.62,1.51,0.81,3.93,2.43,2.43c2.09-1.93,6.54-0.6,8.64,0.59c1.75,0.99,3.16,2.64,3.66,4.58c-1.02-0.42-2.44,0.07-2.4,1.5
			c0.04,1.35-0.01,2.69-0.11,4.03c-0.89-0.63-2.37-0.43-2.7,0.88c-1.57,6.37-4.08,13.3-3.96,19.91c0.03,1.55,2.18,2.22,3.05,1.23
			c0.25,0.4,0.58,0.76,1.02,1.06c0.47,0.33,1.27,0.32,1.74,0c0.77-0.52,1.25-1.3,1.57-2.18c0.2,1.61,0.53,3.2,1.14,4.7
			c0.65,1.6,3.04,1.63,3.36-0.09c0.13,0.64,0.27,1.27,0.39,1.91c0.15,0.76,0.65,1.14,1.22,1.22c-0.24,0.27-0.38,0.65-0.34,1.14
			c0.02,0.29,0.05,0.57,0.07,0.86c0.11,1.32,1.38,2.14,2.6,1.49C380.69,256.45,382.51,251.81,380.7,247.68z"/>
	</g>
	<path class="st17" d="M384.04,269.63c-2.21-6.96-3.94-14.68-9.41-19.91c-1.6-1.53-4.03,0.89-2.43,2.43c1.23,1.18,2.23,2.5,3.07,3.9
		c-0.46,0.26-0.81,0.7-0.87,1.23c-0.78-0.59-2.03-0.33-2.56,0.46c-1.02-0.54-2.46-0.12-2.48,1.43c-0.07,8.44,0.47,17.32,2.62,25.52
		c0.72,2.75,2.21,5.66,5.27,6.29c2.46,0.5,5.83-0.52,7.79-2.04C390.75,284.49,385.71,274.91,384.04,269.63z"/>
	<g>
		<g>
			<path class="st5" d="M335.09,367.42c0.16-13.9,0.33-27.8,0.49-41.7c0.01-0.89-1.37-0.89-1.38,0
				c-0.15,12.11-0.29,24.21-0.43,36.32c-0.07,5.83-0.14,11.66-0.21,17.49c-0.04,3.14-0.07,6.28-0.11,9.42
				c-0.01,1.25,0.15,2.8-0.05,4.04c0.33,1.39-0.28,2.32-1.83,2.79c-0.46,0.16-0.92,0.31-1.38,0.47
				c-0.67-10.88-0.32-21.78-0.26-32.67c0.06-11.53-0.03-23.06-0.29-34.59c-0.02-0.88-1.38-0.88-1.37,0
				c0.23,11.53,0.34,23.06,0.28,34.59c-0.06,11.21-0.43,22.42,0.31,33.62c0.03,0.42,0.42,0.82,0.87,0.67
				c1.68-0.57,4.03-0.82,4.88-2.53c0.92-1.85,0.2-5.66,0.22-7.72C334.93,380.87,335.01,374.14,335.09,367.42z"/>
		</g>
		<g>
			<path class="st5" d="M374.94,367.42c0.16-13.9,0.33-27.8,0.49-41.7c0.01-0.89-1.37-0.89-1.38,0
				c-0.15,12.11-0.29,24.21-0.43,36.32c-0.07,5.83-0.14,11.66-0.21,17.49c-0.04,3.14-0.07,6.28-0.11,9.42
				c-0.01,1.25,0.15,2.8-0.05,4.04c0.33,1.39-0.28,2.32-1.83,2.79c-0.46,0.16-0.92,0.31-1.38,0.47
				c-0.67-10.88-0.32-21.78-0.26-32.67c0.06-11.53-0.03-23.06-0.29-34.59c-0.02-0.88-1.38-0.88-1.37,0
				c0.23,11.53,0.34,23.06,0.28,34.59c-0.06,11.21-0.43,22.42,0.31,33.62c0.03,0.42,0.42,0.82,0.87,0.67
				c1.68-0.57,4.03-0.82,4.88-2.53c0.92-1.85,0.2-5.66,0.22-7.72C374.79,380.87,374.87,374.14,374.94,367.42z"/>
		</g>
		<path class="st72" d="M321.7,336.79c0.19,3.43,2.31,5.52,6.72,5.52c12.45,0,20.36,0.61,32.81-0.06c3.1-0.17,17.13-0.2,21.17-0.63
			c2.97-0.31,3.92-0.56,4.08-5.02c0.11-2.98,0.1-7.95-0.35-10.84c-0.18-1.16-0.48-2.34-1.37-3.03c-1.31-1.03-3.8-0.94-5.27-1.1
			c-1.65-0.18-3.31-0.29-4.96-0.35c-0.01-1.51-0.02-2.81-0.01-3.73c0.31-5.05-1.59-6.77-2.44-7.32
			c-10.86-7.07-23.19-7.83-35.83-5.89c-2.86,0.44-5.76,0.99-8.52,2.25c-1.95,0.89-4.77,2.02-5.6,5.12
			C321.15,315.42,321.41,331.69,321.7,336.79z"/>
	</g>
	<path class="st7" d="M388.56,332.14c-0.82-6.54-1.45-7.07-4.25-10.27c-2.17-2.48-8.8-2.72-12.24-3.3
		c-4.95-0.83-9.91-1.66-14.86-2.49c-2.25-0.38-4.5-0.75-6.75-1.13c-1.82-0.3-10.07-5.13-11.95-4.85c-3.08,0.46-0.35,8.37-2.67,10.22
		c-0.11,0.09-0.21,0.19-0.29,0.28c-0.8,0.25-1.52,1-1.36,2.06c0.93,6.4,4.5,9.01,10.86,9.02c8.31,0.02,16.76,0.24,25.09,0.71
		c4.47,0.25,7.79-0.85,8.34,3.56c1.2,9.66,11.36,29.19,13.73,36.51c0.01,0.05,4.07-0.54,4.06-0.97
		C396.21,367.29,389.17,336.98,388.56,332.14z"/>
	<path class="st7" d="M376.12,326.68c0.06-0.52,0.12-1.04,0.18-1.56c0.19-1.57-2.31-1.83-2.71-0.37c-0.35,1.3-0.69,2.61-1.02,3.91
		c-0.12-0.36-0.25-0.72-0.41-1.07c-0.49-1.07-2.1-0.76-2.47,0.23c-0.14-0.22-0.29-0.43-0.47-0.62c-0.67-0.73-1.65-0.41-2.13,0.28
		c-0.23-1.53-22.12,4-20.45,4.22c16.52,2.21,17.75,2.48,17.74,5.72c-0.02,6.94-0.1,13.88-0.17,20.82
		c-0.11,10.21,1.41,20.49,0.56,30.67c-0.15,1.77,2.59,1.75,2.75,0c0.07-0.78,0.12-1.55,0.16-2.33c0.02,0.25,0.03,0.49,0.05,0.74
		c0.17,1.78,2.57,1.77,2.76,0c2.15-19.8,4.32-39.59,6.45-59.39C377.02,327.24,376.63,326.82,376.12,326.68z"/>
	<path class="st7" d="M403.51,375.47c-2.54-0.92-5.38-0.58-6.48-3.65c-0.08-0.28-0.17-0.58-0.27-0.9c0,0-1.19-4.64-1.33-5.1
		c-1.26,1.42-2.05,5.85-3.9,4.7c0.91,2.62,1.64,4.71,1.85,5.28c0.02,0.04,0.39-0.07,0.91-0.26c1.55,1.04,3.93,1.28,5.61,1.37
		c0.37,0.02,0.66-0.2,0.76-0.48c0.27,0.07,0.54,0.14,0.8,0.23c0.34,0.11,0.63-0.03,0.81-0.25c0.32,0.07,0.63,0.13,0.95,0.2
		C404.04,376.79,404.2,375.72,403.51,375.47z"/>
	<g>
		<path class="st5" d="M410.92,376.81c-2.74-0.53-5.97-1.39-7.93-1.76c-1.55-0.29-2.19,0.66-3.73,0.85c-2.6,0.32-4.2-1.01-6.33-1.8
			c-0.17-0.06-0.61,0.1-0.58,0.58c0.1,1.6,0.22,4.93,1.9,5.87c0.17,0.09,0.3,0.2,0.41,0.34c0.49,0.58,0.68,1.57,0.85,2.21
			c0.05,0.17,0.28,0.27,0.44,0.21c0.2-0.09,0.39-0.15,0.6-0.21c0.17-0.05,0.28-0.28,0.21-0.44c-0.3-0.62-0.49-1.25-0.57-1.92
			c1.52-0.29,2.83-0.9,4.08-0.92c1.66-0.02,2.23,0.34,3.64,0.59c1.08,0.19,2.7-0.41,3.7-0.74c1.03-0.34,3.44-0.89,3.59-2.27
			C411.21,377.18,411.14,376.86,410.92,376.81z"/>
	</g>
	<path class="st75" d="M270.17,256.45c-0.08-0.43-0.73-0.25-0.65,0.18c1.35,7.5-1.76,14.84-1.12,22.35
		c0.15,1.79,0.61,3.54,0.79,5.33c0.19,1.99-0.08,3.95-0.47,5.89c-0.63,3.21-1.43,6.33-0.95,9.62c0.06,0.44,0.73,0.25,0.66-0.18
		c-0.57-3.86,0.78-7.55,1.31-11.33c0.5-3.63-0.61-6.96-0.72-10.56C268.78,270.59,271.49,263.61,270.17,256.45z"/>
	<g>
		<path class="st5" d="M370.29,386.18c-0.89-0.37-3.33,0.1-4.52,0.81c-0.25-0.05-0.53,0.03-0.7,0.3c-1.4,2.19-1.61,5.33-2.19,7.83
			c-0.42,1.83-0.08,4.02,1,5.58c2.17,3.14,6.1-1.69,6.84-3.89c0.27-0.81,0.25-1.55,0.2-2.38c-0.11-1.86,0.09-3.38,0.27-5.21
			C371.31,388.02,371.54,386.7,370.29,386.18z"/>
	</g>
	<path class="st7" d="M370.9,383.66c0.05-0.73-1.12-0.65-1.24,0.16c-0.02,0.16-0.05,0.31-0.07,0.47c-0.34-0.25-0.91-0.15-1.1,0.34
		c-0.1,0.25-0.17,0.5-0.26,0.76c-0.33-0.26-0.93-0.18-1.11,0.28c-0.1-0.1-0.22-0.18-0.36-0.21c-0.27-0.45-1.69-0.51-1.78,0.2
		c-0.3,2.34-1.11,5.32-0.5,7.7c0.39,1.55,2.03,1.05,3.32,0.91c2.08-0.23,1.96-1.15,2.2-3.16
		C370.29,388.53,370.58,388.23,370.9,383.66z"/>
	<g>
		<path class="st5" d="M271.59,252.22c0.83-1.16,1.79-2.88,1.87-3.47c0.12-0.94-1.89-2.54-2.68-2.85c-0.1-0.04-0.27,0-0.33,0.09
			c0,0-1.74,1.31-2.4,1.99c-0.31,0.31-0.33,0.39-0.25,0.81c0.15,0.73,0.71,1.51,1.05,2.17c0.24,0.46,0.48,1.01,0.78,1.5
			c-0.83,2.08-1.98,4.03-2.47,6.27c-0.68,3.13-0.79,6.38-0.84,9.56c-0.11,7.48,0.18,14.97,0.84,22.42c0.01,0.16,0.51,3.29,0.84,4.76
			c0.11,0.47,0.83,0.71,1.15,0.3c4.77-6.07,3.15-13.82,3.06-20.98c-0.06-4.33-0.1-8.68,0.27-12.99
			C272.79,258.35,272.74,255.38,271.59,252.22z"/>
	</g>
	<g>
		<path class="st5" d="M394.8,344.27c-0.95-3.41-1.89-6.83-2.84-10.24c-0.91-3.29-1.69-6.66-2.75-9.9c-0.66-2.02-1.5-3.88-3.3-5.15
			c-2.29-1.61-5.28-1.92-7.95-2.45c-1.95-0.39-3.91-0.77-5.87-1.16c0.35-7.74-2.06-16.39-4.54-23.27c-0.45-1.24-1.83-1.4-2.68-0.88
			c-0.72-1.31-2.95-0.99-3.2,0.79c-0.73-0.03-1.5,0.39-1.79,1.22c-0.31,0.02-0.6,0.12-0.84,0.29c-0.03-0.45-0.05-0.9-0.08-1.35
			c-0.12-1.85-2.93-2.46-3.39-0.46c-0.08,0.35-0.15,0.7-0.23,1.05c-0.66-0.74-1.96-0.86-2.62-0.14c-0.45,0-0.9,0.03-1.35,0.07
			c0.14-1.94-3.03-2.4-3.39-0.48c-0.07,0.39-0.15,0.79-0.22,1.18c-0.49-0.57-1.39-0.78-2.11-0.52c-0.34-0.94-1.38-1.61-2.21-1.31
			c-0.24-0.18-0.52-0.34-0.84-0.47c-0.48-0.19-1.13-0.01-1.56,0.34c-0.76-0.81-2.5-0.8-3.05,0.6c-2.35,6.01-4.16,12.21-5.3,18.57
			c-0.79,4.44-1.69,9.31-0.37,13.73c3.1,10.43,17.02,8.79,25.49,9.3c0.27,0.02,0.51-0.02,0.71-0.1c0.28,0.07,0.53,0.16,0.72,0.3
			c1.43,0.99,1.77,2.78,1.71,4.33c-0.1,2.51-0.22,5.01-0.34,7.52c-0.22,5.01-0.45,10.03-0.67,15.04c-0.11,2.4-1.43,7.07,1.43,8.41
			c1.28,0.6,2.98,0.33,4.34,0.34c2.68,0.03,5.35,0.06,8.03,0.08c1.02,0.01,1.61-0.81,1.73-1.72c0.76-6.24,1.4-12.5,1.9-18.77
			c1.39,3.13,2.82,6.24,4.32,9.32c0.33,0.67,1.26,0.99,1.95,0.79c2.76-0.8,5.44-1.79,8.04-3.01c1.73-0.81,4.05-1.72,4.69-3.74
			C397.15,349.96,395.44,346.59,394.8,344.27z"/>
	</g>
	<path class="st7" d="M362.93,230.07c-2.16-1.03-4.33-2.02-6.53-2.95c-0.2-0.08-0.38-0.12-0.57-0.15c-1.19-0.29-2.67,0.42-2.66,2.05
		c0.06,6.03-0.97,9.43-1.54,15.45c-0.25,2.69,9.82,3.85,10.03,2.79c0.79-4.07,1.89-10.73,2.39-14.85
		C364.16,231.5,363.81,230.48,362.93,230.07z"/>
	<path class="st73" d="M355.67,241.41c1.1-0.6,2.42-0.6,3.47-1.3c1.18-0.79,1.98-3.22-0.08-3.39c-0.24-0.02-0.43,0.08-0.57,0.22
		c-0.89-0.06-2.17,0.47-2.99,0.86c-0.1-0.12-0.24-0.22-0.39-0.24c-0.81-0.13-1.63-1.4-2.52-0.93c-0.2,1.56-0.61,4.62-0.81,6.19
		c0.36,0.1,0.74,0.12,1.11,0.06C353.99,242.69,354.74,241.92,355.67,241.41z"/>
	<path class="st7" d="M369.52,215.25c-0.94-2.15-4.11-1.14-6.14-1.88c-2.41-0.88-3.77-3.22-5.75-1.68c-2.19,1.14-4.29,2.38-5.2,4.79
		c-1.67,4.45-3.96,11.92-3.2,16.56c0.6,3.67,2.44,5.42,4.14,5.83c2.83,0.69,6.26-1.04,8.35-2.29c1.13-0.68,3.15-2.26,3.81-3.21
		C369.31,227.93,372.33,221.66,369.52,215.25z"/>
	<path class="st17" d="M366.37,245.05c-3.75-1.58-7.29-2.81-11.3-2.15c-0.38-0.35-0.91-0.56-1.61-0.51
		c-3.4,0.24-6.76,0.83-10.16,1.1c-11.37,0.9-9.8,23.74-9.8,23.74c-0.67,13.2-2.37,28.08,5.34,29.62c0.88,0.18,22.41,5.52,29.61,0.5
		c7.27-5.07,6.71-11.23,7.72-19.5c0.62-5.09,0.61-14.31,1.54-19.35C378.57,253.86,378.34,250.1,366.37,245.05z"/>
	<path class="st7" d="M355.07,242.9c-0.38-0.35-0.91-0.56-1.61-0.51c-1.59,0.11-3.18,0.3-4.76,0.5c1.36,6.93,2.73,13.86,4.1,20.79
		c0.12,0.59,0.98,0.65,1.26,0.16c2.65-4.64,5.3-9.29,7.95-13.93c1-1.75,2.15-3.52,3.21-5.34c-2.15-0.86-4.26-1.56-6.45-1.78
		c-0.01,0.03-0.03,0.05-0.04,0.08c0.01-0.03,0.02-0.05,0.03-0.08c-0.51-0.05-1.03-0.08-1.55-0.07c-0.02,0.05-0.04,0.1-0.07,0.15
		c0.01-0.05,0.01-0.1,0.01-0.15C356.47,242.73,355.78,242.79,355.07,242.9z"/>
	<g>
		<path class="st4" d="M302.26,273.43c-0.92-4.55-2.72-8.99-4.94-12.84c-3.83-6.66-8.25-13.14-19.27-14.86
			c-0.17-0.03-0.17,0.79-0.42,2.18c-1.04,6.76-12.39,6.5-13.12-0.55c-0.1-0.98-0.35-1.28-1.96-1.09
			c-3.78,0.22-11.82,2.07-21.85,16.81c-2.74,4.03-5.78,8.22-6.51,13.15c-1.12,7.54,4.86,15.4,12.98,13.42
			c0.3,2.54,0.6,5.08,0.9,7.63c0.27,2.32,0.03,5.93,1.75,7.78c1.69,1.82,5.12,2,7.38,2.29c3.59,0.45,7.2,0.37,10.81,0.17
			c3.43-0.19,6.85-0.48,10.29-0.51c2.64-0.02,5.47,0.24,7.7-1.44c2.21-1.65,2.84-4.43,3.31-6.99c0.39-2.14,0.65-4.3,0.82-6.47
			c4.49-0.29,9.12-2.44,11.76-5.92C304.66,282.53,303.88,277.7,302.26,273.43z"/>
	</g>
	<g>
		<rect x="165.2" y="299.33" class="st5" width="5.93" height="102.64"/>
	</g>
	<g>
		<rect x="411.58" y="299.33" class="st5" width="5.93" height="102.64"/>
	</g>
	<rect x="143.06" y="294.34" class="st17" width="296.41" height="8.54"/>
	<g>
		<path class="st12" d="M57.28,400.58c-1.47,0-2.81-0.68-3.67-1.87c-0.87-1.2-1.1-2.69-0.64-4.09l19.31-58.55l1.3,0.43l-19.31,58.55
			c-0.32,0.98-0.16,2.02,0.45,2.86c0.6,0.83,1.54,1.31,2.56,1.31c0.02,0,46.82-0.23,46.82-0.23c0.85,0,1.65-0.34,2.25-0.95
			c0.6-0.61,0.92-1.42,0.9-2.27l-1.07-58.81l1.37-0.03l1.07,58.81c0.02,1.22-0.44,2.38-1.29,3.25c-0.86,0.88-2,1.36-3.22,1.37
			l-46.81,0.23C57.3,400.58,57.29,400.58,57.28,400.58z"/>
		<path class="st12" d="M52.16,389.23c-1.47,0-2.81-0.68-3.67-1.87c-0.87-1.2-1.1-2.69-0.64-4.09l19.31-58.55l1.3,0.43L49.15,383.7
			c-0.32,0.98-0.16,2.02,0.45,2.86c0.6,0.83,1.54,1.31,2.56,1.31c0.02,0,46.82-0.23,46.82-0.23c0.85,0,1.65-0.34,2.25-0.95
			c0.6-0.61,0.92-1.42,0.9-2.27l-1.07-58.81l1.37-0.03l1.07,58.81c0.02,1.22-0.44,2.38-1.29,3.25c-0.86,0.88-2,1.36-3.22,1.37
			l-46.81,0.23C52.18,389.23,52.17,389.23,52.16,389.23z"/>
		<path class="st72" d="M55.79,334.09c0.19,3.43,2.31,5.52,6.72,5.52c12.45,0,20.36,0.61,32.81-0.06c3.1-0.17,17.13-0.2,21.17-0.63
			c2.97-0.31,3.92-0.56,4.08-5.02c0.11-2.98,0.1-7.95-0.35-10.84c-0.18-1.16-0.48-2.34-1.37-3.03c-1.31-1.03-3.8-0.94-5.27-1.1
			c-1.65-0.18-3.31-0.29-4.96-0.35c-0.01-1.51-0.02-2.81-0.01-3.73c0.31-5.05-1.59-6.77-2.44-7.32
			c-10.86-7.07-23.19-7.83-35.83-5.89c-2.86,0.44-5.76,0.99-8.52,2.25c-1.95,0.89-4.77,2.02-5.6,5.12
			C55.24,312.72,55.51,328.99,55.79,334.09z"/>
	</g>
	<path class="st7" d="M369.78,291.84c-1.02-1.01-2.16-1.96-3.53-2.44c-3.5-1.22-6.33,1.79-9.69,1.84
		c-13.64-4.41-17.54-4.74-20.04-6.15c-2.44-1.37,0.8-23.65,0.59-26.16c-0.21-2.5-2.41-4.15-4.54-3.36
		c-0.52-0.26-1.26-0.13-1.47,0.59c-1.85,6.27-3.22,12.66-4.07,19.14c-0.53,4.03-1.82,9.49,0.13,13.32c2.06,4.03,7.27,4.3,11.21,4.84
		c5.85,0.8,11.74,1.15,17.64,1.12c0.17,0.11,0.34,0.19,0.52,0.26c2.27,0.9,5.36-0.89,7.19-1.9c1.61-0.89,2.91-1.02,4.42,0.1
		c0.52,0.38,1.08,0.97,1.69,1.2c0.43,0.16,1.06,0.31,1.32-0.23C371.53,293.23,370.19,292.26,369.78,291.84z"/>
	<path class="st17" d="M343.87,243.4c-8.53,1.02-14.24,7.41-16.44,15.45c-1.44,5.24-2.11,10.79-2.9,16.16
		c-0.57,3.86-2.22,9.17-0.33,12.88c1.45,2.84,4.31,3.74,7.22,2.66c2.61-0.97,4.94-2.45,7.63-3.31c1.35-0.43,3.03-0.61,3.95-1.82
		c1.65-2.18-0.29-4.05-2.49-4.22c-1.05-0.08-2.13-0.03-3.21,0.12c1.13-3.02,1.94-6.1,2.4-9.35c0.13-0.89-0.3-1.56-0.88-1.9
		c0.73-3.24,1.22-6.5,1.25-9.84c0.01-1.38-1.34-1.95-2.37-1.55c0.18-0.7,0.37-1.41,0.55-2.1c0.37-1.37-0.74-2.19-1.81-2.1
		c0.25-0.54,0.51-1.08,0.78-1.62c0.15-0.29,0.29-0.58,0.44-0.86c0.2-0.4,0.4-0.8,0.61-1.19c0.38-0.74,0.2-1.44-0.22-1.93
		c1.61-1.04,3.53-1.76,5.84-2.04C346.03,246.56,346.06,243.14,343.87,243.4z"/>
	<path class="st7" d="M387.22,290c-0.38-0.61-1.08-0.35-1.62-0.63c-0.09-0.05-0.17-0.29-0.29-0.37c-0.18-0.13-0.65-0.51-0.82-0.59
		c-0.36-0.18-0.54,0-0.97-0.04c-0.03,0-0.06-0.01-0.09-0.01c-0.39-0.38-0.82-0.69-1.28-0.76c-0.73-0.11-1.24,0.14-1.55,0.68
		c-0.51,0.9-2,2.88-2.07,4.23c-0.03,0.49,0.18,1.04,0.53,1.31c2.44,0.91,3.74,0.99,4.46,0.66
		C384.68,293.93,388.26,291.67,387.22,290z"/>
	<path class="st63" d="M335.3,259.5c-1.03,5.81-1.65,11.67-1.83,17.57c-0.01,0.44,0.67,0.44,0.68,0c0.19-5.84,0.79-11.64,1.8-17.39
		C336.03,259.25,335.38,259.07,335.3,259.5z"/>
	<path class="st63" d="M332.31,278.71c-1.05,0.81-2.06,1.67-3.04,2.57c-0.32,0.3,0.16,0.78,0.48,0.48c0.96-0.88,1.95-1.72,2.97-2.52
		C333.03,279.01,332.62,278.47,332.31,278.71z"/>
	<path class="st63" d="M331.84,281.26c-0.14,0.43-0.29,0.86-0.43,1.28c-0.14,0.42,0.52,0.6,0.66,0.18c0.14-0.43,0.29-0.86,0.43-1.28
		C332.63,281.02,331.98,280.84,331.84,281.26z"/>
	<path class="st63" d="M374.2,264.74c0.05-0.43-0.63-0.43-0.68,0c-0.87,7.79-1.03,15.64-0.49,23.46c0.03,0.44,0.71,0.44,0.68,0
		C373.19,280.37,373.35,272.54,374.2,264.74z"/>
	<g>
		<path class="st5" d="M371.15,217.89c0.35-0.15,0.58-0.53,0.29-0.93c-2.84-3.86-6.2-5.91-11.17-5.98
			c-4.31-0.07-7.69,3.18-8.87,7.19c-0.14,0.47,0.23,0.82,0.66,0.87c4.52,0.5,8.8-1.49,13.24-1.42c-0.21,1.62-0.55,3.25-0.15,4.83
			c0.39,1.52,1.21,2.68,1.88,3.88c0.43,1.75,0.14,3.33-1.04,5.07c-0.74,1.09-1.63,2.06-2.13,3.3c-0.86,2.14-0.55,4.44-0.24,6.65
			c0.12,0.87,1.44,0.5,1.33-0.37c-0.33-2.46-0.46-4.72,0.82-6.93c0.66-1.13,1.6-2.07,2.24-3.21c0,0.02,0,0.04-0.01,0.06
			c-0.14,0.83,1.07,1.2,1.3,0.45c0.36,0.16,0.81,0.07,0.89-0.42c0.31-1.78,0.42-3.51,0.33-5.28c0.28-0.01,0.56-0.16,0.63-0.49
			c0.13-0.6,0.21-1.18,0.25-1.76C371.74,221.6,371.8,219.57,371.15,217.89z"/>
	</g>
	<g>
		<rect x="392.38" y="285.49" class="st5" width="40.64" height="8.86"/>
	</g>
	<path class="st17" d="M427.09,287.54c-3.08,0-3.09,4.79,0,4.79C430.17,292.33,430.18,287.54,427.09,287.54z"/>
	<rect x="395.52" y="287" class="st17" width="26.03" height="5.74"/>
	<g>
		<rect x="389.79" y="276.63" class="st4" width="40.64" height="8.86"/>
	</g>
	<path class="st17" d="M424.49,278.68c-3.08,0-3.09,4.79,0,4.79C427.57,283.48,427.58,278.68,424.49,278.68z"/>
	<rect x="392.93" y="278.14" class="st17" width="26.03" height="5.74"/>
	<g>
		<rect x="390.93" y="267.77" class="st5" width="40.64" height="8.86"/>
	</g>
	<path class="st17" d="M425.63,269.83c-3.08,0-3.09,4.79,0,4.79C428.72,274.62,428.72,269.83,425.63,269.83z"/>
	<rect x="394.07" y="269.29" class="st17" width="26.03" height="5.74"/>
	<g>
		<path class="st4" d="M257.19,248.45c-4.11,1.41-7.17,4.88-10.05,8c-2.98,3.23-5.72,6.73-7.84,10.58
			c-2.63,4.77-7.94,17.64-0.3,20.7c9.07,3.63,11.12-8.17,12.8-14.22c1.42-5.1,2.64-10.26,3.66-15.45c0.31-1.58,1.46-5.18-1.28-5.2
			c-0.3,0-0.57,0.08-0.84,0.19c1.35-1.13,2.81-2.08,4.38-2.63C258.97,250,258.44,248.02,257.19,248.45z"/>
	</g>
	<g>
		<path class="st4" d="M298.79,274.25c-0.86-6.89-2.86-15.64-7.64-21.46c-0.01-0.03-2.66-3.27-4.93-4.35
			c-0.4-0.19-1.02-0.11-1.33,0.12c-0.64,0.29-0.82,1.41-0.11,1.88c0.66,0.44,1.32,0.88,1.98,1.31c0.2,0.13,0.41,0.17,0.61,0.14
			c0.75,0.64,1.43,1.35,2.06,2.11c0.16,0.35,0.31,0.71,0.45,1.07c-0.78-0.15-1.6,0.71-1.12,1.54c0.21,0.36,0.4,0.72,0.6,1.08
			c-0.02,1.47-0.03,2.95-0.05,4.42c-1.01,5.73-2.03,11.45-3.04,17.18c-0.03,0.19-0.02,0.35,0.03,0.51c-0.18,1-0.36,2-0.54,3
			c-0.13,0.71,0.37,1.2,0.91,1.28c-0.06,0.32-0.11,0.65-0.16,0.98c-0.59,0.53-1.3,0.84-2.2,0.77c-1.15-0.08-1.44,1.88-0.28,2.04
			c3.93,0.53,9.87,1.52,13.2-1.44C300.47,283.55,299.25,277.97,298.79,274.25z"/>
	</g>
	<path class="st72" d="M266.32,289.08c-1.61-9.77-3.09-19.57-4.42-29.39c-0.05-0.4-0.52-0.52-0.85-0.48
		c-7.58,1.04-15.19,1.68-22.84,1.98c-0.26,0.01-0.43,0.14-0.54,0.31c-0.28,0.12-0.5,0.39-0.41,0.77c2.11,9.34,5.82,28.84,5.83,29.04
		c0.01,0.27,0.2,0.62,0.51,0.67c7.51,1.08,14.88-0.66,22.23-2.05C266.23,289.85,266.38,289.42,266.32,289.08z"/>
	<g>
		<path class="st76" d="M278.73,280.22c0.01-0.09-7.65-2.61-7.7-2.7c-0.9-1.6-2.74-2.4-4.29-3.22c-0.95-0.5-1.99-0.98-2.97-1.43
			c0,0.21,0.37,2.13,0.28,2.12c-3.19-0.73-6.36-1.24-9.6-0.61c-0.56,0.11-0.47,0.87,0.09,0.87c2.34-0.01,4.63,0.22,6.89,0.67
			c-0.03,0-0.06,0.01-0.09,0.01c-0.05,0-0.09,0.02-0.13,0.04c-2.85-0.21-6.29-0.68-8.84,0.45c-0.4,0.18-0.35,0.88,0.09,0.84
			c1.8-0.19,3.22-0.1,4.82-0.16c1.16-0.04,2.34-0.05,3.51,0.05c-0.07,0.12-0.14,0.25-0.2,0.38c-2.57-0.16-5.56-0.36-7.85,0.74
			c-0.32,0.15-0.43,0.81-0.02,0.81c0.94,0,2.47,0.03,3.61-0.02c1.21-0.05,2.42-0.06,3.63-0.04c-0.08,0.26-0.14,0.51-0.19,0.76
			c-1.93-0.02-3.83,0.13-5.73,0.49c-0.32,0.06-0.51,0.4-0.31,0.69c0.21,0.31,2.04,0.43,2.94,0.4c1.06-0.03,7.02,1.05,8.11,1.07
			c1.03,0.01,1.86,0.06,2.87-0.09c1.25-0.19,7.5,1.42,8.75,1.54C276.82,283.91,278.93,280.38,278.73,280.22z"/>
	</g>
	<path class="st7" d="M322.04,294.48h-25.01c-2.25,0-4.07-1.82-4.07-4.07V270.1c0-2.25,1.82-4.07,4.07-4.07h25.01
		c2.25,0,4.07,1.82,4.07,4.07v20.31C326.11,292.65,324.29,294.48,322.04,294.48z"/>
	<path class="st7" d="M284.59,290.78h41.51v3.7h-41.51c-0.85,0-1.54-0.69-1.54-1.54v-0.61
		C283.05,291.47,283.74,290.78,284.59,290.78z"/>
	<path class="st7" d="M311.52,277.72c-2.64,0-2.65,4.11,0,4.11C314.17,281.83,314.17,277.72,311.52,277.72z"/>
	<g>
		<path class="st4" d="M287.97,275.68c-2.54,0.83-4.78,0.59-7.36,0.44c-1.12-0.07-2.21-0.09-3.17,0.6c-1.08,0.77-1.48,2.23-1.9,3.41
			c-0.79,2.27-1.34,4.6-1.76,6.96c-0.13,0.71,0.91,1.3,1.26,0.53c0.18-0.4,0.35-0.8,0.51-1.21c0.07-0.01,0.15-0.03,0.22-0.07
			c0,0.54,0.72,0.95,1.18,0.5c0.12-0.12,0.23-0.25,0.35-0.37c-0.09,0.14-0.17,0.28-0.26,0.42c-0.41,0.64,0.37,1.2,0.95,0.95
			c0.11-0.05,0.2-0.1,0.3-0.16c-0.04,0.53,0.75,1.01,1.2,0.53c0.09-0.1,0.18-0.19,0.27-0.29c0.18,0.39,0.71,0.62,1.11,0.23
			c0.16-0.16,0.33-0.32,0.49-0.47c0.01,0.07,0.03,0.13,0.06,0.19c-0.02,0.03-0.04,0.07-0.06,0.1c-0.35,0.62,0.34,1.26,0.95,0.95
			c1.97-1.03,3.68-2.27,5.29-3.8c0.48-0.46-0.01-1.4-0.67-1.16c-0.17,0.06-0.33,0.15-0.5,0.22c0.15-0.17,0.3-0.34,0.45-0.51
			c0.47-0.57-0.02-1.27-0.67-1.13c0.4-0.5,0.58-0.85,0.27-1.57c-0.14-0.32-0.67-0.45-0.95-0.25c-0.23,0.17-0.46,0.34-0.69,0.52
			c0.27-0.49,0.5-0.98,0.68-1.48c0.2-0.54-0.54-1.14-1.02-0.78c-0.84,0.63-1.59,1.31-2.29,2.05c0.43-0.72,0.77-1.47,0.73-2.33
			c-0.03-0.56-0.75-0.96-1.18-0.49c-0.32,0.35-0.62,0.73-0.91,1.1c0-0.23-0.01-0.46-0.05-0.67c-0.11-0.54-0.79-0.63-1.15-0.3
			c-0.04,0.04-0.08,0.08-0.12,0.12c-0.02-0.28-0.2-0.53-0.44-0.63c0.35-0.17,0.73-0.3,1.15-0.34c1.3-0.13,2.73,0.32,4.06,0.28
			c1.39-0.04,2.71-0.3,4.03-0.74C289.17,276.73,288.81,275.41,287.97,275.68z"/>
	</g>
	<path class="st77" d="M292.77,278.57c-1.36-1.18-2.94-1.27-4.57-1.14c0.02-0.06,0.04-0.12,0.02-0.2
		c-1.74-7.31-5.23-14.95-2.26-22.42c0.16-0.41-0.49-0.58-0.65-0.18c-3.04,7.56,0.46,15.39,2.25,22.79c0.01,0.03,0.02,0.05,0.03,0.07
		c-1.43,0.14-2.89,0.36-4.27,0.08c-1.23-0.25-2.55-0.72-3.78-0.19c-0.48,0.21-0.67,0.62-1.09,0.85c-0.63,0.34-1.34-0.09-2.02-0.03
		c-0.43,0.04-0.44,0.71,0,0.68c0.79-0.06,1.5,0.49,2.24,0.06c0.8-0.47,1.2-1.12,2.28-1.11c0.75,0,1.47,0.26,2.19,0.41
		c2.95,0.63,6.62-1.33,9.14,0.83C292.62,279.34,293.11,278.86,292.77,278.57z"/>
	<path class="st77" d="M285.3,287.38c-2.03,0.69-5.75,0.4-7.34-1.26c-1-1.04-1.4-2.3-3.06-2.2c-0.44,0.03-0.44,0.7,0,0.68
		c1.57-0.08,2.03,1.64,2.99,2.41c0.59,0.47,1.32,0.68,2.04,0.87c1.85,0.5,3.71,0.8,5.56,0.16
		C285.9,287.9,285.72,287.24,285.3,287.38z"/>
	<g>
		<path class="st5" d="M170.62,189.09c-0.49-1.93-0.85-3.66-2.33-5.12c-1.32-1.3-3.27-2.04-5.13-1.93
			c-0.86,0.05-1.28,0.33-2.06,0.67c-1.7,0.73-2.48,0.36-4.22,0.09c-3.09-0.47-4.87,1.59-5.02,4.08c-2.78,1.64-3.01,4.91-2.81,8
			c0.2,2.97,0.36,8,2.67,10.19c0.35,0.33,0.7,0.65,0.96,0.28c0.7-0.97,0.38-2.17,0.52-3.31c0.18-1.41-0.39-1.42,0.72-2.99
			c0.18-0.25,0.49-0.21,0.71-0.57c0.97-1.6,1.38-3.68,1.68-5.69c4.17-0.65,7.18,1.5,11,2.55c1.49,0.41,3.37,0.59,4.34-0.89
			C172.77,192.77,171.04,190.72,170.62,189.09z"/>
	</g>
	<path class="st17" d="M154.38,198.85c0.87,0.14,1.48,1.53,0.61,1.41c-1.85-0.25-1.39,2.61-1.13,3.2c0.41,0.91,0.89,1.78,1.41,2.63
		c0.45,0.74-0.6,1.61-1.07,0.86c-0.98-1.55-2.25-3.51-2.35-5.4C151.77,200.03,152.73,198.59,154.38,198.85z"/>
	<path class="st12" d="M170.41,199.72c-1.2-0.58-2.86-0.52-4.25-0.16c-1.41,0.36-1.27,0.84-1.31,1.24
		c-0.75-0.26-1.55-0.32-2.33-0.16c-0.01-0.43,0-1-1.24-1.4c-1.36-0.43-3-0.6-4.23-0.11c-1.74,0.7-1.53,2.8-0.6,4.13
		c0.79,1.12,3.32,1.45,4.54,1.05c1.1-0.36,1.47-1.66,1.52-2.86c0-0.03,0-0.08,0-0.12c0.78-0.17,1.54-0.12,2.29,0.17
		c0,0.06,0,0.13-0.01,0.17c-0.03,1.19,0.26,2.52,1.33,2.95c1.19,0.48,3.74,0.32,4.6-0.75C171.75,202.61,172.09,200.53,170.41,199.72
		z M160.21,203.73c-1.07,0.11-2.79-0.15-3.34-1.14c-0.14-0.34-0.31-0.69-0.36-1.05c-0.12-0.92,0.17-1.24,0.53-1.65
		c0.44-0.39,1.36-0.32,1.9-0.31c1,0.01,1.94,0.18,2.82,0.62c0,0.02-0.01,0.05,0,0.07C161.99,201.57,161.83,203.56,160.21,203.73z
		 M170.79,202.16c-0.07,0.36-0.26,0.7-0.43,1.03c-0.62,0.95-2.35,1.1-3.41,0.92c-1.61-0.28-1.64-2.27-1.33-3.56
		c0.01-0.03,0.81-0.35,1.23-0.43c0.53-0.09,1.07-0.11,1.63-0.08c0.55,0.03,1.47,0.02,1.88,0.44
		C170.71,200.91,170.98,201.25,170.79,202.16z"/>
	<path class="st72" d="M161.57,267.04c3-9.44,6.14-18.84,9.41-28.19c0.13-0.38-0.23-0.7-0.54-0.81c-7.22-2.52-14.3-5.41-21.24-8.62
		c-0.23-0.11-0.45-0.07-0.62,0.03c-0.3-0.02-0.62,0.13-0.72,0.5c-2.36,9.28-7.92,28.34-8,28.52c-0.11,0.25-0.1,0.65,0.15,0.82
		c6.2,4.37,13.56,6.17,20.74,8.28C161.14,267.69,161.47,267.37,161.57,267.04z"/>
	<path class="st17" d="M129.09,251.26c-0.01-0.09,7.65-2.61,7.7-2.7c0.9-1.6,2.74-2.4,4.29-3.22c0.95-0.5,1.99-0.98,2.97-1.43
		c0,0.21-0.37,2.13-0.28,2.12c3.19-0.73,6.36-1.24,9.6-0.61c0.56,0.11,0.47,0.87-0.09,0.87c-2.34-0.01-4.63,0.22-6.89,0.67
		c0.03,0,0.06,0.01,0.09,0.01c0.05,0,0.09,0.02,0.13,0.04c2.85-0.21,6.29-0.68,8.84,0.45c0.4,0.18,0.35,0.88-0.09,0.84
		c-1.8-0.19-3.22-0.1-4.82-0.16c-1.16-0.04-2.34-0.05-3.51,0.05c0.07,0.12,0.14,0.25,0.2,0.38c2.57-0.16,5.56-0.36,7.85,0.74
		c0.32,0.15,0.43,0.81,0.02,0.81c-0.94,0-2.47,0.03-3.61-0.02c-1.21-0.05-2.42-0.06-3.63-0.04c0.08,0.26,0.14,0.51,0.19,0.76
		c1.93-0.02,3.83,0.13,5.73,0.49c0.32,0.06,0.51,0.4,0.31,0.69c-0.21,0.31-2.04,0.43-2.94,0.4c-1.06-0.03-7.02,1.05-8.11,1.07
		c-1.03,0.01-1.86,0.06-2.87-0.09c-1.25-0.19-7.5,1.42-8.75,1.54C131.01,254.95,128.89,251.43,129.09,251.26z"/>
	<g>
		<path class="st5" d="M162.41,217c-0.02-0.2-0.21-0.42-0.44-0.33c-0.02,0.01-0.04,0.02-0.06,0.03c-0.12-0.01-0.24,0.03-0.31,0.13
			c-1.87,0.78-3.47,1.97-4.73,3.53c-0.13-2.17-1.64-3.83-3.48-4.92c-0.5-0.29-1.44-1.08-2.05-0.69c-0.33,0.21-0.52,0.87-0.68,1.17
			c-0.38,0.77-0.75,1.55-1.11,2.33c-0.18,0.4,0.41,0.75,0.59,0.35c0.34-0.74,0.69-1.46,1.05-2.19c-0.29,1-0.43,2.01-0.42,3.08
			c0,0.37,0.49,0.44,0.65,0.15c0.18,0.12,0.45,0.09,0.52-0.18c0.02-0.06,0.03-0.12,0.05-0.17c0,0.07,0,0.14-0.01,0.21
			c-0.01,0.19,0.14,0.31,0.31,0.33c0.11,0.37,0.31,0.7,0.6,0.99c0.07,0.12,0.16,0.23,0.27,0.35c0.12,0.13,0.27,0.13,0.39,0.06
			c0.14-0.05,0.25-0.2,0.27-0.34c0.01-0.04,0-0.08,0-0.12c0.21,0.27,0.61,0.12,0.65-0.14c0.07,0.09,0.14,0.19,0.21,0.28
			c0.2,0.27,0.59,0.14,0.64-0.11c0.02,0.03,0.05,0.06,0.07,0.09c0.13,0.19,0.35,0.19,0.5,0.09c0.1,0.12,0.25,0.15,0.39,0.1
			c0.02,0.02,0.04,0.03,0.06,0.04c-0.07,0.31,0.42,0.55,0.64,0.23c0.08-0.11,0.16-0.21,0.24-0.32c0.1,0.07,0.23,0.1,0.37,0.03
			c0.24-0.11,0.47-0.21,0.71-0.32c-0.36,0.25-0.02,0.84,0.35,0.6c0.17-0.11,0.35-0.22,0.53-0.33c0.03,0.21,0.26,0.37,0.51,0.26
			c0.41-0.19,0.97-0.47,1.32-0.85c-0.02,0.13-0.03,0.27-0.05,0.4c-0.05,0.33,0.33,0.52,0.54,0.39c0,0.02,0,0.05,0,0.07
			c0.02,0.37,0.6,0.49,0.68,0.09C162.44,219.93,162.53,218.48,162.41,217z"/>
	</g>
	<path class="st73" d="M424.04,298.61c0.79-3.92,0.92-7.97,0.39-11.93c-0.87-6.45-3.83-11.74-6.99-17.31
		c-1.43-2.53-2.85-5.16-3.25-8.08c-0.47-3.43,0.18-6.92,0.85-10.27c1.42-7.13,2.89-14.06,1.35-21.31
		c-2.59-12.22-12.04-21.52-15.16-33.52c-3.65-14.02-1.43-29.18-9.36-42c-2.75-4.45-8.86-2.14-9.53,1.85
		c-0.14,0.03-0.27,0.06-0.41,0.1c-1.7-2.22-5.08-3.28-7.72-0.8c-6.61,6.21-10.46,14.57-12.56,23.29c-1.07,4.46-1.7,9.02-2.21,13.58
		c-0.53,4.72-0.87,9.7-2.76,14.12c-1.96,4.58-5.87,8.06-8.61,12.15c-0.79,1.18-1.51,2.4-2.19,3.64c-2.51-3.77-5.3-7.39-8.32-10.87
		c-7.02-8.1-14.66-15.77-18.06-26.2c-3.81-11.65-4.06-24.8-12.92-34.16c-4.31-4.55-10.92,1.67-7.83,6.46
		c-1,0.37-1.85,1.05-2.34,2.09c-0.17,0.05-0.33,0.1-0.49,0.17c1.71-4.73-4.31-9.99-8.21-5.55c-7.01,7.98-8.54,18.07-9.67,28.27
		c-0.59,5.35-1.36,10.59-3.16,15.69c-1.65,4.68-3.99,9.08-6.37,13.42c-5.11,9.36-10.1,18.58-12.85,28.96
		c-0.47,1.76-0.88,3.52-1.27,5.3c-2.55-3.92-5.28-7.75-7.12-12.08c-2.13-5.03-3.35-10.45-4.66-15.74
		c-1.35-5.46-2.69-10.93-3.53-16.5c-0.85-5.63-0.72-11.25-0.77-16.92c-0.11-11.86-3.63-22.88-12.64-30.99
		c-4.88-4.39-12.11,2.75-7.24,7.24c0.14,0.13,0.26,0.26,0.4,0.39c-0.22,0.35-0.39,0.74-0.51,1.16c-1.31-0.57-2.89-0.5-4.28,0.1
		c1.26-4.7-6.19-8.23-9.62-3.52c-8.01,11.03-12.7,23.88-14.57,37.33c-1.83,13.24-1.78,27.1-8.01,39.26
		c-5.28,10.3-13.07,19.09-18.24,29.45c-2.81,5.63-4.67,11.45-5.43,17.7c-0.64,5.32-0.52,10.66-0.42,16.01H424.04z"/>
	<g>
		<path class="st4" d="M394.01,151.66c-0.62-6.02-5.06-10.8-10.76-12.05v-4.24c0-1.58-1.28-2.85-2.85-2.85
			c-1.58,0-2.85,1.28-2.85,2.85v4.2c-5.8,1.18-10.33,6-10.96,12.09l-1.47,14.33h30.37L394.01,151.66z"/>
	</g>
	<g>
		<path class="st4" d="M311.42,151.66c-0.62-6.02-5.06-10.8-10.76-12.05v-4.24c0-1.58-1.28-2.85-2.85-2.85
			c-1.58,0-2.85,1.28-2.85,2.85v4.2c-5.8,1.18-10.33,6-10.96,12.09l-1.47,14.33h30.37L311.42,151.66z"/>
	</g>
	<g>
		<path class="st4" d="M229.99,151.48c-0.62-6.02-5.06-10.8-10.76-12.05v-4.24c0-1.58-1.28-2.85-2.85-2.85
			c-1.58,0-2.85,1.28-2.85,2.85v4.2c-5.8,1.18-10.33,6-10.96,12.09l-1.47,14.33h30.37L229.99,151.48z"/>
	</g>
</g>
</svg>
