<?xml version="1.0" encoding="utf-8"?>
<!-- Generator: Adobe Illustrator 23.0.1, SVG Export Plug-In . SVG Version: 6.00 Build 0)  -->
<svg version="1.1" id="Layer_1" xmlns="http://www.w3.org/2000/svg" xmlns:xlink="http://www.w3.org/1999/xlink" x="0px" y="0px"
	 viewBox="0 0 502 535" style="enable-background:new 0 0 502 535;" xml:space="preserve">
<style type="text/css">
	.st0{fill:#0093FD;}
	.st1{fill:#F5F5F5;}
	.st2{fill:#F4F3EE;}
	.st3{fill:#E6E6E6;}
	.st4{fill:#FFD931;}
	.st5{fill:#1F263A;}
	.st6{fill:#284F4C;}
	.st7{fill:#FFFFFF;}
	.st8{fill:#B3B3B3;}
	.st9{fill:#2992FA;}
	.st10{fill:#27374D;}
	.st11{fill:#DE614B;}
	.st12{fill:#2C294C;}
	.st13{fill:#EAEAEA;}
	.st14{fill:#D6D6D6;}
	.st15{fill:#223359;}
	.st16{fill:#FCD846;}
	.st17{fill:#DADAEA;}
	.st18{fill:#E8BC05;}
	.st19{fill:#CECECE;}
	.st20{opacity:0.4;fill:#E6E6E6;}
	.st21{opacity:0.4;}
	.st22{fill:#2A2BEE;}
	.st23{fill:url(#SVGID_1_);}
	.st24{fill:url(#SVGID_2_);}
	.st25{fill:none;stroke:#2A2BEE;stroke-width:8;stroke-miterlimit:10;}
	.st26{fill:none;stroke:url(#SVGID_3_);stroke-width:8;stroke-miterlimit:10;}
	.st27{fill:none;stroke:url(#SVGID_4_);stroke-width:7;stroke-miterlimit:10;}
	.st28{fill:url(#SVGID_5_);}
	.st29{fill:url(#SVGID_6_);}
	.st30{fill:url(#SVGID_7_);}
	.st31{fill:url(#SVGID_8_);}
	.st32{fill:url(#SVGID_9_);}
	.st33{fill:url(#SVGID_10_);}
	.st34{fill:url(#SVGID_11_);}
	.st35{fill:url(#SVGID_12_);}
	.st36{fill:url(#SVGID_13_);}
	.st37{fill:url(#SVGID_14_);}
	.st38{fill:url(#SVGID_15_);}
	.st39{fill:url(#SVGID_16_);}
	.st40{fill:url(#SVGID_17_);}
	.st41{fill:url(#SVGID_18_);}
	.st42{fill:url(#SVGID_19_);}
	.st43{fill:url(#SVGID_20_);}
	.st44{fill:#F9FBFF;}
	.st45{fill:#EDF5FC;}
	.st46{fill:none;stroke:#2A2BEE;stroke-width:3;stroke-miterlimit:10;}
	.st47{fill:url(#SVGID_21_);}
	.st48{fill:url(#SVGID_22_);}
	.st49{fill:url(#SVGID_23_);}
	.st50{fill:url(#SVGID_24_);}
	.st51{fill:url(#SVGID_25_);}
	.st52{fill:#DBDBDB;}
	.st53{fill:#AF9279;}
	.st54{fill:#F7DABC;}
	.st55{opacity:0.1;}
	.st56{fill:#027FCC;}
	.st57{fill:#747489;}
	.st58{fill:#E2B705;}
	.st59{fill:#263556;}
	.st60{fill:#E0E0E0;}
	.st61{fill:#C4C4C4;}
	.st62{fill:#006EB2;}
	.st63{fill:#B8B8C9;}
	.st64{fill:#9393AB;}
	.st65{fill:#E5B900;}
	.st66{fill:#5578A3;}
	.st67{opacity:0.3;fill:#DADAEA;}
	.st68{fill:#C6C6C6;}
	.st69{fill:#0469BC;}
	.st70{opacity:0.2;}
	.st71{fill:#C1C1C1;}
	.st72{fill:#F2F2F2;}
	.st73{opacity:0.51;fill:#E6E1FF;}
	.st74{fill:#709FE0;}
	.st75{fill:#5183BF;}
	.st76{fill:#D1D1D1;}
	.st77{fill:#D6AE05;}
	.st78{fill:#DCDAE0;}
	.st79{fill:#F3F3F5;}
	.st80{fill:#D9924E;}
	.st81{fill:#C2C2ED;}
	.st82{fill:#636375;}
	.st83{fill:#543237;}
	.st84{fill:#3F3E66;}
	.st85{fill:#585866;}
	.st86{fill:#A04B40;}
	.st87{fill:#B7743D;}
	.st88{fill:#0074D3;}
	.st89{fill:none;}
	.st90{font-family:'SFProDisplay-Bold';}
	.st91{font-size:30px;}
	.st92{letter-spacing:3;}
</style>
<g>
	<path class="st5" d="M287.79,204.87c-27.07,11.45-51.37,27.83-72.23,48.69c-20.86,20.86-37.24,45.16-48.69,72.23
		C155.02,353.83,149,383.59,149,414.25h94.82c0-35.38,13.78-68.64,38.79-93.66c24.48-24.48,56.86-38.19,91.39-38.77V187
		C344.14,187.29,315.15,193.29,287.79,204.87z"/>
</g>
<g>
	<path class="st4" d="M583.39,325.79c-11.45-27.07-27.83-51.37-48.69-72.23c-20.86-20.86-45.16-37.24-72.23-48.69
		C434.43,193.02,404.66,187,374,187v94.82c35.38,0,68.64,13.78,93.66,38.79c24.48,24.48,38.19,56.86,38.77,91.39h94.83
		C600.96,382.14,594.96,353.15,583.39,325.79z"/>
</g>
<path class="st72" d="M166.61,501.21c11.45,27.07,27.83,51.37,48.69,72.23c20.86,20.86,45.16,37.24,72.23,48.69
	C315.57,633.98,345.34,640,376,640v-94.82c-35.38,0-68.64-13.78-93.66-38.79c-24.48-24.48-38.19-56.86-38.77-91.39h-94.83
	C149.04,444.86,155.04,473.85,166.61,501.21z"/>
<g>
	<rect x="285" y="74" class="st88" width="19" height="198"/>
</g>
<rect x="250" y="137" transform="matrix(-1 -1.224647e-16 1.224647e-16 -1 519 390)" class="st72" width="19" height="116"/>
<g>
	<rect x="320" y="107" class="st4" width="19" height="146"/>
</g>
<rect x="355" y="137" transform="matrix(-1 -1.224647e-16 1.224647e-16 -1 729 373)" class="st72" width="19" height="99"/>
<g>
	<rect x="215" y="122" class="st4" width="19" height="165"/>
</g>
<rect x="59.44" y="60.45" class="st89" width="204.56" height="34.55"/>
<text transform="matrix(1 0 0 1 59.4442 81.5879)" class="st72 st90 st91 st92">########</text>
</svg>
