<?xml version="1.0" encoding="utf-8"?>
<!-- Generator: Adobe Illustrator 23.0.1, SVG Export Plug-In . SVG Version: 6.00 Build 0)  -->
<svg version="1.1" id="Layer_1" xmlns="http://www.w3.org/2000/svg" xmlns:xlink="http://www.w3.org/1999/xlink" x="0px" y="0px"
	 viewBox="0 0 502 535" style="enable-background:new 0 0 502 535;" xml:space="preserve">
<style type="text/css">
	.st0{fill:#0093FD;}
	.st1{fill:#F5F5F5;}
	.st2{fill:#F4F3EE;}
	.st3{fill:#E6E6E6;}
	.st4{fill:#FFD931;}
	.st5{fill:#1F263A;}
	.st6{fill:#284F4C;}
	.st7{fill:#FFFFFF;}
	.st8{fill:#B3B3B3;}
	.st9{fill:#2992FA;}
	.st10{fill:#27374D;}
	.st11{fill:#DE614B;}
	.st12{fill:#2C294C;}
	.st13{fill:#EAEAEA;}
	.st14{fill:#D6D6D6;}
	.st15{fill:#223359;}
	.st16{fill:#FCD846;}
	.st17{fill:#DADAEA;}
	.st18{fill:#E8BC05;}
	.st19{fill:#CECECE;}
	.st20{opacity:0.4;fill:#E6E6E6;}
	.st21{opacity:0.4;}
	.st22{fill:#2A2BEE;}
	.st23{fill:url(#SVGID_1_);}
	.st24{fill:url(#SVGID_2_);}
	.st25{fill:none;stroke:#2A2BEE;stroke-width:8;stroke-miterlimit:10;}
	.st26{fill:none;stroke:url(#SVGID_3_);stroke-width:8;stroke-miterlimit:10;}
	.st27{fill:none;stroke:url(#SVGID_4_);stroke-width:7;stroke-miterlimit:10;}
	.st28{fill:url(#SVGID_5_);}
	.st29{fill:url(#SVGID_6_);}
	.st30{fill:url(#SVGID_7_);}
	.st31{fill:url(#SVGID_8_);}
	.st32{fill:url(#SVGID_9_);}
	.st33{fill:url(#SVGID_10_);}
	.st34{fill:url(#SVGID_11_);}
	.st35{fill:url(#SVGID_12_);}
	.st36{fill:url(#SVGID_13_);}
	.st37{fill:url(#SVGID_14_);}
	.st38{fill:url(#SVGID_15_);}
	.st39{fill:url(#SVGID_16_);}
	.st40{fill:url(#SVGID_17_);}
	.st41{fill:url(#SVGID_18_);}
	.st42{fill:url(#SVGID_19_);}
	.st43{fill:url(#SVGID_20_);}
	.st44{fill:#F9FBFF;}
	.st45{fill:#EDF5FC;}
	.st46{fill:none;stroke:#2A2BEE;stroke-width:3;stroke-miterlimit:10;}
	.st47{fill:url(#SVGID_21_);}
	.st48{fill:url(#SVGID_22_);}
	.st49{fill:url(#SVGID_23_);}
	.st50{fill:url(#SVGID_24_);}
	.st51{fill:url(#SVGID_25_);}
	.st52{fill:#DBDBDB;}
	.st53{fill:#AF9279;}
	.st54{fill:#F7DABC;}
	.st55{opacity:0.1;}
	.st56{fill:#027FCC;}
	.st57{fill:#747489;}
	.st58{fill:#E2B705;}
	.st59{fill:#263556;}
	.st60{fill:#E0E0E0;}
	.st61{fill:#C4C4C4;}
	.st62{fill:#006EB2;}
	.st63{fill:#B8B8C9;}
	.st64{fill:#9393AB;}
	.st65{fill:#E5B900;}
	.st66{fill:#5578A3;}
	.st67{opacity:0.3;fill:#DADAEA;}
	.st68{fill:#C6C6C6;}
	.st69{fill:#0469BC;}
	.st70{opacity:0.2;}
	.st71{fill:#C1C1C1;}
	.st72{fill:#F2F2F2;}
	.st73{opacity:0.51;fill:#E6E1FF;}
	.st74{fill:#709FE0;}
	.st75{fill:#5183BF;}
	.st76{fill:#D1D1D1;}
	.st77{fill:#D6AE05;}
	.st78{fill:#DCDAE0;}
	.st79{fill:#F3F3F5;}
	.st80{fill:#D9924E;}
	.st81{fill:#C2C2ED;}
	.st82{fill:#636375;}
	.st83{fill:#543237;}
	.st84{fill:#3F3E66;}
	.st85{fill:#585866;}
	.st86{fill:#A04B40;}
	.st87{fill:#B7743D;}
	.st88{fill:#0074D3;}
	.st89{fill:none;}
	.st90{font-family:'SFProDisplay-Bold';}
	.st91{font-size:30px;}
	.st92{letter-spacing:3;}
</style>
<g>
	<path class="st5" d="M79.71,463.49c26.97-11.69,51.12-28.28,71.79-49.32c20.67-21.04,36.84-45.48,48.04-72.65
		c11.62-28.15,17.37-57.97,17.1-88.63l-94.81,0.84c0.31,35.38-13.17,68.76-37.96,94c-24.26,24.7-56.52,38.69-91.04,39.57l0.84,94.83
		C23.52,481.56,52.46,475.3,79.71,463.49z"/>
</g>
<g>
	<path class="st4" d="M197.27,166.84c-11.69-26.97-28.28-51.12-49.32-71.79C126.91,74.37,102.47,58.21,75.3,47
		c-28.15-11.62-57.97-17.37-88.63-17.1l0.84,94.81c35.38-0.31,68.76,13.17,94,37.96c24.7,24.26,38.69,56.52,39.57,91.04l94.83-0.84
		C215.35,223.03,209.09,194.09,197.27,166.84z"/>
</g>
<g>
	<circle class="st4" cx="373.73" cy="418" r="50"/>
</g>
<g>
	<circle class="st5" cx="250.87" cy="418" r="50"/>
</g>
<circle class="st72" cx="128" cy="418" r="50"/>
<rect x="154.44" y="324.46" class="st89" width="119.56" height="30.9"/>
<text transform="matrix(1 0 0 1 166.2925 345.5942)" class="st72 st90 st91 st92">******</text>
</svg>
