<?xml version="1.0" encoding="utf-8"?>
<!-- Generator: Adobe Illustrator 23.0.1, SVG Export Plug-In . SVG Version: 6.00 Build 0)  -->
<svg version="1.1" id="Layer_1" xmlns="http://www.w3.org/2000/svg" xmlns:xlink="http://www.w3.org/1999/xlink" x="0px" y="0px"
	 viewBox="0 0 531 269" style="enable-background:new 0 0 531 269;" xml:space="preserve">
<style type="text/css">
	.st0{opacity:0.1;}
	.st1{fill:#0093FD;}
	.st2{opacity:0.08;}
	.st3{fill:#F5F5F5;}
	.st4{fill:#F4F3EE;}
	.st5{fill:#E6E6E6;}
	.st6{fill:#FFD931;}
	.st7{fill:#1F263A;}
	.st8{fill:#284F4C;}
	.st9{fill:#FFFFFF;}
	.st10{fill:#B3B3B3;}
	.st11{fill:#2992FA;}
	.st12{fill:#27374D;}
	.st13{fill:#DE614B;}
	.st14{fill:#2C294C;}
	.st15{fill:#EAEAEA;}
	.st16{fill:#D6D6D6;}
	.st17{fill:#223359;}
	.st18{fill:#FCD846;}
	.st19{fill:#DADAEA;}
	.st20{fill:#E8BC05;}
	.st21{fill:#CECECE;}
	.st22{opacity:0.4;fill:#E6E6E6;}
	.st23{opacity:0.4;}
	.st24{fill:#2A2BEE;}
	.st25{fill:url(#SVGID_1_);}
	.st26{fill:url(#SVGID_2_);}
	.st27{fill:none;stroke:#2A2BEE;stroke-width:8;stroke-miterlimit:10;}
	.st28{fill:none;stroke:url(#SVGID_3_);stroke-width:8;stroke-miterlimit:10;}
	.st29{fill:none;stroke:url(#SVGID_4_);stroke-width:7;stroke-miterlimit:10;}
	.st30{fill:url(#SVGID_5_);}
	.st31{fill:url(#SVGID_6_);}
	.st32{fill:url(#SVGID_7_);}
	.st33{fill:url(#SVGID_8_);}
	.st34{fill:url(#SVGID_9_);}
	.st35{fill:url(#SVGID_10_);}
	.st36{fill:url(#SVGID_11_);}
	.st37{fill:url(#SVGID_12_);}
	.st38{fill:url(#SVGID_13_);}
	.st39{fill:url(#SVGID_14_);}
	.st40{fill:url(#SVGID_15_);}
	.st41{fill:url(#SVGID_16_);}
	.st42{fill:url(#SVGID_17_);}
	.st43{fill:url(#SVGID_18_);}
	.st44{fill:url(#SVGID_19_);}
	.st45{fill:url(#SVGID_20_);}
	.st46{fill:#F9FBFF;}
	.st47{fill:#EDF5FC;}
	.st48{fill:none;stroke:#2A2BEE;stroke-width:3;stroke-miterlimit:10;}
	.st49{fill:url(#SVGID_21_);}
	.st50{fill:url(#SVGID_22_);}
	.st51{fill:url(#SVGID_23_);}
	.st52{fill:url(#SVGID_24_);}
	.st53{fill:url(#SVGID_25_);}
	.st54{fill:#DBDBDB;}
	.st55{fill:#AF9279;}
	.st56{fill:#F7DABC;}
	.st57{fill:#027FCC;}
	.st58{fill:#747489;}
	.st59{fill:#E2B705;}
	.st60{fill:#263556;}
	.st61{fill:#E0E0E0;}
	.st62{fill:#C4C4C4;}
	.st63{fill:#006EB2;}
	.st64{fill:#B8B8C9;}
	.st65{fill:#9393AB;}
	.st66{fill:#E5B900;}
	.st67{fill:#5578A3;}
	.st68{opacity:0.3;fill:#DADAEA;}
	.st69{fill:#C6C6C6;}
	.st70{fill:#0469BC;}
	.st71{opacity:0.2;}
	.st72{fill:#C1C1C1;}
	.st73{fill:#F2F2F2;}
	.st74{opacity:0.51;fill:#E6E1FF;}
	.st75{fill:#709FE0;}
	.st76{fill:#5183BF;}
	.st77{fill:#D1D1D1;}
	.st78{fill:#D6AE05;}
	.st79{fill:#DCDAE0;}
	.st80{fill:#F3F3F5;}
	.st81{fill:#D9924E;}
	.st82{fill:#C2C2ED;}
	.st83{fill:#636375;}
	.st84{fill:#543237;}
	.st85{fill:#3F3E66;}
	.st86{fill:#585866;}
	.st87{fill:#A04B40;}
	.st88{fill:#B7743D;}
	.st89{fill:#0074D3;}
</style>
<g class="st2">
	<path class="st1" d="M175.17,94.96c54.36-16.11,101.22-37.91,157.97-32.81c13.45,1.21,18.41,1.2,29.34,7.04
		c5.47,2.92,11.73,8.83,12.79,14.69c1.88,10.38-5.52,17.07-8.27,19.18c-10.38,7.97-16.34,8.86-20.09,20.66
		c-0.6,1.89-0.06,3.94,0.54,5.82c0.68,2.13,1.61,3.77,3.5,5.12c7.65,5.46,17.37,7.52,26.73,9.63c28.6,6.47,29.6,4.98,54.8,18.29
		c5.55,2.93,11.66,5.8,14.96,10.96c4.4,6.89,6.91,13.25,6.41,19.36c-0.79,9.62-7.95,17.26-12.18,20.81
		c-16.52,13.89-34.53,13.39-57.94,12.72c-34.67-0.99-49.64-9.71-80.11-25.23c-9.72-4.95-19.3-10.81-25.61-19.33
		c-6.4-8.65-8.89-19.31-14.36-28.5c-1.93-3.23-4.37-6.4-7.92-8.04c-2.81-1.3-6.04-1.51-9.17-1.49c-9.86,0.07-19.59,2.21-29.44,2.57
		c-9.85,0.36-20.45-1.39-27.54-7.8c-3.24-2.93-5.53-6.63-7.78-10.28c-7.65-12.42-6.65-16.27-7.45-25.93"/>
</g>
<g>
	<g>
		<path class="st7" d="M87.91,56.15c-5.98-2.71-12.23-4.26-18.5-1.52c-5.84,2.55-10.24,7.59-14.18,12.42
			c-3.87,4.73-8.75,10.13-9.12,16.53c-0.31,5.48,2.66,10.82,7.33,13.61c2.07,1.23,4.47-1.72,2.62-3.39
			c-0.08-0.07-0.14-0.14-0.21-0.21c0.51,0.02,1.05-0.17,1.54-0.68c3.19-3.29,4.87-7.7,6.68-11.92c5.13-7.8,11.55-14.74,19.04-20.39
			c0.53-0.4,0.85-0.91,0.96-1.43c0.56,0.22,1.12,0.46,1.67,0.71C88.25,61,90.44,57.29,87.91,56.15z"/>
	</g>
	<g>
		<path class="st5" d="M58.87,204.96c0.11-0.11,0.23-0.22,0.34-0.33c0,0,0,0,0,0c0.01-0.01,0.02-0.02,0.02-0.03
			c2.91-2.81,5.55-5.92,8.24-8.95c0.85-0.95,2.26-2.2,1.75-3.63c-0.52-1.47-2.6-2.38-3.87-3.09c-0.87-0.49-1.62-0.14-2.02,0.49
			c-0.02,0.02-0.03,0.04-0.05,0.06c-1.54,2.09-3.07,4.19-4.44,6.39c-0.58,0.94-1.14,1.89-1.69,2.85c-0.29,0.51-0.58,1.03-0.86,1.55
			c-0.09,0.16-0.6,0.84-0.56,0.93c-0.42,0.35-0.69,0.87-0.58,1.45c0.01,0.03,0.01,0.06,0.02,0.09c0.12,0.64,0.53,1.15,1.04,1.41
			C56.66,205.16,57.92,205.87,58.87,204.96z"/>
	</g>
	<g>
		<path class="st1" d="M77.32,60.79c-10.98,9.1-15.24,19.54-26.57,32.63c-4.35,5.02-9.36,9.92-15.84,11.51
			c-6.07,1.49-12.28,2-17.39,5.96c-0.28,0.22-1.47,0.9-1.2,1.9c0.23,0.87,1.13,1.64,1.57,1.9c4.95,2.99,5.78,9.31,7.49,14.34
			c1.61,4.74,4.31,9.86,9.41,11.47c3.16,1,6.51,0.12,9.72,0.73c3.06,0.58,5.91,1.91,8.82,2.99c2.78,1.03,5.96,2.1,8.96,1.65
			c3.01-0.45,4.76-2.73,6.49-5.02c4.41-5.83,7.66-12.55,9.57-19.61c0.46-1.71-1.5-2.66-2.67-1.95c-0.3-0.19-0.63-0.3-0.97-0.3
			c-0.24-0.41-0.63-0.73-1.07-0.85c0.62-1.05,0.01-2.19-0.93-2.55c1-1.42-0.58-3.25-2-2.74c-0.01-0.02-0.01-0.05-0.02-0.07
			c0.04-0.27,0.03-0.55-0.04-0.82c0.34-0.25,0.69-0.49,1.03-0.74c1.5-1.1,0.7-3.89-1.36-3.24c-0.23,0.07-0.47,0.15-0.7,0.23
			c0.08-0.61-0.01-1.25-0.33-1.93c-0.04-0.08-0.09-0.14-0.14-0.21c1.16-0.97,2.31-1.94,3.46-2.91c1.14-0.97,0.49-2.28-0.58-2.76
			c0.31-0.26,0.62-0.51,0.92-0.77c1.12-0.95,0.47-2.33-0.6-2.8c1.42-1.22,2.83-2.44,4.22-3.68c1.27-1.13,0.17-2.88-1.22-2.97
			c0.36-0.34,0.72-0.68,1.07-1.03c1.53-1.49-0.4-3.55-2.14-2.77c-3.36,1.5-6.64,3.16-9.82,4.97c7.61-6.91,14.56-14.58,22.48-21.17
			C88.67,68.72,79.06,59.35,77.32,60.79z"/>
	</g>
	<g>
		<path class="st5" d="M164.22,101.55c2.05-3.29-1.46-5.38-6.19-5.84c-0.8-0.19-4.14,0.38-4.94,0.2c-0.2-0.04-0.37-0.02-0.51,0.05
			c-0.1-0.02-0.19-0.04-0.29-0.07c-0.39-0.09-0.68,0.1-0.83,0.37c-0.27,0-0.5,0-0.67,0.01c-0.45,0.02-0.71,0.37-0.75,0.74
			c-0.15,0.1-0.26,0.24-0.33,0.4c-0.05,0-0.09-0.01-0.14-0.02c-0.62-0.06-0.85,0.56-0.69,1.04c-0.23,0.42-0.1,1.07,0.47,1.19
			c0.23,0.05,0.47,0.09,0.7,0.14c0.1,0.11,0.24,0.18,0.43,0.21c3.18,0.45,4.81,3.4,7.68,4.41
			C160.26,105.12,163.11,103.32,164.22,101.55z"/>
	</g>
	<g>
		<path class="st7" d="M63.35,211.25c-2-4.76-2.2-5.17-0.76-8.43c0.15-0.35,0.15-0.75,0-0.9c-1.42-1.45-3.37-3.22-4.64-4.79
			c-0.48-0.6-1.17,0.34-1.44,0.63c-0.41,0.45-2.3,1.53-2.91,1.98c-1.31,0.98-2.09,2.18-2.38,2.59c-0.52,0.75,0.51,1.94,2.56,4.54
			c1.34,1.37,1.5,0.19,2.46,2.01c0.12,0.23,0.22,0.46,0.32,0.7c0.62,1.55,1.54,3.1,2.52,4.45c1.22,1.67,2.27,2.78,2.67,3.21
			c0.73,0.78,1.22,0.34,1.66,0.01C65.59,215.65,64.36,213.65,63.35,211.25z"/>
	</g>
	<g>
		<path class="st5" d="M116.1,218.25c-0.02-0.16-0.05-0.31-0.07-0.47c0,0,0,0,0,0c0-0.01-0.01-0.02-0.01-0.04
			c-0.55-4.01-1.51-7.98-2.36-11.93c-0.27-1.25-0.44-3.12-1.9-3.56c-1.5-0.45-3.45,0.7-4.77,1.3c-0.91,0.42-1.07,1.22-0.79,1.92
			c0.01,0.02,0.01,0.05,0.02,0.07c0.78,2.48,1.57,4.95,2.54,7.36c0.41,1.02,0.85,2.04,1.3,3.04c0.24,0.54,0.49,1.08,0.74,1.61
			c0.08,0.17,0.32,0.98,0.42,1c0.04,0.55,0.29,1.07,0.83,1.33c0.03,0.01,0.05,0.03,0.08,0.04c0.59,0.28,1.24,0.25,1.75-0.01
			C114.95,220.15,116.26,219.55,116.1,218.25z"/>
	</g>
	<g>
		<path class="st18" d="M115.93,206.67c-1.53-9.07-9.9-38.67-13.12-47.31c-0.62-1.67-9.86-26.74-17.54-43.35
			c-0.58-1.26-2.34-0.97-3.03-0.03c-0.09,0.01-0.18,0.03-0.27,0.06c-0.14,0.04-0.28,0.08-0.42,0.12c-0.94-1.2-2.85-0.82-3.12,0.61
			c-0.31,0.04-0.62,0.08-0.94,0.12c-0.63-0.36-1.4-0.22-1.93,0.23c-0.47,0.06-0.93,0.12-1.4,0.19c-1.46,0.23-3.59,0.61-5.14,1.46
			c-0.07-1.1-0.11-2.21-0.12-3.33c-0.01-2.25-3.49-2.25-3.5,0c-0.06,20.19,16.18,44.77,22.53,53.07
			c3.09,7.43,12.93,33.16,15.09,38.26c0.86,2.02,0.85,3.52,2.96,3.39c2.73-0.17,5.91-0.91,8.24-1.24
			C115.45,208.74,116.12,207.81,115.93,206.67z"/>
	</g>
	<g>
		<path class="st18" d="M68.26,198.2c4.3-5.47,24.74-27.02,26.67-36.04c0.37-1.74,5.24-25.28,7.71-43.41
			c0.19-1.38-0.62-4.64-1.7-4.22c-0.08-0.04-0.17-0.07-0.26-0.09c-0.14-0.04-0.28-0.09-0.42-0.13c-0.15-1.52-1.96-2.22-2.96-1.16
			c-0.29-0.13-0.57-0.27-0.85-0.4c-0.34-0.64-1.06-0.94-1.75-0.85c-0.42-0.2-0.85-0.4-1.28-0.59c-1.35-0.59-3.35-1.42-5.12-1.53
			c0.53-0.97,1.09-1.92,1.69-2.87c1.21-1.9-1.73-3.78-2.95-1.88C76.13,122,79.49,148,80.37,158.41
			c-2.44,6.54-19.53,26.18-22.4,31.45c-1.05,1.93-1.76,1.82,0.23,3.74c1.96,1.91,4.77,4.92,6.93,6.21
			C66.19,200.46,67.54,199.12,68.26,198.2z"/>
	</g>
	<g>
		<path class="st7" d="M119.49,95.78c1.12-4.12,2.5-8.75,4.7-12.7c-1.36-3.16-2.9-6.59-3.88-8.37c-2-3.61-3.95-7.63-6.75-10.66
			c-2.47-2.67-5.39-4.67-8.78-6.1c-1.7-0.92-3.59-1.53-5.6-1.78c-0.73-0.09-13.72-2.22-20.55,3.51c-11.81,9.9-5.88,11.05-9.44,21.95
			c-4.61,14.1-4.92,32.47-3.83,47.1c0.03,0.46,0.31,1.19,0.49,1.51c2.91,5.42,11.65,1.2,14.65,0.33c6.71-1.95,13.45-3.94,20.51-3.57
			c0.8,0.28,1.88-0.13,1.91-1.23c0.27-12.91,4.55-25.66,7.33-38.08c1.85,3.45,4.63,7.23,7.54,10.59
			C118.24,97.38,118.79,96.53,119.49,95.78z"/>
	</g>
	<g>
		<path class="st7" d="M123.81,218.34c-5.02-1.2-5.47-1.28-7.26-4.36c-0.19-0.33-0.52-0.56-0.72-0.53c-2,0.29-4.58,0.82-6.61,0.91
			c-0.77,0.04-0.42,1.14-0.34,1.53c0.12,0.6-0.13,2.76-0.12,3.52c0.02,1.63,0.52,2.97,0.69,3.45c0.3,0.86,1.87,0.73,5.18,0.62
			c1.9-0.27,1.04-1.1,3.07-0.8c0.25,0.04,0.5,0.09,0.75,0.16c1.62,0.41,3.41,0.59,5.08,0.59c2.07,0,3.59-0.19,4.17-0.26
			c1.06-0.12,0.99-0.78,0.99-1.34C128.7,219.13,126.34,218.94,123.81,218.34z"/>
	</g>
	<g>
		<path class="st1" d="M78.66,59.66c-11.81,9.9-5.88,11.05-9.44,21.95c-2.9,8.89-5.97,20.83-4.32,29.74
			c4.47-5.25,8.42-10.95,11.8-16.97c3.46-6.16,6.16-12.66,8.77-19.22c2.58-6.49,5.17-12.97,7.74-19.47
			C88.69,55.66,82.64,56.33,78.66,59.66z"/>
	</g>
	<g>
		<path class="st1" d="M110.26,87.71c1.11,2.07,2.55,4.26,4.16,6.4c1.28-8.56,2.05-17.19,2.29-25.84c-0.94-1.5-1.96-2.94-3.12-4.2
			c-2.47-2.67-5.39-4.67-8.78-6.1c-0.89-0.48-1.83-0.88-2.81-1.18c-0.08,0.28-0.09,0.61,0.02,0.98c2.99,10.15,1.94,20.62,1.3,31.02
			c-0.62,10.19,0.21,22.27-0.15,32.78C104.12,110.11,107.79,98.78,110.26,87.71z"/>
	</g>
	<g>
		<path class="st5" d="M101.61,29.35c-3.39-0.44-7.03,1.11-8.54,4.28c-1.91,4.02-0.35,8.88,1.54,12.63c-0.19,2.5-2.6,13-2.64,13.1
			c-0.49,1.51,8.85,4.23,9.6,1.64c0.56-1.95,0.93-3.17,1.63-6.56c0.2,0.04,0.4,0.08,0.6,0.11c3.85,0.59,6.53-1.42,7.26-5.2
			C112.45,42.11,110.66,30.51,101.61,29.35z"/>
	</g>
	<g>
		<path class="st1" d="M129.78,92.73c-0.85-2.1-7.57-14.58-9.46-18.01c-1.44-2.61-2.87-5.44-4.61-7.95
			c-2.3,6.42-3.68,13.12-4.16,19.93c0,0.01-0.01,0.03-0.01,0.04c-0.04,0.2-0.04,0.39-0.03,0.57c-0.04,0.62-0.07,1.23-0.09,1.85
			c-0.01,0.35,0.07,0.65,0.21,0.89c0,0,0,0.01,0,0.01c2.84,4.54,6.93,9.29,10.51,12.86c1.69,1.69,5.99,1.84,8.38,1.69
			C130.57,99.61,129.71,97.74,129.78,92.73z"/>
	</g>
	<g>
		<path class="st1" d="M152.53,94.74c-5.02-0.38-17.74-1.57-22.75-2.01c-3.81,3.59-1.32,7.14-5.12,10.74
			c0.25,0.13-1.11,0.31-0.82,0.41c3.31,1.17,10.39,1.33,13.77,1.04c3.83-0.33,10.65-1.68,14.35-2.75
			C153.86,101.62,153.58,94.82,152.53,94.74z"/>
	</g>
	<g>
		<path class="st7" d="M106.39,30.57c-4.15-3.69-12.64-2.79-16.3,1.15c-0.93,1-1.47,1.42-2.76,1.67c-0.64,0.12-1.26,0.21-1.84,0.53
			c-0.89,0.49-1.61,1.32-1.61,2.38c0,1.08,0.5,1.7,1.21,2.07c-1.36,1.92-2.12,4-0.52,5.23c0.53,0.41,1.48,0.26,1.62,0.75
			c0.22,0.77-0.74,2-0.67,2.89c0.09,1.2,0.91,1.69,1.88,1.77c-0.25,1.88-0.1,3.94,1.73,4.97c0.79,0.45,1.75,0.55,2.6,0.22
			c0.59-0.22,0.94-0.58,1.2-1.01c1.04,1.07,2.46,1.52,3.71,0.02c0.93-1.12,1.22-2.89,1.2-4.3c-0.01-1.06,0.06-1.87,0.43-2.86
			c0.2-0.56,0.52-0.96,0.62-1.58c0.37-2.15-0.99-3.75,1.23-5.22c1.29-0.86,2.44-1.68,3.62-2.72C105.49,35,109.03,32.92,106.39,30.57
			z"/>
	</g>
	<g>
		<path class="st7" d="M81.42,54.1c-0.49-0.2-0.89-0.1-1.17,0.15c-1.47-0.56-3.14,1.5-1.83,2.95c2.3,2.55,3.24,6.63,3.61,9.96
			c0.37,3.32,0.17,6.71-0.48,9.98c-1.27,6.4-3.94,12.77-7.4,18.29c-3.05,4.86-8.56,10.19-14.86,8.78c-3.29-0.73-4.53-3.17-5.09-6.28
			c-0.67-3.75-1.11-7.56-1.54-11.34c-0.25-2.23-3.76-2.27-3.53,0c0.35,3.4,0.79,6.78,1.31,10.16c0.44,2.84,0.84,5.85,2.87,8.06
			c3.77,4.1,10.11,3.71,14.71,1.41c5.19-2.61,8.64-7.56,11.22-12.61c2.49-2.28,4.19-5.99,5.49-8.89c1.63-3.65,2.74-7.49,3.26-11.45
			C88.89,66.31,89,57.21,81.42,54.1z"/>
	</g>
	<g>
		<path class="st5" d="M85.77,121.62c1.98-0.92,0.89-5.9-0.74-7.85c-1.06-1.26-2.51-2.55-3.86-3.63c-0.53-0.56-1.05-1.11-1.58-1.66
			c-0.13-0.13-0.28-0.2-0.42-0.22c-0.06-0.07-0.13-0.13-0.19-0.2c-0.26-0.27-0.58-0.27-0.84-0.13c-0.21-0.14-0.39-0.25-0.53-0.33
			c-0.36-0.21-0.74-0.07-0.96,0.2c-0.17,0-0.33,0.06-0.46,0.15c-0.03-0.03-0.07-0.06-0.1-0.08c-0.45-0.36-0.95,0-1.06,0.46
			c-0.39,0.21-0.62,0.78-0.24,1.17c0.16,0.16,0.32,0.31,0.48,0.46c0.02,0.13,0.09,0.26,0.23,0.38c2.25,1.96,2.02,5.09,3.74,7.32
			C80.49,119.3,84.01,122.44,85.77,121.62z"/>
	</g>
	<g>
		<path class="st1" d="M80.56,70.48c0.82-0.9,2.1-6.26,0.31-5.47c-1.98,0.87-3.82,1.95-5.53,3.18c3.21-2.86-2.58,5.01,1.1,2.76
			c1.93-1.17,2.09-11.31,1.21-10.69c-7.3,5.11-11.35,11.13-16.68,19c-1.45,2.14-2.89,4.38-4.02,6.71c-0.42,0.86-0.51,1.61-0.38,2.3
			c-0.03,1.15,0.61,2.17,1.12,3.22c0.81,1.65,1.69,3.26,2.64,4.83c1.81,2.99,3.88,5.84,6.14,8.5c2.24,2.63,4.69,5.1,7.34,7.31
			c2.68,2.24,5.36,1.16,7.38-1.34c0.54-0.67,0.65-1.37,0.28-2.14c-3.4-7.09-7.02-14.06-10.85-20.92c0.25-0.23,0.5-0.45,0.75-0.68
			c5.16-4.74,5.09-4.37,9.58-9.75C82.41,75.52,80.78,70.62,80.56,70.48z"/>
	</g>
	<g>
		<path class="st1" d="M75.29,68.22c3.21-2.86,5.44-9.9,3.5-8.73c-9.13,5.5-11.89,10.98-17.87,19.81c-1.45,2.14-2.89,4.38-4.02,6.71
			c-0.42,0.86-0.51,1.61-0.38,2.3c-0.03,1.15,0.61,2.17,1.12,3.22c0.81,1.65,1.69,3.26,2.64,4.83c1.81,2.99,3.88,5.84,6.14,8.5
			c0.63,0.74,1.27,1.46,1.93,2.17c2.53-3.32,4.87-6.8,7-10.4c-1.56-2.98-3.15-5.93-4.79-8.87c0.25-0.23,0.5-0.45,0.75-0.68
			c2.86-2.63,5.61-5.36,8.26-8.19C81.7,76.61,77,66.99,75.29,68.22z"/>
	</g>
</g>
<path class="st7" d="M173.74,102.39h-18.06c-0.76,0-1.38-0.62-1.38-1.38v-3.19c0-0.76,0.62-1.38,1.38-1.38h18.06
	c0.76,0,1.38,0.62,1.38,1.38v3.19C175.11,101.77,174.5,102.39,173.74,102.39z"/>
<path class="st7" d="M174.18,103.13h-0.35c-1.34,0-2.42-1.09-2.42-2.42v-3.33c0-1.34,1.09-2.42,2.42-2.42h0.35
	c1.34,0,2.42,1.09,2.42,2.42v3.33C176.6,102.05,175.51,103.13,174.18,103.13z"/>
<g>
	<path class="st5" d="M161.79,104.73c2.77-1.43,3.37-2.44,3.52-2.58c1.11-1.01,0.51-2.43-0.41-3.32c-0.82-0.8-2.59-2.04-3.79-1.66
		c-1.31,0.42-0.46,1.7,0.27,2.15c0.2,0.13,0.4,0.27,0.59,0.43c-0.64-0.33-1.5-0.78-2.19-0.75c-1.22,0.05-0.98,0.97-0.46,1.78
		c-0.93-0.04-1.83,0.16-1.91,1.01c-0.04,0.38,0.13,0.69,0.41,0.94c-0.06,0.06-0.12,0.12-0.17,0.2c-0.52,0.85,0.9,1.65,1.53,1.87
		C160.06,105.1,160.93,105.18,161.79,104.73z"/>
</g>
<g>
	<path class="st5" d="M162.55,96.77c-1.63-0.33-3.28-0.38-4.93-0.48c-0.06-1.32,1.2-2,2.4-2.11c1.14-0.11,3.3,0.03,4,1.07
		C164.76,96.37,163.41,96.83,162.55,96.77z"/>
</g>
<g>
	<g>
		<path class="st18" d="M423.63,114.51c-1.34-0.04-2.67-0.7-3.95-1.31c0.59-3.22-0.84-6.41-3.93-6.79
			c-0.64-0.08-1.25,0.53-1.41,1.09l-0.02,0.07c-0.58-0.36-1.21-0.66-1.9-0.89c-0.43-0.15-0.9-0.01-1.26,0.26
			c-1.96-1.43-4.93-3.01-6.49-1.22c-1.58,1.81,0.08,3.49,1.98,4.6c-0.06,0.07-0.12,0.13-0.17,0.2c-0.53,0.75-0.62,1.72-0.2,2.54
			c0.76,1.49,2.33,1.57,3.86,1.37c0.01,0.04,0.01,0.08,0.02,0.13c0.13,0.56,0.5,1.06,0.93,1.42c1.09,0.91,3.06,1.19,4.44,1.11
			c1.28-0.08,2.72-1.13,3.51-2.28c1.48,0.71,3.1,1.52,4.61,1.44C424.78,116.22,424.77,114.55,423.63,114.51z"/>
	</g>
	<g>
		<path class="st18" d="M398.6,75.57c-0.95-0.71-1.57-1.86-2.18-2.95c2.06-2.02,2.65-5.04,0.62-6.88c-0.42-0.38-1.17-0.25-1.57,0.07
			l-0.05,0.04c-0.24-0.56-0.54-1.09-0.91-1.6c-0.23-0.32-0.64-0.47-1.04-0.45c-0.69-2.03-2.02-4.67-4.05-4.17
			c-2.06,0.5-1.71,2.55-0.91,4.32c-0.07,0.02-0.15,0.03-0.22,0.06c-0.76,0.27-1.32,0.92-1.43,1.73c-0.21,1.46,0.88,2.32,2.08,2.95
			c-0.02,0.03-0.04,0.06-0.05,0.1c-0.19,0.47-0.18,1.02-0.05,1.5c0.32,1.21,1.6,2.41,2.64,3.05c0.96,0.59,2.54,0.57,3.68,0.14
			c0.7,1.26,1.46,2.66,2.58,3.37C398.55,77.37,399.39,76.17,398.6,75.57z"/>
	</g>
	<g>
		<path class="st18" d="M462.4,146.49c-1.34-0.04-2.67-0.7-3.95-1.31c0.59-3.22-0.85-6.41-3.94-6.79c-0.44-0.05-0.87,0.23-1.15,0.59
			c-0.76-1.76-2.31-3.26-4.35-2.91c-0.8,0.14-1.45,0.63-1.87,1.26c-1.4-0.56-2.8-0.67-3.71,0.38c-1.58,1.81,0.08,3.49,1.98,4.6
			c-0.06,0.07-0.12,0.13-0.17,0.2c-0.52,0.75-0.62,1.72-0.19,2.54c0.76,1.49,2.34,1.57,3.86,1.37c0.01,0.04,0.01,0.08,0.02,0.13
			c0.13,0.56,0.5,1.06,0.93,1.42c1.09,0.91,3.07,1.19,4.44,1.1c1.28-0.08,2.72-1.14,3.5-2.28c1.48,0.71,3.1,1.51,4.61,1.44
			C463.54,148.19,463.53,146.52,462.4,146.49z"/>
	</g>
	<g>
		<path class="st18" d="M239.11,54.76c-1.32,0.27-2.51,1.15-3.67,1.98c1.14,3.07,0.28,6.46-2.69,7.37c-0.61,0.19-1.32-0.3-1.58-0.83
			l-0.03-0.07c-0.51,0.46-1.08,0.86-1.71,1.2c-0.39,0.22-0.88,0.17-1.28-0.04c-1.69,1.75-4.33,3.82-6.18,2.32
			c-1.87-1.51-0.53-3.45,1.15-4.88c-0.07-0.05-0.14-0.11-0.2-0.17c-0.65-0.65-0.91-1.59-0.63-2.47c0.49-1.6,2.03-1.95,3.56-2.02
			c0-0.04-0.01-0.08,0-0.13c0.03-0.57,0.31-1.13,0.67-1.56c0.91-1.08,2.81-1.71,4.18-1.86c1.28-0.14,2.88,0.65,3.85,1.63
			c1.33-0.95,2.79-2.03,4.29-2.22C239.94,52.89,240.22,54.53,239.11,54.76z"/>
	</g>
	<g>
		<path class="st18" d="M286.54,48.68c-1.27-0.44-2.74-0.3-4.16-0.2c-0.6,3.21-3.09,5.68-6.1,4.93c-0.43-0.11-0.73-0.52-0.86-0.96
			c-1.34,1.37-3.32,2.22-5.1,1.16c-0.7-0.42-1.13-1.11-1.3-1.85c-1.5,0.02-2.85-0.38-3.33-1.69c-0.83-2.26,1.33-3.23,3.5-3.59
			c-0.03-0.08-0.06-0.16-0.08-0.25c-0.22-0.89,0.04-1.83,0.73-2.45c1.25-1.12,2.74-0.63,4.09,0.1c0.02-0.04,0.04-0.07,0.06-0.11
			c0.33-0.47,0.84-0.81,1.38-0.99c1.34-0.46,3.29-0.01,4.54,0.56c1.17,0.54,2.13,2.04,2.46,3.38c1.63-0.13,3.43-0.3,4.82,0.31
			C288.22,47.5,287.61,49.05,286.54,48.68z"/>
	</g>
	<g>
		<path class="st18" d="M512.43,147.33c-0.99,0.91-2.39,1.38-3.73,1.84c-1.84-2.7-5.1-3.98-7.56-2.08c-0.35,0.27-0.46,0.77-0.4,1.22
			c-1.78-0.72-3.93-0.71-5.14,0.98c-0.47,0.66-0.59,1.47-0.45,2.21c-1.39,0.58-2.46,1.48-2.38,2.88c0.15,2.4,2.51,2.43,4.64,1.89
			c0.01,0.09,0.01,0.17,0.02,0.26c0.15,0.9,0.77,1.66,1.65,1.95c1.59,0.53,2.77-0.52,3.71-1.73c0.03,0.03,0.06,0.05,0.1,0.08
			c0.49,0.3,1.1,0.41,1.66,0.36c1.41-0.12,3.02-1.3,3.94-2.33c0.85-0.96,1.14-2.72,0.9-4.08c1.55-0.53,3.27-1.09,4.29-2.21
			C514.44,147.74,513.27,146.56,512.43,147.33z"/>
	</g>
	<g>
		<path class="st56" d="M329.28,65.54c-0.23-1.35-2.16-2.24-3.18-2.91c-1.11-0.73-2.8-2.26-4.23-2.14
			c-1.63,0.14-3.04,2.74-3.95,3.83c-0.64,0.77,0.45,1.88,1.11,1.11c0.05-0.06,0.1-0.12,0.15-0.18c-0.01,0.06-0.02,0.11-0.03,0.17
			c-0.14,0.73,0.73,1.38,1.32,0.77c0.02-0.02,0.03-0.04,0.05-0.05c0.09,0.39,0.46,0.7,0.83,0.69c-0.17,0.61,0.43,1.01,0.95,0.91
			c-0.23,0.65,0.63,1.19,1.17,0.87c0.03-0.02,0.05-0.04,0.08-0.05c0.03,0.15,0.09,0.3,0.17,0.44c0.2,0.35,0.67,0.48,1.02,0.31
			c0.21,0.24,0.53,0.37,0.83,0.21c0.15,0.25,0.44,0.33,0.72,0.26c-0.06,0.28-0.12,0.56-0.18,0.84c-0.21,1.01,1.16,1.36,1.53,0.42
			C328.21,69.54,329.56,67.16,329.28,65.54z"/>
		<g>
			<path class="st5" d="M367.4,216.21c-0.03-0.16-0.07-0.31-0.1-0.47c0,0,0,0,0,0c0-0.01-0.01-0.02-0.01-0.03
				c-0.85-3.98-2.1-7.88-3.25-11.78c-0.36-1.23-0.68-3.1-2.17-3.43c-1.53-0.34-3.41,0.96-4.68,1.66c-0.88,0.48-0.98,1.3-0.65,1.98
				c0.01,0.02,0.01,0.05,0.02,0.07c0.96,2.42,1.94,4.84,3.09,7.19c0.49,1,1,1.98,1.53,2.95c0.28,0.52,0.57,1.04,0.86,1.56
				c0.09,0.16,0.4,0.96,0.49,0.97c0.08,0.55,0.37,1.05,0.93,1.27c0.03,0.01,0.06,0.02,0.08,0.03c0.61,0.23,1.26,0.16,1.75-0.14
				C366.4,218.2,367.67,217.5,367.4,216.21z"/>
		</g>
		<path class="st12" d="M375.88,212.04c-5.03,1.29-5.46,1.42-8.49-0.49c-0.32-0.2-0.72-0.26-0.89-0.13c-1.65,1.2-3.69,2.87-5.45,3.9
			c-0.67,0.39,0.16,1.21,0.41,1.52c0.38,0.47,1.18,2.51,1.54,3.19c0.78,1.44,1.86,2.4,2.22,2.74c0.67,0.63,2.01-0.22,4.89-1.87
			c1.56-1.13,0.41-1.46,2.36-2.14c0.24-0.08,0.49-0.15,0.74-0.21c1.63-0.39,3.31-1.07,4.79-1.85c1.84-0.97,3.1-1.85,3.58-2.18
			c0.88-0.61,0.52-1.16,0.26-1.65C380.59,210.46,378.41,211.39,375.88,212.04z"/>
		<g>
			<path class="st5" d="M264.12,213.07c0.13-0.09,0.26-0.18,0.4-0.26c0,0,0,0,0,0c0.01-0.01,0.02-0.02,0.03-0.02
				c3.4-2.23,6.58-4.81,9.8-7.29c1.01-0.78,2.64-1.75,2.41-3.26c-0.24-1.55-2.12-2.83-3.24-3.77c-0.77-0.65-1.57-0.44-2.08,0.11
				c-0.02,0.02-0.04,0.03-0.06,0.05c-1.91,1.77-3.81,3.56-5.58,5.48c-0.75,0.81-1.48,1.65-2.2,2.49c-0.38,0.45-0.76,0.91-1.14,1.37
				c-0.12,0.14-0.75,0.71-0.72,0.81c-0.48,0.27-0.85,0.73-0.84,1.33c0,0.03,0,0.06,0,0.09c0,0.65,0.31,1.23,0.77,1.58
				C261.9,212.85,263.01,213.78,264.12,213.07z"/>
		</g>
		<path class="st12" d="M267.92,220.61c-1.68-4.91-1.85-5.33-0.18-8.5c0.18-0.34,0.2-0.74,0.06-0.9c-1.32-1.55-3.15-3.45-4.32-5.12
			c-0.44-0.64-1.19,0.26-1.48,0.53c-0.44,0.42-2.41,1.37-3.05,1.79c-1.38,0.89-2.25,2.04-2.56,2.43c-0.57,0.71,0.38,1.98,2.25,4.73
			c1.25,1.47,1.49,0.3,2.32,2.18c0.1,0.23,0.19,0.48,0.27,0.72c0.51,1.6,1.33,3.21,2.22,4.63c1.11,1.76,2.09,2.95,2.46,3.4
			c0.67,0.83,1.2,0.42,1.67,0.13C269.87,225.19,268.76,223.09,267.92,220.61z"/>
		<g>
			<path class="st7" d="M339.35,114.45c-0.67-4.16-1.76-8.24-2.41-12.41c-0.66-4.24-0.43-8.46-0.54-12.74
				c-0.25-9.17-4.71-16.57-9.76-23.94c-0.99-1.45-3.37-0.08-2.37,1.39c0.1,0.14,0.19,0.29,0.29,0.43c-0.24,0.13-0.45,0.32-0.59,0.53
				c-0.36,0.54-0.27,1.07-0.01,1.63c0.11,0.24,0.32,0.41,0.56,0.53c0,0.33,0.41,1.05,0.45,1.16c0.24,0.65,0.48,1.31,0.69,1.97
				c0.35,1.08,0.66,2.17,0.94,3.27c-0.27,3.91,0.44,7.88,0.5,11.78c0.04,3.24-0.11,6.48-0.46,9.7c-0.32,0.16-0.59,0.41-0.73,0.78
				c-1.97,5.32-1.76,10.87-1.68,16.42c-2.56,1.61-4.97,3.46-7.2,5.52c-7.03,5.17-13.92,10.53-20.65,16.09
				c-1.2,0.99,0.41,3.11,1.67,2.17c2.68-1.99,5.44-3.87,8.27-5.64c-2.9,2.24-5.83,4.45-8.77,6.65c-0.74,0.55-0.75,1.42-0.36,2
				c-1.26-0.02-2.52-0.18-3.75-0.49c-1.72-0.43-2.45,2.21-0.73,2.66c3.47,0.89,7.13,0.84,10.53-0.33c1.64-0.56,3.18-1.34,4.6-2.34
				c1.54-1.08,2.93-2.39,4.65-3.18c3.74-1.72,8.27-0.73,12.25-1.11c3.44-0.33,6.88-1.24,9.71-3.29
				C340.68,129.13,340.46,121.31,339.35,114.45z"/>
		</g>
		<g>
			<path class="st1" d="M365.68,204.54c-2.51-6.85-11.61-36.62-14.23-43.1c-2.41-5.98-16.47-29.95-19.08-36.72
				c-0.52-1.34-3.16-0.91-3.95-0.09c-0.8-0.78-1.91-0.36-2.47,0.46c-0.22-0.02-0.45,0.01-0.67,0.08c-0.33-0.55-0.65-1.11-0.98-1.66
				c-1.16-1.94-4.23-0.46-3.18,1.6c0.01,0.02,0.02,0.04,0.03,0.05c-0.25-0.07-0.53-0.12-0.84-0.15c-0.15-0.01-0.3-0.02-0.45-0.01
				c-0.37-1.27-2.48-1.96-3.23-0.57c-0.83-0.06-1.71,0.06-2.52,0.32c0.03-0.09,0.05-0.18,0.07-0.28c0.41-1.42,0.8-2.84,1.16-4.27
				c0.56-2.21-2.81-3.28-3.39-1.06c-0.21,0.81-0.43,1.63-0.65,2.44c-0.44,0.18-0.84,0.51-1.05,1.01c-0.82-0.93-2.59-0.99-3.01,0.55
				c-3.97,14.67-10.54,26.1-16.96,39.8c-3.19,6.82-6.43,13.63-10.63,19.9c-4.23,6.32-9.57,14.32-14.3,20.26
				c-1.01,1.27,4.02,5.37,5.99,5.49c2.95,0.18,2.58,0.14,4.23-1.92c4.56-5.69,25.33-28.88,29.52-34.47
				c2.68-3.58,10.33-13.53,15.96-22.98c5.33,7.32,9.41,12.07,14.78,20.11c4.18,6.26,8.34,12.55,11.53,19.39
				c3.21,6.89,7.3,15.6,9.94,22.72c0.56,1.52,6.68-0.66,7.8-2.28C366.81,206.73,366.59,207.03,365.68,204.54z"/>
		</g>
		<g>
			<path class="st18" d="M334.34,118.78c-0.47-6.62-1.65-13.16-2.1-19.78c-0.49-7.29-0.36-14.62-1.4-21.87
				c-0.62-4.34-1.77-13.59-7.56-14.04c-0.28-0.38-0.73-0.63-1.36-0.6c-2.69,0.13-4.31,1.91-5.83,3.95c-1.82,2.46-3.5,5.02-4.98,7.69
				c-3.02,5.48-4.76,11.24-5.43,17.46c-0.73,6.76-1.19,13.46-2.62,20.13c-0.67,3.13-1.47,6.22-2.4,9.28
				c-0.76,2.49-1.75,5.1-1.41,7.75c0.77,5.85,6.96,6.43,11.52,4.8c3.21-1.15,5.97-1.99,9.44-1.85c2.89,0.11,5.88,0.8,8.76,0.3
				C335.33,130.88,334.68,123.67,334.34,118.78z"/>
		</g>
		<g>
			<path class="st5" d="M333.17,33.94c-2.63-0.67-4.61,0.03-6.02,1.44c-4.87,1.09-5.72,8.09-4.76,12.38
				c1.11,4.91,3.82,12.74,9.98,12.84c5.87,0.09,7.82-7.48,7.93-12.07C340.43,43.28,339.24,35.48,333.17,33.94z"/>
		</g>
		<g>
			<path class="st5" d="M331.73,55.9c-0.02-1.3-0.98-1.76-1.96-1.38c-0.36-0.91-1.38-1.37-2.24-0.56c-0.21-1.43-2.18-1.89-3.04-0.07
				c-0.77,1.63-1.54,3.25-2.31,4.88c-0.67,1.42-1.6,2.97-2.1,4.46c-0.95,2.85,1.64,3.41,3.31,4.04c0.81,0.31,1.82,0.92,2.79,0.43
				c1.01-0.51,1.64-2.17,2.18-3.18C329.69,62.04,331.78,58.71,331.73,55.9z"/>
		</g>
		<g>
			<path class="st7" d="M337.87,34.39c-1.27-1.56-2.84-1.93-4.73-2.22c-1.72-0.26-3.09-2.09-4.96-1.3
				c-0.39,0.17-0.68,0.41-0.92,0.69c-0.35,0.32-0.62,0.72-0.85,1.13c-0.48,0.85-0.75,1.25-1.78,1.55c-0.5,0.14-0.95,0.14-1.44,0.34
				c-0.9,0.36-1.41,0.97-2.06,1.65c-0.78,0.82-1.72,0.84-2.63,1.45c-1.4,0.93-1.97,2.71-1.76,4.33c0.3,2.24,1.91,3.45,3.06,5.22
				c1.27,1.97,1.1,4.67,2.48,6.69c0.89,1.3,2.45,2.17,4.04,1.66c0.15-0.05,0.3-0.11,0.44-0.18c2.11-0.31,3.43-2.87,4.15-4.7
				c0.37-0.96,0.78-2.37,1.82-2.84c0.68-0.31,1.48,0.05,2.18-0.11c1.06-0.25,1.61-1.25,1.76-2.24c0.15-0.98,0.11-1.73,0.71-2.56
				c0.42-0.57,0.94-0.95,1.23-1.62c0.17-0.4,0.26-0.81,0.29-1.21c0.02-0.04,0.03-0.08,0.05-0.12
				C339.45,38.03,339.17,35.99,337.87,34.39z"/>
		</g>
		<g>
			<path class="st7" d="M325.88,73c-0.51-2.93-3.77-7.28-6.82-9.01c-0.75-0.43-4.49-0.04-10.84,6.13
				c-6.08,5.91-33.19,46.22-37.58,53.53c-1,1.66-2.03,3.33-3.43,4.69c-1.69,1.66-3.85,2.5-6.01,3.37c-4.4,1.78-8.75,3.71-13.02,5.79
				c-2,0.98-3.99,1.99-5.96,3.03c-1.91,1.01-4.29,1.92-5.82,3.49c-2.82,2.88-0.7,7.69,0.74,10.75c3.15,6.7,9.11,12.02,16.08,14.48
				c7.36,2.59,15.82,1.7,22.63-2.03c3.77-2.06,6.51-5.2,9.74-7.94c3.35-2.84,7.61-4.19,11.22-6.63
				c8.19-5.54,11.87-13.98,14.15-23.28c1.2-4.91,2.34-9.82,4.34-14.48c0.7-1.63,3.1-4.99,3.4-5.3c2.94-2.98,4.44-7.07,5.65-11
				c1.28-4.18,2.04-8.53,2.3-12.88C326.89,81.47,326.61,77.2,325.88,73z"/>
		</g>
		<g>
			<path class="st7" d="M313.19,67.9c-0.87-0.25-12.62,7.77-17.36,12.09c-4.48,4.08-8.89,8.84-10.29,14.93
				c-1.4,6.11,0.8,12.93,3.14,18.54c0.6,1.43,1.24,2.84,1.96,4.21c0.5,0.95,0.98,2.26,2.05,2.7c1.2,0.49,2.43-0.28,3.51-0.73
				c1.71-0.7,3.41-1.4,5.12-2.1c1.02-0.42,1.38-1.3,0.94-2.32c-2.17-5.02-4.16-10.99-2.41-16.41c1.7-5.26,5.84-8.48,10.18-11.54
				c3.72-2.63,7.59-5.88,8.32-10.65C318.94,72.73,317.07,69.02,313.19,67.9z M295.15,91.61c-0.08,0.1-0.15,0.21-0.23,0.31
				c0.05-0.17,0.08-0.35,0.11-0.53c0.11-0.06,0.23-0.13,0.34-0.2C295.3,91.33,295.23,91.47,295.15,91.61z"/>
		</g>
		<g>
			<path class="st5" d="M303.27,119.17c-0.55-0.81-1.63-2.15-2.76-1.73c-0.59,0.22-1.18,0.63-1.76,0.9
				c-0.43,0.2-0.84,0.43-1.17,0.75c-0.44-0.4-1.34-0.22-1.34,0.55c0.01,1.18,0.28,4.33,2.13,4.03c0.8-0.13,1.32-1.07,1.87-1.58
				c0.82-0.76,1.75-1.35,2.75-1.84C303.35,120.07,303.49,119.51,303.27,119.17z"/>
		</g>
		<g class="st0">
			<path class="st1" d="M318.32,71.68c-0.33-0.68-1.34-0.08-1.01,0.59c2.3,4.77-2.02,9.98-5.43,12.89
				c-3.55,3.02-7.74,5.27-10.91,8.73c-2.59,2.83-4.31,6.32-4.12,10.23c0.22,4.45,2.46,8.38,4.74,12.09c0,0,0,0,0,0
				c0.11,0.82-5.58,2.58-6.34,2.81c-0.95,0.29-1.13,0.48-1.97-0.04c-0.69-0.42-0.89-0.91-1.28-1.59c-0.51-0.89-1.01-1.78-1.49-2.69
				c-2.06-3.87-3.69-7.91-4.38-12.25c-0.12-0.75-1.25-0.43-1.13,0.31c0.9,5.88,3.59,11.74,6.84,16.69c1.39,2.11,3.78,0.76,5.76,0.02
				c1.38-0.52,2.74-1.13,4.03-1.84c0.57-0.31,1.14-0.58,1.16-1.23c0.09-0.16,0.1-0.35-0.02-0.55c-2.66-4.32-5.59-9.29-4.54-14.57
				c0.97-4.9,5.09-8.31,8.91-11.09C312.42,86.33,322.17,79.57,318.32,71.68z"/>
		</g>
	</g>
</g>
</svg>
