<?xml version="1.0" encoding="utf-8"?>
<!-- Generator: Adobe Illustrator 23.0.1, SVG Export Plug-In . SVG Version: 6.00 Build 0)  -->
<svg version="1.1" id="Layer_1" xmlns="http://www.w3.org/2000/svg" xmlns:xlink="http://www.w3.org/1999/xlink" x="0px" y="0px"
	 viewBox="0 0 608 296" style="enable-background:new 0 0 608 296;" xml:space="preserve">
<style type="text/css">
	.st0{opacity:0.1;}
	.st1{fill:#0093FD;}
	.st2{opacity:0.08;}
	.st3{fill:#F5F5F5;}
	.st4{fill:#F4F3EE;}
	.st5{fill:#E6E6E6;}
	.st6{fill:#FFD931;}
	.st7{fill:#1F263A;}
	.st8{fill:#284F4C;}
	.st9{fill:#FFFFFF;}
	.st10{fill:#B3B3B3;}
	.st11{fill:#2992FA;}
	.st12{fill:#27374D;}
	.st13{fill:#DE614B;}
	.st14{fill:#2C294C;}
	.st15{fill:#EAEAEA;}
	.st16{fill:#D6D6D6;}
	.st17{fill:#223359;}
	.st18{fill:#FCD846;}
	.st19{fill:#DADAEA;}
	.st20{fill:#E8BC05;}
	.st21{fill:#CECECE;}
	.st22{opacity:0.4;fill:#E6E6E6;}
	.st23{opacity:0.4;}
	.st24{fill:#2A2BEE;}
	.st25{fill:url(#SVGID_1_);}
	.st26{fill:url(#SVGID_2_);}
	.st27{fill:none;stroke:#2A2BEE;stroke-width:8;stroke-miterlimit:10;}
	.st28{fill:none;stroke:url(#SVGID_3_);stroke-width:8;stroke-miterlimit:10;}
	.st29{fill:none;stroke:url(#SVGID_4_);stroke-width:7;stroke-miterlimit:10;}
	.st30{fill:url(#SVGID_5_);}
	.st31{fill:url(#SVGID_6_);}
	.st32{fill:url(#SVGID_7_);}
	.st33{fill:url(#SVGID_8_);}
	.st34{fill:url(#SVGID_9_);}
	.st35{fill:url(#SVGID_10_);}
	.st36{fill:url(#SVGID_11_);}
	.st37{fill:url(#SVGID_12_);}
	.st38{fill:url(#SVGID_13_);}
	.st39{fill:url(#SVGID_14_);}
	.st40{fill:url(#SVGID_15_);}
	.st41{fill:url(#SVGID_16_);}
	.st42{fill:url(#SVGID_17_);}
	.st43{fill:url(#SVGID_18_);}
	.st44{fill:url(#SVGID_19_);}
	.st45{fill:url(#SVGID_20_);}
	.st46{fill:#F9FBFF;}
	.st47{fill:#EDF5FC;}
	.st48{fill:none;stroke:#2A2BEE;stroke-width:3;stroke-miterlimit:10;}
	.st49{fill:url(#SVGID_21_);}
	.st50{fill:url(#SVGID_22_);}
	.st51{fill:url(#SVGID_23_);}
	.st52{fill:url(#SVGID_24_);}
	.st53{fill:url(#SVGID_25_);}
	.st54{fill:#DBDBDB;}
	.st55{fill:#AF9279;}
	.st56{fill:#F7DABC;}
	.st57{fill:#027FCC;}
	.st58{fill:#747489;}
	.st59{fill:#E2B705;}
	.st60{fill:#263556;}
	.st61{fill:#E0E0E0;}
	.st62{fill:#C4C4C4;}
	.st63{fill:#006EB2;}
	.st64{fill:#B8B8C9;}
	.st65{fill:#9393AB;}
	.st66{fill:#E5B900;}
	.st67{fill:#5578A3;}
	.st68{opacity:0.3;fill:#DADAEA;}
	.st69{fill:#C6C6C6;}
	.st70{fill:#0469BC;}
	.st71{opacity:0.2;}
	.st72{fill:#C1C1C1;}
	.st73{fill:#F2F2F2;}
	.st74{opacity:0.51;fill:#E6E1FF;}
	.st75{fill:#709FE0;}
	.st76{fill:#5183BF;}
	.st77{fill:#D1D1D1;}
	.st78{fill:#D6AE05;}
	.st79{fill:#DCDAE0;}
	.st80{fill:#F3F3F5;}
	.st81{fill:#D9924E;}
	.st82{fill:#C2C2ED;}
	.st83{fill:#636375;}
	.st84{fill:#543237;}
	.st85{fill:#3F3E66;}
	.st86{fill:#585866;}
	.st87{fill:#A04B40;}
	.st88{fill:#B7743D;}
	.st89{fill:#0074D3;}
</style>
<g class="st2">
	<path class="st1" d="M196.97,141.24c-12.52,34.32-10.94,52.23-0.13,83.24c3.3,9.45,7.95,18.53,14.76,25.47
		c14.62,14.89,36.59,17.69,56.82,16.86c41.57-1.7,80.44-22.87,121.7-17.73c32.5,4.05,68.09,27.05,99.22,15.87
		c18.54-6.66,33.91-22.96,40.34-42.79s3.76-42.73-7-60.09c-12.22-19.73-33.64-31.34-55.53-34.85c-21.88-3.51-44.3,0.3-65.79,6.25
		c-29.57,8.18-60.18,20.5-89.68,12.54c-14.24-3.85-26.96-12.18-40.02-19.32c-13.07-7.14-27.31-13.28-41.99-12.15
		c-14.68,1.13-27.81,12.97-32.69,26.96"/>
</g>
<g>
	<g>
		<path class="st1" d="M541.49,101.95c-0.78-1.73-2.51-2.7-4.2-3.36c-1.84-0.71-4-1.15-5.88-0.32c-1.89,0.83-2.83,2.6-3.58,4.42
			c-0.57,1.38,1.83,2.41,2.43,1.03c0.16-0.37,0.33-0.76,0.52-1.14c0,0,0.01,0,0.01,0c0.9,0.37,5.69,1.69,5.64,2.74
			c-0.04,0.93,0.7,1.35,1.42,1.28c-0.01,0.29-0.02,0.58-0.01,0.88c0.02,1.28,1.88,1.91,2.51,0.68
			C541.28,106.33,542.41,103.99,541.49,101.95z"/>
	</g>
	<g>
		<path class="st1" d="M544.14,108.69c-1.54-3.33-5.24-5.46-8.58-6.62c-2.27-0.79-5.22-1.17-7.79-0.94
			c-3.01,0.27-5.75,1.48-6.42,4.87c-0.12,0.6-0.14,1.17-0.09,1.71c-0.11,2.92,1.83,5.84,5,6.47c0.26,0.05,0.5,0.07,0.74,0.07
			c0.13,0.07,0.26,0.14,0.38,0.21c3.57,1.92,7.48,3.56,11.61,3.06C543.39,117,546.08,112.87,544.14,108.69z"/>
	</g>
	<g>
		<path class="st5" d="M507,131.54c-0.11-1.98,0.26-4.26-1.09-5.92c-0.73-0.9-2.61-2.18-3.84-1.98c-1.45,0.24-1.11,2.21-0.56,3.11
			c0.51,0.85,1.33,1.34,2.03,2.01c0.95,0.91,1.27,2,1.54,3.26c0.15,0.69,0.93,0.67,1.29,0.26
			C506.71,132.22,507.02,131.96,507,131.54z"/>
	</g>
	<g>
		<path class="st6" d="M529.5,168.62c-0.37-0.38-0.91-0.47-1.37-0.3c-0.68-0.33-1.54-0.14-1.81,0.76c-0.37-1.35-2.28-1.61-2.67,0.05
			c-0.08,0.34-0.15,0.68-0.23,1.01c-0.44-0.6-1.33-0.77-1.93-0.36c-0.55-0.26-1.23-0.2-1.58,0.35c-0.07,0.1-0.13,0.21-0.19,0.31
			c0.04-0.22,0.08-0.43,0.12-0.65c0.34-1.92-2.36-2.58-2.71-0.66c-1.21,6.7-2.4,11.56-2.38,18.43c0.01,3.53,0.71,4.65,0.88,8.15
			c0.16,3.18-1.05,5.99-1.71,9.01c-0.59,2.7-0.48,5.23,0.64,7.75c0.56,1.26,1.33,2.45,1.75,3.77c0.55,1.73-0.07,2.87-0.42,4.52
			c-0.54,2.6,0.71,4.23,2.33,5.9c1.01,1.04,1.32,1.86,1.55,3.33c0.21,1.34,0.41,2.55,1.17,3.66c0.64,0.93,1.88,0.9,2.4-0.14
			c1.2-2.41,0.94-5.02,1.48-7.62c0.54-2.59,2.48-4.41,3.23-6.91c0.84-2.79,0.02-5.53-0.3-8.34c-0.35-3.06,1.36-5.57,1.12-8.57
			c-0.12-1.48-0.74-2.81-1.03-4.24c-0.37-1.78-0.03-1.24,0.32-2.98c0.65-3.32,1.22-6.65,1.58-10.03c0.35-3.28,0.56-4.68,0.61-7.99
			c0.02-1.59,0.01-3.17-0.04-4.76C530.29,170.82,530.42,169.56,529.5,168.62z"/>
	</g>
	<g>
		<path class="st6" d="M541.02,167.61c-0.42-0.32-0.97-0.33-1.4-0.1c-0.72-0.23-1.54,0.08-1.68,1.01c-0.57-1.28-2.48-1.26-2.63,0.44
			c-0.03,0.34-0.05,0.69-0.08,1.04c-0.52-0.53-1.43-0.57-1.96-0.08c-0.58-0.17-1.25-0.02-1.52,0.58c-0.05,0.11-0.09,0.22-0.14,0.33
			c0.01-0.22,0.01-0.44,0.02-0.66c0.06-1.95-2.71-2.21-2.77-0.26c-0.23,6.8-0.43,11.77,0.58,18.56c0.52,3.49,1.7,4.47,2.38,7.91
			c0.61,3.13-0.17,6.08-0.39,9.16c-0.2,2.75,0.28,5.24,1.75,7.57c0.73,1.16,1.67,2.23,2.28,3.48c0.8,1.63,0.34,2.85,0.24,4.54
			c-0.16,2.65,1.32,4.08,3.16,5.5c1.15,0.89,1.58,1.65,2.02,3.07c0.4,1.29,0.77,2.46,1.69,3.45c0.77,0.83,1.99,0.62,2.35-0.48
			c0.84-2.56,0.2-5.1,0.36-7.75c0.16-2.64,1.82-4.72,2.2-7.3c0.43-2.88-0.78-5.47-1.5-8.21c-0.79-2.98,0.54-5.7-0.13-8.64
			c-0.33-1.44-1.14-2.67-1.64-4.04c-0.62-1.71-0.53-1.2-0.45-2.97c0.17-3.38,0.25-4.85,0.12-8.25c-0.13-3.3-0.4-6.6-0.83-9.88
			c-0.2-1.57-0.45-3.14-0.72-4.7C542.12,169.67,542.06,168.4,541.02,167.61z"/>
	</g>
	<g>
		<path class="st1" d="M544.48,166.54c-0.16-1.44-2.44-1.47-2.29,0c0.01,0.11,0.02,0.23,0.03,0.34c-0.09-0.07-0.2-0.14-0.31-0.19
			c0.06-0.59,0.15-1.18,0.27-1.78c0.13-0.65-0.35-1.23-0.9-1.42c0.21-1.04,0.43-2.08,0.64-3.12c0.19-0.93-0.52-1.47-1.21-1.4
			c0.48-1.76,0.97-3.63,0.63-5.37c-0.12-0.6-0.66-0.86-1.18-0.81c0.32-1.08,0.64-2.17,0.96-3.25c0.22-0.73-0.5-1.64-1.28-1.46
			c0.51-1.68,0.99-3.34,0.61-5.1c-0.16-0.76-1.02-1-1.64-0.7c0.24-0.9,0.46-1.81,0.65-2.72c0.19-0.94-0.67-1.6-1.42-1.41
			c0.33-1,0.57-2.01,0.58-2.99c0.94-0.55,0.72-2.01-0.23-2.17c0.09-0.48-0.17-1-0.61-1.25c0.27-0.14,0.53-0.28,0.8-0.43
			c1.11-0.6,0.46-2.09-0.62-2.12c0.7-0.75-0.08-2.08-1.19-1.86c-0.03,0.01-0.05,0.01-0.08,0.02c0.01-0.03,0.01-0.06,0.02-0.09
			c1.37-0.19,1.3-2.14-0.12-2.28c-1.6-0.15-3.2-0.25-4.8-0.27c-1.17-0.01-2.51-0.18-3.59,0.33c-0.35,0.17-0.57,0.61-0.57,0.99
			c0,0.06,0,0.12,0,0.18c0,0.18,0.04,0.33,0.09,0.46c-0.41,0.19-0.81,0.4-1.21,0.63c-1.1,0.65-0.38,2.5,0.89,2.1l0,0
			c-0.2,0.36-0.14,0.78,0.08,1.1c-0.76,0.37-1.5,0.76-2.24,1.19c-0.56,0.32-0.64,1-0.41,1.51c-0.46,0.2-0.92,0.39-1.37,0.6
			c-0.86,0.39-0.63,1.61,0.03,2.03c-1,0.4-0.94,1.73-0.27,2.15c-0.03,0.01-0.06,0.02-0.09,0.03c-0.89,0.34-0.95,1.4-0.5,1.95
			c-0.38,0.19-0.76,0.38-1.13,0.57c-1.06,0.54-0.5,2.11,0.58,2.14c0.65,0.02,1.29-0.04,1.93-0.14c-0.52,1.59-0.87,3.21-1.06,4.91
			c-0.05,0.42,0.17,0.75,0.49,0.94c-0.6,1.7-1.25,3.38-1.94,5.04c-0.43,1.02,0.9,1.68,1.69,1.3c0.07-0.04,0.13-0.08,0.2-0.12
			l-0.17,0.61c-0.26-0.01-0.52,0.1-0.76,0.38c-0.59,0.72-0.74,1.26-0.57,2.17c-0.53,2.92-1.29,5.78-2.31,8.58
			c-0.01,0.03-0.02,0.06-0.03,0.1c-0.32,0.05-0.58,0.22-0.75,0.45c-0.65,0.31-1,0.97-0.82,1.73c-0.17-0.08-0.33-0.16-0.51-0.22
			c-1.38-0.54-1.93,1.64-0.61,2.19c1.44,0.6,2.6,1.71,3.99,2.41c1.3,0.65,2.69,1.14,4.11,1.46c2.81,0.64,5.71,0.76,8.58,0.81
			c2.92,0.05,5.22-0.41,7.73-1.98C543.99,171.61,544.83,169.71,544.48,166.54z"/>
	</g>
	<g>
		<path class="st6" d="M483.24,224.84c0.78-2.61,1.48-5.24,1.96-7.92c0.26-1.43,0.94-3.52-0.15-4.78c-2.84-3.27-5.39,4.43-5.9,5.98
			c-1.48,4.51-3.71,15.45-1.03,15.9c1.37,0.23,2.36-1.15,2.93-2.47C481.98,229.42,482.58,227.07,483.24,224.84z"/>
	</g>
	<g>
		<path class="st7" d="M481.06,231.53c0.92-2.13,1.52-4.48,2.18-6.71c0.6-2.01,1.15-4.04,1.6-6.1c-1.81,1.97-3.34,4.16-4.71,6.48
			c-0.11-2.16-0.54-4.28-1.21-6.33c-1.47,4.87-3.33,14.69-0.79,15.12C479.5,234.24,480.49,232.86,481.06,231.53z"/>
	</g>
	<g>
		<path class="st6" d="M478.54,223.47c0.15-2.72,0.22-5.44,0.07-8.16c-0.08-1.46,0.09-3.65-1.26-4.61
			c-3.53-2.52-4.21,5.56-4.35,7.19c-0.39,4.73-0.02,15.89,2.69,15.7c1.38-0.09,2.03-1.66,2.28-3.09
			C478.38,228.21,478.41,225.78,478.54,223.47z"/>
	</g>
	<g>
		<path class="st7" d="M477.98,230.48c0.4-2.29,0.43-4.71,0.56-7.03c0.12-2.1,0.18-4.2,0.14-6.3c-1.31,2.34-2.28,4.83-3.08,7.4
			c-0.61-2.08-1.52-4.04-2.65-5.87c-0.29,5.08,0.18,15.07,2.75,14.89C477.09,233.47,477.73,231.9,477.98,230.48z"/>
	</g>
	<g>
		<path class="st6" d="M473.02,222.99c0.15-2.72,0.22-5.44,0.07-8.16c-0.08-1.46,0.09-3.65-1.26-4.61
			c-3.53-2.52-4.21,5.56-4.35,7.19c-0.39,4.73-0.02,15.89,2.69,15.7c1.38-0.09,2.03-1.66,2.28-3.09
			C472.86,227.73,472.89,225.31,473.02,222.99z"/>
	</g>
	<g>
		<path class="st7" d="M472.46,230c0.4-2.29,0.43-4.71,0.56-7.03c0.12-2.1,0.18-4.2,0.14-6.3c-1.31,2.34-2.28,4.83-3.08,7.4
			c-0.61-2.08-1.52-4.04-2.65-5.87c-0.29,5.08,0.18,15.07,2.75,14.89C471.56,233,472.21,231.43,472.46,230z"/>
	</g>
	<g>
		<path class="st6" d="M467.93,224.59c-0.14-2.72-0.37-5.43-0.82-8.12c-0.24-1.44-0.3-3.63-1.75-4.45
			c-3.78-2.13-3.58,5.99-3.54,7.62c0.12,4.75,1.7,15.8,4.38,15.32c1.36-0.24,1.84-1.87,1.93-3.32
			C468.29,229.32,468.05,226.9,467.93,224.59z"/>
	</g>
	<g>
		<path class="st7" d="M468.14,231.62c0.15-2.32-0.08-4.73-0.2-7.05c-0.11-2.1-0.28-4.19-0.55-6.28c-1.04,2.47-1.74,5.04-2.26,7.69
			c-0.83-2-1.94-3.85-3.27-5.55c0.26,5.08,1.81,14.96,4.35,14.51C467.57,234.69,468.04,233.06,468.14,231.62z"/>
	</g>
	<g>
		<path class="st6" d="M462.03,221.82c-0.14-2.72-0.37-5.43-0.82-8.12c-0.24-1.44-0.3-3.63-1.75-4.45
			c-3.78-2.13-3.58,5.99-3.54,7.62c0.12,4.75,1.7,15.8,4.38,15.32c1.36-0.24,1.84-1.87,1.93-3.32
			C462.38,226.56,462.15,224.14,462.03,221.82z"/>
	</g>
	<g>
		<path class="st7" d="M462.23,228.86c0.15-2.32-0.08-4.73-0.2-7.05c-0.11-2.1-0.28-4.19-0.55-6.28c-1.04,2.47-1.74,5.04-2.26,7.69
			c-0.83-2-1.94-3.85-3.27-5.55c0.26,5.08,1.81,14.96,4.35,14.51C461.66,231.93,462.14,230.3,462.23,228.86z"/>
	</g>
	<g>
		<path class="st6" d="M438.92,108.78c1.35-2.36,2.62-4.78,3.7-7.28c0.58-1.34,1.71-3.22,0.93-4.69c-2.03-3.83-6.25,3.1-7.1,4.5
			c-2.46,4.06-7.1,14.21-4.59,15.26c1.28,0.53,2.56-0.58,3.42-1.75C436.66,112.95,437.77,110.8,438.92,108.78z"/>
	</g>
	<g>
		<path class="st1" d="M436.04,109.13c0.8-2.91,1.23-5.91,1.16-8.97c-0.33,0.5-0.59,0.93-0.74,1.17c-2.46,4.06-7.1,14.21-4.59,15.26
			c1.28,0.53,2.56-0.58,3.42-1.75c1.38-1.87,2.49-4.03,3.64-6.04c0.78-1.36,1.52-2.75,2.23-4.15
			C439.37,106.05,437.55,107.46,436.04,109.13z"/>
	</g>
	<g>
		<path class="st6" d="M504.93,116.77c-0.58-2.66-1.24-5.3-2.11-7.89c-0.47-1.38-0.88-3.54-2.44-4.11
			c-4.07-1.49-2.57,6.49-2.27,8.09c0.88,4.67,4.22,15.32,6.79,14.41c1.31-0.46,1.51-2.14,1.37-3.58
			C506.04,121.38,505.42,119.04,504.93,116.77z"/>
	</g>
	<g>
		<path class="st7" d="M503.02,118.96c-1.35-2.7-3.03-5.22-5.13-7.45c0.09,0.6,0.18,1.08,0.24,1.37c0.88,4.67,4.22,15.32,6.79,14.41
			c1.31-0.46,1.51-2.14,1.37-3.58c-0.22-2.31-0.84-4.66-1.33-6.93c-0.33-1.53-0.7-3.06-1.12-4.58
			C503.44,114.44,503.02,116.7,503.02,118.96z"/>
	</g>
	<g>
		<path class="st6" d="M433.65,165.3c1.1-2.49,2.11-5.02,2.92-7.62c0.43-1.39,1.36-3.38,0.43-4.76c-2.42-3.6-5.89,3.74-6.59,5.21
			c-2.03,4.3-5.58,14.88-2.97,15.65c1.33,0.4,2.48-0.85,3.21-2.1C431.83,169.69,432.71,167.42,433.65,165.3z"/>
	</g>
	<g>
		<path class="st1" d="M430.67,171.67c1.18-2,2.05-4.26,2.99-6.39c0.85-1.92,1.64-3.87,2.33-5.85c-2.04,1.73-3.83,3.72-5.47,5.86
			c0.16-2.16-0.01-4.31-0.43-6.43c-2.05,4.66-5.1,14.18-2.63,14.91C428.78,174.16,429.93,172.92,430.67,171.67z"/>
	</g>
	<g>
		<path class="st1" d="M399.67,148.8c-4.3-0.74-5.75,4.86-6.93,7.76c-1.02,2.49-2.38,3.6-4.94,4.4c-2.05,0.64-4.05,1.35-5.21,3.29
			c-1.28,2.14-0.74,5.46-2.53,7.26c-1.12,1.12-2.67,0.67-4.07,0.65c-1.18-0.01-2.34,0.22-3.38,0.77c-2.58,1.36-3.4,3.89-4.1,6.53
			c-0.4,1.52-0.92,2.94-2.12,4.03c-1.32,1.2-2.88,1.36-4.51,1.88c-1.37,0.44-2.45,1.14-3.3,2.03c-0.03-5.15-0.08-10.3-0.16-15.45
			c-0.1-6.58-0.22-13.17-0.35-19.75c1.19-1.48,2.91-2.81,3.98-3.88c2.09-2.11,3.78-4.24,6.69-5.1c4.02-1.19,5.82-4.26,8.11-7.49
			c1.42-2,3.01-3.43,5.27-4.43c2-0.89,4.12-1.57,5.85-2.96c3.61-2.9,3.83-7.95,6.89-11.25c1.49-1.61,3.21-2.93,3.99-5.06
			c0.53-1.43,0.72-3.89-0.81-4.84c-1.41-0.87-3.23,0.36-4.37,1.13c-1.64,1.11-3.05,2.53-4.31,4.04c-2.68,3.22-4.78,7-7.99,9.76
			c-3.58,3.08-8.42,4.1-11.5,7.84c-1.55,1.88-2.69,4.15-4.53,5.78c-1.96,1.73-4.71,2.03-6.67,3.72c0.02-0.59,0.04-1.18,0.06-1.78
			c0.06-1.8,0.29-3.61,0.53-5.41c0.96-2.87,2.3-5.62,4.01-8.14c1.65-2.43,3.53-4.3,6.04-5.82c1.93-1.16,3.64-2.39,4.86-4.33
			c1.18-1.87,1.79-4.02,2.64-6.04c1.1-2.58,2.57-4.11,4.94-5.58c4.45-2.75,7.35-7.31,10.26-11.55c3.09-4.49,7.56-10.66,6.3-16.43
			c-0.17-0.77-1.1-0.96-1.7-0.64c-2.06,1.1-2.67,3.24-3.58,5.23c-1.14,2.49-2.8,4.71-4.89,6.48c-2.17,1.84-4.85,2.86-7.12,4.54
			c-1.97,1.45-3.3,3.36-4.36,5.54c-1.1,2.27-2.01,4.6-3.5,6.65c-1.6,2.21-3.62,4.06-5.94,5.49c-2.16,1.33-4.23,2.47-5.73,4.6
			c-1.45,2.07-2.27,4.55-2.83,6.99c-0.16,0.68-0.28,1.36-0.4,2.04c0.01-0.7,0.03-1.39,0.07-2.08c0.17-2.96,1.13-5.49,2.25-8.2
			c0.87-2.11,1.69-4.3,1.66-6.61c-0.05-2.93-1.6-5.51-0.62-8.45c0.8-2.41,2.13-4.46,2.35-7.05c0.25-2.93-0.32-5.71,0.58-8.59
			c1.42-4.57,4.38-8.69,3.19-13.68c-0.15-0.63-0.86-0.89-1.43-0.76c-2.28,0.52-3.54,2.54-4.03,4.71c-0.37,1.61-0.37,3.28-1.02,4.83
			c-0.46,1.1-1.14,2.09-1.77,3.09c-1.53,2.41-2.55,4.68-2.7,7.57c-0.16,3.08,0.33,6.14,0.12,9.23c-0.22,3.17-0.9,6.33-1.97,9.32
			c-0.98,2.74-2.61,5.35-2.68,8.33c-0.07,2.95,1.27,5.73,1.92,8.57c0.17,0.77,0.31,1.54,0.43,2.31c0.04,0.28,0.07,0.55,0.11,0.83
			c0.02,0.14,0.04,0.28,0.05,0.42c-0.22-0.38-0.45-0.76-0.7-1.12c-2.62-3.79-6.25-5.04-10.3-6.71c-2.24-0.92-4.12-2.1-4.98-4.47
			c-0.84-2.3-1.17-4.61-2.9-6.48c-1.31-1.42-3.04-2.38-4.7-3.34c-2.35-1.36-4.46-2.89-6.01-5.16c-1.54-2.26-3.28-4.59-4-7.19
			c-0.49-1.77-1.01-5.13-3.02-5.9c-1.41-0.54-2.06-0.22-2.58,1.13c-0.82,2.17,0.57,5.64,1.25,7.71c1.69,5.12,4.83,9.36,7.29,14.09
			c2.03,3.9,1.25,9.41,5.9,11.43c1.88,0.81,3.95,0.92,5.88,1.57c2.67,0.91,3.38,3.5,5.51,5.05c2.23,1.63,5.09,1.38,7.63,2.16
			c1.6,0.49,4.17,1.71,5.56,3.38c0.18,0.91,0.3,1.83,0.38,2.76c-0.04,1.38-0.08,2.75-0.12,4.13c-0.69,5.71-1.63,19.51-1.64,19.74
			c-0.02,1.11,0,2.22,0.04,3.32c-0.53-0.45-1.01-0.83-1.3-1.1c-0.53-0.51-1.08-1.11-1.67-1.73c-0.81-1.23-1.69-2.41-2.64-3.51
			c-3.4-3.9-8.93-3.29-12.74-6.65c-3.14-2.77-5.56-6.82-10.2-7c-1.6-0.06-3.23,0.45-4.35,1.63c-0.7,0.74-1.1,1.68-1.61,2.53
			c-0.76,1.25-1.73,2.31-2.81,3.29c-3.25,2.95-7.27,5.28-9,9.54c-1.34,3.29-0.46,5.76,4.16,5.42c1.6-0.12,2.98-1.2,3.71-2.6
			c0.43-0.82,0.56-1.71,0.59-2.62c0.01-0.31-0.07-0.86,0.01-1.18c0.36-1.43,1.2-1.37,2.23-1.92c1.69-0.91,2.2-2.48,3.1-4.06
			c1.45-2.54,4.13-2.47,6.52-1.2c2.39,1.27,4.16,3.44,6.54,4.74c0.44,0.24,0.9,0.44,1.36,0.62c0.2,0.09,0.4,0.15,0.61,0.21
			c0.26,0.08,0.51,0.16,0.77,0.23c0.08,0.03,0.16,0.06,0.24,0.1c1.14,0.52,1.06,1.7,1.62,2.66c0.47,0.78,1.09,1.29,1.97,1.57
			c1.08,0.35,2.31,0.35,3.42,0.59c1.27,0.27,2.52,0.66,3.72,1.17c0.75,0.32,1.48,0.69,2.18,1.1c1.24,1.54,2.34,3.21,3.4,4.83
			c0.19,0.29,0.43,0.59,0.67,0.87c0.05,0.61,0.1,1.22,0.14,1.82c0.05,0.68,0.1,1.36,0.15,2.05c0,2.35,0,4.69,0.04,7.04
			c0.13,7.99,0.97,15.86,0.25,23.86c-0.7,7.82-1.62,15.57-1.84,23.43c-0.12,4.32-0.14,8.64-0.14,12.95c0,3.59-1.32,5.45,0.95,8.49
			c0.28,0.37,5.35-0.14,5.41-2.36c0.03-1.28-0.29-2.53-0.54-3.78c-0.37-1.87-0.53-3.75-0.55-5.65c-0.07-7.06,0.53-14.16,0.69-21.22
			c0.09-4.08,0.15-8.16,0.19-12.25c0.99-2.67,2.72-4.94,4.68-7.05c0.14-0.07,0.27-0.17,0.39-0.33c0.12-0.15,0.23-0.31,0.35-0.46
			c1.11-1.14,2.26-2.25,3.38-3.34c2.03-1.99,3.92-4.06,5.52-6.41c0.81-1.18,1.62-2.49,2.89-3.23c1.26-0.73,2.8-0.83,4.18-1.23
			c2.31-0.66,3.8-2.07,4.98-4.12c1.49-2.58,2.91-4.86,5.45-6.54c1.93-1.29,4.09-2.29,5.51-4.2c1.52-2.03,1.91-4.54,2.59-6.92
			c0.4-1.4,0.95-2.57,1.83-3.73c0.64-0.84,1.36-1.67,1.62-2.73C402.34,151.09,401.55,149.12,399.67,148.8z"/>
	</g>
	<g>
		<path class="st7" d="M471.24,72.86c-2.69,1.42-4.36,3.65-6.13,6.03c-2.12,2.86-4.85,4.14-7.97,5.65c-2.52,1.22-4.74,2.72-6.3,5.09
			c-1.55,2.36-2.31,5.13-3.21,7.77c-1.1,3.2-2.58,6.1-5.22,8.32c-2.34,1.96-5.36,2.71-7.8,4.49c-0.19,0.14-0.36,0.28-0.53,0.42
			c0.17-2.26,0.33-4.51,0.48-6.77c0.02-0.3,0.07-0.72,0.13-1.22c0.74-1.9,1.26-3.89,1.53-5.94c0.53-3.97-0.17-7.51-0.97-11.37
			c-0.92-4.42,1.46-8.44,0.85-12.83c-0.27-1.94-0.96-3.76-1.51-5.63c-0.68-2.3-0.8-4.55-0.86-6.93c-0.05-1.68-0.17-8.7-3.56-6.91
			c-2.81,1.49-2.19,5.93-1.74,8.41c1.72,9.31,2.29,18.66,1.19,28.08c-0.57,4.95-1.44,9.57-1.05,14.57c0.2,2.57,0.34,5.14,0.42,7.7
			c-0.21,1.22-0.44,2.44-0.67,3.66c-0.16-0.02-0.32-0.03-0.48-0.04c-0.81-0.56-1.84-0.8-2.96-0.84c-1.06-0.03-2.41,0.37-3.41-0.12
			c-1.33-0.65-0.82-2.81-0.96-4.08c-0.31-2.86-1.32-5.61-2.32-8.29c-0.88-2.36-1.94-4.6-3.88-6.27c-2.12-1.83-4.09-2.87-4.07-6
			c0.02-2.37,0.3-4.6-1.44-6.48c-1.01-1.09-1.9-1.84-2.04-3.41c-0.12-1.4,0.25-2.77,0.56-4.12c0.57-2.48,0.91-4.84-0.22-7.21
			c-0.35-0.73-1.28-0.66-1.8-0.23c-4.35,3.55-6.14,9.23-4.82,14.65c0.76,3.13,2.15,6.08,3,9.19c0.72,2.62,1.69,4.98,4.18,6.35
			c1.37,0.76,2.95,1.16,4.13,2.24c1.11,1.02,1.76,2.42,2.16,3.85c0.89,3.12,0.58,6.42,1.06,9.6c0.19,1.26,0.39,2.79,1.22,3.82
			c0.8,1,2.08,1.28,3.25,1.66c2.51,0.82,5.03,1.64,7.54,2.46c-0.33,1.78-0.65,3.56-0.92,5.34c-1.59,10.45-2.65,20.97-3.45,31.5
			c-0.3,3.9-0.56,7.81-0.8,11.72c-0.68-1.17-1.53-2.26-2.55-3.22c-4.41-4.16-10.14-6.6-13.31-12.05c-1.75-3.01-2.04-6.01-1.56-9.39
			c0.36-2.54,0.76-5.09-0.06-7.6c-0.78-2.4-2.32-4.41-3.79-6.43c-1.73-2.38-3.16-4.84-3.89-7.71c-0.61-2.41-0.63-13.1-5.63-11.11
			c-2.07,0.83-2.8,3.53-2.76,5.55c0.06,2.53,1.16,4.83,2.32,7.02c1.51,2.86,2.74,5.72,3.26,8.93c0.46,2.84,0.36,5.73,0.51,8.59
			c0.13,2.55,0.42,5.13,1.41,7.51c0.99,2.39,2.84,4.15,4.07,6.39c1.57,2.87,0.66,6.3,1.83,9.31c0.94,2.43,2.74,4.4,4.76,6
			c4.67,3.68,10.85,5.25,14.64,10.03c0.02,0.02,0.04,0.03,0.05,0.05c-0.73,13.92-1.23,27.86-1.68,41.79
			c-0.18,5.52-0.35,11.05-0.51,16.57c-0.06,1.93-1.49,10.39,2.94,8.31c3.47-1.64,3.45-6.6,3.75-9.81c0.5-5.36,0.88-10.72,1.15-16.09
			c0.55-11,0.41-21.98,0.25-32.99c-0.04-2.58-0.02-5.16,0.04-7.73c0.91-3.66,4.15-6.04,7.91-5.87c3.19,0.15,6.11,0.61,8.48-1.97
			c1.92-2.09,2.73-5.13,5.3-6.6c2.41-1.38,5.36-1.44,7.89-2.51c2.53-1.06,4.1-2.98,4.69-5.67c0.36-1.63,0.39-3.31,0.89-4.92
			c0.49-1.59,1.35-3.03,2.32-4.37c3.77-5.2,8.76-9.14,9.45-15.97c0.18-1.84,0.04-3.72-0.42-5.51c-0.5-1.92-1.56-3.6-2.2-5.46
			c-1.4-4.11,0.19-8.56-1.05-12.73c-0.24-0.81-1.3-1.13-1.91-0.51c-2.27,2.31-3.69,5.27-4,8.51c-0.34,3.56,1.34,6.44,1.94,9.84
			c0.84,4.7-0.7,9.76-3.82,13.37c-0.09,0.06-0.18,0.12-0.26,0.22c-0.16,0.19-0.31,0.38-0.47,0.57c-0.88,0.89-1.86,1.67-2.94,2.31
			c-2.87,1.7-6.29,2.3-8.95,4.38c-2.38,1.86-3.43,4.58-4.07,7.45c-0.65,2.88-1.08,8.96-4.87,9.44c-1.58,0.2-3.23-0.53-4.84-0.46
			c-1.45,0.07-2.85,0.48-4.14,1.12c-1.81,0.91-3.22,2.13-4.32,3.56c0.32-4.24,0.75-8.47,1.26-12.71
			c1.45-12.14,3.05-24.24,4.17-36.42c0.17-0.01,0.35-0.06,0.53-0.18c1.38-0.89,3.08-0.4,4.63-0.59c1.25-0.15,2.3-0.67,3.19-1.56
			c1.1-1.1,1.82-2.54,2.84-3.71c1-1.15,2.15-2.17,3.42-3.01c2.46-1.64,4.98-2.82,6.67-5.36c1.38-2.08,2.07-4.55,2.72-6.93
			c0.68-2.51,1.26-5.16,2.7-7.37c1.73-2.66,4.77-3.46,7.12-5.39c1.07-0.88,1.81-1.98,2.63-3.08c1.08-1.46,2.38-2.74,3.86-3.8
			c2.76-1.98,5.94-3.23,9.17-4.21c0.35-0.11,0.74-0.41,0.8-0.8C484.51,69.3,474.42,71.18,471.24,72.86z"/>
	</g>
	<path class="st8" d="M380.37,176.06c2.06-1.93,2.48-4.91,4.59-6.89c1.98-1.85,4.35-3.19,6.03-5.37c3.32-4.32,4.5-12.26,10.74-13.38
		c-0.11-0.24-0.25-0.47-0.42-0.68c-5.11,1.16-7.04,6.75-9.29,10.97c-1.68,3.16-4.07,4.95-6.74,7.17c-0.89,0.74-1.75,1.54-2.41,2.49
		c-1.04,1.48-1.43,3.37-2.64,4.74c-1.99,2.26-5.47,2.44-7.87,4.17c-2.54,1.84-3.34,4.29-4.69,6.96c-2.26,4.5-8.09,5.85-9.79,10.75
		c-0.16,0.46,0.57,0.66,0.73,0.2c1.67-4.75,7.48-6.15,9.71-10.57c1.48-2.94,2.33-5.57,5.37-7.31
		C375.84,178.1,378.52,177.79,380.37,176.06z"/>
	<path class="st8" d="M355.94,168.52c0.16,0.46,0.9,0.27,0.74-0.2c-0.68-2.01-1.76-3.84-3.28-5.34c-1.71-1.69-3.72-2.43-5.82-3.46
		c-1.51-0.75-2.05-1.91-2.75-3.36c-0.38-0.77-0.9-1.4-1.61-1.91c-1.85-1.33-4.18-1.45-6.33-1.94c-1.63-0.38-3.08-0.99-4.12-2.34
		c-0.8-1.04-1.31-2.26-2.09-3.31c-1.09-1.46-2.64-2.32-4.46-2.47c-5-0.43-8.33,3.85-10.84,7.55c-0.92,1.36-1.83,2.74-2.9,3.99
		c-1,1.17-2.3,2.01-3.32,3.16c-0.71,0.8-1.18,1.76-1.54,2.76c-0.14,0.38-0.25,0.77-0.35,1.16c0.2,0.16,0.42,0.3,0.69,0.42
		c0.42-1.57,0.98-3.04,2.17-4.22c1.03-1.02,2.16-1.85,3.11-2.97c0.83-0.99,1.56-2.06,2.29-3.12c1.97-2.9,4.08-6.3,7.56-7.54
		c1.45-0.52,3.15-0.63,4.61-0.09c1.88,0.7,2.7,2.34,3.66,3.95c1.28,2.15,2.91,3.26,5.33,3.82c1.28,0.3,2.59,0.42,3.84,0.8
		c2.14,0.65,3.12,1.65,4.01,3.65c1.05,2.34,3.12,2.73,5.23,3.81C352.73,162.81,354.88,165.4,355.94,168.52z"/>
	<path class="st8" d="M398.54,108.42c-2.18,1.43-4.2,3.11-6.01,4.99c-1.94,2.02-3.65,4.28-5.05,6.71c-1.55,2.69-2.66,5.46-5.91,6.39
		c-2.13,0.61-4.15,0.76-5.66,2.58c-2.04,2.47-2.67,5.4-5.68,7.12c-2.36,1.35-5.26,1.19-7.34,3.06c-2.23,2-3.68,5.04-5.28,7.53
		c-0.26,0.41,0.39,0.79,0.65,0.38c1.56-2.42,3-5.43,5.16-7.37c2.12-1.9,5.31-1.69,7.68-3.25c1.87-1.23,3.01-2.94,4.07-4.86
		c0.68-1.25,1.36-2.52,2.63-3.27c1.2-0.72,2.64-0.81,3.96-1.18c4.52-1.26,5.8-6.29,8.3-9.73c1.61-2.22,3.5-4.24,5.59-6.01
		c1.03-0.88,2.12-1.69,3.25-2.43c0.05-0.03,0.12-0.08,0.21-0.14c-0.05-0.27-0.13-0.53-0.25-0.76
		C398.76,108.26,398.64,108.35,398.54,108.42z"/>
	<path class="st8" d="M317.6,84.57c-0.28-0.07-0.53-0.1-0.75-0.07c0.16,4.29,0.83,8.49,3.51,12.06c2.85,3.79,6.93,6.38,10.12,9.84
		c1.82,1.97,2.84,4.07,3.94,6.48c0.95,2.09,2.24,3.28,4.38,4.13c1.32,0.52,2.69,0.91,3.89,1.68c1.21,0.78,2.18,1.87,3.2,2.87
		c0.8,0.78,1.62,1.57,2.58,2.15c1.49,0.91,3.5,1.05,3.81,3.18c0.07,0.49,0.81,0.28,0.74-0.2c-0.39-2.63-2.76-2.64-4.61-3.94
		c-1.95-1.37-3.32-3.43-5.33-4.73c-2.34-1.5-5.55-1.61-7.22-4.05c-1.38-2.03-1.92-4.45-3.43-6.44c-2.76-3.63-6.64-6.17-9.77-9.45
		c-1.9-1.99-3.39-4.23-4.17-6.89C317.86,89.05,317.67,86.81,317.6,84.57z"/>
	<path class="st8" d="M359.11,125.62c-0.19,0.45,0.47,0.84,0.66,0.39c2.5-5.79,5.95-12.67,11.31-16.28
		c2.09-1.41,3.96-2.57,5.29-4.78c1.42-2.37,2.12-5.11,3.65-7.42c3.05-4.6,8.72-6.56,12.07-10.94c2.88-3.76,4.36-8.34,5.57-12.89
		c-0.25-0.09-0.52-0.1-0.78-0.03c-1.3,4.87-2.93,9.81-6.34,13.6c-3.47,3.86-8.74,5.79-11.49,10.35c-1.33,2.21-2.03,4.73-3.35,6.94
		c-1.61,2.7-4.31,3.74-6.61,5.68C364.55,114.08,361.43,120.24,359.11,125.62z"/>
	<path class="st8" d="M355.68,116.66c0.1,2.84,0.32,5.62,1.26,8.32c0.16,0.46,0.9,0.26,0.74-0.2c-0.99-2.85-1.15-5.82-1.25-8.81
		c-0.09-2.63-0.17-5.27,0.12-7.89c0.6-5.37,3.97-9.98,4.14-15.4c0.08-2.56-0.36-5.13-0.08-7.68c0.31-2.78,1.95-4.77,3.03-7.24
		c1.62-3.74,1.18-8.34,3.13-11.88c-0.16-0.02-0.32-0.02-0.47,0.02c-0.15,0.04-0.3,0.08-0.44,0.13c-1.48,3.14-1.38,6.94-2.49,10.3
		c-0.84,2.56-2.71,4.63-3.3,7.28c-0.57,2.54-0.2,5.17-0.14,7.73c0.13,5.86-3.39,10.68-4.09,16.39
		C355.46,110.68,355.58,113.68,355.68,116.66z"/>
	<g>
		<path class="st1" d="M402.93,80.33c0.8,3.01,2.42,5.77,2.73,8.91c0.22,2.17,0.05,4.21,2.02,5.62c1.03,0.74,2.27,1.1,3.35,1.75
			c1.38,0.84,2.58,2.05,3.38,3.46c1.59,2.79,1.29,5.95,1.71,9.01c0.3,2.23,1.03,4.49,2.86,5.93c1.83,1.44,4.25,1.75,6.49,2.02
			c0.49,0.06,0.48-0.7,0-0.77c-2.93-0.37-6.07-0.9-7.59-3.79c-1.34-2.56-1.07-5.54-1.41-8.32c-0.56-4.48-3.07-7.26-7-9.19
			c-1.73-0.85-2.74-1.88-2.93-3.87c-0.1-1.07-0.08-2.14-0.29-3.21c-0.49-2.49-1.67-4.76-2.39-7.18c-0.95-3.16-0.43-5.95,0.51-9.03
			c0.35-1.15,0.73-2.3,1.11-3.44c-0.04,0.03-0.08,0.05-0.12,0.08c-0.36,0.3-0.7,0.61-1.03,0.93c-0.31,0.96-0.62,1.92-0.91,2.89
			C402.58,74.93,402.17,77.5,402.93,80.33z"/>
	</g>
	<g>
		<path class="st1" d="M430.46,52.92c-0.68,3.57-0.68,7.23,0.06,10.83c0.53,2.59,1.37,5.11,1.86,7.7c0.51,2.74,0.44,5.43,0.11,8.18
			c-0.3,2.55-0.76,5.08-0.8,7.65c-0.04,2.53,0.49,4.99,0.73,7.5c0.51,5.5-1.46,10.84-1.02,16.34c0.04,0.49,0.81,0.49,0.77,0
			c-0.42-5.27,1.44-10.39,1.08-15.66c-0.17-2.51-0.75-4.97-0.79-7.48c-0.04-2.57,0.39-5.11,0.71-7.65c0.32-2.54,0.53-5.08,0.19-7.63
			c-0.31-2.31-0.98-4.55-1.55-6.81c-1.12-4.41-1.38-8.77-0.53-13.14C431.04,52.75,430.76,52.79,430.46,52.92z"/>
	</g>
	<g>
		<path class="st1" d="M483.11,73.15c-2.73,0.41-5.47,1.02-8.01,2.09c-2.48,1.05-4.42,2.68-6.28,4.6c-2.38,2.45-4.54,4.87-7.74,6.24
			c-2.49,1.07-4.31,2.38-5.86,4.66c-1.63,2.39-2.38,5.03-3.07,7.8c-0.4,1.59-0.82,3.23-1.73,4.63c-1.07,1.64-2.7,2.46-4.34,3.39
			c-2.61,1.48-4.3,3.6-6.13,5.94c-2.22,2.83-5.42,6.03-9.35,4.66c-0.47-0.16-0.67,0.58-0.2,0.74c6.27,2.2,9.63-5.14,13.25-8.63
			c2.13-2.05,5.25-2.79,7.07-5.18c1.66-2.18,2.03-5,2.74-7.57c0.96-3.47,2.9-7.16,6.16-8.95c1.28-0.7,2.68-1.07,3.92-1.84
			c1.13-0.7,2.14-1.58,3.09-2.5c2.28-2.21,4.24-4.8,7.03-6.41c2.9-1.68,6.39-2.45,9.74-2.94C483.33,73.61,483.23,73.37,483.11,73.15
			z"/>
	</g>
	<g>
		<path class="st1" d="M465.42,144.66c3.92-5.05,3.91-11.13,2.98-17.17c-0.59-3.86-1.46-7.75-1.18-11.67
			c0.12-1.72,0.55-3.67,1.37-5.36c-0.05,0.03-0.09,0.07-0.13,0.11c-0.47,0.48-0.91,1-1.31,1.53c-0.44,1.44-0.67,2.95-0.73,4.32
			c-0.27,6.58,2.39,12.98,1.68,19.57c-0.41,3.78-2.13,7.3-4.86,9.93c-2.3,2.22-5.17,3.8-7.33,6.18c-1.85,2.04-2.91,4.59-4.27,6.95
			c-0.7,1.23-1.5,2.44-2.56,3.39c-1.27,1.13-2.92,1.55-4.27,2.54c-2.55,1.87-3.12,5.29-5.44,7.35c-2.88,2.57-7.27,2.9-10.56,0.99
			c-0.43-0.25-0.81,0.41-0.39,0.66c4.18,2.44,9.87,1.44,12.76-2.53c0.81-1.11,1.36-2.36,2.09-3.52c1.11-1.77,2.45-2.62,4.27-3.55
			c2.41-1.23,3.89-3.3,5.16-5.64c1.52-2.8,2.86-5.47,5.31-7.6C460.5,148.98,463.37,147.3,465.42,144.66z"/>
	</g>
	<g>
		<path class="st1" d="M421.74,174.62c-3.22-0.69-6.69-1.82-9.22-4.02c-2.35-2.04-3.99-5.18-5.61-7.8
			c-3.38-5.46-5.49-10.85-5.72-17.31c-0.09-2.46-0.22-4.96-1.37-7.19c-0.62-1.2-1.49-2.23-2.22-3.36c-0.96-1.49-1.42-3.05-1.72-4.77
			c-1.02-5.85-2.69-11.31-5.55-16.5c-0.22,0.17-0.42,0.36-0.61,0.57c0.04,0.1,0.15,0.19,0.42,0.68c1.39,2.63,2.54,5.37,3.41,8.22
			c0.92,3.03,1.14,6.2,2.01,9.22c0.88,3.07,3.51,5.17,4.34,8.26c0.77,2.85,0.4,5.87,0.77,8.77c0.79,6.1,4.03,11.5,7.35,16.55
			c1.46,2.22,2.84,4.51,5.07,6.05c2.49,1.72,5.52,2.75,8.45,3.36C422.02,175.46,422.22,174.73,421.74,174.62z"/>
	</g>
	<g>
		<path class="st6" d="M429.35,120.07c-0.03-2.72-0.15-5.45-0.48-8.15c-0.18-1.45-0.15-3.64-1.56-4.52
			c-3.69-2.28-3.83,5.83-3.86,7.46c-0.08,4.75,1.04,15.85,3.74,15.49c1.37-0.19,1.91-1.79,2.07-3.23
			C429.51,124.81,429.38,122.39,429.35,120.07z"/>
	</g>
	<g>
		<path class="st1" d="M429.27,127.14c0.25-2.31,0.12-4.73,0.09-7.05c-0.02-1.84-0.09-3.67-0.23-5.5c-0.72,2.51-1.27,5.06-1.64,7.64
			c-0.4-1.52-0.91-3.02-1.52-4.48c-0.43-1.06-1.31-2.96-2.48-4.17c-0.03,0.57-0.04,1.04-0.04,1.31c-0.08,4.75,1.04,15.85,3.74,15.49
			C428.58,130.19,429.12,128.58,429.27,127.14z"/>
	</g>
	<g>
		<path class="st6" d="M362.38,189.69c0.51-2.68,0.92-5.37,1.13-8.09c0.11-1.45,0.57-3.6-0.65-4.74c-3.17-2.96-4.9,4.97-5.25,6.56
			c-1.01,4.64-2.09,15.75,0.63,15.92c1.38,0.09,2.23-1.38,2.66-2.77C361.6,194.37,361.95,191.97,362.38,189.69z"/>
	</g>
	<g>
		<path class="st7" d="M360.91,196.57c0.7-2.22,1.04-4.62,1.48-6.9c0.39-2.06,0.73-4.14,0.95-6.23c-1.6,2.15-2.89,4.49-4.02,6.94
			c-0.33-2.14-0.98-4.2-1.86-6.17c-0.95,5-1.78,14.96,0.79,15.12C359.63,199.42,360.48,197.95,360.91,196.57z"/>
	</g>
	<g>
		<path class="st6" d="M355.8,159.25c-0.64-2.65-1.37-5.27-2.3-7.83c-0.5-1.37-0.97-3.52-2.54-4.05c-4.11-1.39-2.42,6.55-2.07,8.14
			c1,4.65,4.59,15.21,7.14,14.24c1.3-0.49,1.46-2.18,1.28-3.62C357.02,163.84,356.34,161.51,355.8,159.25z"/>
	</g>
	<g>
		<path class="st7" d="M357.31,166.16c-0.28-2.31-0.95-4.64-1.5-6.89c-0.43-1.78-0.91-3.56-1.46-5.31c-0.13,2.61-0.1,5.21,0.12,7.81
			c-0.74-1.39-1.57-2.73-2.49-4.03c-0.66-0.93-1.94-2.59-3.35-3.5c0.1,0.56,0.2,1.02,0.26,1.29c1,4.65,4.59,15.21,7.14,14.24
			C357.32,169.29,357.49,167.6,357.31,166.16z"/>
	</g>
	<g>
		<path class="st6" d="M364.42,139.53c1.17-2.46,2.27-4.95,3.16-7.53c0.48-1.38,1.47-3.34,0.59-4.74c-2.31-3.67-6.01,3.55-6.75,5
			c-2.16,4.23-6.05,14.69-3.47,15.55c1.31,0.44,2.51-0.77,3.28-1.99C362.47,143.86,363.42,141.62,364.42,139.53z"/>
	</g>
	<g>
		<path class="st7" d="M361.57,140.09c0.59-2.96,0.8-5.98,0.51-9.03c-0.29,0.53-0.52,0.97-0.65,1.22
			c-2.16,4.23-6.05,14.69-3.47,15.55c1.31,0.44,2.51-0.77,3.28-1.99c1.24-1.96,2.19-4.2,3.19-6.29c0.68-1.42,1.32-2.85,1.92-4.3
			C364.67,136.78,362.96,138.31,361.57,140.09z"/>
	</g>
	<g>
		<rect x="452.44" y="223.69" class="st1" width="32.48" height="17.43"/>
	</g>
	<g>
		<g>
			<path class="st7" d="M493.1,238.42c-2,0.06-3.99,0.11-5.99,0.16c0-1.45,0.01-2.9,0.03-4.35c2.02,0.07,4.03,0.22,6.06,0.41
				c3.45,0.32,3.43-5.07,0-5.39c-1.99-0.18-3.98-0.34-5.96-0.41c0.03-1.16,0.06-2.32,0.09-3.48c1.93-0.07,3.85-0.15,5.77-0.24
				c3.44-0.16,3.47-5.47,0-5.37c-16.18,0.45-32.33,0.7-48.51,0.52c-3.45-0.04-3.45,5.29,0,5.36c1.74,0.04,3.49,0.07,5.23,0.09
				c-0.02,1.18-0.05,2.35-0.07,3.53c-1.68-0.02-3.36-0.04-5.03-0.05c-3.45-0.02-3.44,5.28,0,5.35c1.64,0.03,3.29,0.06,4.93,0.1
				c-0.03,1.45-0.06,2.89-0.08,4.34c-1.66-0.01-3.32-0.02-4.98-0.04c-3.45-0.04-3.45,5.29,0,5.36c16.15,0.34,32.37,0.24,48.51-0.51
				C496.53,243.63,496.57,238.33,493.1,238.42z M454.8,225.78c9.16,0.08,18.34,0.01,27.5-0.26c-0.04,1.12-0.08,2.24-0.1,3.37
				c-0.26,0.02-0.51,0.03-0.77,0.05c-4.08,0.32-8.13,0.55-12.22,0.55c-4.83,0-9.65-0.08-14.48-0.16
				C454.76,228.14,454.78,226.96,454.8,225.78z M454.56,238.99c0.03-1.42,0.05-2.84,0.08-4.27c4.86,0.08,9.72,0.13,14.58,0.14
				c3.96,0,7.89-0.19,11.84-0.51c0.35-0.03,0.7-0.05,1.06-0.07c-0.01,1.47-0.02,2.94-0.01,4.41
				C472.92,238.89,463.74,239,454.56,238.99z"/>
		</g>
	</g>
	<g>
		<path class="st7" d="M529.02,123.9c-3.52,0.44-5.63,0.74-7.84,2.28c-2.4,1.04-4.12,3.22-5.8,5.18c-1.56,1.82-3.05,3.7-4.47,5.63
			c-0.06-0.26-0.11-0.52-0.18-0.77c-0.42-1.75-0.77-3.79-1.56-5.42c-0.64-1.33-1.62-1.31-2.89-0.92c-1.21,0.37-2.71,0.7-3.07,2.09
			c-0.34,1.33,0.33,3.1,0.59,4.4c0.38,1.91,0.81,3.82,1.39,5.68c0.49,1.57,1.29,5.04,3.15,5.48c1.42,0.9,3.3-0.08,4.64-1.18
			c0.37-0.3,0.73-0.62,1.08-0.95c-0.73,5.8-1.46,11.6-2.2,17.4c-0.31,2.45-1.11,5.36-0.07,7.73c0.93,2.1,2.99,3.05,5.09,3.62
			c0.94,0.25,1.82-0.32,2.12-1.2c2.49-7.25,4.01-14.86,5.83-22.3C526.71,143.03,531.21,123.63,529.02,123.9z"/>
	</g>
	<g>
		<path class="st7" d="M558.84,143.97c-2.39-7.01-5.59-10.63-11.1-15.23c-2.63-2.19-7.84-4.11-11.47-4.88
			c-0.6-0.13,0.55,19.75,1.98,27.48c1.39,7.53,2.46,15.22,4.53,22.6c0.25,0.9,1.09,1.52,2.05,1.32c2.13-0.44,4.24-1.27,5.29-3.31
			c1.18-2.31,0.55-5.26,0.38-7.72c0-0.01,0-0.01,0-0.02c0.58,0.25,1.58-0.02,2.1-0.55c2.19-2.24,4.69-5.11,6.11-8.66
			C560.1,151.51,560.05,147.51,558.84,143.97z M550.18,157.51c-0.31-4.57-0.64-7.28-0.95-11.86c-0.08-1.2-0.11-2.46-0.16-3.74
			c1.97,1.86,3.51,4.07,3.75,6.98C553.13,152.6,551.76,154.22,550.18,157.51z"/>
	</g>
	<g>
		<path class="st5" d="M529,120.67c0.39,1.41,0.12,3,0.39,4.44c2.37,2.07,5.79,2.3,7.15-0.77c-0.33-2.21-0.53-4.42-0.58-6.64
			c0.85-1.72,1.31-3.73,1.72-5.51c0.43-1.85,0.73-3.81,0.08-5.64c-1.29-3.63-5.79-5.14-8.97-2.91c-3.35,2.35-4.3,8.44-3.83,12.22
			C525.22,117.96,527.08,120.37,529,120.67z"/>
	</g>
	<g>
		<path class="st7" d="M529.49,123.36c-0.26-0.52-0.88-0.72-1.4-0.49c-0.76,0.34-1.19,1.43-1.51,2.13
			c-0.39,0.88,0.87,1.65,1.31,0.77c0.08-0.17,0.18-0.39,0.29-0.63c-0.04,0.43-0.12,0.87-0.16,1.13c-0.11,0.71-0.3,1.4-0.52,2.08
			c-0.31,0.94,1.15,1.32,1.47,0.41c0.32-0.91,0.53-1.85,0.63-2.81C529.67,125.18,529.84,124.07,529.49,123.36z"/>
	</g>
	<g>
		<path class="st7" d="M540.46,128.48c-0.33-1.24-0.84-2.44-1.53-3.52c-0.59-0.91-1.29-2.08-2.44-2.18
			c-0.42-0.03-0.76,0.38-0.76,0.76c-0.01,1.14,0.18,2.22,0.61,3.27c0.37,0.88,1.82,0.51,1.46-0.4c-0.12-0.29-0.21-0.59-0.29-0.88
			c0.69,1.02,1.17,2.22,1.48,3.35C539.26,129.83,540.72,129.43,540.46,128.48z"/>
	</g>
	<g>
		<path class="st7" d="M525.47,225.05c-0.09-1.5-6.47-1-7.09-0.41c-0.67,0.64-0.57,1.41-0.51,2.28c0.19,2.65,0.54,5.3,0.81,7.95
			c0.04,0.4,0.15,1.62,0.17,2.07c-2.21,1.32-6.64,1.26-6.59,4.27c0.02,1.15,0.91,1.78,1.98,1.83c1.84,0.09,8.95,0.12,9.35,0.06
			c1.63-0.26,2.14-1.55,2.22-3.05c0.14-2.62,0.05-5.28,0.07-7.91C525.89,230.01,525.6,227.24,525.47,225.05z"/>
	</g>
	<g>
		<path class="st7" d="M548.99,241.39c-0.69-1.42-1.9-2.4-3.19-3.24c0.21-2.28,0.31-10.76,0.26-12.4c-0.02-0.83-8.17-1.1-7.93,0.19
			c0.6,3.25,0.96,7.5,1.17,10.81c0.12,1.86-0.33,5.24,1.7,6.3c0.09,0.04,0.17,0.08,0.26,0.12c0.2,0.16,0.43,0.3,0.69,0.42
			c1.63,0.76,3.87,1.62,5.71,1.39C549.6,244.73,549.69,242.84,548.99,241.39z"/>
	</g>
	<g>
		<path class="st7" d="M536.32,107.72c-0.84-0.49-1.98-1.25-2.66-0.14c-0.11,0.18-0.17,0.36-0.2,0.53
			c-0.22-0.17-0.46-0.31-0.71-0.46c-0.33-0.19-0.7-0.33-1-0.55c-0.76-0.56-0.74-0.95-0.72-1.8c0.01-0.73-1.12-0.73-1.14,0
			c-0.02,0.94-0.14,1.6,0.57,2.29c0.58,0.57,1.42,0.77,2.05,1.24c0.89,0.67,0.52,1.66,1.16,2.48c0.7,0.89,2.38,0.53,2.82,1.69
			c0.12,0.31,0.52,0.59,0.85,0.34c0.86-0.64,1.13-1.77,1.23-2.81C538.71,109.05,537.48,108.41,536.32,107.72z"/>
	</g>
	<g>
		<path class="st7" d="M536.11,115.6c-0.41-0.17-1.16,0.19-1.55,0.29c-1.06,0.27-2.1,0.54-3.2,0.51c-2.35-0.06-4.46-0.91-5.97-2.73
			c-0.21-0.25-0.43-0.09-0.61,0.09c-0.1,0.1-0.22,0.21-0.23,0.38c-0.11,2.9-0.55,5.87,2.5,7.39c2.45,1.22,5.53,0.66,7.51-1.13
			C535.32,119.7,537.91,116.36,536.11,115.6z"/>
	</g>
	<g>
		<path class="st1" d="M542.89,111.1c-0.5-0.54-1.03-1.04-1.58-1.5c0.04-0.18,0.05-0.36,0.02-0.53c-0.51-2.88-2.21-4.74-5.07-5.7
			c-0.08-0.28-1.57-0.43-1.91-0.61c-1.29-0.68-2.68-1.04-4.15-1.03c-0.54,0-0.91,0.27-1.11,0.64c-0.21-0.06-0.42-0.13-0.64-0.19
			c-1.17-0.32-1.86,0.85-1.58,1.74c-0.55-0.09-1.09-0.17-1.64-0.24c-1.67-0.23-2.42,2.32-0.71,2.58c6.01,0.9,12.1,2.19,16.46,6.75
			C542.19,114.25,544.07,112.36,542.89,111.1z"/>
	</g>
</g>
<g>
	<g>
		<path class="st7" d="M76.79,76.82c-1.42-1.54-2.04-3.69-4.43-3.99c-0.84-0.11-1.52,0.18-2.31,0.25c-0.92,0.08-1.29-0.19-2.1-0.45
			c-1.03-0.33-1.89-0.5-2.97-0.22c-1.17,0.3-2,1.09-2.93,1.8c-1.07,0.81-2.23,0.49-3.39,1.17c-1.06,0.62-1.73,1.6-2.16,2.73
			c-0.46,1.21-0.27,2.85-1.11,3.87c-0.62,0.75-1.29,0.98-1.65,2.02c-0.31,0.9-0.29,1.88,0.09,2.75c0.46,1.06,1.3,1.49,2.21,2.11
			c1.72,1.18,3.53,4.42,4.5,6.2c0.71,1.31,1.72-0.94,1.03-2.25c-0.48-0.91-0.95-1.91-1.5-2.85c0.48,0.07,1-0.12,1.21-0.58
			c0.18-0.41,0.36-0.81,0.54-1.22c0.53,0.2,1.19,0.04,1.45-0.51c0.74-1.57,1.07-3.23,1.31-4.93c0.15-0.21,0.3-0.42,0.45-0.63
			c-0.02,0.17-0.04,0.34-0.04,0.52c-0.01,0.82,0.8,1.24,1.51,1.09c0.94-0.19,1.73-0.93,2.42-1.82c0.23,0.42,0.56,0.61,1.07,0.66
			c0.62,0.06,1.18-0.22,1.68-0.66c0.22,0.09,0.44,0.18,0.66,0.26c-0.39,0.79-0.8,1.57-1.02,2.43c-0.25,1.01,0.83,1.71,1.65,1.32
			c0.19,0.08,0.4,0.12,0.6,0.1c-0.38,0.55-0.8,1.08-1.22,1.42c-0.51,0.09-0.94,0.47-0.89,1.13c0,0.04,0.01,0.07,0.01,0.11
			c0.07,0.93,0.98,1.37,1.78,0.96c1.8-0.91,4.23-4.61,4.4-6.61c0.04-0.49-0.09-0.93-0.13-1.41c-0.1-1.14,0.21-1.6,0.26-2.57
			C77.82,78.02,77.41,77.5,76.79,76.82z"/>
	</g>
	<g>
		<path class="st5" d="M58.46,162c0-0.14,0.01-0.27,0.01-0.41c0-0.97-1.47-1.5-2.05-0.68c-0.56,0.8-0.95,1.7-1.23,2.65
			c-0.37-0.07-0.78,0.02-1.1,0.35c-0.04,0.04-0.07,0.09-0.11,0.13c0-0.15,0-0.31-0.01-0.46c-0.03-0.98-1.11-1.28-1.79-0.87
			c-0.43-0.73-1.72-0.85-2.06,0.05c-0.64,1.69-0.84,3.53-0.88,5.37c-0.13-1.64-0.27-3.27-0.43-4.9c-0.15-1.47-2.44-1.31-2.3,0.17
			c2.17,22.99,0.99,46.22,4.33,69.11c0.07,0.49,0.38,0.8,0.75,0.94c0,0.12,0,0.25,0,0.37c0.03,1.5,2.34,1.32,2.33-0.17
			c-0.14-10.73,1.81-21.38,3.08-32.03c0.06-0.15,0.09-0.31,0.08-0.5c0-0.05,0-0.1,0-0.15c0.11-0.99,0.23-1.97,0.33-2.96
			c1.18-11.65,1.93-23.33,2.6-35.02C60.02,162.2,59.14,161.84,58.46,162z"/>
	</g>
	<g>
		<path class="st5" d="M73.85,161.04c0.01-0.14,0.02-0.27,0.02-0.41c0.04-0.97-1.4-1.56-2.01-0.77c-0.6,0.78-1.02,1.66-1.35,2.59
			c-0.36-0.09-0.78-0.01-1.12,0.3c-0.04,0.04-0.08,0.08-0.12,0.12c0-0.15,0.01-0.31,0.01-0.46c0.02-0.98-1.05-1.33-1.75-0.95
			c-0.4-0.75-1.68-0.92-2.06-0.04c-0.72,1.66-1,3.48-1.13,5.33c-0.06-1.64-0.12-3.28-0.21-4.92c-0.08-1.48-2.38-1.42-2.3,0.06
			c1.11,23.07-1.13,46.22,1.16,69.24c0.05,0.49,0.34,0.81,0.7,0.97c0,0.12-0.01,0.25-0.01,0.37c-0.04,1.5,2.28,1.43,2.33-0.06
			c0.35-10.73,2.79-21.28,4.54-31.85c0.06-0.14,0.1-0.31,0.1-0.5c0-0.05,0-0.1,0-0.15c0.16-0.98,0.32-1.96,0.46-2.94
			c1.71-11.58,3-23.22,4.2-34.86C75.4,161.3,74.53,160.9,73.85,161.04z"/>
	</g>
	<g>
		<path class="st7" d="M62.23,231.05c0.11-0.51,0.52-0.92,1.19-0.81c1.95,0.33,2.81,0.14,3.51,0.52c1.76,0.95,5.05,3.03,6.92,4.24
			c0.43,0.28,0.34,1.02,0.03,1.42c-0.77,1.02-1.88,0.63-2.99,0.45c-1.72-0.27-3.4-0.29-5.12-0.56c-1.04-0.17-2.27-0.17-3.09-0.92
			C61.55,234.37,62.13,231.19,62.23,231.05z"/>
	</g>
	<g>
		<path class="st5" d="M72.26,78.74c-3.25-3.43-8.98-2.72-11.4,1.29c-1.22,2.03-1.33,4.44-1.28,6.75c0.06,2.22,0.11,4.73,0.71,6.99
			c-0.7,3.07-0.8,5.14-0.94,8.69c-0.03,0.77,7.49,3.04,7.61,2.08c0.37-2.93,0.61-3.7,0.92-5.54c2.36,0.11,5.17-2.32,5.98-4.76
			C75.34,89.85,75.68,82.36,72.26,78.74z"/>
	</g>
	<g>
		<path class="st7" d="M78.08,185.18c0.93-4.02,0.79-12.39,1.47-20.83c0.59-7.32,0.58-11.36,0.7-17.85c0.03-1.94-8.26-6.6-9.12-5.42
			c-1.18-1.33-3.55-0.78-3.63,1.73l0,0.1c-0.81,0.05-1.6,0.64-1.89,1.78c-0.65-2.39-4.3-1.7-4.13,1c0.05,0.72,0.1,1.44,0.15,2.17
			c-0.06,0.09-0.12,0.18-0.17,0.28c-0.05-0.23-0.1-0.47-0.15-0.7c-0.05-0.23-0.13-0.44-0.22-0.63c0-0.79-0.01-1.59-0.05-2.38
			c-0.15-2.62-2.97-3.14-3.95-1.46c-0.51-0.12-1.04-0.07-1.47,0.19c-0.51-0.55-1.26-0.8-1.95-0.68c-0.99-0.82-2.63-0.76-3.2,0.68
			c-0.06,0.15-0.11,0.29-0.17,0.44c-0.3-2.12-2.93-3.39-3.85-1c-6.53,16.88-5.26,28.71-5.72,43.2c-0.05,1.43,2.52,2.37,3.58,2.47
			c5.76,0.55,8.22,0.4,14,0.54c1.22,0.03,2.66-4.37,2.71-5.27c0.54,2.24,0.24,5.57,1.71,5.7c2.53,0.23,9-0.6,10.73-0.86
			C75.76,188.02,77.4,188.16,78.08,185.18z"/>
	</g>
	<g>
		<path class="st1" d="M82.35,108.19c-3.52-3.87-8.04-6.5-13.01-7.65c-0.99-0.43-2.04-0.71-3.18-0.8
			c-6.02-0.47-10.27,0.41-13.31,1.99c-4.22,1.52-7.98,5.46-10.7,8.53c-3.87,4.37-6.83,9.56-7.68,15.39c-0.23,1.6,0.61,2.8,2.25,2.96
			c1.74,0.16,3.9,0.13,5.96-0.3c-0.63,6.28-1.14,12.93-1.58,16.46c-0.34,2.74,0.33,5.41,2.78,6.88c2.26,1.36,5.17,1.27,7.71,1.34
			c6.12,0.17,19.97-0.76,20.92-0.98c2.38-0.54,6.44-1.34,7.75-3.66c0.68-1.2,0.76-2.72,0.97-4.05c0.26-1.65,0.49-3.31,0.69-4.97
			c0.37-3.13,0.6-6.28,0.57-9.44c2.21-0.05,4.41-0.13,6.62-0.25c1.29-0.07,2.31-1.02,2.34-2.34
			C91.63,119.99,87.08,113.41,82.35,108.19z"/>
	</g>
	<g>
		<path class="st7" d="M54.8,231.42c0.01-0.56-0.36-0.6-0.37-0.6c-0.58-0.05-3.25-0.09-4.08-0.06c-0.13,0.01-0.44,0.06-0.45,0.76
			c-0.05,2.54-0.15,7.45,1.43,9.64c0.94,1.3,2.6,0.85,3.14-0.6c0.44-1.16,0.23-2.62,0.25-3.82C54.74,234.97,54.77,233.2,54.8,231.42
			z"/>
	</g>
	<g>
		<path class="st5" d="M69.34,100.49c-0.99-0.43-2.04-0.71-3.18-0.8c-4.59-0.36-8.14,0.07-10.92,0.99c0.94,2.8,2.18,5.55,4.9,6.8
			c3.24,1.49,8.17,1.46,10.8-1.17c1.13-1.13,2.16-2.96,2.28-4.59C71.96,101.21,70.67,100.8,69.34,100.49z"/>
	</g>
	<g>
		<path class="st5" d="M89.19,128.37c-0.51-0.02-6.78-0.54-7.24,0.21c-2.99,4.87-8.91,8.08-14.18,9.84
			c-0.69,0.23-0.9,0.89-0.76,1.45c-0.63,0.55-0.65,1.76,0.39,2c5.05,1.15,10.28-0.26,14.89-2.41c4.17-1.94,7.51-5.21,8.07-9.93
			C90.43,128.89,89.76,128.39,89.19,128.37z"/>
	</g>
	<g>
		<path class="st7" d="M98.47,96.3c-2.19-0.32-4.54,1.26-6.26,2.41c-1.05,0.7-2.06,1.46-3.04,2.25c-0.25-0.86-1.25-1.33-2.17-0.71
			c-3.78,2.54-7.55,5.2-9.93,9.18c-1.24,2.09-2.16,4.35-3.25,6.51c-0.58-0.45-1.58-0.46-2.08,0.19c-2.94,3.76-4.18,8.31-5.12,12.9
			c-0.32,0.45-0.65,0.9-1,1.34c-0.44,0.56-0.34,1.56,0.28,1.95c0.53,0.33,0.9,0.44,1.53,0.38c0.7-0.08,1.06-0.54,1.13-1.07
			c0.01-0.01,0.01-0.01,0.02-0.02c0.09,0.06,0.18,0.1,0.27,0.14c-0.18,0.26-0.35,0.51-0.53,0.77c-0.85,1.3,0.7,2.94,1.99,1.93
			c0.71-0.56,1.42-1.13,2.12-1.7c0.69-0.14,1.39-0.4,2.03-0.59c1.78-0.51,3.53-1.08,5.27-1.73c1.62-0.6,3.21-1.26,4.78-1.97
			c1.16-0.53,2.83-1,3.53-2.17c0.31-0.51,0.38-0.96,0.31-1.35c1.51-0.76,3.01-1.52,4.52-2.28c1.27-0.64,3.66-1.3,3.93-2.98
			c0.63-3.95-5.84-1.3-7.26-0.8c-1.12,0.4-2.23,0.83-3.32,1.3c0.16-0.16,0.32-0.32,0.47-0.48c1.31-1.36,2.61-2.47,2.66-4.37
			c3.36-2,6.89-4.4,9.18-7.33c0.73-0.93,1.18-2.37,0.04-3.24c-0.58-0.44-1.35-0.56-2.16-0.51c0.11-0.23,0.22-0.46,0.32-0.7
			c0.13-0.3,0.14-0.59,0.08-0.84c1.39-1.01,2.87-2.22,3.29-3.75C100.49,97.63,99.84,96.49,98.47,96.3z"/>
	</g>
	<g>
		<path class="st6" d="M70.1,129.78c-3.85-2.05-4.28,0.7-5.38,2.42c-2.54,3.95-6.14,10.41-7.69,14.85
			c-0.14,0.39,0.02,0.88,0.44,1.03c1.08,0.38,0.86,0.05,1.63-0.78c1.5-1.63,7.15-9.13,8.42-10.95c1.18-1.69,1.88-2.51,2.91-4.32
			C71.27,130.54,70.28,129.87,70.1,129.78z"/>
	</g>
	<g>
		<path class="st6" d="M68.31,135.64c-4.21-1.14-4.02,1.63-4.71,3.55c-1.6,4.41-3.68,11.51-4.21,16.19
			c-0.05,0.41,0.21,0.86,0.65,0.9c1.14,0.13,0.85-0.14,1.41-1.12c1.1-1.92,4.95-10.49,5.78-12.54c0.78-1.91,1.28-2.86,1.89-4.86
			C69.62,136.13,68.49,135.69,68.31,135.64z"/>
	</g>
	<g>
		<path class="st6" d="M71.4,132.29c-4.34-0.45-3.7,2.25-4.08,4.26c-0.87,4.61-1.78,11.95-1.56,16.65c0.02,0.41,0.35,0.81,0.79,0.79
			c1.15-0.06,0.82-0.27,1.22-1.33c0.78-2.07,3.2-11.14,3.7-13.3c0.46-2.01,0.8-3.03,1.08-5.1C72.78,132.56,71.6,132.31,71.4,132.29z
			"/>
	</g>
	<g>
		<path class="st5" d="M74.54,129.22c-0.84-3.57-7.42-1.5-10.89-0.34c-3.75-0.51-7.78-0.27-11.48-0.36
			c-4.61-0.11-15.63-0.6-15.68,0.4c-0.11,2.37-0.07,5.07,1.97,6.68c2.03,1.61,5.03,1.5,7.47,1.41c6.65-0.26,19.91-4.84,20.01-5
			C69.56,132.55,75.46,133.1,74.54,129.22z"/>
	</g>
	<g>
		<path class="st7" d="M76.17,84.21c-0.13-0.02-1.06-1.93-1.33-2.18c-0.24-0.23-0.52-0.41-0.8-0.57c0.22,0,0.44,0.01,0.66,0.03
			c0.68,0.06,0.82-0.78,0.5-1.2c-0.51-0.66-1.36-1.11-2.09-1.61c-0.04-0.18-0.14-0.35-0.32-0.45c0.03-0.02,0.05-0.03,0.08-0.05
			c0.68-0.4,0.23-1.5-0.54-1.28c-0.32,0.09-0.63,0.2-0.94,0.3c-0.02-0.33-0.24-0.63-0.67-0.61l-0.55,0.03
			c-0.07-0.09-0.16-0.18-0.28-0.26c-0.28-0.17-0.64-0.21-1.05-0.16c-0.11-0.31-0.4-0.53-0.79-0.38c-0.04,0.02-0.08,0.04-0.12,0.05
			c0-0.02-0.01-0.04-0.01-0.06c-0.09-0.31-0.36-0.5-0.68-0.51c-0.46-0.03-0.92,0.05-1.38,0.18c-1.54-0.26-3.18,1.49-4.51,3.34
			c-0.86,0.93-1.63,1.86-2.28,2.53c-0.26,0.27-0.21,0.67-0.02,0.94c-0.01,0.01-0.02,0.03-0.03,0.05c-0.17,0.23-0.15,0.47-0.03,0.66
			c-0.11,0.09-0.22,0.18-0.33,0.27c-0.35,0.29-0.27,0.69-0.01,0.94c-0.1,0.17-0.21,0.33-0.3,0.51c-0.21,0.37-0.07,0.71,0.2,0.9
			c-0.15,0.48-0.27,0.96-0.38,1.46c-0.06,0.3,0.07,0.64,0.32,0.79c-0.06,0.28-0.05,0.49,0.18,0.82c0.02,0.03,0.04,0.05,0.06,0.07
			c-0.25,0.68-0.23,1.45-0.19,2.17c0.05,0.89,1.88,3.64,1.73,2.75c-1.01-5.95,1.22-4.94,1.74-6.35c0.64-1.75,0.07-3.28,2.73-3.9
			c0.84-0.2,1.84,0.01,2.71-0.09c2.64-0.3,5.45-2.46,7.16,0.89c0.41,0.8,0.41,1.23,1.39,1.36C76.76,85.68,76.95,84.32,76.17,84.21z"
			/>
	</g>
	<g>
		<path class="st7" d="M121.42,177.1c-0.12-0.74-1.08-0.83-1.55-0.41c-3.31,2.97-5.56,6.78-6.58,11c-0.2,0.06-0.38,0.19-0.47,0.39
			c-2.78,6.07-4.43,12.49-4.88,19.09c-0.12-0.06-0.25-0.1-0.4-0.13c-1.41-0.24-2.47,1.22-2.95,2.34c-0.84,2.01-0.59,4.4-0.52,6.52
			c0.11,3.06,0.63,8.54,0.94,11.59c0.04,0.4,1.35,1.01,1.81-0.02c3.66-8.26,6.34-16.87,7.95-25.76c0.09-0.5-0.15-0.89-0.5-1.06
			c1.03-3.18,1.81-6.5,3.13-9.52C119.41,186.6,122.27,182.26,121.42,177.1z"/>
	</g>
	<g>
		<path class="st7" d="M134.26,205.88c0.08-1.83,0.14-3.65,0.17-5.48c1.03-8.31,0.81-16.71-0.67-25.01
			c-0.12-0.65-1.13-0.94-1.55-0.41c-1.71,2.17-2.28,4.66-2.5,7.37c-0.31,3.84-0.31,7.74-0.31,11.59c0.01,6.9,0.13,13.81,0.21,20.71
			c-0.43-0.05-0.92,0.22-1.01,0.67c-0.84,4.23-0.74,8.44,0.33,12.62c0.06,0.25,2.26,0.5,2.19-0.18
			C133.67,220.97,135.14,213.11,134.26,205.88z"/>
	</g>
	<g>
		<path class="st7" d="M167.9,184.31c1.08-2.03,1.79-4.11,1.32-6.5c-0.15-0.75-1.06-0.81-1.55-0.41c-3.06,2.49-5.35,5.64-6.8,9.27
			c-0.16,0.07-0.31,0.19-0.42,0.36c-3.13,4.96-5.06,10.48-5.7,16.24c-0.13,0.04-0.25,0.11-0.34,0.21c-2.55,2.55-3.16,6.4-3.54,9.86
			c-0.49,4.37-0.1,8.75,1,13c0.11,0.43,1.62,2.49,3.97-1.84c0.78-1.44,3.91-9.55,4.11-10.73c0.42-2.42,0.3-4.91,0.9-7.3
			c0.54-2.17,1.25-4.04,0.73-6.28c-0.01-0.04-0.03-0.07-0.04-0.1c1.63-2.7,3.16-5.46,4.55-8.3c0.93-1.9,3.26-5.1,1.99-7.25
			C168.04,184.44,167.97,184.37,167.9,184.31z"/>
	</g>
	<g>
		<path class="st7" d="M189.38,193.81c2.7-4.67,6.77-8.85,6.21-14.62c-0.07-0.7-0.74-1.16-1.4-0.8c-2.72,1.46-4.84,3.64-6.18,6.3
			c-0.2,0.02-0.4,0.11-0.54,0.26c-4.14,4.46-6.97,9.86-8.3,15.68c-0.41,1.01-0.73,2.05-0.89,3.12c-3.16,0.78-4.29,5.84-4.85,8.55
			c-0.89,4.28-0.8,8.69-0.54,13.03c0.06,1.08,3.07,0.46,3.44-0.08c3.13-4.57,6.55-10,7.87-15.45c0.3-1.25,0.1-2.51,0.42-3.71
			c0.42-1.55,1.58-3.02,2.32-4.45c1.23-2.37,2.69-4.91,2.48-7.66C189.41,193.9,189.39,193.86,189.38,193.81z"/>
	</g>
	<g>
		<path class="st6" d="M103.53,243.95c0.55,0.22,1.11,0.42,1.68,0.6c0.18-0.01,0.36-0.01,0.54-0.02c0.67-3.58,1.61-9.65,1.82-11.38
			c0.25-2.05,0.48-3.1,0.54-5.18c0.05-1.71-1.15-1.84-1.34-1.84c-4.36,0.01-3.45,2.63-3.61,4.66c-0.29,3.56-0.44,8.7-0.18,13.01
			C103.16,243.82,103.34,243.87,103.53,243.95z"/>
	</g>
	<g>
		<path class="st6" d="M130.35,242.09c0.59-3.46,1.24-7.7,1.41-9.09c0.25-2.05,0.48-3.1,0.54-5.18c0.05-1.71-1.15-1.84-1.34-1.84
			c-4.36,0.01-3.45,2.63-3.61,4.66c-0.25,3.08-0.4,7.33-0.26,11.21C128.18,241.91,129.27,242.01,130.35,242.09z"/>
	</g>
	<g>
		<path class="st6" d="M153.28,243.45c0.66-3.61,1.54-9.32,1.75-10.99c0.25-2.05,0.48-3.1,0.54-5.18c0.05-1.71-1.15-1.84-1.34-1.84
			c-4.36,0.01-3.45,2.63-3.61,4.66c-0.3,3.67-0.45,9-0.15,13.38C151.4,243.47,152.34,243.46,153.28,243.45z"/>
	</g>
	<g>
		<path class="st6" d="M172.62,243.45c0.25,0,0.55,0.01,0.87,0.03c0.28-0.06,0.56-0.11,0.84-0.16c0.67-3.41,1.73-10.25,1.95-12.1
			c0.25-2.05,0.48-3.1,0.54-5.18c0.05-1.71-1.15-1.84-1.34-1.84c-4.36,0.01-3.45,2.63-3.61,4.66c-0.33,4.01-0.48,10.02-0.06,14.59
			C172.08,243.45,172.35,243.45,172.62,243.45z"/>
	</g>
	<g>
		<path class="st1" d="M186.5,235.58c-4.25-4.29-10.48-7.27-16.53-5.26c-2.34,0.78-4.52,2.18-6.03,4.15
			c-3.83-2.89-9.65-2.98-14.11-2.06c-2.76,0.57-5.41,1.59-7.91,2.91c-1.17-1.58-2.92-2.77-4.89-3.33
			c-4.68-1.33-10.13,0.52-14.54,2.07c-1.97,0.69-3.9,1.48-5.79,2.35c-0.3-0.93-0.74-1.82-1.34-2.65c-4.92-6.78-17.1-3.51-21.54,3.23
			c-1.27,0.75-2.54,1.51-3.8,2.26c-1.56,0.93-3.58,1.77-4.42,3.49c-0.84,1.72-0.37,3.65,1.07,4.87c1.54,1.32,19.89,1.56,33.74,1.37
			c15.05-0.21,56.4-0.21,61.85-0.92c2.98-0.39,6.75-1.04,7.71-4.4C190.88,240.53,188.55,237.65,186.5,235.58z"/>
	</g>
</g>
<g>
	<g>
		<path class="st6" d="M228.99,200.11c0.07-0.12,0.13-0.24,0.18-0.36c0.09-0.22-0.02-0.52-0.18-0.68c-0.66-0.63-1.72-0.33-2.69,0.15
			c0.24-0.91,0.07-1.67-1.39-1.49c-2.29,0.29-3.89,2.8-5.12,4.5c-0.52,0.72,0.68,1.41,1.2,0.7c0.32-0.43,0.65-0.88,0.99-1.31
			c0.18,0.14,0.42,0.18,0.66,0.05c-0.01,0.19,0.02,0.39,0.1,0.58c0.09,0.21,0.38,0.36,0.6,0.35c0.77-0.05,1.25-0.7,2-0.86
			c0.04-0.01,0.08-0.02,0.12-0.04c-0.01,0.09,0,0.19,0.02,0.29c0.01,0.05,0.03,0.09,0.05,0.13c-0.07,0.07-0.13,0.15-0.19,0.23
			c-0.14,0.19-0.12,0.51,0,0.7c1,1.62,4.27,0.09,4.93-1.27C230.88,200.52,230.04,200.11,228.99,200.11z"/>
	</g>
	<g>
		<path class="st6" d="M223.71,206.8c-0.37-0.79-1.26-1.66-2.21-1.49c-0.09,0.02-0.16,0.04-0.24,0.07c0.2-0.7-0.85-1.25-1.26-0.53
			c-1.03,1.79-1.11,5.17,1.19,6.05C223.82,211.9,224.57,208.62,223.71,206.8z"/>
	</g>
	<g>
		<path class="st6" d="M276.91,201.26c-1.56-1.84-5.34,0.23-7.02,1.01c-2.51,1.18-4.87,2.67-7.07,4.36
			c-4.47,3.43-8.21,7.74-10.95,12.66c-0.49,0.87-0.15,1.7,0.46,2.18c-0.11,0.37-0.17,0.74-0.14,1.12c0.1,1.37,1.32,1.96,2.35,1.57
			c-0.13,0.26-0.26,0.51-0.39,0.78c-0.55,1.18,0.32,2.51,1.37,2.66c-0.21,1.33,1.35,2.68,2.59,1.81c4.88-3.42,8.86-7.81,12.15-12.76
			c1.73-2.6,3.26-5.32,4.66-8.1c0.66-1.3,1.29-2.61,1.89-3.94C277.33,203.5,277.81,202.33,276.91,201.26z"/>
	</g>
	<g>
		<path class="st6" d="M249.34,246.37c0.73-0.23,1.38-0.62,1.92-1.17c0.47-0.47-0.26-1.2-0.73-0.73c-0.35,0.35-0.75,0.62-1.19,0.81
			c-0.02-1.2-0.1-2.41-0.13-3.6c-0.02-0.65-1-0.52-1,0.12c0.02,1.41,0.05,2.82,0.07,4.23c0.01,0.77,0.1,1.49-0.32,2.18
			c-0.36,0.58-0.91,1.11-1.34,1.65c-0.41,0.51,0.39,1.12,0.8,0.62c0.37-0.44,0.76-0.86,1.09-1.31c0.09,0.34,0.18,0.68,0.28,1.02
			c0.18,0.63,1.1,0.24,0.94-0.38c-0.17-0.65-0.35-1.29-0.54-1.94c0.06-0.22,0.11-0.44,0.12-0.69
			C249.33,246.91,249.33,246.64,249.34,246.37z"/>
	</g>
	<g>
		<path class="st6" d="M241.8,246.28c0.78-0.13,1.51-0.52,2.05-1.1c0.45-0.49-0.27-1.22-0.73-0.73c-0.37,0.39-0.8,0.65-1.3,0.78
			c-0.01-1.3-0.1-2.6-0.13-3.88c-0.02-0.65-1-0.52-1,0.12c0.02,1.41,0.05,2.82,0.07,4.23c0.01,0.77,0.1,1.49-0.32,2.18
			c-0.36,0.58-0.91,1.11-1.34,1.65c-0.41,0.51,0.39,1.12,0.8,0.62c0.37-0.44,0.76-0.86,1.09-1.31c0.09,0.34,0.18,0.68,0.28,1.02
			c0.18,0.63,1.1,0.24,0.94-0.38c-0.17-0.65-0.35-1.29-0.54-1.94c0.06-0.22,0.11-0.44,0.12-0.69
			C241.79,246.65,241.8,246.47,241.8,246.28z"/>
	</g>
	<g>
		<path class="st6" d="M220.19,204.84c0.05-0.22-0.03-0.46-0.26-0.55c0.07,0,0.15,0,0.22,0c0.64,0.01,0.77-0.98,0.11-1
			c-1.46-0.05-3.38,0.15-4.6,1.04c-0.2,0.14-0.21,0.39-0.15,0.6c0.19,0.62,1.23,0.46,1.72,0.54c0.93,0.15,1.81,0.33,2.75,0.3
			C220.47,205.75,220.53,205.08,220.19,204.84z"/>
	</g>
	<g>
		<path class="st7" d="M267.48,219.62c-0.63-1.35-9.78-3.48-11.25-3.72c-5.19-0.87-10.69-1.57-15.73-1.72
			c-1.19-1.92-2.68-3.69-4.1-5.16c-1.71-1.77-3.66-3.33-5.75-4.63c-0.98-0.61-2.32-1.54-3.68-2.01c-0.6-0.61-1.46-1.04-2.39-1.23
			c-1.78-0.38-4.07-0.47-5.1,1.34c-0.84,1.47-0.38,3.38,0.86,4.46c0.68,0.59,1.42,0.87,2.19,1.02c0.34,3.8,1.43,7.48,2.89,11.08
			c0.92,2.26,2.14,4.62,3.85,6.4c2.03,3.41,4.89,6.08,8.22,8.27c-0.12,3.26-0.05,8.39,3.75,8.3c2.47-0.05,3.19-2.48,3.19-4.99
			c0.09,0.02,0.17,0.05,0.26,0.08c0.26,2.75,1.03,5.95,4.05,5.3c2.32-0.5,2.92-2.77,2.87-5.07c0.42-0.1,0.84-0.22,1.26-0.37
			c2.43-0.86,4.31-2.57,6.09-4.38C260.67,230.84,268.78,222.39,267.48,219.62z"/>
	</g>
</g>
</svg>
