<?xml version="1.0" encoding="utf-8"?>
<!-- Generator: Adobe Illustrator 23.0.1, SVG Export Plug-In . SVG Version: 6.00 Build 0)  -->
<svg version="1.1" id="Layer_1" xmlns="http://www.w3.org/2000/svg" xmlns:xlink="http://www.w3.org/1999/xlink" x="0px" y="0px"
	 viewBox="0 0 525 322" style="enable-background:new 0 0 525 322;" xml:space="preserve">
<style type="text/css">
	.st0{opacity:0.1;}
	.st1{fill:#0093FD;}
	.st2{opacity:0.08;}
	.st3{fill:#F5F5F5;}
	.st4{fill:#F4F3EE;}
	.st5{fill:#E6E6E6;}
	.st6{fill:#FFD931;}
	.st7{fill:#1F263A;}
	.st8{fill:#284F4C;}
	.st9{fill:#FFFFFF;}
	.st10{fill:#B3B3B3;}
	.st11{fill:#2992FA;}
	.st12{fill:#27374D;}
	.st13{fill:#DE614B;}
	.st14{fill:#2C294C;}
	.st15{fill:#EAEAEA;}
	.st16{fill:#D6D6D6;}
	.st17{fill:#223359;}
	.st18{fill:#FCD846;}
	.st19{fill:#DADAEA;}
	.st20{fill:#E8BC05;}
	.st21{fill:#CECECE;}
	.st22{opacity:0.4;fill:#E6E6E6;}
	.st23{opacity:0.4;}
	.st24{fill:#2A2BEE;}
	.st25{fill:url(#SVGID_1_);}
	.st26{fill:url(#SVGID_2_);}
	.st27{fill:none;stroke:#2A2BEE;stroke-width:8;stroke-miterlimit:10;}
	.st28{fill:none;stroke:url(#SVGID_3_);stroke-width:8;stroke-miterlimit:10;}
	.st29{fill:none;stroke:url(#SVGID_4_);stroke-width:7;stroke-miterlimit:10;}
	.st30{fill:url(#SVGID_5_);}
	.st31{fill:url(#SVGID_6_);}
	.st32{fill:url(#SVGID_7_);}
	.st33{fill:url(#SVGID_8_);}
	.st34{fill:url(#SVGID_9_);}
	.st35{fill:url(#SVGID_10_);}
	.st36{fill:url(#SVGID_11_);}
	.st37{fill:url(#SVGID_12_);}
	.st38{fill:url(#SVGID_13_);}
	.st39{fill:url(#SVGID_14_);}
	.st40{fill:url(#SVGID_15_);}
	.st41{fill:url(#SVGID_16_);}
	.st42{fill:url(#SVGID_17_);}
	.st43{fill:url(#SVGID_18_);}
	.st44{fill:url(#SVGID_19_);}
	.st45{fill:url(#SVGID_20_);}
	.st46{fill:#F9FBFF;}
	.st47{fill:#EDF5FC;}
	.st48{fill:none;stroke:#2A2BEE;stroke-width:3;stroke-miterlimit:10;}
	.st49{fill:url(#SVGID_21_);}
	.st50{fill:url(#SVGID_22_);}
	.st51{fill:url(#SVGID_23_);}
	.st52{fill:url(#SVGID_24_);}
	.st53{fill:url(#SVGID_25_);}
	.st54{fill:#DBDBDB;}
	.st55{fill:#AF9279;}
	.st56{fill:#F7DABC;}
	.st57{fill:#027FCC;}
	.st58{fill:#747489;}
	.st59{fill:#E2B705;}
	.st60{fill:#263556;}
	.st61{fill:#E0E0E0;}
	.st62{fill:#C4C4C4;}
	.st63{fill:#006EB2;}
	.st64{fill:#B8B8C9;}
	.st65{fill:#9393AB;}
	.st66{fill:#E5B900;}
	.st67{fill:#5578A3;}
	.st68{opacity:0.3;fill:#DADAEA;}
	.st69{fill:#C6C6C6;}
	.st70{fill:#0469BC;}
	.st71{opacity:0.2;}
	.st72{fill:#C1C1C1;}
	.st73{fill:#F2F2F2;}
	.st74{opacity:0.51;fill:#E6E1FF;}
	.st75{fill:#709FE0;}
	.st76{fill:#5183BF;}
	.st77{fill:#D1D1D1;}
	.st78{fill:#D6AE05;}
	.st79{fill:#DCDAE0;}
	.st80{fill:#F3F3F5;}
	.st81{fill:#D9924E;}
	.st82{fill:#C2C2ED;}
	.st83{fill:#636375;}
	.st84{fill:#543237;}
	.st85{fill:#3F3E66;}
	.st86{fill:#585866;}
	.st87{fill:#A04B40;}
	.st88{fill:#B7743D;}
	.st89{fill:#0074D3;}
</style>
<g class="st2">
	<path class="st1" d="M182.67,160.19l-0.29-0.21c6.28-18.3,20.85-33.28,38.43-40.47c15.87-6.49,33.39-6.8,50.18-10
		c26.25-5,50.98-17.15,77.46-20.56c26.49-3.41,57.49,5.04,69,29.7c1.99,4.26,3.32,8.97,2.91,13.68
		c-1.06,12.13-12.55,19.92-19.99,29.41c-10.14,12.93-13.07,30.06-17,46.14c-3.92,16.09-10.08,33.11-23.78,41.95
		c-12.3,7.94-28.08,7.45-42.25,4.23c-14.17-3.21-27.85-8.86-42.28-10.44c-17.16-1.88-34.46,2.12-50.82,7.8
		c-4.99,1.73-10.07,3.65-15.33,3.54c-9.35-0.2-17.61-6.95-22.39-15.18C167.88,195.9,182.67,160.19,182.67,160.19"/>
</g>
<g>
	<g>
		<path class="st7" d="M359.51,258.55c-0.28,0-0.6-0.19-0.78-0.46c-0.12-0.18-0.22-0.47-0.05-0.84
			c8.09-17.75,15.02-36.27,20.59-55.07c0.15-0.49,0.53-0.57,0.75-0.57c0.29,0,0.59,0.13,0.74,0.34c0.13,0.18,0.16,0.39,0.09,0.64
			c-5.53,18.9-12.53,37.59-20.81,55.56C359.92,258.42,359.75,258.55,359.51,258.55C359.51,258.55,359.51,258.55,359.51,258.55z"/>
		<path class="st7" d="M380.02,202.11c0.16,0,0.29,0.07,0.34,0.14c0.02,0.02,0.05,0.06,0.01,0.2
			c-5.52,18.88-12.51,37.55-20.78,55.49c-0.04,0.08-0.07,0.1-0.08,0.1c0,0,0,0,0,0c-0.1,0-0.27-0.09-0.36-0.24
			c-0.1-0.15-0.06-0.27-0.02-0.36c8.1-17.77,15.04-36.32,20.62-55.13C379.79,202.19,379.85,202.11,380.02,202.11 M380.02,201.11
			c-0.52,0-1.04,0.28-1.23,0.93c-5.58,18.81-12.43,37.15-20.57,55c-0.48,1.05,0.44,2.01,1.29,2.01c0.39,0,0.76-0.2,0.98-0.68
			c8.3-18,15.28-36.61,20.84-55.63C381.62,201.75,380.81,201.11,380.02,201.11L380.02,201.11z"/>
	</g>
	<g>
		<path class="st7" d="M406.42,202.03c5.58,18.81,12.43,37.15,20.57,55c0.7,1.53-1.56,2.87-2.27,1.33
			c-8.3-18-15.28-36.61-20.84-55.63C403.4,201.1,405.93,200.41,406.42,202.03z"/>
	</g>
	<g>
		<path class="st6" d="M415.13,182.79c-8.4-0.22-17.02-0.28-25.36,0.81c-0.05,0.01-0.1,0.01-0.14,0.02
			c-0.79-8.85-7.5-17.82-12.81-23.94c-2.26-2.6-4.63-5.1-7.02-7.59c-2.07-2.15-4.27-4.52-7.26-5.33c-0.18-0.05-0.35-0.09-0.52-0.12
			c-2.14-2.12-4.73-3.08-7.77-0.92c-0.07-0.32-0.15-0.65-0.22-0.97c-0.75-3.31-5.83-1.91-5.09,1.4c3.36,14.96,7.63,30,13.65,44.12
			c1.46,3.43,4.53,7.12,7.28,9.55c2.19,1.93,8.47,5.42,17.23,6.18c7.75,0.67,17.54-0.18,24.95-2.54
			c6.17-1.96,14.16-5.85,16.36-12.56C431.13,182.59,420.16,182.93,415.13,182.79z"/>
	</g>
	<g>
		<path class="st7" d="M498.45,200.67c-0.28-1.23,0.18-1.67,0.76-2.66c0.01-0.22,0.02-0.43,0.03-0.61c0.02-0.27,0.27-0.57,0.55-0.59
			c0.13-0.01,5.23-2.52,7.87-4.08c1.59-0.94,3.65-2.06,5.54-2.17c2.06-0.13,3.23,0.81,2.99,2.15c-0.41,2.33-2.1,4.04-3.88,5.52
			c-2.62,2.18-5.93,4.43-9.26,5.35C501.07,204.12,498.96,202.85,498.45,200.67z"/>
	</g>
	<path class="st5" d="M481.48,189.54c-2.27-1.34,6.41-6.72,6.96-6.2c1.39,1.3,9.09,8.86,10.48,10.15c1.14,1.06,2.68,2.14,3.59,3.39
		c1.34,1.84-1.98,4.82-3.56,4.1C495.63,199.48,485.21,191.74,481.48,189.54z"/>
	<g>
		<path class="st7" d="M479.93,243.06c0.36-1.21,0.98-1.36,1.98-1.94c0.11-0.19,0.23-0.37,0.33-0.52c0.15-0.22,0.52-0.36,0.77-0.24
			c0.11,0.06,5.79,0.39,8.85,0.33c1.85-0.03,4.19,0.01,5.89,0.84c1.86,0.91,2.41,2.3,1.54,3.34c-1.51,1.82-3.82,2.47-6.1,2.88
			c-3.36,0.61-7.34,0.93-10.69,0.08C480.5,247.35,479.3,245.2,479.93,243.06z"/>
	</g>
	<path class="st5" d="M470.66,225c-1.31-2.29,8.89-2.68,9.12-1.96c0.57,1.82,3.53,12.19,4.1,14c0.46,1.48,1.27,3.18,1.45,4.72
		c0.26,2.27-4.1,3.21-5.12,1.82C478.07,240.63,472.82,228.76,470.66,225z"/>
	<path class="st5" d="M404.15,96.21c-7.04-6.24-13.78-11.62-22.43-17.63c-1.41-0.98-0.85,4.63-0.3,5.29
		c4.9,5.9,10.36,12.01,15.74,19.85c-3.86,2.85-10.06,8.4-14.36,10.55c-6.76,3.39-10.9,4.78-18.7,3.98
		c-2.11-0.22-0.48,6.23,1.61,5.98c0.27-0.03,5.35,7.16,6.96,6.82c6.77-1.43,25.06-10.53,31.15-19.23
		C404.81,110.4,411.42,102.65,404.15,96.21z"/>
	<g>
		<path class="st7" d="M402.81,113.22c-1.59-3.05-3.67-5.61-6.39-7.73c-0.37-0.29-0.78-0.39-1.18-0.37
			c-0.39-0.12-0.81-0.09-1.2,0.21c-4.86,3.67-9.79,7.56-15.58,9.66c-6.09,2.21-13.01,2.47-19.38,3.38c-2.11,0.3-1.21,3.49,0.88,3.2
			c0.86-0.12,1.73-0.23,2.6-0.33c-0.22,0.14-0.43,0.29-0.62,0.46c-2,1.76-0.39,3.61,1.4,4.63c0.56,0.32,1.25,0.64,2.03,0.94
			c0.11,0.69,0.62,1.29,1.57,1.29c0.25,0,0.52,0,0.78-0.01c0.03,0.18,0.09,0.36,0.17,0.53c-0.51,0-1.02,0-1.53-0.03
			c-2.14-0.11-2.13,3.2,0,3.32c13.42,0.76,26.58-8.56,36.19-17.15C403.12,114.73,403.14,113.85,402.81,113.22z M367.72,124.36
			c-0.01,0.12-0.02,0.25-0.01,0.37c-0.56-0.14-1.13-0.3-1.64-0.49C366.62,124.31,367.17,124.35,367.72,124.36z"/>
	</g>
	<path class="st5" d="M385.02,81.3c-0.05-0.01-0.1-0.03-0.15-0.03c-0.04-0.33-0.21-0.65-0.57-0.88c-2.25-1.45-4.82-3.9-7.66-3.88
		c-2.67,0.02-5.03,2.15-7.72,1.55c-1.46-0.32-2,1.93-0.53,2.27c1.18,0.27,4.07,5.65,9.14,5.27c1.48-0.11,3.97-0.91,5.38-1.36
		C384.53,83.81,385.73,81.15,385.02,81.3z"/>
	<path class="st9" d="M344.44,215.74c0.42-3.5,1.38-4.47,1.42-7.91c-1.62-20.86-3.58-34.09-2.77-49.67
		c0.08-1.48,1.53-1.49,1.99-0.33c0.42-0.23,0.97-0.23,1.38-0.01c0.2-0.27,0.41-0.52,0.66-0.76c0.69-0.65,1.67-0.22,2.03,0.51
		c0.05-0.02,0.1-0.04,0.15-0.05c1.2-0.57,2.73-0.4,3.31,1.03c0.14,0.35,0.19,0.66,0.17,0.93c0.02,0.01,0.04,0.03,0.05,0.05
		c0.16-1.63,0.98,1.23,0.89,2.91c-0.38,6.9-3.15,43.29-3.21,44.78c0.05,0.86,0.15,1.71,0.34,2.52c0.32,1.35,1.02,2.58,1.2,3.97
		c0.32,2.42-0.11,5.11-0.92,7.4c-0.19,0.53-0.87,0.4-1.09-0.01c-0.34-0.64-0.57-1.25-0.71-1.87c-0.09-0.29-0.14-0.61-0.24-1.04
		c-0.06-0.27-0.12-0.53-0.19-0.79c-0.04-0.11-0.08-0.23-0.11-0.34c-0.27-0.66-0.6-1.28-0.98-1.87c0,0-0.01,0-0.01,0
		c0,0.35,0.01,0.7,0.01,1.06c0.16,2.03,1.03,3.76,1.85,5.65c0.49,1.12,1.1,2.17,0.75,3.39c-0.19,0.68-1.07,1.07-1.57,0.4
		C346.49,222.53,343.95,219.86,344.44,215.74z"/>
	<path class="st5" d="M353.48,115.96l9.01-15.74l10.65,6.45l-9.54,16.55C363.19,122.42,353.8,116.12,353.48,115.96z"/>
	<path class="st5" d="M411.22,69.43c0.26-6.51-7.83-7.15-12.36-5.92c-4.47,1.21-8.26,3.75-12.98,2.89c-2.71-0.5-5.4-0.92-6.82,1.98
		c-0.28,0.58,0.03,1.08,0.48,1.29c0.18,0.21,0.44,0.34,0.8,0.3c3.52-0.41,6.21,3.01,9.75,3.23c3.21,0.2,6.26-1.35,9.45-1.08
		c2.91,0.24,5.6,3.07,8.64,1.89C409.99,73.3,411.15,71.33,411.22,69.43z"/>
	<path class="st10" d="M375.72,72.21c-1.1,2.45-2.21,4.89-3.27,7.36c-0.33,0.77,0.84,1.32,1.19,0.55c1.12-2.44,2.2-4.9,3.28-7.35
		C377.25,71.98,376.07,71.43,375.72,72.21z"/>
	<g>
		<path class="st7" d="M376.14,87.28c-1.01-3.21-2.27-6.58-5.38-8.28c-3.09-1.69-7.15-1.69-10.49-0.85c-3.88,0.97-6.97,3.27-9.5,6.3
			c-2.4,2.88-6.1,6.2-6.13,10.26c-0.03,3.23,2.17,5.03,5.22,4.6c1.36-0.19,3.09,0.04,4.19-0.97c0.88-0.82,1.44-2.23,1.78-3.53
			c1.79-0.6,3.15-1.61,4.62-2.75c1.87-1.45,3.79-2.31,5.95-2.57c0.12,0.09,0.24,0.2,0.35,0.32c0.85,0.94,2,0.5,2.51-0.35
			c0.81-0.01,1.58-0.86,1.53-1.65c0-0.06-0.02-0.12-0.02-0.18c0.44,0.2,0.88,0.41,1.31,0.62c0.34,0.16,0.67,0.2,0.97,0.16
			C373.87,90.09,376.75,89.23,376.14,87.28z"/>
	</g>
	<path class="st5" d="M364.61,79.55c-7.1-0.2-15.04,6.34-12.4,15.08c2.47,8.18,9.26,17.53,19.2,18.2c3.82,0.26,5.94-0.55,7.28-3.15
		c2.01-3.9,1.94-8.9,0.99-13.03C377.79,88.34,374.76,79.84,364.61,79.55z"/>
	<g>
		<path class="st7" d="M367.88,79.7c-3.96-0.67-7.89-0.52-11.23,1.82c-3.99,2.79-6.51,9.81-5.61,14.54
			c-1.37-0.91-3.55,0.56-2.4,2.08c2.41,3.21,14.13,15.74,17.4,7.64c0.59-1.47,0.31-2.96-0.01-4.47c-0.38-1.74-1.08-3.09,0.01-4.66
			c0.81-1.16,2.08-1.54,3.19-2.37c2.13-1.59,5.76-5.28,6.25-8.02C376.03,83.07,370.34,80.12,367.88,79.7z"/>
	</g>
	<g>
		<path class="st7" d="M402.88,172.27c-7.15-11.61-13.4-20.71-21.46-30.77c-7.76-9.67-14.28-19.79-24.7-26.72
			c-1.09-0.73-2.37-0.9-4.64,0.95c-0.74,0.6-1.43,1.23-2.07,1.87c-3.36,3.07-6.65,6.48-8.52,10.64c-2.06,4.56-2.39,9.65-2.17,14.59
			c0.55,12.32,2.26,24.57,2.7,36.92c0.15,4.06-0.83,9.71,4.47,10.49c3.82,0.57,6.95,0.19,7.66-3.93c1.34-7.88,1.53-15.89,1.32-23.89
			c2.18,2.8,4.49,5.52,6.82,8.17c5.89,6.71,11.86,13.35,17.87,19.95c0.93,1.02,2.07,1.01,2.97,0.49c0.5,0.24,1.09,0.31,1.78,0.11
			C392.44,188.96,403.9,173.93,402.88,172.27z"/>
	</g>
	<g>
		<path class="st7" d="M380.49,104.8c-0.26-1.09-0.88-1.65-2.02-1.63c-1.86,0.04-3.96,0.87-5.77,1.28
			c-1.06,0.24-2.65,0.78-3.91,0.99c-0.59,0.09-1.24,0.18-1.51,0.87c-1.03,2.63,0.3,5.33,2.92,6.31c1.47,0.55,3.12,0.6,4.66,0.74
			c1.35,0.12,2.86,0.29,4.08-0.48c1.12-0.71,1.51-1.93,1.59-3.19C380.63,108.2,380.84,106.25,380.49,104.8z"/>
	</g>
	<path class="st11" d="M494.35,188.18c-0.99-2.59-16.61-17.1-21.73-22.67c-6.57-7.14-16.64-16.17-25.65-14.87
		c-9.85,1.43-18.66,5.2-28.62,9.25c-2.59,1.05-8.59,4.02-14.77,6.32c-1.37-0.73-2.76-1.43-4.17-2.08c-2.69-1.24-4.35-1.48-6.52,0.8
		c-5.5,5.78-10.36,12.38-15.48,18.51c-0.68,0.82-1.15,2.23-0.41,3.2c0.04,0.05,0.07,0.1,0.11,0.14c0.08,0.48,0.3,0.93,0.72,1.3
		c0.11,0.17,0.25,0.34,0.4,0.5c0.75,0.76,1.48,1.5,2.18,2.21c0.27,0.3,0.56,0.59,0.85,0.86c6.61,6.63,11.58,10.57,23.72,8.97
		c4.77-0.45,9.5-1.85,14.12-3.24c8.95-2.69,16.72-6.85,26.06-6.78c10.21,0.08,12.73,10.68,16.37,19.14
		c2.23,5.18,9.3,21.12,12.31,24.64c1.12,1.31,7.43-1.71,9.43-2.39c1.23-0.42,1.92-1.57,1.62-2.86c-0.89-3.88-9.72-30.29-15.27-46
		c6.34,4.53,13.18,9.84,19.72,13.76C490.07,197.32,494.71,189.12,494.35,188.18z"/>
	<path class="st5" d="M365.01,122.42c-0.07-1.55,0.7-2.84,0.7-2.84s-0.82,0.4-0.88,0.3c-0.08-0.33-0.36-0.51-0.65-0.5
		c-0.19-0.12-0.43-0.14-0.63-0.05c-0.01-0.14-0.02-0.29-0.03-0.44c-0.03-0.42-0.36-0.64-0.68-0.64c0.02-0.23,0.03-0.41,0.03-0.5
		c0.02-0.78-1.07-0.86-1.31-0.18c-0.02,0.07-0.04,0.12-0.07,0.18c-0.3-0.37-0.54-0.68-0.57-0.75c-0.05-0.11-0.12-0.2-0.2-0.27
		c0-0.26,0.01-0.5,0-0.7c-0.01-0.64-0.92-0.94-1.24-0.34c-0.14,0.26-0.27,0.52-0.41,0.77c-0.04-0.03-0.07-0.06-0.11-0.09
		c0.1-0.65,0.39-1.5,0.45-1.85c0.12-0.67-0.63-1.02-1.05-0.69c-0.01-0.02-0.03-0.03-0.04-0.05c0.5-1.2,0.95-2.43,1.27-3.71
		c0.17-0.68-1.7-1.78-2.05-1.24c-2.05,3.19-2.55,4.39-4.62,6.06c-0.24,0.19-0.58,0.61-0.86,0.84c-0.74,0.6-1.43,1.23-2.07,1.87
		c-1.59,1.45-3.16,2.99-4.58,4.64c5.87,3.78,11.92,8.26,18.64,9.99c0.95,0.24,2.22-0.49,2.1-1.6
		C365.88,127.87,365.49,125.14,365.01,122.42z M357.58,112.1c-0.18,0.49-0.38,0.98-0.59,1.46c-0.08-0.18-0.24-0.32-0.43-0.39
		C356.9,112.81,357.23,112.45,357.58,112.1z"/>
</g>
<g>
	<g>
		<g>
			<path class="st6" d="M54.09,185.41c3.63,7.26,7.04,14.09,10.57,21.15c-7.1,0-13.95,0-21.13,0
				C47.03,199.54,50.44,192.72,54.09,185.41z"/>
		</g>
		<g>
			<path class="st6" d="M128.91,163.81c3.55-7.1,6.97-13.94,10.58-21.16c3.61,7.23,7.04,14.09,10.57,21.16
				C142.96,163.81,136.16,163.81,128.91,163.81z"/>
		</g>
		<g>
			<path class="st6" d="M224.89,185.41c3.62,7.25,7.02,14.06,10.56,21.14c-7.13,0-13.92,0-21.12,0
				C217.82,199.55,221.24,192.71,224.89,185.41z"/>
		</g>
		<g>
			<path class="st6" d="M128.93,206.55c3.51-7.03,6.92-13.84,10.56-21.13c3.6,7.2,7.01,14.03,10.56,21.13
				C142.92,206.55,136.12,206.55,128.93,206.55z"/>
		</g>
		<path class="st11" d="M96.68,142.49c-7.13,0-13.88,0-21.1,0c3.53-7.07,6.93-13.9,10.54-21.14
			C89.71,128.55,93.11,135.35,96.68,142.49z"/>
		<g>
			<path class="st7" d="M235.44,163.83c-7.11,0-13.94,0-21.14,0c3.54-7.09,6.97-13.94,10.57-21.16
				C228.49,149.91,231.92,156.78,235.44,163.83z"/>
		</g>
		<path class="st11" d="M86.11,206.85c3.65,7.3,7.03,14.07,10.52,21.08c-7.09,0-13.85,0-21.06,0
			C79.08,220.91,82.47,214.12,86.11,206.85z"/>
		<g>
			<path class="st6" d="M256.9,206.86c3.62,7.26,7.02,14.05,10.53,21.08c-7.12,0-13.92,0-21.06,0
				C249.88,220.92,253.27,214.13,256.9,206.86z"/>
		</g>
		<g>
			<path class="st7" d="M160.97,227.95c3.52-7.04,6.91-13.84,10.54-21.09c3.63,7.27,7.03,14.07,10.54,21.09
				C174.92,227.95,168.15,227.95,160.97,227.95z"/>
		</g>
		<path class="st11" d="M256.9,164.09c3.63,7.27,7.01,14.04,10.51,21.04c-7.11,0-13.9,0-21.02,0
			C249.89,178.13,253.29,171.33,256.9,164.09z"/>
		<g>
			<path class="st7" d="M64.67,163.82c-7.15,0-13.96,0-21.12,0c3.51-7.04,6.92-13.84,10.56-21.14
				C57.74,149.96,61.16,156.79,64.67,163.82z"/>
		</g>
		<path class="st11" d="M246.37,142.49c3.51-7.02,6.9-13.82,10.54-21.09c3.63,7.27,7.03,14.07,10.53,21.09
			C260.3,142.49,253.5,142.49,246.37,142.49z"/>
		<path class="st11" d="M171.5,121.4c3.63,7.27,7.03,14.07,10.53,21.09c-7.15,0-13.95,0-21.07,0
			C164.48,135.46,167.87,128.67,171.5,121.4z"/>
		<g>
			<path class="st6" d="M171.52,164.13c3.62,7.25,7.01,14.03,10.49,21c-7.09,0-13.84,0-20.97,0
				C164.55,178.1,167.92,171.34,171.52,164.13z"/>
		</g>
		<path class="st11" d="M64.62,121.03c-7.19,0-13.95,0-21.06,0c3.52-7.04,6.91-13.84,10.53-21.07
			C57.68,107.13,61.05,113.89,64.62,121.03z"/>
		<path class="st11" d="M139.49,99.95c3.62,7.25,6.99,14.02,10.51,21.06c-7.14,0-13.89,0-21.03,0
			C132.47,114,135.87,107.2,139.49,99.95z"/>
		<g>
			<path class="st7" d="M235.42,121.03c-7.17,0-13.93,0-21.06,0c3.53-7.06,6.93-13.86,10.53-21.07
				C228.48,107.14,231.86,113.9,235.42,121.03z"/>
		</g>
		<path class="st11" d="M75.62,185.14c3.55-7.11,6.92-13.86,10.5-21.01c3.61,7.22,7,14.01,10.5,21.01
			C89.51,185.14,82.77,185.14,75.62,185.14z"/>
		<g>
			<path class="st6" d="M246.5,143.65c3.3,6.6,6.59,13.19,10.02,20.05c-6.95,0-13.53,0-20.53,0c3.41-6.82,6.7-13.41,10-20.01
				C246.16,143.68,246.33,143.67,246.5,143.65z"/>
		</g>
		<g>
			<path class="st6" d="M65.19,163.64c3.42-6.84,6.7-13.41,10.24-20.48c3.51,7.03,6.81,13.62,10.24,20.48
				C78.76,163.64,72.16,163.64,65.19,163.64z"/>
		</g>
		<g>
			<path class="st7" d="M171.11,163.71c-6.99,0-13.57,0-20.54,0c3.43-6.85,6.72-13.45,10.27-20.55
				C164.36,150.2,167.65,156.79,171.11,163.71z"/>
		</g>
		<g>
			<path class="st6" d="M11.81,184.98c3.42-6.84,6.72-13.45,10.25-20.51c3.53,7.06,6.83,13.67,10.25,20.51
				C25.42,184.98,18.78,184.98,11.81,184.98z"/>
		</g>
		<g>
			<path class="st7" d="M117.77,185.05c-6.99,0-13.59,0-20.58,0c3.43-6.86,6.75-13.49,10.29-20.58
				C111.01,171.54,114.31,178.14,117.77,185.05z"/>
		</g>
		<g>
			<path class="st6" d="M171.06,120.88c-6.94,0-13.47,0-20.45,0c3.41-6.85,6.7-13.45,10.23-20.53
				C164.33,107.37,167.63,113.99,171.06,120.88z"/>
		</g>
		<g>
			<path class="st7" d="M278.25,121.74c3.49,6.99,6.77,13.54,10.18,20.38c-6.91,0-13.47,0-20.37,0
				C271.45,135.37,274.74,128.77,278.25,121.74z"/>
		</g>
		<g>
			<path class="st6" d="M246.2,100.44c3.5,7,6.8,13.59,10.21,20.43c-6.9,0-13.46,0-20.42,0C239.41,114.02,242.7,107.44,246.2,100.44
				z"/>
		</g>
		<g>
			<path class="st6" d="M65.29,120.81c3.38-6.76,6.66-13.32,10.18-20.37c3.47,6.95,6.76,13.52,10.18,20.37
				C78.8,120.81,72.24,120.81,65.29,120.81z"/>
		</g>
		<path class="st11" d="M182.67,184.93c3.37-6.74,6.67-13.33,10.18-20.36c3.48,6.97,6.76,13.52,10.18,20.36
			C196.14,184.93,189.54,184.93,182.67,184.93z"/>
		<g>
			<path class="st6" d="M288.48,185.03c-6.99,0-13.53,0-20.45,0c3.4-6.8,6.69-13.39,10.23-20.47
				C281.74,171.54,285.02,178.11,288.48,185.03z"/>
		</g>
		<g>
			<path class="st7" d="M246.2,185.88c3.52,7.04,6.8,13.6,10.2,20.41c-6.87,0-13.43,0-20.4,0
				C239.41,199.47,242.7,192.88,246.2,185.88z"/>
		</g>
		<g>
			<path class="st7" d="M75.47,185.88c3.49,6.98,6.76,13.53,10.18,20.37c-6.86,0-13.42,0-20.36,0
				C68.65,199.53,71.95,192.94,75.47,185.88z"/>
		</g>
		<path class="st11" d="M268.07,227.57c3.47-6.94,6.72-13.45,10.19-20.38c3.47,6.95,6.76,13.53,10.19,20.38
			C281.56,227.57,275.06,227.57,268.07,227.57z"/>
		<g>
			<path class="st7" d="M182.67,142.12c3.4-6.81,6.68-13.37,10.18-20.36c3.46,6.92,6.74,13.5,10.18,20.36
				C196.11,142.12,189.55,142.12,182.67,142.12z"/>
		</g>
		<g>
			<path class="st6" d="M182.75,227.55c3.43-6.87,6.69-13.39,10.13-20.28c3.45,6.89,6.72,13.44,10.14,20.28
				C196.18,227.55,189.69,227.55,182.75,227.55z"/>
		</g>
		<path class="st11" d="M161.11,186.52c3.25,6.5,6.5,13,9.88,19.76c-6.83,0-13.35,0-20.29,0c3.34-6.69,6.6-13.22,9.85-19.75
			C160.74,186.53,160.92,186.53,161.11,186.52z"/>
		<path class="st11" d="M11.95,142.1c3.41-6.82,6.66-13.34,10.12-20.25c3.43,6.87,6.7,13.41,10.12,20.25
			C25.35,142.1,18.86,142.1,11.95,142.1z"/>
		<g>
			<path class="st6" d="M117.63,142.16c-6.89,0-13.36,0-20.29,0c3.39-6.8,6.66-13.34,10.14-20.31
				C110.91,128.71,114.17,135.24,117.63,142.16z"/>
		</g>
		<g>
			<path class="st6" d="M117.63,227.6c-6.92,0-13.39,0-20.3,0c3.42-6.84,6.69-13.39,10.15-20.31
				C110.91,214.16,114.18,220.7,117.63,227.6z"/>
		</g>
		<path class="st11" d="M11.95,227.54c3.41-6.83,6.67-13.34,10.12-20.25c3.43,6.86,6.7,13.4,10.12,20.25
			C25.35,227.54,18.86,227.54,11.95,227.54z"/>
	</g>
</g>
</svg>
