<?xml version="1.0" encoding="utf-8"?>
<!-- Generator: Adobe Illustrator 23.0.1, SVG Export Plug-In . SVG Version: 6.00 Build 0)  -->
<svg version="1.1" id="Layer_1" xmlns="http://www.w3.org/2000/svg" xmlns:xlink="http://www.w3.org/1999/xlink" x="0px" y="0px"
	 viewBox="0 0 503 370" style="enable-background:new 0 0 503 370;" xml:space="preserve">
<style type="text/css">
	.st0{opacity:0.1;}
	.st1{fill:#0093FD;}
	.st2{opacity:0.08;}
	.st3{fill:#F5F5F5;}
	.st4{fill:#F4F3EE;}
	.st5{fill:#E6E6E6;}
	.st6{fill:#FFD931;}
	.st7{fill:#1F263A;}
	.st8{fill:#284F4C;}
	.st9{fill:#FFFFFF;}
	.st10{fill:#B3B3B3;}
	.st11{fill:#2992FA;}
	.st12{fill:#27374D;}
	.st13{fill:#DE614B;}
	.st14{fill:#2C294C;}
	.st15{fill:#EAEAEA;}
	.st16{fill:#D6D6D6;}
	.st17{fill:#223359;}
	.st18{fill:#FCD846;}
	.st19{fill:#DADAEA;}
	.st20{fill:#E8BC05;}
	.st21{fill:#CECECE;}
	.st22{opacity:0.4;fill:#E6E6E6;}
	.st23{opacity:0.4;}
	.st24{fill:#2A2BEE;}
	.st25{fill:url(#SVGID_1_);}
	.st26{fill:url(#SVGID_2_);}
	.st27{fill:none;stroke:#2A2BEE;stroke-width:8;stroke-miterlimit:10;}
	.st28{fill:none;stroke:url(#SVGID_3_);stroke-width:8;stroke-miterlimit:10;}
	.st29{fill:none;stroke:url(#SVGID_4_);stroke-width:7;stroke-miterlimit:10;}
	.st30{fill:url(#SVGID_5_);}
	.st31{fill:url(#SVGID_6_);}
	.st32{fill:url(#SVGID_7_);}
	.st33{fill:url(#SVGID_8_);}
	.st34{fill:url(#SVGID_9_);}
	.st35{fill:url(#SVGID_10_);}
	.st36{fill:url(#SVGID_11_);}
	.st37{fill:url(#SVGID_12_);}
	.st38{fill:url(#SVGID_13_);}
	.st39{fill:url(#SVGID_14_);}
	.st40{fill:url(#SVGID_15_);}
	.st41{fill:url(#SVGID_16_);}
	.st42{fill:url(#SVGID_17_);}
	.st43{fill:url(#SVGID_18_);}
	.st44{fill:url(#SVGID_19_);}
	.st45{fill:url(#SVGID_20_);}
	.st46{fill:#F9FBFF;}
	.st47{fill:#EDF5FC;}
	.st48{fill:none;stroke:#2A2BEE;stroke-width:3;stroke-miterlimit:10;}
	.st49{fill:url(#SVGID_21_);}
	.st50{fill:url(#SVGID_22_);}
	.st51{fill:url(#SVGID_23_);}
	.st52{fill:url(#SVGID_24_);}
	.st53{fill:url(#SVGID_25_);}
	.st54{fill:#DBDBDB;}
	.st55{fill:#AF9279;}
	.st56{fill:#F7DABC;}
	.st57{fill:#027FCC;}
	.st58{fill:#747489;}
	.st59{fill:#E2B705;}
	.st60{fill:#263556;}
	.st61{fill:#E0E0E0;}
	.st62{fill:#C4C4C4;}
	.st63{fill:#006EB2;}
	.st64{fill:#B8B8C9;}
	.st65{fill:#9393AB;}
	.st66{fill:#E5B900;}
	.st67{fill:#5578A3;}
	.st68{opacity:0.3;fill:#DADAEA;}
	.st69{fill:#C6C6C6;}
	.st70{fill:#0469BC;}
	.st71{opacity:0.2;}
	.st72{fill:#C1C1C1;}
	.st73{fill:#F2F2F2;}
	.st74{opacity:0.51;fill:#E6E1FF;}
	.st75{fill:#709FE0;}
	.st76{fill:#5183BF;}
	.st77{fill:#D1D1D1;}
	.st78{fill:#D6AE05;}
	.st79{fill:#DCDAE0;}
	.st80{fill:#F3F3F5;}
	.st81{fill:#D9924E;}
	.st82{fill:#C2C2ED;}
	.st83{fill:#636375;}
	.st84{fill:#543237;}
	.st85{fill:#3F3E66;}
	.st86{fill:#585866;}
	.st87{fill:#A04B40;}
	.st88{fill:#B7743D;}
	.st89{fill:#0074D3;}
</style>
<g class="st2">
	<path class="st1" d="M454.43,172.92c-11.09-8.07-25.5-12.12-39.21-15.28c-24.01-5.54-49.77-10.19-74.74-9.73
		c-23.76-18.04-53.92-34.48-85.42-23.3c-14.25,5.06-25.94,15.55-27.62,28.94c-0.45,3.6,0.79,6.89,0.2,10.91
		c-1.13,7.74-9.56,12.34-13.57,15.53c-11.74,9.35-23.1,19.74-28.98,32.72c-6.45,14.23-4.76,28.22,1.06,42.86
		c5.05,12.71,10.78,26.16,21.78,36.42c11.84,11.05,28.95,18.62,46.53,16.95c15.12-1.43,26.24-9.83,35.19-19.18
		c3.27-3.42,6.35-7.03,9.99-10.19c0.07,0.04,2.68-1.92,2.74-1.96c0.92-0.57,1.91-1.14,2.91-1.63c0.08,0.02,1.85-0.65,1.89-0.67
		c1.9-0.66,3.87-1.21,5.85-1.7c3.6-0.89,11.54-1.79,17.27-2.51c8.15-1.02,16.31-2.29,24.1-4.39c14.72-3.97,27.86-10.93,42.98-14.06
		c15.52-3.21,31.51-4.7,45.58-11.18c14.47-6.67,26.63-18.27,29.07-32.49C474.36,195.38,467.05,182.1,454.43,172.92z"/>
</g>
<g>
	<g>
		<path class="st1" d="M464.25,59.15c-7.03-6.2-16.05-8.82-25.24-9.57c-9.02-0.73-18.34,0.29-27.13,2.38
			c-9.05,2.15-31.35,19.89-33.33,24.34c-2.42,5.43-2.87,10.94-1.51,16.73c1.21,5.15,3.29,10.45,7.84,13.48
			c2.81,1.88,6.17,2.56,9.53,2.71c4.09,2.6,8.99,4.03,13.82,4.76c9.13,1.38,18.3,1.15,27.35-0.76c16.37-3.47,36.5-13.39,38.25-32.13
			C474.6,72.91,470.29,64.47,464.25,59.15z"/>
	</g>
	<path class="st9" d="M451.45,77.62c-8.68-4.82-18.55-7.33-28.48-6.97c-1.07,0.04-1.07,1.7,0,1.66c9.65-0.35,19.21,2.05,27.65,6.74
		c7.18,3.99,12.84,9.51,17.92,15.73c0.34-0.46,0.66-0.94,0.97-1.42C464.37,87.15,458.65,81.63,451.45,77.62z M426.38,78.86
		c-0.81-0.69-1.99,0.48-1.17,1.17c9.58,8.14,16.97,18.34,22.51,29.55c0.51-0.2,1.02-0.4,1.53-0.62
		C443.63,97.56,436.13,87.15,426.38,78.86z M412.22,71.75c-4,2.33-7.5,5.33-10.8,8.55c-3.23,3.15-6.41,6.37-9.01,10.06
		c-3.47,4.92-5.96,10.42-7.56,16.18c0.01,0.01,0.02,0.01,0.03,0.02c0.47,0.31,0.95,0.59,1.44,0.83c1.57-5.78,4.06-11.29,7.52-16.2
		c2.46-3.48,5.47-6.5,8.5-9.47c3.28-3.22,6.73-6.22,10.72-8.54C413.98,72.65,413.15,71.21,412.22,71.75z"/>
	<g>
		<path class="st7" d="M432.75,92.63c-0.39-1.46-1.2-2.76-1.86-4.11c-0.7-1.42-1.13-2.88-1.5-4.41c-1.13-4.72-2.86-13.32-8.68-14.39
			c-2.35-0.43-3.36,3.15-0.99,3.6c1.92,0.36,2.89,2.45,3.66,4.07c0.27,0.57,0.51,1.16,0.73,1.75c-1.06-0.69-2.72-0.36-2.95,0.98
			c-5.38-1.87-11.76-0.47-14.91,4.49c0.36-4.23,0.9-8.83,4.22-11.49c1.87-1.51-0.78-4.11-2.64-2.64c-3.29,2.61-4.35,6.91-4.9,10.88
			c-0.34,2.46-0.48,4.95-0.85,7.4c-0.33,2.18-1.36,4.5-1.1,6.73c0.44,3.68,4.61,5.33,7.16,2.41c1.23-1.41,1.41-3.35,1.57-5.13
			c0.18-1.98,0.16-3.96-0.44-5.84c2.04-3.28,5.89-4.47,9.54-3.6c-0.01,0.1-0.02,0.2-0.03,0.31c-0.61,0.01-1.22,0.29-1.6,0.87
			c-1.64,2.51-2.28,5.34-2.64,8.28c-0.32,2.65-0.25,5.5,1.77,7.51c1.86,1.86,4.68,2.4,7.17,1.74c1.31-0.35,2.39-1.32,3.67-1.65
			c1.42-0.37,2.5-0.1,3.76-1.04C433,97.79,433.39,95.05,432.75,92.63z"/>
	</g>
	<path class="st5" d="M410.61,259.2c-0.03-1.48,0.04-2.95,0.04-4.43c-0.01-1.11-0.66-2.13-1.85-2.25c-1.1-0.11-2.15,0.74-2.25,1.85
		c-0.12,1.38-0.1,2.77-0.1,4.16c-0.02,0.19-0.03,0.4,0,0.62c0.01,0.07,0.02,0.13,0.02,0.2C406.75,261.65,410.65,261.58,410.61,259.2
		z"/>
	<g>
		<path class="st7" d="M436.06,144.8c0.37-11.13-1.84-28.09-5.37-33.69c-2.9-4.6-6.12-10.69-17.65-11.31
			c-10.05-0.54-16.05,0.66-21.07,5.92c-5.29,5.54-10.71,19.79-10.9,20.39c-2.09,6.42-3.9,13.02-5.27,19.63
			c-0.8,3.89-0.53,7.81,1.15,11.17c-0.11,0.74-0.23,1.47-0.37,2.2c-2.03,10.62-3.59,21.33-5.5,31.97
			c-0.95,5.32-1.99,10.62-3.21,15.88c-0.58,2.5-1.21,5-1.88,7.48c-0.73,2.67-1.81,5.36-2.22,8.1c-0.85,5.73,4.74,9.3,9.39,11.21
			c4.91,2.02,10.33,2.35,15.46,0.99c1.44-0.38,1.74-1.79,1.28-2.86c2.49-0.48,4.97-1.08,7.32-1.58c3.92-0.83,7.92-0.95,11.89-0.61
			c-0.3,1.16,0.35,2.7,1.92,2.86c3.2,0.33,6.4,0.63,9.61,0.93c2.76,0.27,5.87,0.96,8.63,0.51c6.1-1,4.96-7.65,4.69-12.17
			c-0.74-12.85-0.89-25.74-0.45-38.6C433.96,170.39,435.63,157.63,436.06,144.8z"/>
	</g>
	<path class="st5" d="M399.9,245.01c-0.08-1.12-0.99-2.06-2.15-2.02c-1.1,0.03-2.09,1.02-2.02,2.15c0.09,1.41,0.08,2.81-0.01,4.22
		c-0.08,1.12,1.1,2.05,2.14,2.02c1.22-0.04,1.93-1.02,2.02-2.14C399.99,247.82,399.99,246.42,399.9,245.01z"/>
	<path class="st9" d="M430.68,116.31c0.31-1.16,0.61-2.33,0.88-3.5c-0.28-0.63-0.57-1.19-0.87-1.67
		c-2.21-3.51-4.61-7.88-10.73-10.03c-0.04,0.09-0.09,0.19-0.13,0.28c0.02-0.1,0.04-0.2,0.06-0.3c-1.68-0.58-3.63-1-5.93-1.19
		c-0.09,0.23-0.18,0.47-0.27,0.7c-0.83-0.22-1.77-0.1-2.54,0.4c0.11-0.41,0.21-0.83,0.32-1.24c-5.24-0.22-8.33,0.06-10.98,1.37
		c-2.5,6.57-4.66,13.26-6.43,20.06c-2.18,8.38-4.33,16.92-4.33,25.64c0,2.7,4.21,4.23,5.44,1.47c0.2-0.46,0.39-0.91,0.56-1.38
		c0.86,0.96,2.21,1.37,3.34,0.84c-0.01,0.61,0.01,1.22,0.06,1.84c0.16,2.08,2.41,3.82,4.4,2.53c0.11-0.07,0.2-0.15,0.3-0.23
		c1.16,1.62,3.76,2.13,4.88-0.06c0.68-1.33,1.15-2.75,1.51-4.22c0.01,0.57,0.03,1.15,0.07,1.72c0.18,2.74,3.71,3.83,5.21,1.91
		c0,0.59,0,1.19,0.02,1.78c0.1,3.14,5.17,4.17,5.75,0.78c0.04-0.23,0.08-0.47,0.12-0.7c0.55-0.15,1.07-0.43,1.48-0.77
		c1.39-1.15,1.21-3.29,1.41-4.91c0.23-1.84,0.52-3.67,0.83-5.5c0.69-4.04,1.54-8.06,2.44-12.06
		C428.58,125.34,429.66,120.83,430.68,116.31z"/>
	<g>
		<path class="st6" d="M423.42,166.81c-0.04-0.74-0.55-1.64-1.18-2.56c0.08-0.1,0.15-0.21,0.22-0.33c1.18-2.05,1.15-4.21,0.23-5.96
			c0.03-0.86-0.29-1.76-0.95-2.31c0.64-0.98,0.68-2.32-0.42-3.48c-2-2.11-2.1-2.81-3.03-3.18c-6.44-2.54-15.78-2.65-19.67-2.54
			c-3.18,0.09-6.79,0.26-7,4.6c-0.07,1.52,0.3,3.3,0.53,4.8c0.18,1.15,0.57,2.28,1.4,2.99c-1.44,2.75-3.52,5.06-5.17,7.7
			c-1.79,2.88-2.71,5.84-2.48,9.22c0.54,7.76,1.28,15.51,1.99,23.26c1.43,15.63,3.04,31.25,4.83,46.85c0.18,1.58,1.63,2.6,3.14,1.8
			c1.37-0.72,2.71-1.03,4.26-1.03c1.17,0,2.03-0.96,2.09-2.09c0.28-5.71,0.62-11.42,1.01-17.13c1.03,9.18-1.59,18.38-0.15,27.5
			c0.13,0.83,1.18,1.61,2.02,1.53c1.78-0.17,3.55-0.33,5.33-0.5c1.1-0.1,2-0.88,2.09-2.09
			C413.64,238.71,423.51,168.66,423.42,166.81z"/>
	</g>
	<g>
		<path class="st7" d="M405.8,263.22c-0.43-1.26-0.18-2.85-0.13-4.14c0-0.01-0.01-0.03-0.01-0.03c-0.09-0.5,0.41-1.04,0.93-0.73
			c1.35,0.83,2.66,1.56,4.25,1.1c0.32-0.29,0.91-0.27,1.01,0.27c0.45,2.31,1.34,4.44,2.84,6.27c1.09,1.32,2.18,2.3,3.13,3.84
			c0.22,0.36,0.1,1.54-1.47,1.2c-2.17-0.46-4.31-0.42-5.94-2.15c-1.01-1.06-1.42-1.95-2.07-2.7c-0.29-0.34-0.7-0.58-1.02-0.88
			c-0.39,0.99-0.13,2.44-0.11,3.39c0.01,0.37-0.65,0.31-0.67-0.02c-0.05-1.18-0.12-1.56-0.15-2.28
			C406.34,265.27,405.94,264.28,405.8,263.22z"/>
	</g>
	<path class="st5" d="M413.98,67.17c2.8-0.56,4.83,0.28,6.22,1.83c5.04,1.41,5.56,8.79,4.31,13.23
		c-1.43,5.08-4.69,13.14-11.16,12.91c-6.15-0.22-7.78-8.27-7.65-13.08C405.87,76.55,407.54,68.45,413.98,67.17z"/>
	
		<rect x="408.65" y="89.97" transform="matrix(0.9887 0.1502 -0.1502 0.9887 19.1355 -60.8687)" class="st5" width="7.89" height="12.59"/>
	<g>
		<path class="st7" d="M400.4,248.32c-1.18,0.31-3.91,0.89-5.11,1.1c-0.1,0.02-0.16,0.06-0.21,0.12c-0.09,0.06-0.16,0.17-0.15,0.32
			c0.13,2.26,0.21,4.57,0.56,6.81c0.31,1.99,1.44,3.61,2.25,5.42c0.12,0.26,0.7,1.25,0.92,1.47c0.19,0.19,0.52,0.14,0.66-0.08
			c0.92-1.48,1.45-3.74,1.48-5.47c0.05-2.44-0.11-6.08,0.07-8.52C400.92,248.8,400.84,248.21,400.4,248.32z"/>
	</g>
	<path class="st5" d="M417.43,101.39c-0.15-1.5-1.37-1.55-2.52-1.19c-1.16,0.36-2.35,0.61-3.57,0.48c-1.19-0.13-2.1-0.77-3.19-1.17
		c-0.43-0.16-0.89,0.05-1.22,0.32c-0.05,0.04-0.09,0.08-0.14,0.12c-0.35,0.29-0.4,0.8-0.32,1.21c0.01,0.05,0.02,0.1,0.03,0.15
		c0.17,0.84,0.88,1.03,1.49,0.81c0.97,0.4,1.84,0.8,2.85,0.99c0.04,0.12,0.09,0.24,0.18,0.36c0.98,1.35,2.17,1.96,3.79,1.23
		C416.1,104.13,417.6,102.97,417.43,101.39z"/>
	<g>
		<path class="st7" d="M398.2,102.5c-0.43,1.97-0.81,3.96-1.19,5.95c-1.28-0.14-2.69,0.42-3.29,1.92
			c-3.19,7.96-5.74,16.29-7.73,24.63c-0.49,2.04,1.04,3.42,2.64,3.6c-1.47,4.04-3.03,8.05-4.67,12.02c-0.7,0.55-1.19,1.37-1.08,2.25
			l0.09,0.67c0.26,2.02,1.83,3.01,3.32,2.8c-1.35,2.77,2.44,6.19,4.62,3.49c13.75-17.05,16.44-39.06,16.83-60.27
			C403.38,99.65,400.83,100.43,398.2,102.5z"/>
	</g>
	<g>
		<path class="st1" d="M415.97,100.1c6.4,26-4.69,68.51,10.36,115.12c0.99,3.07-0.12-33.32-0.19-36.7
			c-0.25-11.44-0.48-22.88-0.23-34.32c0.57,0.22,1.25,0.17,1.73-0.24c-0.1,2.78-0.16,5.55-0.15,8.33c0,2.14,3.32,2.14,3.32,0
			c-0.01-6.73,0.29-13.45,0.93-20.15c0.42-4.38,1.31-8.82,1.79-13.25c-0.79-3.31-1.74-6.07-2.81-7.77
			C428.06,106.93,425.15,101.51,415.97,100.1z"/>
	</g>
	<path class="st5" d="M389.26,166.83c0.95-0.79,1.74-1.74,2.52-2.7c0.59-0.73,1.24-1.48,1.7-2.32c-0.45-0.65-1.07-1.14-1.68-1.7
		c-0.6-0.56-1.22-1.29-1.91-1.84c-0.45,0.86-0.96,1.67-1.6,2.45c-0.72,0.87-1.49,1.83-2.34,2.67c1.02,1.13,2.06,2.24,3.13,3.32
		C389.14,166.75,389.2,166.79,389.26,166.83z"/>
	<g>
		<path class="st7" d="M429.92,88.69c-0.25-6.89-2.27-15.04-7.15-20.2c-3.96-4.19-12.09-5.14-14.12,1.49
			c-0.02,0.06-0.03,0.12-0.04,0.18c-0.8,0.46-1.47,1.07-1.71,2.03c-0.01,0.03,0,0.06-0.01,0.09c-0.06,0.22,0.02,0.41,0.16,0.55
			c-1.01,0.92-1.85,2.08-2.41,3.45c-0.3,0.74,0.89,1.05,1.19,0.33c0.13-0.31,0.28-0.61,0.44-0.89c-1.92,5.27-2.14,11.03-2.19,16.64
			c-0.01,1.07,1.66,1.08,1.67,0c0.08-6.82,0.38-13.71,3.8-19.77c3.1-1.5,7.1-0.73,9.81,2.13c0.74,0.78,1.39,1.66,1.96,2.59
			c0.84,1.74,1.45,3.58,1.87,5.64c0.74,3.62,1.99,7.06,3.87,10.25c0.81,1.38,2.94,0.14,2.15-1.26c-0.41-0.73-0.77-1.46-1.1-2.19
			C428.87,90.11,429.96,89.77,429.92,88.69z M426.98,86.83c0.1-0.04,0.2-0.09,0.29-0.15c0.04,0.42,0.08,0.84,0.1,1.26
			C427.24,87.58,427.1,87.21,426.98,86.83z"/>
	</g>
	<g>
		<path class="st1" d="M391.12,121.09c-3.13,11.14-9.61,23.72-3.14,34.93c0.4,0.7,1.48,0.07,1.08-0.63
			c-6.26-10.88,0.27-23.18,3.25-33.97C392.52,120.65,391.33,120.32,391.12,121.09z"/>
	</g>
	<g>
		<path class="st7" d="M425.39,71.02c-0.71,0.32-1.32,0.83-1.98,1.27c1.03,12.77,4.33,54.55,5.37,67.32
			c0.11,1.31,2.17,1.41,2.07,0.08C429.8,126.47,426.46,84.24,425.39,71.02z"/>
	</g>
	<path class="st12" d="M428.72,139.03c-0.07,1.24-0.36,2.61-1.95,2.06c-1.14-0.39-1.4-1.73-1.59-2.79
		c-0.23-1.32-2.19-0.75-1.99,0.55c0.35,2.27,1.53,4.22,4,4.42c2.59,0.21,3.53-2.03,3.61-4.25
		C430.85,137.69,428.8,137.7,428.72,139.03z"/>
	<path class="st5" d="M430.96,110.79c0.19,0.49,1.04,1.87,0.92,2.61c0.22,0.48,0.39,1.02,0.53,1.34c0.49,1.07,0.95,2.16,1.39,3.26
		c0.13,0.31-0.24,0.5-0.48,0.37c-0.09,0.12-0.23,0.19-0.36,0.15c-0.53,0.58-1.95,0.69-2.49,1.11c-0.08,0.06-0.16,0.07-0.24,0.05
		c-0.12,0.19-0.49,0.23-0.62-0.06c-0.73-1.66-1.45-3.33-2.17-4.99c-0.96-1.48-2.55-2.54-3.31-4.12c-0.72-1.5-0.91-2.13-0.26-3.65
		c0.99-2.34,3.3-0.87,3.58-0.37c0.68,1.24,0.46,1.2,1.24,2.39c0.15,0.24,0.32,0.47,0.48,0.7c-0.18-0.52-0.85-2.23-0.9-2.39
		c-0.1-0.31,0.45-0.63,0.69-0.4C430.04,107.75,430.44,109.48,430.96,110.79z"/>
	<g>
		<path class="st7" d="M441.35,133.12c-3.08-8.22-4.53-11.82-8.91-19.43c-1.2-2.07-6.84,3.98-6.43,4.82
			c1.58,3.22,8.58,17.13,6.62,20c-1.3,1.89,1.29,4.14,2.73,2.59c-0.19,1.48-0.81,2.59-2.14,2.86c-2.07,0.43-2.23,3.2-0.11,3.72
			c3.25,0.8,6.79-1.85,8.44-4.49C443.52,140.05,442.57,136.36,441.35,133.12z"/>
	</g>
	<g>
		<path class="st7" d="M378.39,97.59c3.04-13.99,15.29-23.98,28.2-29.17c15.19-6.11,32.53-7.58,48.37-3.14
			c6.75,1.89,13.12,4.95,18.5,9.39c-1.24-5.95-4.75-11.55-9.19-15.47c-7.03-6.2-24.23-19.57-50.26-12.8
			c-23.39,6.09-33.46,25.5-35.44,29.96c-2.42,5.43-2.87,10.94-1.51,16.73C377.41,94.6,377.84,96.12,378.39,97.59z"/>
	</g>
</g>
<g>
	<path class="st5" d="M68.12,315.18c2.3,0.28,1.39-8.04,0.73-7.98c-1.67,0.16-18.04,1.48-19.34,1.87c-1.92,0.57-1.19,4.42,0.29,4.77
		C52.92,314.56,64.34,314.73,68.12,315.18z"/>
	<g>
		<path class="st7" d="M51.62,309c1.49,0.94,1.62,2.22,1.33,3.51c-0.16,0.73-0.88,4.61-1.35,7.19c-0.29,1.6-0.73,3.61-1.74,4.94
			c-1.1,1.45-2.39,1.69-3.15,0.76c-1.31-1.61-1.48-3.72-1.44-5.76c0.05-3,0.46-6.49,1.76-9.24C47.82,308.75,49.96,307.94,51.62,309z
			"/>
	</g>
	<g>
		<path class="st7" d="M108.14,285.56c0,0.01,0,0.03,0,0.04c-0.15,0.15-0.28,0.34-0.37,0.57c-0.34,0.85-0.73,1.65-1.16,2.41
			c-0.51-0.77-1.6-1.24-2.6-0.59c-0.28,0.18-0.56,0.37-0.85,0.56c-0.83-0.26-1.84,0.01-2.16,0.97c-0.08,0.25-0.17,0.48-0.26,0.71
			c-4,2.85-7.98,6.05-12.14,8.84c0.97-0.89,1.89-1.83,2.76-2.82c1.48-1.7-1.3-3.73-2.78-2.09c-3.81,4.19-8.52,7.34-13.92,9.1
			c-2.51,0.82-5.6,1.51-8.19,1.89c-0.56,0.08-2.66,0.22-3.26,1.09c-1.5,2.15-0.12,6.83,0.09,9.23c0.06,0.68,0.78,1.48,1.51,1.49
			c11.43,0.05,24.61-1.82,34.51-7.97c5.13-3.19,8.82-8.08,10.76-13.63c0.68-1.55,1.12-3.23,1.24-5.02c0.21-1.39,0.31-2.8,0.3-4.22
			c0-0.04,0.01-0.07,0.01-0.11h-0.01c0-0.16,0.01-0.31,0-0.47C111.56,283.57,108.22,283.59,108.14,285.56z"/>
	</g>
	<path class="st5" d="M115.77,303.96c1.77-1.5-4.94-6.5-5.34-5.97c-1.02,1.33-11.21,14.21-11.82,15.42c-0.9,1.8,2.43,3.88,3.69,3.04
		C104.95,314.65,112.85,306.42,115.77,303.96z"/>
	<g>
		<path class="st7" d="M99.99,311.82c1.71-0.45,2.73,0.33,3.47,1.42c0.42,0.61,2.77,3.79,4.34,5.89c0.97,1.3,2.14,3,2.43,4.64
			c0.31,1.79-0.4,2.9-1.59,2.82c-2.07-0.14-3.73-1.45-5.19-2.87c-2.16-2.09-4.44-4.76-5.56-7.59
			C97.22,314.43,98.09,312.31,99.99,311.82z"/>
	</g>
	<g>
		<path class="st7" d="M132.84,275.59c-0.4-2.65-2.19-5.08-5.23-6.3c-5.98-2.4-13.9,1.15-19.61,3c-7.39,2.4-14.61,5.26-21.82,8.14
			c-0.15,0.06-0.29,0.13-0.42,0.2c-0.49,0.16-0.97,0.32-1.46,0.48c-2.12,0.7-2.65,2.64-2.01,4.18c-0.16,0.14-0.3,0.29-0.42,0.45
			c-3.38,0.03-6.77,0.05-10.1,0.46c-0.49,0.06-0.93,0.25-1.32,0.5c-1.17-1.66-3.26-1.37-4.53-0.17c-1.58-3.44-7.38-1.77-6.03,2.01
			c4,11.26,14.87,17.06,26.54,15.66c7.79-0.93,15.02-4.4,21.92-8.42c-1.66,2.8-3.3,5.62-4.9,8.47c-0.4,0.72-0.38,1.9,0.32,2.46
			c1.93,1.55,3.74,3.19,5.47,4.95c0.76,0.78,2.11,0.78,2.87,0c5.57-5.65,10.57-11.85,14.85-18.53
			C130.02,288.34,135.09,281.54,132.84,275.59z"/>
	</g>
	<g>
		<path class="st7" d="M107.06,180.77c0.39-1.26,0.62-2.56,0.36-3.85c-0.39-1.96-2.02-2.55-3.85-2.75
			c-1.53-0.17-3.96-0.08-4.97,1.29c-1.09,1.47-1.53,3.77-1.83,5.7c-1.5-0.07-3.05,0.02-4.23,0.68c-1.89,1.07-1.89,3.85-1.77,5.72
			c0.04,0.67,0.44,1.08,0.92,1.25c-0.09,0.61,0.27,1.29,0.79,1.57c2.71,1.5,5.73,1.48,8.75,1.5c2.28,0.02,7.2,0.54,9.03-1.22
			c1.52-1.46,1.72-5.98,1.09-7.83C110.82,181.24,108.91,180.85,107.06,180.77z"/>
	</g>
	<path class="st5" d="M92.36,186.44c-6.26-0.48-13.41,5.13-11.27,13.15c2,7.51,6.91,16.02,12.74,17.62c3.26,0.9,6.92,0.49,8.8-2.56
		c2.06-3.33,3.41-8.32,2.67-12.1C103.8,194.95,101.31,187.12,92.36,186.44z"/>
	
		<rect x="87.85" y="206.71" transform="matrix(0.9594 0.2822 -0.2822 0.9594 64.576 -17.5796)" class="st5" width="10.95" height="17.42"/>
	<g>
		<path class="st7" d="M102.97,192.55c-0.1-0.81-0.41-1.43-0.71-2.17c-0.05-0.12-0.22-0.45-0.34-0.6c0.16-0.29,0.41-1.03,0.43-1.14
			c0.84-4.1-4.31-6.87-7.22-3.77c-0.08,0.09-0.22,0.46-0.19,0.71c-0.11-0.22-0.23-0.53-0.34-0.74c-1.03-2.75-3.83-4.72-6.87-2.96
			c-0.78,0.45-1.16,1.31-1.84,1.78c-0.26,0.18-0.42,0.31-0.52,0.39c-0.04-0.03-0.14-0.05-0.38-0.03c-0.42,0.04-0.88-0.15-1.3-0.16
			c-2.34-0.05-3.89,1.41-4.62,3.53c-0.29,0.84-0.2,1.67-0.65,1.96c-0.85,0.54-1.6,0.39-2.35,1.27c-1.06,1.22-1.16,2.76-0.79,4.23
			c0.39,3.52-2.53,6.4-0.79,9.95c0.86,1.75,2.52,3.03,4.38,3.56c0.38,0.24,0.75,0.48,1.12,0.78c1.09,0.89,1.02,1.89,1.47,3.07
			c0.76,1.98,2.66,3.19,4.76,3.53c0.93,0.15,1.58-0.04,2.46-0.28c1.52-0.42,2.74-0.41,4.28-0.56c2.14-0.21,4.23-1.3,5.43-3.13
			c1.18-1.8,1.38-3.95,0.7-5.97c-0.42-1.22-1.49-2.88-0.96-4.23c0.46-1.17,2.4-2.16,3.18-3.18
			C102.56,196.75,103.21,194.59,102.97,192.55z"/>
	</g>
	<path class="st5" d="M133.21,201.36c-4.14-4.65-10.74-4.92-16.89-8.63c-2.24-1.7-2.2-2.29-3.78-4.39c-0.42-0.57-1.36-1.54-1.8-2.11
		c-0.86-1.09-2.45-3.06-4.02-2.87c-0.3,0.03-0.5,0.14-0.65,0.33c-0.16-0.15-0.32-0.3-0.49-0.43c-0.42-0.33-0.68-0.4-1.21-0.33
		c-0.3,0.04-0.53,0.34-0.61,0.61c-0.19,0.6-0.16,1.3-0.08,1.96c-0.19-0.45-0.35-0.91-0.48-1.41c-0.28-1.09-1.96-0.63-1.68,0.46
		c0.51,1.97,1.44,3.62,2.73,5.06c1.19,1.73,2.84,3.4,4.68,4.42c1.08,0.59,2.31,0.74,3.44,1.22c0.67,0.29,1.33,0.66,1.96,1.08
		c1.03,0.82,9.76,10.43,15.4,12.71C138.88,212.76,134.08,202.33,133.21,201.36z"/>
	<g>
		<path class="st1" d="M133.05,202.67c-2-1.17-6.23-0.4-8.11,0.65c-0.98,0.54-1.63,1.38-1.71,2.53c-0.04,0.63,0.18,1.19,0.42,1.74
			c-1.54,1.18-3.08,2.36-4.66,3.48c-1.3,0.92-2.62,1.81-3.97,2.67c-7.21,4.58-15.76,6.55-24.27,5.88c-2.3-0.18-4.29-0.24-5.54-0.24
			c-5.31,0-8.7,1.49-14.46,6.97c-11.62,11.04-19.67,38.06-20.02,50.34c-0.05,0.12-0.11,0.24-0.12,0.38
			c-0.26,8.96,8.5,15.81,17.36,14.92c10.83-1.09,21.31-12.85,30.24-16.05c2.07-0.24,2.11-1.06,2.1-1.34
			c-0.7-22.41,6.64-38.28,11.79-42.31c2.91-1.71,5.75-3.52,8.45-5.55c3.1-2.34,6.01-4.94,8.47-7.94c1.35-1.64,4.33-3.77,5.72-8.5
			C135.47,207.88,135.5,204.1,133.05,202.67z"/>
	</g>
</g>
<g>
	<g>
		<path class="st7" d="M209.87,114.11c1.31-0.19,5.14-0.9,8.7-1.32c0.73-0.39,1.45-0.78,2.18-1.17c1.19-0.63,2.47-1.55,3.81-1.82
			c2.25-0.44,3.78,1.23,4.64,3.1c0.9,1.96,0.57,4.16-1.33,5.36c-0.02,0.01-0.05,0.03-0.07,0.05c0.05,0.42,0.09,0.83,0.14,1.19
			c0.27,1.9,0.22,4.15-1.64,5.27c-1.08,0.66-2.56,0.64-3.78,0.79c-1.63,0.2-3.26,0.4-4.9,0.6c-1.39,0.17-1.98-1.3-1.59-2.4
			c-0.11-0.16-0.19-0.36-0.23-0.59C215.51,121.26,208.16,114.35,209.87,114.11z"/>
	</g>
	<g>
		<path class="st7" d="M273.47,319.89c1.15-1.33,2.43-1.28,3.66-0.8c0.69,0.27,4.43,1.55,6.92,2.39c1.54,0.52,3.46,1.25,4.63,2.44
			c1.27,1.3,1.32,2.62,0.29,3.23c-1.79,1.06-3.9,0.92-5.91,0.58c-2.96-0.49-6.35-1.41-8.88-3.1
			C272.68,323.61,272.19,321.37,273.47,319.89z"/>
	</g>
	<path class="st5" d="M272.53,302.89c-0.62-2.23-7.96,1.79-7.65,2.37c0.78,1.48,8.25,16.11,9.11,17.16c1.26,1.56,4.54-0.59,4.3-2.09
		C277.75,317.18,273.55,306.57,272.53,302.89z"/>
	<g>
		<path class="st7" d="M182.83,312.97c1.66,0.58,2.09,1.79,2.1,3.11c0.01,0.74,0.19,4.69,0.33,7.31c0.09,1.62,0.11,3.68-0.56,5.2
			c-0.74,1.66-1.95,2.19-2.89,1.46c-1.65-1.27-2.29-3.28-2.72-5.28c-0.63-2.94-1.04-6.43-0.39-9.4
			C179.08,313.6,180.98,312.32,182.83,312.97z"/>
	</g>
	<path class="st5" d="M198.28,305.82c1.85-1.4-4.6-6.74-5.03-6.24c-1.09,1.27-11.93,13.61-12.6,14.79c-0.99,1.75,2.22,4,3.52,3.22
		C186.93,315.94,195.24,308.12,198.28,305.82z"/>
	<g>
		<path class="st1" d="M187.43,305.12c1.65-1.96,3.66-3.62,5.32-5.58c1.82-2.16,3.49-4.44,5.05-6.79c2.92-4.4,7.18-11.14,9.53-15.87
			c2.14-4.32-10.02-45.15-15.06-62.25c-0.37-1.25,0.61-2.08,1.62-2.14c0.09-0.82,0.38-1.66,0.92-2.5c3.16-4.94,9.66-2.4,14.29-3.58
			c2.66-0.68,5.05-2.14,7.68-2.93c2.51-0.76,5.14-0.92,7.73-0.52c1.84,0.29,3.73,1.03,5.08,2.17c-0.07-0.17-0.15-0.34-0.22-0.52
			c-0.74-1.82,2.29-3.08,3.18-1.34c8.46,16.65,15.9,33.88,23.14,51.1c7.25,17.26,13.77,35.45,21.6,52.47
			c0.41,0.88-0.88,2.85-1.83,2.99c-2.8,0.41-7.57,2.12-10.2,0.63c-1.31-0.75-2-2.28-2.73-3.52c-1.16-1.97-2.33-3.95-3.49-5.92
			c-2.12-3.6-14.26-24.19-14.26-24.19c-6.94-11.77-13.7-23.74-21.49-34.98c1.03,11.32,2.36,22.74,1.05,34.05
			c-0.44,3.82-2.01,5.78-3.04,7.6c-2.19,3.85-14.8,17.09-18.17,20.32c-1.68,1.62-9.44,9-9.61,9.22c-0.53,0.69-1.56,1.24-2.4,0.63
			C188.43,311.7,184.56,308.53,187.43,305.12z"/>
	</g>
	<path class="st5" d="M233.51,156.48c1.47-0.67,3.13-0.73,4.8-0.63c-0.46-0.68-0.31-1.67,0.26-2.28c-0.53-0.18-1.07-0.35-1.6-0.54
		c-1.41-0.49-1.49-2.12-0.74-2.96c-0.8-0.18-1.6-0.37-2.4-0.55c-2.19-0.48-1.25-3.36,0.94-2.89c5.59,1.2,11.83,3.26,17.33,4.84
		c0.27-0.04-0.17-1.24,0.1-1.26c2.13-0.17,3.68,0.44,4.49,1.71c0.84-0.82,2.54-0.79,2.94,0.69c1.35,5-2.33,9.12-7.1,10.11
		c-5.96,1.24-13.02-1.19-18.6-3.06C232.65,159.25,232.04,157.14,233.51,156.48z"/>
	<path class="st5" d="M205.44,110.61c-6.26-0.48-13.41,5.13-11.27,13.15c2,7.51,6.91,16.02,12.74,17.62c3.26,0.9,6.92,0.49,8.8-2.56
		c2.06-3.33,3.41-8.32,2.67-12.1C216.87,119.12,214.38,111.29,205.44,110.61z"/>
	
		<rect x="200.92" y="130.87" transform="matrix(0.9594 0.2822 -0.2822 0.9594 47.7733 -52.567)" class="st5" width="10.95" height="17.42"/>
	<path class="st5" d="M222.12,115.84c3.39,0.66,6.63,0.9,8.74,3.87c1.8,2.53,1.74,3.73,3.75,5.99
		c13.38,12.63,23.06,21.43,25.04,26.08c1.27,2.98-0.95,8.23-4.95,6.83c-1.66-0.58-3.1-2.02-4.12-3.4c-0.05-0.07-0.1-0.14-0.15-0.22
		c-0.17-0.03-0.3-0.09-0.38-0.18c-3.83-4.72-17.26-24.95-18.1-25.96c-0.54-0.53-1.11-1.02-1.71-1.44c-1.01-0.69-2.19-1.08-3.13-1.87
		c-1.64-1.38-2.95-3.4-3.77-5.36c-0.19-0.46,0.33-0.77,0.72-0.64c0.6,0.21,1.11,0.47,1.57,0.79c0.24,0.14,0.46,0.32,0.77,0.53
		c0.2,0.14,0.4,0.27,0.59,0.4c0.09,0.05-1.5-1.74-3.15-2.49c-0.98-0.44-1.99-0.76-2.49-1.76
		C221.06,116.47,221.41,115.7,222.12,115.84z"/>
	<path class="st5" d="M205,117.06c-2.98,1.74-5.96,3.03-6.97,6.54c-0.86,2.98-0.42,4.1-1.56,6.89
		c-8.46,16.34-14.7,27.84-15.04,32.88c-0.22,3.23,3.61,7.45,6.93,4.81c1.37-1.09,2.26-2.92,2.77-4.57c0.03-0.08,0.05-0.17,0.07-0.26
		c0.15-0.09,0.26-0.19,0.3-0.3c2.06-5.72,8.06-29.24,8.53-30.47c0.33-0.68,0.71-1.33,1.14-1.92c0.72-0.99,1.71-1.74,2.34-2.8
		c1.09-1.85,1.67-4.18,1.79-6.3c0.03-0.49-0.57-0.62-0.89-0.36c-0.49,0.4-0.89,0.81-1.22,1.27c-0.18,0.21-0.33,0.45-0.55,0.76
		c-0.14,0.2-0.28,0.39-0.43,0.58c-0.07,0.08,0.84-2.14,2.15-3.39c0.78-0.74,1.63-1.38,1.77-2.48
		C206.21,117.3,205.63,116.69,205,117.06z"/>
	<g>
		<path class="st7" d="M194.46,112.69c1.53-1.6,3.27-3.03,5.34-3.87c1.42-0.58,2.5-0.99,3.78-1.91c0.82-0.59,1.58-1.18,2.55-1.53
			c2.83-1.02,5.79,0.43,6.38,3.04c1.05,0.31,1.93,1.04,2.46,2.2c0.95,2.05,0.02,4.19-1.2,5.89c-1.2,3.3,1.57,9.41-1.16,10.29
			c-0.67,0.22-1.4,0.13-1.76,0.31c-1.54,0.76-1.56,1.69-1.32,3.25c0.18,1.17,0.53,2.32,0.54,3.52c0.02,2.09-0.86,3.88-2.51,5.15
			c-1.27,0.98-3.19,1.97-4.83,1.59c-1.97-0.46-3.28-2.88-4.45-4.4c-2.09-2.71-4.54-6.01-5.24-9.52c-1.38-0.71-2.52-1.87-3.16-3.47
			C188.25,119.13,191.84,115.42,194.46,112.69z"/>
	</g>
	<g>
		<path class="st7" d="M195.14,147.52c0.18-0.11,0.35-0.18,0.52-0.22c4.41-2.87,13.12-6.34,20.34-6.43
			c4.45-0.06,7.31-0.96,20.73,4.33c1.65,0.65,4.23,1.45,5.17,3.03c0.87,1.47,0.17,3.43-0.11,4.95c-0.45,2.48-0.63,5.35-1.41,7.74
			c-0.4,1.23-0.93,2.08-2.25,2.45c-1.95,0.55-4.63-0.14-6.62-0.34c-0.38-0.04-0.76-0.08-1.14-0.12c-2.15,8.36-2.62,17.05-1.01,25.57
			c1.7,8.97,5.61,17.49,8.85,25.98c0.59,1.54-1.13,2.83-2.51,2.51c-9.53-2.2-17.67,0.9-25.26,6.55c-2.95,2.2-6.41,4.66-10.29,4.42
			c-1.76-0.11-3.35-0.92-4.42-2.17c-1.38-0.57-2.12-2.39-2.82-3.57c-1.19-1.98-2.27-4.02-3.24-6.12c-2.02-4.35-3.62-8.9-4.69-13.57
			c-2.29-10-2.04-20.37-0.98-30.52c0.07-0.7,0.16-1.4,0.25-2.1c-1.65-0.05-3.1-1.6-3.44-3.31
			C179.04,157.7,188.86,151.51,195.14,147.52z"/>
	</g>
	<g>
		<path class="st7" d="M213.18,126.92c1.23-0.71,3.22,0.22,4.33,0.79c0.44,0.23,1.86,1.21,1.92,1.72c0.22,1.8,1.42,9.7-2.01,9.74
			c-1.4,0.02-2.23-1.74-2.63-2.82c-0.73-1.98-1-4.09-1.72-6.09C212.69,129.24,211.91,127.65,213.18,126.92z"/>
	</g>
</g>
</svg>
