<?xml version="1.0" encoding="utf-8"?>
<!-- Generator: Adobe Illustrator 23.0.1, SVG Export Plug-In . SVG Version: 6.00 Build 0)  -->
<svg version="1.1" id="Layer_1" xmlns="http://www.w3.org/2000/svg" xmlns:xlink="http://www.w3.org/1999/xlink" x="0px" y="0px"
	 viewBox="0 0 609 325" style="enable-background:new 0 0 609 325;" xml:space="preserve">
<style type="text/css">
	.st0{opacity:0.1;}
	.st1{fill:#0093FD;}
	.st2{opacity:0.08;}
	.st3{fill:#F5F5F5;}
	.st4{fill:#F4F3EE;}
	.st5{fill:#E6E6E6;}
	.st6{fill:#FFD931;}
	.st7{fill:#1F263A;}
	.st8{fill:#284F4C;}
	.st9{fill:#FFFFFF;}
	.st10{fill:#B3B3B3;}
	.st11{fill:#2992FA;}
	.st12{fill:#27374D;}
	.st13{fill:#DE614B;}
	.st14{fill:#2C294C;}
	.st15{fill:#EAEAEA;}
	.st16{fill:#D6D6D6;}
	.st17{fill:#223359;}
	.st18{fill:#FCD846;}
	.st19{fill:#DADAEA;}
	.st20{fill:#E8BC05;}
	.st21{fill:#CECECE;}
	.st22{opacity:0.4;fill:#E6E6E6;}
	.st23{opacity:0.4;}
	.st24{fill:#2A2BEE;}
	.st25{fill:url(#SVGID_1_);}
	.st26{fill:url(#SVGID_2_);}
	.st27{fill:none;stroke:#2A2BEE;stroke-width:8;stroke-miterlimit:10;}
	.st28{fill:none;stroke:url(#SVGID_3_);stroke-width:8;stroke-miterlimit:10;}
	.st29{fill:none;stroke:url(#SVGID_4_);stroke-width:7;stroke-miterlimit:10;}
	.st30{fill:url(#SVGID_5_);}
	.st31{fill:url(#SVGID_6_);}
	.st32{fill:url(#SVGID_7_);}
	.st33{fill:url(#SVGID_8_);}
	.st34{fill:url(#SVGID_9_);}
	.st35{fill:url(#SVGID_10_);}
	.st36{fill:url(#SVGID_11_);}
	.st37{fill:url(#SVGID_12_);}
	.st38{fill:url(#SVGID_13_);}
	.st39{fill:url(#SVGID_14_);}
	.st40{fill:url(#SVGID_15_);}
	.st41{fill:url(#SVGID_16_);}
	.st42{fill:url(#SVGID_17_);}
	.st43{fill:url(#SVGID_18_);}
	.st44{fill:url(#SVGID_19_);}
	.st45{fill:url(#SVGID_20_);}
	.st46{fill:#F9FBFF;}
	.st47{fill:#EDF5FC;}
	.st48{fill:none;stroke:#2A2BEE;stroke-width:3;stroke-miterlimit:10;}
	.st49{fill:url(#SVGID_21_);}
	.st50{fill:url(#SVGID_22_);}
	.st51{fill:url(#SVGID_23_);}
	.st52{fill:url(#SVGID_24_);}
	.st53{fill:url(#SVGID_25_);}
	.st54{fill:#DBDBDB;}
	.st55{fill:#AF9279;}
	.st56{fill:#F7DABC;}
	.st57{fill:#027FCC;}
	.st58{fill:#747489;}
	.st59{fill:#E2B705;}
	.st60{fill:#263556;}
	.st61{fill:#E0E0E0;}
	.st62{fill:#C4C4C4;}
	.st63{fill:#006EB2;}
	.st64{fill:#B8B8C9;}
	.st65{fill:#9393AB;}
	.st66{fill:#E5B900;}
	.st67{fill:#5578A3;}
	.st68{opacity:0.3;fill:#DADAEA;}
	.st69{fill:#C6C6C6;}
	.st70{fill:#0469BC;}
	.st71{opacity:0.2;}
	.st72{fill:#C1C1C1;}
	.st73{fill:#F2F2F2;}
	.st74{opacity:0.51;fill:#E6E1FF;}
	.st75{fill:#709FE0;}
	.st76{fill:#5183BF;}
	.st77{fill:#D1D1D1;}
	.st78{fill:#D6AE05;}
	.st79{fill:#DCDAE0;}
	.st80{fill:#F3F3F5;}
	.st81{fill:#D9924E;}
	.st82{fill:#C2C2ED;}
	.st83{fill:#636375;}
	.st84{fill:#543237;}
	.st85{fill:#3F3E66;}
	.st86{fill:#585866;}
	.st87{fill:#A04B40;}
	.st88{fill:#B7743D;}
	.st89{fill:#0074D3;}
</style>
<g class="st2">
	<path class="st1" d="M255.17,77.84c26.09,11.25,41.65,8.49,68.08-2.07c26.43-10.56,50.12-26.2,76.49-36.89
		c15.32-6.22,31.47-10.72,47.98-13.39c15.16-2.45,31-3.31,45.78,0.63c20.24,5.4,37.18,20.15,44.03,38.33
		c6.84,18.18,3.4,39.29-8.95,54.87c-10.63,13.42-26.69,22.19-41.58,31.66c-25.44,16.18-48.58,35.35-68.67,56.89
		c-14.51,15.56-27.63,32.53-45.33,45.05c-16.82,11.91-37.43,19.33-58.65,21.12c-6.03,0.51-12.47,0.49-17.66-2.36
		c-3.78-2.07-6.48-5.43-8.77-8.86c-15.54-23.22-16.42-52.33-11.58-79.16c0.98-5.45,2.18-11.06,0.8-16.44
		c-2.53-9.85-12.96-16.3-23.34-19.89c-10.38-3.59-21.64-5.4-31.02-10.82c-21.11-12.19-24.98-42.99-7.46-59.21
		c4.15-3.84,9.69-6.99,15.58-6.57C236.81,71.14,246.6,71.98,255.17,77.84C256.6,78.49,258.03,79.79,255.17,77.84"/>
</g>
<g>
	<path class="st13" d="M354.27,276.48c0.03,0.26,5.6,0.48,5.6,0.29c0-2.03,0.12-11.3,0.01-13.87c-0.01-0.35-0.25-0.48-0.49-0.44
		c-0.07-0.13-0.19-0.23-0.35-0.27c-1.41-0.3-4.74-1.54-5.09,0.85C353.64,265.11,354.06,274.47,354.27,276.48z"/>
	<g>
		<path class="st6" d="M363.56,284.08c-0.45-1.06-1.24-1.92-1.64-3.02c-0.3-0.84-0.48-1.71-0.61-2.59
			c-0.03-0.26-0.06-0.52-0.09-0.77c-0.05-0.45-0.08-0.9-0.12-1.35c-0.02-0.91-0.12-2.01-0.66-2.67c-0.26-0.31-0.85-0.36-1.65-0.3
			c-0.34,0.03-2.61,0.23-4.67,0.22c-1.03,0.1-1.16,1.15-1.18,2.07c-0.03,1.59-0.25,4.99,0.21,6.16c0.16,0.42,0.31,0.38,0.54,0.65
			c0.88,1.04,1.43,1.71,1.61,3.05c0.32,2.35,2.88,3.34,4.67,4.53c0.17,0.11,1.81,1.1,2.66,1.02c0.85-0.08,1.34-1.39,1.44-1.92
			C364.36,287.65,364.09,285.33,363.56,284.08z"/>
	</g>
	<path class="st14" d="M359.14,275.81c0.48,0.01,0.5-0.74,0.01-0.75c-1.04-0.02-2.07,0.08-3.09,0.29c-0.47,0.1-0.29,0.82,0.19,0.73
		C357.2,275.89,358.16,275.8,359.14,275.81z M359.49,277.05c-1.04,0.05-2.06,0.21-3.07,0.48c-0.46,0.13-0.23,0.84,0.23,0.71
		c0.94-0.25,1.89-0.4,2.87-0.45C360,277.77,359.97,277.03,359.49,277.05z M360.17,279.36c-0.97,0.08-1.93,0.19-2.89,0.33
		c-0.47,0.07-0.44,0.82,0.03,0.75c0.96-0.14,1.92-0.25,2.89-0.33C360.68,280.06,360.65,279.32,360.17,279.36z"/>
	<path class="st13" d="M325.59,277c-0.06,0.26-5.61-0.14-5.59-0.33c0.22-2.01,1.12-11.25,1.51-13.79c0.05-0.35,0.3-0.45,0.54-0.39
		c0.09-0.12,0.21-0.21,0.38-0.23c1.44-0.14,4.88-1.01,4.96,1.4C327.47,265.76,326.02,275.02,325.59,277z"/>
	<g>
		<path class="st6" d="M315.52,283.53c0.56-1,1.44-1.77,1.96-2.82c0.39-0.8,0.67-1.65,0.89-2.51c0.06-0.26,0.12-0.51,0.18-0.75
			c0.1-0.44,0.18-0.89,0.26-1.33c0.12-0.9,0.34-1.99,0.95-2.59c0.29-0.28,0.88-0.26,1.67-0.12c0.34,0.06,2.57,0.52,4.61,0.73
			c1.02,0.22,1.02,1.27,0.94,2.18c-0.14,1.58-0.3,4.99-0.89,6.1c-0.21,0.4-0.35,0.35-0.61,0.59c-0.99,0.94-1.61,1.55-1.94,2.86
			c-0.58,2.3-3.23,3.01-5.14,3.98c-0.18,0.09-1.92,0.89-2.76,0.72c-0.84-0.17-1.18-1.53-1.22-2.06
			C314.33,287,314.86,284.72,315.52,283.53z"/>
	</g>
	<path class="st14" d="M323.67,276.38c0.46,0.15,0.72-0.55,0.26-0.7c-0.99-0.32-2-0.53-3.04-0.63c-0.48-0.05-0.55,0.7-0.07,0.75
		C321.8,275.89,322.74,276.09,323.67,276.38z M320.22,277.73c0.96,0.15,1.89,0.41,2.8,0.76c0.45,0.18,0.76-0.51,0.31-0.68
		c-0.97-0.38-1.97-0.65-2.99-0.82C319.86,276.92,319.75,277.66,320.22,277.73z M319.29,279.95c0.95,0.19,1.9,0.4,2.83,0.65
		c0.47,0.12,0.58-0.62,0.12-0.74c-0.94-0.25-1.88-0.46-2.83-0.65C318.94,279.12,318.82,279.86,319.29,279.95z"/>
	<g>
		<path class="st7" d="M318.8,135.31c-1.25-0.1-1.91,1.07-2.47,2.04c-0.36,0.63-0.7,2.07-1.3,2.49c-0.38,0.27-1.45,0.4-1.94,0.63
			c-0.2,0.09-0.35,0.27-0.44,0.48c-0.8-0.83-1.41-1.89-1.84-2.95c-0.54-1.31-2.71-0.75-2.17,0.6c1.1,2.71,2.9,5.28,5.91,6
			c2.63,0.63,5.47-0.5,6.54-3.07C321.88,139.64,321.46,135.53,318.8,135.31z"/>
	</g>
	<g>
		<path class="st7" d="M365.96,156.76c-0.08-2.86-4.83-3.62-5.2-0.58c-0.03,0.24-0.05,0.48-0.08,0.72
			c-0.27-1.87-0.57-3.73-0.93-5.58c-0.38-1.96-2.27-2.22-3.65-1.44c-0.78-2.15-4.13-1.65-4.89,0.35c-0.1-1.32-0.21-2.65-0.31-3.97
			c-0.26-3.35-5.49-3.24-5.23,0.12c1.36,17.58-1.44,18.52-0.08,36.1c1.34,17.23,6.05,81.19,5.83,85.31
			c-0.15,2.94-0.44,6.35,2.71,6.66c3.85,0.38,4.17,0.34,6.44,0.47c2.59,0.15,2.44-2.96,2.69-5.19c0.96-8.82,0.92-17.88,1.33-26.74
			c0.41-8.67,0.77-17.34,1.06-26.01C366.31,196.91,366.55,176.83,365.96,156.76z"/>
	</g>
	<g>
		<path class="st7" d="M321.32,216.63c-0.5,8.66-3.4,43.7-3.24,52.57c0.04,2.24-0.39,5.32,2.2,5.41c2.27,0.08,2.59,0.14,6.45,0.12
			c3.17-0.02,3.2-5.73,3.68-8.63c2.2-13.09,13.52-71.26,14.96-88.3c1.48-17.57-0.71-12.28,2.24-29.67c0.56-3.33-4.64-3.9-5.2-0.6
			c-0.22,1.31-0.45,2.62-0.67,3.93c-0.58-2.06-3.86-2.86-4.84-0.79c-1.31-0.9-3.21-0.82-3.77,1.1c-0.53,1.81-0.99,3.64-1.44,5.47
			c-0.01-0.24-0.01-0.48-0.02-0.72c-0.1-3.06-7.68-2.95-8.03-0.11C321.25,176.36,322.47,196.59,321.32,216.63z"/>
	</g>
	<g>
		<path class="st15" d="M351.34,68.37c-2.44-0.94-4.89-1.83-7.36-2.66c-0.22-0.07-0.43-0.1-0.63-0.12
			c-1.32-0.22-2.88,0.68-2.72,2.46c0.57,6.56-0.27,10.36-0.39,16.96c-0.05,2.96,11.02,3.38,11.16,2.2
			c0.52-4.5,1.16-11.85,1.37-16.38C352.8,69.82,352.33,68.74,351.34,68.37z"/>
	</g>
	<g>
		<path class="st16" d="M344.38,81.33c1.15-0.74,2.59-0.85,3.68-1.71c1.23-0.96,1.89-3.67-0.36-3.68c-0.26,0-0.47,0.12-0.61,0.28
			c-0.97,0.01-2.32,0.7-3.18,1.18c-0.12-0.12-0.28-0.22-0.44-0.23c-0.89-0.07-1.9-1.39-2.83-0.81c-0.09,1.71-0.27,5.09-0.37,6.81
			c0.4,0.08,0.81,0.07,1.22-0.03C342.65,82.86,343.41,81.96,344.38,81.33z"/>
	</g>
	<path class="st9" d="M353.78,49.3c-1.73-1.9-4.65,0.27-7.02,0.22c-2.8-0.07-5.04-2-6.53,0.29c-1.86,1.95-3.6,3.97-3.69,6.79
		c-0.16,5.19,0.1,13.73,2.52,18.26c1.91,3.58,4.44,4.74,6.33,4.57c3.17-0.28,6.11-3.28,7.83-5.3c0.93-1.1,2.46-3.45,2.81-4.66
		C358.03,62.49,358.95,54.95,353.78,49.3z"/>
	<g>
		<path class="st7" d="M378.95,124.98c-1.42-7.37-2.86-14.8-4.9-22.03c-1.28-4.54-3.22-8.75-6.67-11.8
			c-0.7-0.66-1.49-1.26-2.38-1.78c-5.74-3.39-6.92-3.24-13.3-5.01c-0.64-0.18-4.05,0.93-6.85,0.82c-2.36-0.09-4.2-1.44-4.59-1.34
			c-2.32,0.58-4.59,1.25-6.71,2.07c-18.36,5.49-16.99,17.84-17.71,26.33c-0.49,5.75-2.67,8.72-2.12,14.54
			c0.18,1.87,2.43,2.45,3.41,1.06c0.54,1.57,3.18,1.85,3.59-0.07c0.05-0.25,0.11-0.51,0.16-0.76c0.96,0.97,2.81,0.97,3.06-0.7
			c0.17-1.15,0.31-2.29,0.42-3.44c0.16,0.73,0.32,1.46,0.47,2.19c0.82,3.96-0.11,6.99,0.71,10.95c-0.68,7.31-2.12,15.83-3.77,27.43
			c-0.6,4.23-2.28,11.63,4.98,10.67c6.2-0.82,11.07-4.68,14.42-11.39c2.46-4.93,4.52-11.03,5.03-16.5
			c0.96,5.09,1.75,11.76,3.84,16.53c2.79,6.35,3.18,9.85,11.26,12.72c2.64,0.94,5.43,0.55,5.43-1.65c0-6.23-0.94-30.33-1.15-34.8
			c0.54-3.55,0.81-6.53,1.16-9.6c0.44-0.19,0.78-0.55,0.87-1.09c0.92,0.19,1.91-0.21,2.09-1.26c0.06,0.28,0.12,0.57,0.18,0.85
			c0.39,1.96,2.75,1.62,3.46,0.18c0.88,0.77,2.51,0.3,2.99-0.87C377.54,127.66,379.27,126.67,378.95,124.98z"/>
	</g>
	<g>
		<path class="st17" d="M343.6,108.05c-0.08-0.38-0.3-0.61-0.57-0.72c-0.7-4.4-1.41-8.79-2.12-13.19c0.07-0.93,0.13-1.81,0.14-2.61
			c0-0.22-0.05-0.41-0.14-0.56c0.07-0.23,0.1-0.51,0.04-0.86c-0.03-0.19-0.08-0.37-0.12-0.56c0.16-0.47,0-0.89-0.3-1.18
			c-0.18-0.62-0.37-1.24-0.49-1.87c-0.16-0.83-0.29-1.67-0.41-2.51c-1.89,0.48-3.73,1.04-5.49,1.68c-0.26,1-0.74,2.21-0.59,3.25
			c0.22,1.53,2.23,2.07,3.75,2.43c-0.83,1.48-1.64,2.98-2.15,4.53c-0.71,2.13-0.01,3.79,0.77,5.81c2.14,5.54,4.71,10.91,7.55,16.12
			c0.63,1.16,2.32,0.34,2.06-0.87C344.89,113.98,344.25,111.02,343.6,108.05z"/>
	</g>
	<g>
		<path class="st17" d="M346.26,144.42c-1.93,6.4-3.42,13.08-7.31,18.64c-3.5,5-9.5,10.33-16.03,9.73c-0.48-0.04-0.48,0.71,0,0.75
			c6.37,0.59,12.3-4.31,15.92-9.07c4.44-5.83,6.08-12.96,8.14-19.85C347.12,144.15,346.4,143.96,346.26,144.42z"/>
	</g>
	<g>
		<path class="st17" d="M365.46,175.61c-6.21,0.96-11.02-3.75-13.68-8.83c-2.78-5.28-4.37-11.24-5.13-17.14
			c-0.06-0.47-0.8-0.47-0.74,0c1.24,9.87,6.26,28.77,19.76,26.69C366.13,176.26,365.93,175.53,365.46,175.61z"/>
	</g>
	<g>
		<path class="st17" d="M351.1,84.3c-0.11,0.75-0.23,1.5-0.37,2.24c-0.12,0.62-0.31,1.25-0.49,1.87c-0.3,0.29-0.46,0.71-0.3,1.18
			c-0.04,0.19-0.09,0.37-0.12,0.56c-0.06,0.35-0.03,0.63,0.04,0.86c-0.09,0.15-0.15,0.34-0.14,0.56c0.01,0.8,0.07,1.68,0.14,2.61
			c-0.71,4.4-1.42,8.79-2.12,13.19c-0.27,0.11-0.49,0.34-0.57,0.72c-0.65,2.96-1.65,8.38-2.29,11.34c-0.26,1.21,1.8-0.42,2.43-1.58
			c2.84-5.21,5.41-10.58,7.55-16.12c0.78-2.02,1.47-3.68,0.77-5.81c-0.51-1.54-1.32-3.05-2.15-4.53c1.52-0.36,3.52-0.9,3.75-2.43
			c0.15-1.05-0.33-2.26-0.59-3.26c-1.27-0.37-2.74-0.73-4.7-1.28C351.78,84.39,351.49,84.35,351.1,84.3z"/>
	</g>
	<path class="st9" d="M352.38,84.55c0.08-0.2,0.15-0.41,0.15-0.65c0.01-0.82,0.13-2.3-0.74-2.68c-0.7-0.3-1.8-0.11-2.55-0.11
		c-0.86,0.01-0.99,0.06-1.81,0.33c-1.02,0.34-1.88,1.98-2.2,3.02c-0.02,0-0.05,0-0.07,0c-0.37-1.18-1.39-2.91-2.55-3.14
		c-0.54-0.1-1.79-0.42-2.24,0.02c-0.24,0.23-0.31,0.75-0.39,1.04c-0.16,0.54-0.28,1.08-0.38,1.63c-0.02,0.01-0.05,0.01-0.07,0.02
		c1.15,11.83,1.85,23.91,4.32,35.53c0.16,0.73,1.28,0.71,1.45,0c1.62-6.7,3.13-13.42,4.52-20.16c1-4.9,1.75-9.88,2.76-14.79
		C352.53,84.58,352.45,84.56,352.38,84.55z"/>
	<g>
		<path class="st7" d="M347.05,105.73c0-5.42-0.46-11.32-1.03-15.25c0-0.09-0.01-0.17-0.03-0.24c-0.03-0.23-0.07-0.47-0.1-0.7
			c0.27-0.24,0.52-0.54,0.74-0.73c0.31-0.28,0.94-0.63,0.97-1.11c0.03-0.49-1.68-2.47-2.23-3c-0.25-0.24-0.67-0.11-0.8,0.13
			c-0.33,0.62-1.6,2.76-1.54,3.17c0.07,0.54,0.85,0.98,1.22,1.3c0.09,0.08,0.17,0.17,0.26,0.25c-1.15,4-2.54,7.97-3.34,12.04
			c0.63,6.05,1.43,12.08,2.69,17.98c0.16,0.73,1.28,0.71,1.45,0c0.46-1.89,0.9-3.78,1.34-5.68
			C346.9,111.32,347.06,108.55,347.05,105.73z"/>
	</g>
	<g>
		<path class="st1" d="M450.38,139.85c-0.24-0.78-0.88-1.29-1.6-1.5c-0.24-7.29-0.48-14.59-0.71-21.88
			c0.04-0.63,0.01-1.28-0.06-1.95c0-0.02,0-0.04,0-0.06c-0.03-0.2-0.05-0.4-0.08-0.6c-0.16-1.01-0.91-1.51-1.74-1.6
			c-0.06-0.37-0.11-0.74-0.17-1.1c-0.15-0.91-0.96-1.47-1.83-1.6c0.29-2.12-2.88-3.64-4.15-1.42c-6.49,11.32-1.19,23.69-2.24,35.79
			c-0.54,6.2-2.12,11.86-1.23,18.13c0.93,6.62,2.17,12.9,2.09,19.63c-0.02,1.33,1.05,2.11,2.25,2.25c1.07,0.13,2.15,0.26,3.22,0.39
			c1.16,0.14,2.33-1.15,2.25-2.25c-0.53-7.6,2.65-14.46,4.48-21.68C452.59,153.52,452.5,146.62,450.38,139.85z"/>
	</g>
	<g>
		<path class="st6" d="M382.5,106.29c-7.8,4.32-8.64,14.31-10.26,22.17c-1.36,6.6-5.59,17.44-0.54,23.42
			c1.71,2.02,5.44,3.78,8.03,2.36c2.65-1.44,3.21-6.31,3.48-8.98c1.06-10.4-1.44-21.1-3.42-31.25c-0.11-0.58-0.56-0.82-1.03-0.8
			c1.14-2.01,2.67-3.75,4.86-4.96C384.9,107.53,383.76,105.59,382.5,106.29z"/>
	</g>
	<path class="st9" d="M408.62,100.8c-2.38-0.52-5.31-1.2-8.01-1.2c-0.99-0.13-1.98-0.27-2.97-0.39c-1.1-0.13-1.35,1.15-0.77,1.84
		c-0.43,2.06,0,4.39,0.1,6.48c0.14,2.88,0.28,5.77,0.44,8.65c0.32,5.77,0.73,11.53,1.27,17.28c0.1,1.1,1.46,1.55,2.1,0.57
		c1.41-2.17,1.72-4.48,2.31-6.96c0.68-2.81,1.59-5.56,2.49-8.3c1.72-5.25,3.28-10.47,3.36-16.02
		C409.62,102.22,409.68,101.03,408.62,100.8z"/>
	<g>
		<path class="st5" d="M388.16,286.71c0.02,0.26,5.57,0.73,5.58,0.54c0.1-2.02,0.64-11.29,0.64-13.86c0-0.35-0.23-0.49-0.47-0.46
			c-0.07-0.13-0.18-0.24-0.34-0.29c-1.4-0.37-4.66-1.75-5.12,0.62C388.06,275.32,388.05,284.69,388.16,286.71z"/>
	</g>
	<g>
		<path class="st5" d="M410.96,286.71c0.02,0.26,5.57,0.73,5.58,0.54c0.1-2.02,0.64-11.29,0.64-13.86c0-0.35-0.23-0.49-0.47-0.46
			c-0.07-0.13-0.18-0.24-0.34-0.29c-1.4-0.37-4.66-1.75-5.12,0.62C410.86,275.32,410.85,284.69,410.96,286.71z"/>
	</g>
	<g>
		<path class="st7" d="M419.9,294.72c-0.4-1.08-1.15-1.97-1.5-3.09c-0.26-0.85-0.41-1.73-0.49-2.62c-0.02-0.26-0.04-0.52-0.06-0.77
			c-0.03-0.45-0.04-0.91-0.05-1.36c0.02-0.91-0.03-2.01-0.54-2.7c-0.24-0.32-0.83-0.4-1.63-0.38c-0.34,0.01-2.62,0.11-4.67,0.01
			c-1.04,0.06-1.21,1.09-1.27,2.01c-0.11,1.58-0.47,4.97-0.07,6.17c0.14,0.43,0.29,0.4,0.51,0.68c0.83,1.08,1.35,1.78,1.47,3.12
			c0.22,2.36,2.73,3.47,4.45,4.73c0.16,0.12,1.76,1.18,2.61,1.14c0.85-0.04,1.4-1.32,1.52-1.85
			C420.54,298.33,420.37,296,419.9,294.72z"/>
	</g>
	<g>
		<path class="st7" d="M422.59,256.43c-0.41-3.66-1.46-6.96-1.28-10.71c0.19-4.05,0.49-8.06,0.47-12.11
			c-0.09-18.78-0.7-37.57-1.06-56.35c-0.04-2.33-2.98-2.78-4.08-1.35c-0.2-1.92-0.46-3.84-0.82-5.75c-0.49-2.64-4.22-1.77-4.41,0.6
			c-0.1,1.22-0.18,2.45-0.27,3.67c-0.4-1.47-0.87-2.92-1.42-4.36c-0.43-1.11-1.53-1.69-2.53-1.58c-0.02-0.09-0.04-0.19-0.06-0.28
			c-0.42-1.85-2.84-2.01-3.9-0.87c-0.02-2.87-4.5-2.87-4.49,0.01c0.04,16.23,4.21,32.07,4.66,48.26c0.22,7.65-0.6,15.32,0.46,22.93
			c0.52,3.74,1.84,7.21,2.62,10.88c0.91,4.25-0.76,10.78-0.86,14.95c-0.07,3.37,0.87,6.82,1.46,10.12c0.45,2.48,0.15,6.76,2.97,7.54
			c2.89,0.8,10.21,0.33,10.21-1.05c0-1.21,0.03-5.71-0.16-6.88c-0.31-1.9,0.27-3.71,0.85-5.49
			C421.94,265.54,422.95,259.7,422.59,256.43z"/>
	</g>
	<g>
		<path class="st7" d="M375.85,293.56c2.17,0.05,3.81-0.02,5.95-0.2c2.03-0.16,3.45-1.06,5.76-1.33c1.79-0.21,1.96,0.81,2.37,0.79
			c1.66-0.09,3.33-0.18,5-0.28c0.12-0.01,0.85-0.02,0.78-1.34c-0.08-2.11-0.23-4.23-0.46-6.33c-0.19-1.05-1.13-0.86-1.8-0.85
			c-1.56,0.03-3.19,0.34-4.79,0.36c-1.89,0.03-0.95-0.15-2.43,0.94c-2.53,1.88-6.4,3.53-9.44,4.44c-0.97,0.29-3.47,0.89-4.14,1.83
			C370.91,294.07,374.06,293.52,375.85,293.56z"/>
	</g>
	<path class="st14" d="M384.49,286.48c-0.21,0.13-0.43,0.25-0.65,0.38c0.47,0.61,0.96,1.2,1.5,1.74c0.34,0.34,0.9-0.15,0.56-0.49
		C385.4,287.58,384.93,287.04,384.49,286.48z M382.26,287.66c0.44,0.64,0.93,1.24,1.46,1.81c0.33,0.35,0.89-0.14,0.56-0.49
		c-0.48-0.52-0.92-1.08-1.33-1.65C382.73,287.44,382.5,287.55,382.26,287.66z M386.08,285.44c-0.2,0.15-0.41,0.29-0.62,0.43
		c0.47,0.49,0.94,0.98,1.45,1.43c0.35,0.32,0.92-0.17,0.56-0.49C386.99,286.37,386.53,285.91,386.08,285.44z"/>
	<g>
		<path class="st7" d="M400.57,149.83c-3.28-1.14-7.08-1.96-10.19-0.07c-1.11,0.68-1.91,1.6-2.5,2.66c-0.96-0.04-1.9,0.39-2.31,1.41
			c-1.24-1.55-4.61-0.8-4.73,1.86c-0.55,12.42-0.55,24.86,0.01,37.28c0.27,6.09,0.68,12.17,1.22,18.24
			c0.56,6.26,1.52,12.6,0.5,18.86c-0.86,5.28-1.81,9.81-0.38,15.09c0.89,3.3,1.43,5.69,0.92,9.09c-0.38,2.49-0.6,7.87-0.41,10.4
			c0.22,2.95,0.7,5.91,1.06,8.85c0.28,2.23,0.4,4.57,0.63,6.86c0.26,2.61,5.43,1.96,8.28,1.92c1.7-0.03,4.56-0.61,4.44-2.36
			c-0.67-10.18,0.61-23.45,1.36-33.6l2.35-31.71c1.55-20.9,3.09-41.79,4.64-62.69C405.68,148.94,401.67,147.74,400.57,149.83z"/>
	</g>
	<g>
		<path class="st15" d="M407.28,82.42c-2.53-0.65-5.07-1.25-7.62-1.79c-0.23-0.05-0.44-0.05-0.64-0.04
			c-1.33-0.06-2.78,1.01-2.42,2.76c1.33,6.45,0.94,10.32,1.59,16.89c0.29,2.94,11.34,2.07,11.34,0.88c0-4.53-0.23-11.9-0.55-16.43
			C408.9,83.7,408.3,82.68,407.28,82.42z"/>
	</g>
	<g>
		<path class="st16" d="M401.87,96.11c1.05-0.87,2.47-1.15,3.45-2.12c1.1-1.1,1.45-3.87-0.79-3.62c-0.26,0.03-0.45,0.17-0.57,0.35
			c-0.97,0.12-2.22,0.96-3.02,1.55c-0.13-0.11-0.3-0.18-0.46-0.18c-0.9,0.03-1.92,0.5-2.78,1.18c0.11,1.71,0.2,3.43,0.3,5.15
			c0.4,0.03,0.82-0.03,1.2-0.17C400.34,97.83,400.98,96.85,401.87,96.11z"/>
	</g>
	<path class="st9" d="M406.33,64.69c-1.78-1.85-4.64,0.39-7.01,0.39c-2.8,0.01-5.09-1.87-6.53,0.46c-1.81,1.99-3.5,4.06-3.52,6.88
		c-0.03,5.19,0.45,13.72,2.98,18.19c2,3.53,4.55,4.63,6.45,4.41c3.16-0.36,6.03-3.43,7.69-5.5c0.9-1.12,2.37-3.51,2.69-4.73
		C410.91,77.77,411.63,70.2,406.33,64.69z"/>
	<path class="st9" d="M458.1,76.29c-2.57,0.49-5.12,1.01-7.66,1.61c-0.23,0.05-0.42,0.14-0.6,0.23c-1.23,0.51-2.09,2.09-1.02,3.52
		c3.94,5.28,5.22,8.95,8.6,14.62c1.51,2.54,11.15-2.93,10.64-4c-1.92-4.1-5.25-10.69-7.46-14.65
		C460.11,76.76,459.14,76.09,458.1,76.29z"/>
	<g>
		<path class="st15" d="M459,90.98c0.58-1.24,1.75-2.09,2.23-3.39c0.54-1.46-0.33-4.11-2.25-2.94c-0.23,0.14-0.33,0.35-0.37,0.56
			c-0.82,0.52-1.61,1.81-2.08,2.68c-0.17-0.04-0.35-0.04-0.49,0.04c-0.8,0.41-1.53,1.26-2.01,2.25c0.82,1.51,1.63,3.03,2.46,4.54
			c0.38-0.14,0.73-0.37,1.02-0.67C458.34,93.19,458.51,92.02,459,90.98z"/>
	</g>
	<path class="st9" d="M460.44,62.63c-1.6-2.01-4.66-0.04-7.02-0.26c-2.79-0.25-4.89-2.34-6.54-0.15c-1.99,1.82-3.86,3.72-4.14,6.52
		c-0.51,5.17-0.83,13.7,1.28,18.39c1.67,3.7,4.11,5.03,6.01,4.99c3.18-0.07,5.52-2.4,7.16-4.48c1.42-1.8,3.07-4.59,3.5-5.78
		C463.16,75.04,465.2,68.62,460.44,62.63z"/>
	<g>
		<path class="st7" d="M407.39,62.09c-5.06-2.18-10.8-0.83-14.72,2.63c-0.7,0.21-1.45,0.29-2.13,0.58
			c-0.82,0.35-1.57,0.93-1.99,1.73c-0.67,1.26-0.26,2.68,0.71,3.52c0.01,0.02,0.02,0.04,0.04,0.05c2.07,2.57,6.29,2.8,9.29,2.28
			c1.78-0.31,3.61-0.69,4.71,1.37c0.31,0.58,0.31,1.31,0.63,1.91c0.39,0.72,1.01,1.14,1.55,1.75c1.54,1.72,1.99,3.24,2.23,5.25
			c-0.01,0.05-0.02,0.1-0.03,0.15c-0.05,0.24,0,0.45,0.11,0.6c0.01,0.06,0.01,0.12,0.02,0.19c0.03,0.36,0.27,0.59,0.54,0.68
			c0.27,0.48,0.99,0.68,1.26,0.06C412.67,77.79,416.89,66.18,407.39,62.09z"/>
	</g>
	<path class="st9" d="M408.64,79.88c-0.4-0.98-1.28-1.73-2.37-1.75c-1.21-0.03-1.86,0.81-2.48,1.72c-0.97,1.42,0.88,2.66,2.11,1.92
		c0.02,0.24,0.05,0.5,0.03,0.68c-0.13,0.94-0.55,1.77-1.09,2.53c-1.13,1.59,1.47,3.07,2.6,1.52C408.72,84.74,409.51,82,408.64,79.88
		z"/>
	<g>
		<path class="st7" d="M404.54,85.6c-0.87,1.65-0.82,3.59-2.25,4.95c-0.89,0.84-2.39,1.44-3.63,1.06c-1.46-0.44-1.69-1.82-1.86-3.13
			c-0.08-0.62-0.75-0.83-1.17-0.64c-0.32,0.05-0.6,0.28-0.6,0.7c0.02,1.49-0.82,2.67-2.08,3.14c1.88,2.67,4.08,3.52,5.76,3.33
			c3.16-0.36,6.03-3.43,7.69-5.5c0.38-0.47,0.85-1.16,1.3-1.89c0.07-0.78-0.09-1.57-0.64-2.29
			C406.16,84.14,405.18,84.38,404.54,85.6z"/>
	</g>
	<g>
		<path class="st18" d="M426.27,179.04c-0.65-3.64-2.54-27.86-2.53-27.93c1.61-6.75,7.48-28.77,7.18-34.43
			c-0.21-3.99-1.45-7.86-4.82-10.28c-4.91-3.51-16.15-7.93-16.21-7.95c-0.17-0.08-1.76,2.79-2.82,7.23
			c-1.61,6.77-6.52,23.04-7.39,27.62c-0.16-3.7-1.23-34.87-2.34-34.43c-6.47,2.58-10.38,3.75-16.07,8.21
			c-7.43,5.83-0.13,40.27-0.95,44.58c-1.62,8.55-2.81,14.57-3.93,24.22c-0.69,5.9,2.49,9.2,8.35,11.58c4.44,1.8,7.25-4.57,8.82-9.68
			c1.52-5.62,3.5-21.46,4.7-26.78c0.46,4.06,3.68,20.54,5.78,27.54c1.5,4.98,3,9.02,8.64,9.95c4.5,0.74,9.43-0.06,12.85-3.66
			C427.13,183.15,426.64,181.12,426.27,179.04z"/>
	</g>
	<path class="st9" d="M387.89,149.95h-28.08c-2.25,0-4.07-1.82-4.07-4.07v-22.94c0-2.25,1.82-4.07,4.07-4.07h28.08
		c2.25,0,4.07,1.82,4.07,4.07v22.94C391.96,148.13,390.14,149.95,387.89,149.95z"/>
	<path class="st9" d="M466.63,176.84l-26.58,9.05c-2.13,0.72-4.44-0.41-5.16-2.54l-7.39-21.72c-0.72-2.13,0.41-4.44,2.54-5.16
		l26.58-9.05c2.13-0.72,4.44,0.41,5.16,2.54l7.39,21.72C469.89,173.8,468.76,176.12,466.63,176.84z"/>
	<path class="st14" d="M415.85,286.26c0.48,0.03,0.53-0.72,0.05-0.75c-1.04-0.06-2.07-0.01-3.1,0.15c-0.48,0.07-0.32,0.81,0.15,0.73
		C413.92,286.25,414.88,286.2,415.85,286.26z M416.15,287.51c-1.04,0-2.07,0.12-3.08,0.34c-0.47,0.1-0.27,0.83,0.2,0.72
		c0.95-0.21,1.91-0.31,2.88-0.32C416.63,288.26,416.63,287.51,416.15,287.51z M416.73,289.85c-0.97,0.04-1.93,0.1-2.9,0.2
		c-0.47,0.05-0.48,0.8,0,0.75c0.96-0.1,1.93-0.17,2.9-0.2C417.21,290.58,417.21,289.83,416.73,289.85z"/>
	<path class="st13" d="M464.81,283.41c-0.02,0.26-5.58,0.64-5.58,0.45c-0.06-2.03-0.44-11.3-0.41-13.87c0-0.35,0.24-0.48,0.48-0.46
		c0.07-0.13,0.18-0.24,0.35-0.28c1.4-0.34,4.69-1.67,5.11,0.7C465.12,272.02,464.96,281.39,464.81,283.41z"/>
	<g>
		<path class="st1" d="M455.74,291.27c0.42-1.07,1.18-1.95,1.55-3.06c0.28-0.84,0.44-1.72,0.53-2.61c0.02-0.26,0.05-0.52,0.07-0.77
			c0.03-0.45,0.06-0.91,0.08-1.36c-0.01-0.91,0.06-2.01,0.59-2.69c0.25-0.32,0.84-0.38,1.64-0.35c0.34,0.02,2.62,0.16,4.67,0.09
			c1.04,0.07,1.19,1.11,1.23,2.03c0.08,1.58,0.39,4.98-0.04,6.17c-0.15,0.42-0.3,0.39-0.52,0.67c-0.85,1.06-1.38,1.75-1.53,3.1
			c-0.26,2.35-2.79,3.42-4.54,4.66c-0.16,0.12-1.78,1.15-2.63,1.1c-0.85-0.05-1.38-1.35-1.49-1.87
			C455.04,294.87,455.25,292.54,455.74,291.27z"/>
	</g>
	<path class="st14" d="M462.83,283.06c0.47,0.08,0.64-0.65,0.17-0.73c-1.03-0.18-2.06-0.25-3.1-0.2c-0.48,0.02-0.45,0.77,0.03,0.75
		C460.9,282.84,461.86,282.9,462.83,283.06z M459.6,284.88c0.98,0.02,1.93,0.14,2.88,0.37c0.47,0.11,0.68-0.61,0.21-0.72
		c-1.01-0.24-2.04-0.38-3.08-0.4C459.13,284.12,459.12,284.87,459.6,284.88z M458.98,287.2c0.97,0.05,1.93,0.14,2.9,0.25
		c0.48,0.06,0.49-0.69,0.01-0.75c-0.96-0.11-1.93-0.2-2.9-0.25C458.51,286.43,458.5,287.17,458.98,287.2z"/>
	<path class="st13" d="M469.94,274.69c-0.07,0.26,5.06,2.44,5.12,2.27c0.73-1.89,4.14-10.52,4.96-12.96
		c0.11-0.33-0.07-0.54-0.3-0.59c-0.02-0.15-0.09-0.29-0.23-0.38c-1.21-0.79-3.88-3.13-5.06-1.02
		C473.41,263.83,470.46,272.73,469.94,274.69z"/>
	<g>
		<path class="st1" d="M475.91,285.1c-0.04-1.15-0.47-2.23-0.45-3.4c0.01-0.89,0.16-1.77,0.36-2.64c0.07-0.26,0.13-0.51,0.19-0.75
			c0.12-0.44,0.24-0.87,0.37-1.31c0.31-0.85,0.6-1.92,0.33-2.74c-0.13-0.38-0.66-0.64-1.43-0.87c-0.33-0.1-2.52-0.72-4.44-1.46
			c-1-0.27-1.49,0.66-1.84,1.51c-0.6,1.47-2.01,4.57-2,5.84c0,0.45,0.16,0.47,0.27,0.8c0.45,1.28,0.72,2.11,0.42,3.43
			c-0.53,2.31,1.5,4.15,2.75,5.89c0.12,0.16,1.3,1.67,2.12,1.9c0.82,0.23,1.74-0.82,2.02-1.28
			C475.39,288.72,475.96,286.46,475.91,285.1z"/>
	</g>
	<path class="st14" d="M474.73,275.8c0.45,0.18,0.73-0.52,0.28-0.69c-0.97-0.39-1.96-0.66-2.99-0.83c-0.47-0.08-0.56,0.66-0.09,0.74
		C472.89,275.17,473.82,275.43,474.73,275.8z M474.61,277.08c-0.99-0.32-2-0.53-3.04-0.64c-0.48-0.05-0.52,0.7-0.04,0.75
		c0.97,0.1,1.91,0.3,2.84,0.6C474.84,277.94,475.07,277.23,474.61,277.08z M474.43,279.47c-0.93-0.27-1.87-0.51-2.82-0.72
		c-0.47-0.1-0.71,0.61-0.23,0.71c0.95,0.21,1.88,0.45,2.82,0.72C474.66,280.32,474.89,279.61,474.43,279.47z"/>
	<path class="st9" d="M403.12,145.91H367.8v4.04h35.31c0.85,0,1.54-0.69,1.54-1.54v-0.95C404.66,146.6,403.97,145.91,403.12,145.91z
		"/>
	<path class="st9" d="M379.4,152.89c-1.15-2.02-1.06-1.53-3.22-3.07c-1.49-1.06-4.88,0.15-5.07-1.59c-0.03-1.28,0.23-3.36,0.06-4.64
		c-0.04-0.32-0.48-0.45-0.67-0.18c-0.75,1.03-1.21,4.14-1.27,4.25c-0.31-1.55-0.34-3.15-0.73-4.7c-0.09-0.36-0.55-0.45-0.72-0.09
		c-0.84,1.71-0.91,3.35-0.48,4.88c-0.17-0.37-0.84-3.9-1.92-4.86c-0.27-0.24-0.61,0.05-0.6,0.35c0.06,2.09,0.43,4.17,1.51,6
		c0.16,0.28,0.33,0.53,0.49,0.78c-0.65-0.35-1.26-0.74-1.5-1.52c-0.15-0.49-0.13-2.48-1.1-2.19c-0.16,0-0.33,0.07-0.35,0.26
		c-0.23,1.58-0.52,2.87,0.72,4.06c1.21,1.17,7.94,3.56,10.06,4.07C375.03,154.79,379.57,153.19,379.4,152.89z"/>
	<path class="st9" d="M394.59,140.94c1.8-1.06,3.77-1.85,5.88-1.91c2.55-0.07,4.3,0.46,4.81,0.72c3.48,1.72,7.24,5.57,8.99,7.28
		c0.31,0.31,0.23,0.66,0,0.9c-0.05,0.32-0.25,0.61-0.59,0.62c-2.32,0.1-4.99-0.43-7.44-1.45c-1.68-0.7-2.47-4.21-4.04-3.45
		c-1.1,0.65-2.73,1.98-3.9,2.51c-0.29,0.13-0.63-0.17-0.51-0.47c0.48-1.18,2.86-3.22,2.92-3.33c-1.48,0.56-2.86,1.39-4.37,1.88
		c-0.36,0.12-0.67-0.23-0.46-0.56c1.01-1.62,2.35-2.55,3.88-3c-0.4,0.05-3.75,1.36-5.14,0.95
		C394.27,141.53,394.34,141.09,394.59,140.94z"/>
	<path class="st19" d="M413.69,142.1c-0.8-0.08-2.03-0.42-2.62,0.3c-0.68,0.84-0.93,2.46-1.21,3.49c-0.25,0.93-0.85,2.36-0.58,3.32
		c0.27,0.97,1.65,0.86,2.45,0.88c0.53,0.02,0.8-0.49,0.73-0.95c-0.04-0.22-0.05-0.44-0.06-0.66c0.37-1.5,0.66-3,0.91-4.51
		c0-0.02,0.01-0.04,0.01-0.07c0.02-0.12,0.04-0.23,0.06-0.35c0.11,0.02,0.22,0.04,0.31,0.04
		C414.65,143.68,414.63,142.19,413.69,142.1z"/>
	<g>
		<path class="st6" d="M435.7,144.64c-0.17-6.42-0.75-12.83-1.68-19.19c-0.79-5.37-1.3-11.94-6.12-17.41
			c-2.2-2.5-5.03,1.37-3.04,4.12c1.57,2.17,2.34,4.72,2.87,7.33c-0.17,0.33-0.27,0.71-0.3,1.16c-0.08,1.46-0.16,2.92-0.24,4.38
			c-1.51-0.53-3.35,0.2-3.37,2.37c-0.06,5.17-0.52,10.27-1.4,15.34c-1.26-0.24-2.52-0.26-3.8-0.05c-0.78-0.35-1.55-0.72-2.32-1.11
			c-1.4-0.72-3.52-0.19-3.87,1.57c-0.42,2.11-0.84,4.23-1.26,6.34c-0.26,1.3,0.36,2.97,1.84,3.24c3.27,0.59,6.55,1.17,9.82,1.76
			c2.6,0.47,5.62,1.46,8.3,1.22C436.79,155.2,435.81,148.72,435.7,144.64z"/>
	</g>
	<g>
		<path class="st20" d="M424.6,138.88c-1.1-4.68-2.27-9.35-3.29-14.05c-1.11-5.13-0.53-10.01,3.08-14.04
			c0.32-0.35-0.2-0.88-0.52-0.52c-3.12,3.45-4.36,7.85-3.71,12.44c0.78,5.5,2.45,10.97,3.72,16.38
			C423.99,139.55,424.71,139.35,424.6,138.88z"/>
	</g>
	<g>
		<path class="st20" d="M426.39,141.24c-0.36-0.3-0.89,0.22-0.53,0.53c1.08,0.91,1.7,2.15,1.75,3.56c0.02,0.48,0.76,0.48,0.75,0
			C428.32,143.73,427.62,142.27,426.39,141.24z"/>
	</g>
	<path class="st9" d="M410.27,98.65c-0.2-0.75-0.27-1.72-1.17-1.82c-0.67-0.07-1.7,0.46-2.34,0.62c-0.97,0.25-1.95,0.46-2.93,0.65
		c-0.63,0.12-1.08,0.14-1.35,0.42c-0.02-0.02-0.03-0.03-0.04-0.05c-0.36-0.28-1.29-0.28-1.73-0.37c-0.7-0.13-1.69-0.51-2.4-0.45
		c-0.73,0.06-0.76,0.69-0.89,1.38c-0.05,0.26,0.14,0.43,0.34,0.46c-0.06,0.93,0.07,2.06,0.61,2.5c0.05,0.29,0.12,0.57,0.24,0.83
		c0.11,0.23,0.34,0.23,0.51,0.11c0.14,0.12,0.37,0.14,0.51-0.02c0.1,0.1,0.26,0.13,0.39,0.09c0.06,0.04,0.12,0.05,0.19,0.06
		c-0.01,0.04,0,0.07,0,0.11c-0.19-0.01-0.4,0.1-0.41,0.35c-0.01,0.24-0.02,0.48-0.03,0.73c-0.01,0.36,0.55,0.54,0.7,0.19
		c0.16-0.36,0.33-0.71,0.49-1.07c0.03,0.39,0.58,0.53,0.72,0.1c0.1-0.31,0.21-0.61,0.31-0.92c0,0.23-0.01,0.47-0.03,0.73
		c-0.03,0.47,0.68,0.48,0.75,0.03c0.11,0.47,0.23,0.94,0.37,1.41c0.14,0.47,0.83,0.27,0.73-0.2c-0.09-0.44-0.17-0.88-0.25-1.32
		c0.02-0.01,0.04-0.01,0.07-0.02c0.38-0.18,0.76-0.34,1.13-0.51c0.06,0.2,0.29,0.36,0.55,0.25c0.49-0.22,0.99-0.43,1.49-0.64
		c-0.04,0.26,0.22,0.52,0.55,0.38c0.17-0.08,0.35-0.15,0.52-0.23c-0.04,0.29,0.23,0.6,0.54,0.39c0.64-0.42,1.3-0.94,1.4-1.74
		c0.08-0.07,0.14-0.16,0.15-0.28c0.05-0.41,0.11-0.82,0.16-1.23c0.01-0.1-0.02-0.18-0.07-0.24c0-0.08,0.01-0.15,0.01-0.23
		C410.21,99.01,410.33,98.86,410.27,98.65z"/>
	<g>
		<path class="st7" d="M402.63,100.24c-0.24-0.25-0.67-0.13-0.8,0.1c-0.35,0.61-1.7,2.69-1.66,3.11c0.05,0.54,0.81,1.01,1.17,1.35
			c0.08,0.08,0.17,0.17,0.25,0.26c-1.43,4.32-3.15,8.59-4.06,13.03c0.07,1.19,0.15,2.39,0.22,3.58c0.11-1.18,0.29-2.35,0.53-3.5
			c-0.08,2.02-0.01,4.05,0.03,6.07c0.06,2.94-0.28,3.62,0.45,6.48c0.08,0.33,0.42,0.17,0.67,0.21c0.01,0.03,0.03,0.97,0.04,1
			c0.29,0.56,0.21,1.55,1.13-0.29c1.17-2.33,1.21-3.17,1.64-5.74c0.17-0.12,0.3-0.31,0.31-0.58c0.04-0.73,0.08-1.47,0.13-2.2
			c0.03-0.22,0.07-0.45,0.1-0.67c0.2,0.15,0.59,0.05,0.63-0.29c0.62-5.37,0.2-10.76-0.36-16.12c0-0.09,0-0.17-0.03-0.24
			c-0.02-0.23-0.05-0.47-0.07-0.7c0.28-0.23,0.54-0.51,0.76-0.7c0.32-0.27,0.97-0.6,1.01-1.07
			C404.79,102.83,403.16,100.79,402.63,100.24z"/>
	</g>
	<g>
		<path class="st20" d="M423.74,140.45c-0.86,0.98-2.74,1.15-3.94,1.28c-1.38,0.16-2.74,0.12-4.12-0.07
			c-0.47-0.06-0.67,0.65-0.2,0.72c1.59,0.22,3.18,0.26,4.77,0.05c1.35-0.18,3.08-0.37,4.02-1.46
			C424.58,140.62,424.06,140.09,423.74,140.45z"/>
	</g>
	<g>
		<path class="st20" d="M415.77,100.93c-3.24-1.45-5.84-2.47-5.86-2.48c-0.17-0.08-1.76,2.79-2.82,7.23
			c-1.41,5.93-5.76,20.93-7.4,27.62c0.07-0.07,0.13-0.15,0.19-0.24c3.48-6.04,6.87-12.14,10.22-18.25c0.88-1.61,3-4.17,2.95-6.1
			c-0.03-1.31-1.17-2.72-2.22-3.95c1.33-0.56,2.64-1.17,3.86-1.87C415.58,102.37,415.83,101.68,415.77,100.93z"/>
	</g>
	<g>
		<path class="st20" d="M397.35,98.88c-2.16,0.86-4.03,1.57-5.78,2.29c0.68,1.07,1.48,2.03,2.6,2.71c0.15,0.09,0.31,0.17,0.47,0.25
			c-1,1.31-1.95,2.75-2.25,4.27c-0.39,1.95,0.36,4.39,0.69,6.26c1.1,6.16,4.61,12.72,6.62,18.65
			C399.53,129.61,398.46,98.44,397.35,98.88z M399.69,133.31c0.07,0.22,0.11-0.02,0.12-0.59
			C399.76,132.93,399.72,133.13,399.69,133.31z"/>
	</g>
	<g>
		<path class="st7" d="M466.1,65.02c-0.55-1.13-1.75-2.82-2.83-3.52c-2.35-1.53-5.61-0.71-8.22-1.4c-2.11-0.56-4.17-1.44-6.39-0.85
			c-2.12,0.57-3.25,2.39-4.89,3.71c-1.1,0.89-2.79,1.81-2.27,3.58c0.23,0.79,0.74,1.19,1.36,1.32c0.12,0.17,0.3,0.31,0.57,0.37
			c3.52,0.87,8.68-0.17,10.18,3.8c0.37,0.97,0.14,1.95,0.77,2.88c0.89,1.32,2.39,1.97,3.28,3.38c0.8,1.28,1.38,3.16,3.36,2.66
			c2.07-0.53,3.01-4.13,3.46-5.82c0.35-1.31,0.55-2.6,0.56-3.81c0.01-0.96,0.37-1.86,0.88-2.67
			C466.56,67.63,466.7,66.26,466.1,65.02z"/>
	</g>
	<path class="st9" d="M458.62,77.89c-0.31-1.01-1.11-1.84-2.2-1.96c-1.2-0.14-1.93,0.63-2.63,1.48c-1.1,1.32,0.63,2.73,1.92,2.11
		c-0.01,0.24,0.01,0.5-0.04,0.68c-0.22,0.93-0.71,1.71-1.32,2.42c-1.27,1.47,1.18,3.19,2.45,1.75
		C458.25,82.74,459.29,80.08,458.62,77.89z"/>
	<g>
		<path class="st7" d="M496.41,217.95c-0.84-11.03-4.51-49.55-8.63-61.56c-0.77-2.25-4.42-10.15-4.35-7.75
			c0.03,1.12,0.12,2.23,0.26,3.34c-5.17,0.71-10.21,1.85-15.15,3.46c-0.02-0.39-0.04-0.78-0.06-1.16c-0.1-1.84-2.1-2.14-3.14-1.18
			c0-0.1-0.01-0.21-0.01-0.31c-0.09-2.06-3.55-2.45-3.72-0.29c0,0.03,0,0.07-0.01,0.1c-0.29-0.18-0.63-0.29-0.98-0.32
			c-0.05-2.08-3.38-2.36-3.71-0.26c-0.23,1.49-0.45,2.97-0.64,4.46c-0.75-0.3-1.65-0.15-2.14,0.59c-0.2,0.02-0.41,0.08-0.6,0.16
			c-0.02-0.17-0.05-0.34-0.08-0.51c-0.41-2.31-2.68-3.34-2.28-0.97c0.91,5.49-0.6,11.46-0.5,16.95c0.08,4,2.3,70.28,3.33,99.24
			c0.15,4.35-0.96,10.69,4.96,10.8c5.43,0.1,9.46-0.46,10.16-6.35c1.69-14.35-0.37-28.38,0.77-42.78
			c1.04-13.13,2.13-29.52,2.61-40.54c0.33,2.7,0.76,5.18,1.34,6.95c1.45,4.43,5.78,35.08,9.67,57.81
			c1.39-10.43,4.82-20.5,10.63-29.61c0.77-1.21,0.31,0.2,1.44,0.02C495.53,227.82,496.44,218.34,496.41,217.95z M481.85,157.1
			c-0.07-0.11-0.14-0.24-0.22-0.37c-0.15-0.25-0.32-0.43-0.51-0.58c0.31-0.05,0.62-0.11,0.93-0.16c0.01,0.07,0.01,0.13,0.02,0.2
			C481.95,156.45,481.87,156.75,481.85,157.1z"/>
	</g>
	<g>
		<path class="st1" d="M488.81,103.06c-4.83-5.54-12.71-8.38-19.76-11.33c-0.59-1.05-1.39-1.9-2.48-1.93
			c-0.88-0.03-5.11,3.51-5.91,4.41c-1.08-0.51-2.43-0.7-3.44-0.74c-0.66-0.03-1.46-0.05-1.9,0.53c-0.3,0.4-0.44,1.04-0.54,1.67
			c-8.02,4.32-16.31,10.15-17.04,18.86c-0.18,2.14,3.56,2.12,3.75,0c0.01-0.1,0.03-0.2,0.04-0.3c0.53,0.35,1.28,0.44,1.94,0.21
			c-0.22,1.66-0.22,3.55,0.55,4.89c-0.04,0.15-0.06,0.32-0.03,0.5c1.37,9.53,2.9,19.05,4.48,28.56c0.49,2.94,0.18,8.18,3.21,10.19
			c3.24,2.14,9.31,0.39,12.89,0.03c5.39-0.53,13.5-0.87,18.86-1.59c3.3-0.44,4.38-0.3,5.15-3.23c1.14-4.35-0.18-10.45,0.36-14.89
			c0.58-4.77,0.26-10.14,2.57-14.57c0.31-0.26,0.53-0.61,0.59-1.07C492.95,116.53,493.76,108.75,488.81,103.06z"/>
	</g>
	<g>
		<path class="st7" d="M495.6,209.36c-0.02-1.92-1.27,1.73-1.54,3.68c-0.25,1.81-0.48,3.62-0.71,5.43c-0.2,0.7-0.39,1.4-0.59,2.09
			c-0.09-1.29-1.76-1.92-2.6-0.94c0.29-1.05,0.58-2.09,0.86-3.14c0.46-1.69-1.64-2.66-2.59-1.46c0.13-0.53,0.26-1.07,0.4-1.6
			c0.4-1.62-1.56-2.81-2.65-1.38c-0.13,0.16-0.24,0.34-0.36,0.51c-0.65-0.06-1.34,0.22-1.59,0.93c-0.91,2.63-1.72,5.27-2.45,7.94
			c0.69-3.49,1.3-6.99,1.78-10.52c0.26-1.9-2.69-2.12-2.96-0.24c-1.82,12.68-5.16,25.02-7.88,37.52c-1.25,5.73-2.36,11.5-3.06,17.32
			c-0.25,2.09-0.74,4.39-0.19,6.48c0.7,2.64,5.38,4.41,7.03,4.89c2.5,0.71,2.29-0.91,3.37-2.94c1.84-3.48,15.82-36.05,16.83-44.56
			C497.5,222.57,495.67,215.68,495.6,209.36z"/>
	</g>
	<g>
		<path class="st21" d="M447.77,182.19c-0.3-0.25-0.61-0.09-0.87,0.12c-0.13,0.1-0.24,0.22-0.35,0.33c0.05-0.28,0.08-0.56,0.08-0.85
			c0-0.38-0.5-0.5-0.7-0.19c-0.31,0.48-0.59,0.98-0.84,1.5c0.21-0.71,0.5-1.64,0.36-2.37c-0.03-0.17-0.21-0.26-0.36-0.27
			c-0.62-0.04-0.85,0.76-1.04,1.22c-0.01,0.02-0.02,0.05-0.03,0.08c0-0.32-0.07-0.61-0.26-0.8c-0.09-0.09-0.55-0.35-0.9,0.06
			c-0.37,0.43-2.24,5.32-0.59,5.04c0.29-0.05,0.54-0.38,0.74-0.78c0.02,0.21,0.1,0.4,0.28,0.52c0.26,0.18,0.55,0.14,0.81,0.01
			c0.1,0.08,0.25,0.11,0.39,0.01c0.34-0.24,0.65-0.52,0.92-0.82c0.19,0.16,0.44,0.2,0.67,0.08c0.36-0.19,0.68-0.62,0.94-0.92
			c0.29-0.34,0.61-0.72,0.82-1.12C447.99,182.77,448.04,182.42,447.77,182.19z"/>
	</g>
	<path class="st22" d="M445.43,126.4c0.12-2.81,0.68-5.57,1.23-8.32c0.09-0.47-0.62-0.67-0.72-0.2c-1.07,5.24-1.68,10.12-0.54,15.4
		c1.11,5.19,0.2,10.66,1.89,15.72c0.15,0.46,0.88,0.26,0.72-0.2c-1.56-4.68-0.73-9.65-1.62-14.44"/>
	<g>
		<path class="st1" d="M497.65,136.31c-0.42-4.11-1.53-8.22-2.33-12.27c-0.82-4.15-1.4-8.45-2.51-12.53
			c-0.63-2.3-1.6-4.26-3.81-5.36c-1.29-0.64-2.44,1.3-1.14,1.95c1.46,0.73,2.4,2.34,3.04,4.26c-1.37-0.76-3.48-0.06-3.42,1.89
			c0.08,2.22,0.62,4.46,1.22,6.69c-0.14,0.01-0.28,0.03-0.42,0.06c-0.04-0.11-0.07-0.22-0.11-0.33c-0.72-1.94-2.92-2.1-4.13-0.54
			c-0.03,0.04-0.05,0.07-0.08,0.11c-1.41-0.7-3.41-0.1-3.18,1.85c0.1,0.88,0.14,1.76,0.18,2.64c-0.21,0.37-0.42,0.73-0.63,1.11
			c-0.09-0.07-0.17-0.14-0.27-0.21c-1.54-1.06-3.35-1.02-4.98-0.39c-1.05-0.27-2.14-0.09-3.2,0.99c-1,1.03-1.41,2.03-1.39,2.98
			c-0.38,0.07-0.76,0.15-1.14,0.24c-1.77,0.45-2.01,2.5-1.03,3.66c0.06,0.06,0.12,0.12,0.17,0.18c0.23,0.22,0.51,0.4,0.85,0.51
			c0.96,0.31,1.91,0.61,2.87,0.92c0.17,0.32,0.4,0.61,0.7,0.83c0.05,0.04,0.1,0.07,0.15,0.1c-1.15-0.34-2.35-0.7-3.46-1.03
			c0.21,0.31,0.41,0.62,0.56,0.95c0.04,0.08,0.08,0.17,0.12,0.25c0.63,0.37,1.13,0.92,1.48,1.56c1.88,0.59,3.74,1.24,5.61,1.91
			c3.6,1.28,7.22,2.57,10.98,3.29c2.16,0.42,5.43,1.35,7.4,0.02C497.73,141.27,497.87,138.4,497.65,136.31z"/>
	</g>
	<g>
		<path class="st5" d="M473.01,130.04c-0.47-0.48-0.96-0.92-1.46-1.35c0.03-0.2-0.04-0.43-0.21-0.56c-0.68-0.49-5.61-3.27-7.52-3.96
			c-1.93-1.2-3.89-2.36-5.87-3.47c-0.73-0.41-1.66-0.34-2.46-0.58c-0.94-0.28-2.85-1.4-2.99-1.54c-1.56-1.6-3.13-3.19-4.69-4.78
			c-0.32-0.33-1.02,0.01-0.83,0.48c0.86,2.16,2.47,3.74,4.09,5.36c0.39,0.39,0.78,0.77,1.18,1.13c-0.01,0.12-0.02,0.24-0.01,0.36
			c-0.09,0.99-0.23,2.61,0.77,3.06c0.17,0.07,1.04,0.36,1.55,0.45c0.93,1.38,1.88,2.83,3.65,3.07c0.85,0.11,1.74,0.07,2.6-0.11
			c2.7,1.29,5.4,2.58,8.11,3.87c0.58,0.28,1.04-0.5,0.5-0.86c-0.07-0.05-0.13-0.09-0.2-0.13c0.34,0.19,0.68,0.39,1.02,0.58
			c0.42,0.24,0.77-0.14,0.71-0.51c0.19,0.13,0.39,0.25,0.58,0.38c0.3,0.21,0.59,0.02,0.69-0.26c0.03,0.03,0.06,0.06,0.09,0.09
			C472.76,131.2,473.46,130.49,473.01,130.04z"/>
	</g>
	<g>
		<path class="st1" d="M476.4,126.74c-0.56-0.89-1.5-1.08-2.31-0.74c-0.06-0.96-0.81-1.88-1.86-1.82c-0.16,0.01-0.3,0.04-0.45,0.07
			c0.03-0.12,0.07-0.24,0.1-0.36c0.34-1.25-0.75-2.29-1.83-2.39c-0.89-0.77-2.65-0.7-3.21,0.78c-1.2,3.13-2.06,6.33-2.62,9.64
			c-0.19,1.15,0.74,2.19,1.73,2.39c0.54,0.98,1.84,1,2.73,0.41c0.41,0.72,1.23,1.18,2.11,0.89c0.14-0.05,0.27-0.1,0.39-0.16
			c-0.27,2.12,3.06,2.93,3.69,0.7c0.55-1.97,1.15-3.94,1.65-5.93C476.85,128.9,477.15,127.94,476.4,126.74z"/>
	</g>
	<g class="st23">
		<path class="st5" d="M488.73,128.64c-1.58-0.35-2.53-1.86-4.19-2.01c-0.08-0.01-0.16,0-0.24,0c-1.53-7.35-4.88-17.31,1.35-23.32
			c0.34-0.33-0.18-0.85-0.52-0.52c-6.45,6.18-3.17,16.31-1.58,23.91c-0.44,0.08-0.86,0.21-1.28,0.33c-1.63,0.48-2.91,0.66-4.5-0.18
			c-1.69-0.89-3.03-2.33-4.92-2.85c-2.15-0.59-3.86,1.12-5.98,0.29c-0.45-0.17-0.64,0.54-0.2,0.72c0.65,0.26,1.32,0.53,2.04,0.48
			c1.35-0.1,2.15-1.05,3.64-0.85c2.23,0.31,3.85,2.48,5.9,3.27c1.6,0.62,2.91,0.21,4.48-0.24c1.44-0.42,2.51-0.21,3.7,0.64
			c0.69,0.49,1.26,0.88,2.09,1.06C489,129.46,489.2,128.74,488.73,128.64z"/>
	</g>
	<g class="st23">
		<path class="st5" d="M490.08,127.84c-0.35-0.33-0.87,0.19-0.52,0.52c1.04,1,1.59,2.29,1.59,3.73c0,0.48,0.75,0.48,0.75,0
			C491.9,130.47,491.26,128.96,490.08,127.84z"/>
	</g>
	<path class="st14" d="M456.51,164.2c0.5,0.02,1,0.03,1.5,0.03c0.05-1.27,0.11-2.54,0.21-3.8c-0.5,0-0.99-0.01-1.49-0.03
		C456.63,161.66,456.56,162.93,456.51,164.2z"/>
	<path class="st9" d="M351.78,144.34c-0.53-1.26-2.24-1.36-3.4-1.4c-1.84-0.06-3.66,0.28-5.5,0.37c-0.68-0.34-1.34-0.77-2-1.35
		c-1.26-1.1-2.35-2.16-3.93-2.76c-0.35-0.13-0.65,0.15-0.57,0.5c0.39,1.81,2.85,3.93,4.39,4.77c1.97,1.07,8.98,2.16,9.7,2.01
		C351.5,146.27,352.21,145.37,351.78,144.34z"/>
	<path class="st19" d="M352.6,147.87c0.34-0.84,0.25-2.11,0.25-2.99c0-1.25,0.03-2.51-0.07-3.75c-0.06-0.71-0.05-1.12-0.7-1.07
		c-0.63,0.05-1.58,0.03-2.06,0.55c-0.53,0.57-0.55,1.87-0.64,2.57c-0.13,1.02-0.17,2.06-0.14,3.09c0.02,0.62-0.1,1.63,0.38,2.12
		c0.22,0.23,0.59,0.41,0.99,0.37C352.42,148.59,352.43,148.31,352.6,147.87z"/>
	<path class="st9" d="M335.13,142.41l-31.84-5.32c-2.22-0.37-3.71-2.47-3.34-4.68l3.78-22.63c0.37-2.22,2.47-3.71,4.68-3.34
		l31.84,5.32c2.22,0.37,3.71,2.47,3.34,4.68l-3.78,22.63C339.45,141.28,337.35,142.78,335.13,142.41z"/>
	<path class="st9" d="M344.72,139.94l-34.83-5.81l-0.67,3.99l34.83,5.81c0.84,0.14,1.64-0.43,1.78-1.27l0.16-0.94
		C346.13,140.88,345.56,140.08,344.72,139.94z"/>
	<path class="st9" d="M316.72,142.84c1.21-0.3,3.63-0.97,1.99-3.05c-1.13-1.43-4.12-0.18-3.81-1.89c0.33-1.23,1.16-3.16,1.36-4.43
		c0.05-0.32-0.33-0.56-0.6-0.36c-1,0.78-2.32,3.63-2.41,3.72c0.14-1.57,0.56-3.12,0.62-4.71c0.01-0.37-0.4-0.58-0.67-0.29
		c-1.29,1.41-1.81,2.96-1.83,4.55c-0.06-0.4,0.29-3.98-0.48-5.21c-0.19-0.3-0.6-0.12-0.68,0.16c-0.53,2.02-0.76,4.13-0.24,6.18
		c0.08,0.31,0.16,0.6,0.25,0.88c-0.53-0.52-1-1.07-1.01-1.88c-0.01-0.51,0.55-3.93-0.45-4.09c-0.16-0.03-0.33-0.02-0.41,0.15
		c-0.66,1.46-1.29,4.28-0.44,5.78c0.83,1.46,3.55,3.89,5.3,4.34C313.65,142.8,315.16,143.23,316.72,142.84z"/>
	<g>
		<path class="st17" d="M345.38,121.46c0-0.48-0.74-0.48-0.74,0c-0.03,5.74,0.15,11.48,0.49,17.21c0.03,0.48,0.78,0.48,0.75,0
			C345.55,132.94,345.4,127.2,345.38,121.46z"/>
	</g>
	<path class="st14" d="M353.53,62.55c-1.3-0.65-3.11-0.62-4.63-0.26c-1.55,0.37-1.4,0.89-1.45,1.33c-0.82-0.3-1.69-0.38-2.55-0.22
		c0-0.47,0.02-1.1-1.33-1.55c-1.48-0.5-3.27-0.72-4.62-0.2c-1.91,0.73-1.73,3.03-0.73,4.5c0.84,1.24,3.6,1.65,4.94,1.23
		c1.21-0.38,1.64-1.79,1.71-3.09c0-0.04,0-0.08,0.01-0.13c0.86-0.17,1.68-0.1,2.5,0.23c0,0.07-0.01,0.14-0.01,0.19
		c-0.06,1.3,0.24,2.75,1.4,3.25c1.29,0.55,4.08,0.42,5.04-0.74C354.95,65.74,355.36,63.46,353.53,62.55z M342.32,66.74
		c-1.17,0.1-3.05-0.22-3.63-1.3c-0.15-0.38-0.32-0.75-0.37-1.16c-0.12-1,0.21-1.35,0.61-1.79c0.48-0.42,1.49-0.32,2.09-0.31
		c1.09,0.03,2.11,0.23,3.08,0.73c0,0.03-0.01,0.05,0,0.08C344.3,64.42,344.1,66.59,342.32,66.74z M353.91,65.22
		c-0.09,0.4-0.3,0.75-0.48,1.12c-0.69,1.02-2.59,1.16-3.74,0.94c-1.76-0.33-1.75-2.51-1.39-3.91c0.01-0.03,0.89-0.37,1.35-0.44
		c0.58-0.09,1.18-0.1,1.79-0.06c0.6,0.04,1.61,0.05,2.05,0.51C353.84,63.86,354.13,64.24,353.91,65.22z"/>
	<g>
		<path class="st6" d="M357.8,52.96c-0.42-2-1.52-3.01-3.08-3.21c-0.89-3.04-3.63-4-6.65-3.69c-3.41,0.34-8.3,0-10.58,3.14
			c-1.26,1.74-1.46,4.17-2.47,6.06c-0.65,1.22-1.56,2.38-1,3.88c1.03,2.74,3.51,1.16,5.14,0.24c2.12-1.19,4.55-0.64,6.48-2
			c1.67-1.17,2.27-2.38,4.41-3.06c0.51-0.16,1.1-0.37,1.68-0.63c2.21,0.67,2.93,2.99,3.16,4.4c0.26,1.62,1.44,2.78,1.74,4.35
			c0.06,0.32,0.54,0.37,0.69,0.09c0.68-1.31,0.71-2.81,0.76-4.27C358.14,56.52,358.16,54.67,357.8,52.96z"/>
	</g>
	<path class="st9" d="M358.44,64.43c-0.49-1.57-2.44-1-2.88,0.29c-0.13,0.39,0.38,0.59,0.62,0.35c-0.03,0.1-0.06,0.21-0.09,0.3
		c-0.27,0.79-0.53,1.56-0.65,2.39c-0.03,0.22,0.1,0.37,0.27,0.44c0.01,0.01,0.01,0.02,0.02,0.03c-0.05,0.06-0.09,0.11-0.13,0.16
		c-0.21,0.27-0.03,0.76,0.37,0.63C357.65,68.46,358.97,66.17,358.44,64.43z"/>
	<path class="st9" d="M337.46,64.87c-0.1-0.44-0.18-0.91-0.35-1.34c0.2,0.03,0.43-0.08,0.44-0.35c0.01-0.62-0.43-1.13-1.08-1.1
		c-0.72,0.04-1.15,0.69-1.3,1.33c-0.44,1.78,0.67,3.54,2.14,4.45c0.23,0.14,0.6-0.04,0.57-0.33
		C337.78,66.64,337.65,65.75,337.46,64.87z"/>
	<g>
		<path class="st6" d="M357.82,59.51c-0.03-0.23-0.21-0.32-0.38-0.31c0.03-0.51-0.71-0.61-0.74-0.13c-0.04,0.54-0.09,1.07-0.15,1.6
			c-0.05-0.27-0.11-0.53-0.19-0.8c-0.13-0.46-0.81-0.17-0.69,0.29c0.21,0.75,0.3,1.51,0.22,2.29c-0.05,0.49-0.28,0.99-0.27,1.48
			c0.01,0.48,0.35,0.89,0.87,0.79c0.74-0.14,0.97-1.23,1.14-1.81C357.95,61.79,357.98,60.65,357.82,59.51z"/>
	</g>
	<g>
		<path class="st6" d="M337.4,58.64c-0.01-0.08-0.03-0.14-0.08-0.2c0.14-0.41-0.46-0.74-0.66-0.33c-0.16,0.33-0.28,0.64-0.35,0.96
			c-0.17-0.27-0.69-0.21-0.69,0.19c0.01,1.25-0.1,2.57,0.06,3.8c0.05,0.43,0.22,1.12,0.75,1.18c0.63,0.07,0.73-0.76,0.81-1.21
			c0.26-1.37,0.32-2.71,0.79-4.04C338.16,58.62,337.64,58.38,337.4,58.64z"/>
	</g>
</g>
<g>
	<path class="st7" d="M116.45,141.69L116.45,141.69c-2.47,0-4.48,2-4.48,4.48v124.36c0,2.47,2,4.48,4.48,4.48h0
		c2.47,0,4.48-2,4.48-4.48V146.17C120.93,143.69,118.92,141.69,116.45,141.69z"/>
</g>
<g>
	<path class="st7" d="M96.6,166.95L96.6,166.95c-2.47,0-4.48,2-4.48,4.48v99.1c0,2.47,2,4.48,4.48,4.48h0c2.47,0,4.48-2,4.48-4.48
		v-99.1C101.08,168.95,99.08,166.95,96.6,166.95z"/>
</g>
<g>
	<path class="st7" d="M136.29,242.65L136.29,242.65c-2.47,0-4.48,2-4.48,4.48v23.4c0,2.47,2,4.48,4.48,4.48h0
		c2.47,0,4.48-2,4.48-4.48v-23.4C140.77,244.65,138.77,242.65,136.29,242.65z"/>
</g>
<g>
	<path class="st7" d="M156.14,183.79L156.14,183.79c-2.54,0-4.59,2.06-4.59,4.59v82.03c0,2.54,2.06,4.59,4.59,4.59h0
		c2.54,0,4.59-2.06,4.59-4.59v-82.03C160.73,185.84,158.68,183.79,156.14,183.79z"/>
</g>
<g>
	<path class="st7" d="M175.99,213.26L175.99,213.26c-2.47,0-4.48,2-4.48,4.48v52.79c0,2.47,2,4.48,4.48,4.48l0,0
		c2.47,0,4.48-2,4.48-4.48v-52.79C180.46,215.26,178.46,213.26,175.99,213.26z"/>
</g>
<g>
	<path class="st7" d="M195.83,242.65L195.83,242.65c-2.47,0-4.48,2-4.48,4.48v23.4c0,2.47,2,4.48,4.48,4.48h0
		c2.47,0,4.48-2,4.48-4.48v-23.4C200.31,244.65,198.3,242.65,195.83,242.65z"/>
</g>
<g>
	<path class="st7" d="M215.68,260.39L215.68,260.39c-2.47,0-4.48,2-4.48,4.48v5.66c0,2.47,2,4.48,4.48,4.48h0
		c2.47,0,4.48-2,4.48-4.48v-5.66C220.15,262.39,218.15,260.39,215.68,260.39z"/>
</g>
<g>
	<path class="st7" d="M235.52,220.27L235.52,220.27c-2.47,0-4.48,2-4.48,4.48v45.77c0,2.47,2,4.48,4.48,4.48l0,0
		c2.47,0,4.48-2,4.48-4.48v-45.77C240,222.28,238,220.27,235.52,220.27z"/>
</g>
<g>
	<g>
		<path class="st1" d="M55.72,142v2.19c-1.1,0.13-1.83,0.97-1.83,2.06c0,1.25,0.96,2.11,2.35,2.11c1.37,0,2.33-0.86,2.33-2.1
			c0-0.91-0.48-1.62-1.24-2v-2.06l7.48,0.52v7.22h-2.12v-5.34l-3.58-0.27v0.05c0.86,0.47,1.38,1.4,1.38,2.55
			c0,2.16-1.75,3.7-4.18,3.7c-2.69,0-4.52-1.78-4.52-4.38C51.78,143.82,53.4,142.06,55.72,142z"/>
	</g>
	<g>
		<path class="st1" d="M54.4,157.33v-5.63h2.22c2.11,0.99,4.33,2.22,8.17,4.54v3.34h-8.27v1.49H54.4v-1.49h-2.34v-2.25H54.4z
			 M56.46,153.76v3.61h6.44v-0.05c-2.66-1.64-4.47-2.67-6.36-3.57H56.46z"/>
	</g>
	<g>
		<path class="st1" d="M62.63,167.63h0.05v-5.76h2.12v8.09h-2.15l-10.59-4.72v-2.49L62.63,167.63z"/>
	</g>
	<g>
		<path class="st1" d="M62.36,174.2v-0.05l-2.21-2.89h2.37l2.29,2.92v2.35H52.06v-2.34H62.36z"/>
	</g>
	<g>
		<path class="st1" d="M55.51,178.93c1.68,0,2.91,1.1,3.25,2.64h0.05c0.36-1.33,1.46-2.23,2.84-2.23c1.98,0,3.43,1.73,3.43,4.18
			c0,2.45-1.44,4.17-3.43,4.17c-1.37,0-2.46-0.89-2.83-2.22h-0.05c-0.34,1.54-1.58,2.63-3.26,2.63c-2.21,0-3.73-1.89-3.73-4.59
			C51.78,180.81,53.31,178.93,55.51,178.93z M55.71,185.62c1.15,0,1.97-0.86,1.97-2.11c0-1.25-0.83-2.12-1.97-2.12
			c-1.16,0-1.99,0.87-1.99,2.12C53.72,184.76,54.55,185.62,55.71,185.62z M61.39,185.35c1.05,0,1.77-0.77,1.77-1.83
			c0-1.07-0.72-1.83-1.77-1.83c-1.04,0-1.77,0.76-1.77,1.83C59.62,184.58,60.34,185.35,61.39,185.35z"/>
	</g>
	<g>
		<path class="st1" d="M53.38,189.61c0.79,0,1.42,0.56,1.42,1.26c0,0.7-0.63,1.26-1.42,1.26c-0.79,0-1.42-0.56-1.42-1.26
			C51.96,190.16,52.59,189.61,53.38,189.61z"/>
	</g>
	<g>
		<path class="st1" d="M62.63,198.88h0.05v-5.76h2.12v8.09h-2.15l-10.59-4.72v-2.49L62.63,198.88z"/>
	</g>
	<g>
		<path class="st1" d="M49.27,200.84l4.98,0.59v2.18l-4.98-1.05V200.84z"/>
	</g>
	<g>
		<path class="st1" d="M62.63,217.1h0.05v-5.76h2.12v8.09h-2.15l-10.59-4.72v-2.49L62.63,217.1z"/>
	</g>
	<g>
		<path class="st1" d="M55.51,220.68c1.68,0,2.91,1.1,3.25,2.64h0.05c0.36-1.33,1.46-2.23,2.84-2.23c1.98,0,3.43,1.73,3.43,4.18
			c0,2.45-1.44,4.17-3.43,4.17c-1.37,0-2.46-0.89-2.83-2.22h-0.05c-0.34,1.54-1.58,2.63-3.26,2.63c-2.21,0-3.73-1.89-3.73-4.59
			C51.78,222.56,53.31,220.68,55.51,220.68z M55.71,227.38c1.15,0,1.97-0.86,1.97-2.11s-0.83-2.12-1.97-2.12
			c-1.16,0-1.99,0.87-1.99,2.12S54.55,227.38,55.71,227.38z M61.39,227.1c1.05,0,1.77-0.77,1.77-1.83c0-1.07-0.72-1.83-1.77-1.83
			c-1.04,0-1.77,0.76-1.77,1.83C59.62,226.34,60.34,227.1,61.39,227.1z"/>
	</g>
	<g>
		<path class="st1" d="M54.4,236.7v-5.63h2.22c2.11,0.99,4.33,2.22,8.17,4.54v3.34h-8.27v1.49H54.4v-1.49h-2.34v-2.25H54.4z
			 M56.46,233.13v3.61h6.44v-0.05c-2.66-1.64-4.47-2.67-6.36-3.57H56.46z"/>
	</g>
	<g>
		<path class="st1" d="M55.72,241.81V244c-1.1,0.13-1.83,0.97-1.83,2.06c0,1.25,0.96,2.11,2.35,2.11c1.37,0,2.33-0.86,2.33-2.1
			c0-0.91-0.48-1.62-1.24-2V242l7.48,0.52v7.22h-2.12v-5.34l-3.58-0.27v0.05c0.86,0.47,1.38,1.4,1.38,2.55c0,2.16-1.75,3.7-4.18,3.7
			c-2.69,0-4.52-1.78-4.52-4.38C51.78,243.63,53.4,241.87,55.72,241.81z"/>
	</g>
	<g>
		<path class="st1" d="M55.29,251.7v2.34c-0.91,0.25-1.39,0.95-1.39,1.9c0,1.7,1.85,2.46,4.59,2.45v-0.05
			c-1.24-0.41-2.07-1.53-2.07-3.01c0-2.1,1.68-3.76,4.16-3.76c2.64,0,4.52,1.83,4.52,4.36c0,2.49-1.9,4.72-6.55,4.72
			c-4.22,0-6.76-1.78-6.76-4.72C51.78,253.7,53.22,251.99,55.29,251.7z M60.63,258.03c1.32,0,2.33-0.92,2.33-2.08
			c0-1.17-1-2.09-2.29-2.09c-1.33,0-2.29,0.88-2.29,2.06C58.39,257.12,59.33,258.03,60.63,258.03z"/>
	</g>
	<g>
		<path class="st1" d="M53.38,261.88c0.79,0,1.42,0.56,1.42,1.26c0,0.7-0.63,1.26-1.42,1.26c-0.79,0-1.42-0.56-1.42-1.26
			C51.96,262.44,52.59,261.88,53.38,261.88z"/>
	</g>
	<g>
		<path class="st1" d="M59.57,268.76v1.26c0,1.18,0.72,1.95,1.77,1.95s1.7-0.64,1.7-1.76c0-1.11-0.67-1.89-1.77-1.96v-2.17
			c2.33,0.12,3.82,1.76,3.82,4.13c0,2.39-1.33,4.01-3.37,4.01c-1.62,0-2.67-1.03-2.98-2.36h-0.05c-0.18,1.68-1.3,2.78-3.05,2.78
			c-2.31,0-3.85-1.78-3.85-4.41c0-2.56,1.55-4.3,3.89-4.4v2.26c-1.04,0.08-1.75,0.89-1.75,2.14c0,1.18,0.74,2,1.82,2
			c1.24,0.01,1.92-0.8,1.92-2.17v-1.29H59.57z"/>
	</g>
</g>
</svg>
