<?xml version="1.0" encoding="utf-8"?>
<!-- Generator: Adobe Illustrator 23.0.1, SVG Export Plug-In . SVG Version: 6.00 Build 0)  -->
<svg version="1.1" id="Layer_1" xmlns="http://www.w3.org/2000/svg" xmlns:xlink="http://www.w3.org/1999/xlink" x="0px" y="0px"
	 viewBox="0 0 586 327" style="enable-background:new 0 0 586 327;" xml:space="preserve">
<style type="text/css">
	.st0{opacity:0.1;}
	.st1{fill:#0093FD;}
	.st2{opacity:0.08;}
	.st3{fill:#F5F5F5;}
	.st4{fill:#F4F3EE;}
	.st5{fill:#E6E6E6;}
	.st6{fill:#FFD931;}
	.st7{fill:#1F263A;}
	.st8{fill:#284F4C;}
	.st9{fill:#FFFFFF;}
	.st10{fill:#B3B3B3;}
	.st11{fill:#2992FA;}
	.st12{fill:#27374D;}
	.st13{fill:#DE614B;}
	.st14{fill:#2C294C;}
	.st15{fill:#EAEAEA;}
	.st16{fill:#D6D6D6;}
	.st17{fill:#223359;}
	.st18{fill:#FCD846;}
	.st19{fill:#DADAEA;}
	.st20{fill:#E8BC05;}
	.st21{fill:#CECECE;}
	.st22{opacity:0.4;fill:#E6E6E6;}
	.st23{opacity:0.4;}
	.st24{fill:#2A2BEE;}
	.st25{fill:url(#SVGID_1_);}
	.st26{fill:url(#SVGID_2_);}
	.st27{fill:none;stroke:#2A2BEE;stroke-width:8;stroke-miterlimit:10;}
	.st28{fill:none;stroke:url(#SVGID_3_);stroke-width:8;stroke-miterlimit:10;}
	.st29{fill:none;stroke:url(#SVGID_4_);stroke-width:7;stroke-miterlimit:10;}
	.st30{fill:url(#SVGID_5_);}
	.st31{fill:url(#SVGID_6_);}
	.st32{fill:url(#SVGID_7_);}
	.st33{fill:url(#SVGID_8_);}
	.st34{fill:url(#SVGID_9_);}
	.st35{fill:url(#SVGID_10_);}
	.st36{fill:url(#SVGID_11_);}
	.st37{fill:url(#SVGID_12_);}
	.st38{fill:url(#SVGID_13_);}
	.st39{fill:url(#SVGID_14_);}
	.st40{fill:url(#SVGID_15_);}
	.st41{fill:url(#SVGID_16_);}
	.st42{fill:url(#SVGID_17_);}
	.st43{fill:url(#SVGID_18_);}
	.st44{fill:url(#SVGID_19_);}
	.st45{fill:url(#SVGID_20_);}
	.st46{fill:#F9FBFF;}
	.st47{fill:#EDF5FC;}
	.st48{fill:none;stroke:#2A2BEE;stroke-width:3;stroke-miterlimit:10;}
	.st49{fill:url(#SVGID_21_);}
	.st50{fill:url(#SVGID_22_);}
	.st51{fill:url(#SVGID_23_);}
	.st52{fill:url(#SVGID_24_);}
	.st53{fill:url(#SVGID_25_);}
	.st54{fill:#DBDBDB;}
	.st55{fill:#AF9279;}
	.st56{fill:#F7DABC;}
	.st57{fill:#027FCC;}
	.st58{fill:#747489;}
	.st59{fill:#E2B705;}
	.st60{fill:#263556;}
	.st61{fill:#E0E0E0;}
	.st62{fill:#C4C4C4;}
	.st63{fill:#006EB2;}
	.st64{fill:#B8B8C9;}
	.st65{fill:#9393AB;}
	.st66{fill:#E5B900;}
	.st67{fill:#5578A3;}
	.st68{opacity:0.3;fill:#DADAEA;}
	.st69{fill:#C6C6C6;}
	.st70{fill:#0469BC;}
	.st71{opacity:0.2;}
	.st72{fill:#C1C1C1;}
	.st73{fill:#F2F2F2;}
	.st74{opacity:0.51;fill:#E6E1FF;}
	.st75{fill:#709FE0;}
	.st76{fill:#5183BF;}
	.st77{fill:#D1D1D1;}
	.st78{fill:#D6AE05;}
	.st79{fill:#DCDAE0;}
	.st80{fill:#F3F3F5;}
	.st81{fill:#D9924E;}
	.st82{fill:#C2C2ED;}
	.st83{fill:#636375;}
	.st84{fill:#543237;}
	.st85{fill:#3F3E66;}
	.st86{fill:#585866;}
	.st87{fill:#A04B40;}
	.st88{fill:#B7743D;}
	.st89{fill:#0074D3;}
</style>
<g class="st0">
	<path class="st1" d="M285.68,83.56c-10.94,20.31-24.67,38.99-40.63,55.29c-13.07,13.34-27.61,25.08-40.14,38.96
		s-23.2,30.48-26.23,49.28c-2.9,18,1.71,37.17,12.42,51.61s27.35,23.91,44.78,25.5c19.45,1.77,38.55-5.79,58.04-6.96
		c29.09-1.74,57.55,10.81,86.68,10.04c18.51-0.49,36.56-6.37,53.48-14.23c4.51-2.1,9.04-4.39,12.64-7.93
		c5.91-5.81,8.64-14.38,9.63-22.79c2.58-21.95-5.44-44.21-18.21-61.85s-29.99-31.23-47.74-43.32
		c-17.69-12.05-37.01-23.78-47.02-43.18c-4.53-8.78-7.07-19.01-13.91-25.97c-9.05-9.21-22.96-10.17-35.6-10.59
		c-4.8-0.16-11.25,1.13-11.53,6.13"/>
</g>
<g>
	<g>
		<path class="st7" d="M328.7,77.67c-1.11-5.56-10.11-12.96-20.79-13.93v-3.31c0-1.15-0.8-2.1-1.87-2.35V18h-1.26v40.13
			c-0.99,0.31-1.71,1.22-1.71,2.3v3.33c-10.49,1.04-18.59,8.38-19.7,13.91l-2.43,12.16h50.2L328.7,77.67z"/>
	</g>
</g>
<g>
	<g>
		<path class="st5" d="M461.91,202.15c-0.86-2.08-1.82-4.1-2.88-6.08c-0.28-0.52-1.13-0.24-1.1,0.29c-0.37,0.01-0.74,0.31-0.58,0.72
			c-0.32,0.11-0.59,0.48-0.42,0.89c0.06,0.14,0.13,0.29,0.19,0.43c-0.18,0.12-0.3,0.34-0.25,0.58c-0.4-0.54-1.31,0.02-0.95,0.64
			c1.02,1.82,1.89,3.95,3.64,5.19c0.4,0.28,0.84-0.11,0.88-0.5c0.02-0.26-0.03-0.53-0.12-0.8c0.04-0.05,0.06-0.11,0.08-0.17
			c0.2-0.01,0.39-0.11,0.49-0.26c0.21,0.01,0.42-0.08,0.54-0.23C461.77,202.82,462.08,202.55,461.91,202.15z"/>
	</g>
	<g>
		<path class="st5" d="M412.45,215.54c-0.05-0.29-0.52-0.27-0.57,0.01c-0.05,0.26-0.1,0.52-0.15,0.78
			c-0.02-0.27-0.03-0.54-0.04-0.81c-0.01-0.32-0.54-0.42-0.59-0.07c-0.01-0.05-0.01-0.13-0.01-0.2c-0.01-0.13-0.1-0.22-0.21-0.26
			c0-0.03,0-0.06,0.01-0.09c0.02-0.22-0.28-0.37-0.45-0.25c-0.15,0.11-0.27,0.27-0.37,0.46c0-0.03,0-0.06,0-0.09
			c0-0.38-0.59-0.37-0.59,0.01c0.02,2.7-0.09,5.39-0.23,8.09c-0.12,2.39,0.9,3.71,2.32,5.58c0.18,0.24,0.53,0.15,0.55-0.16
			C412.43,224.26,413.17,219.79,412.45,215.54z"/>
	</g>
	<path class="st13" d="M462.63,297.74c0.01,0.21,4.41,0.53,4.42,0.38c0.06-1.6,0.39-8.94,0.38-10.97c0-0.28-0.19-0.38-0.38-0.36
		c-0.05-0.11-0.14-0.19-0.27-0.22c-1.11-0.28-3.71-1.34-4.05,0.54C462.43,288.73,462.51,296.14,462.63,297.74z"/>
	<g>
		<path class="st7" d="M452.95,303.29c1.72,0.02,3.02-0.06,4.71-0.21c1.61-0.15,2.72-0.87,4.55-1.11c1.42-0.18,1.56,0.62,1.89,0.6
			c1.31-0.09,2.63-0.18,3.95-0.27c0.09-0.01,0.67-0.02,0.6-1.07c-0.08-1.67-0.22-3.34-0.43-5c-0.16-0.83-0.9-0.67-1.43-0.65
			c-1.23,0.04-2.52,0.3-3.79,0.33c-1.49,0.04-0.75-0.11-1.91,0.77c-1.99,1.51-5.03,2.86-7.43,3.61c-0.76,0.24-2.74,0.74-3.26,1.49
			C449.04,303.73,451.53,303.27,452.95,303.29z"/>
	</g>
	<path class="st13" d="M486.73,297.54c0.02,0.2,4.34,0.45,4.34,0.31c0.03-1.57,0.26-8.78,0.21-10.77c-0.01-0.27-0.19-0.37-0.38-0.35
		c-0.05-0.1-0.14-0.18-0.27-0.21c-1.09-0.25-3.66-1.26-3.96,0.58C486.41,288.7,486.6,295.98,486.73,297.54z"/>
	<g>
		<path class="st7" d="M493.84,303.58c-0.33-0.83-0.93-1.51-1.23-2.37c-0.22-0.65-0.35-1.33-0.43-2.02c-0.02-0.21-0.04-0.4-0.06-0.6
			c-0.03-0.35-0.05-0.7-0.07-1.05c0-0.71-0.06-1.56-0.48-2.09c-0.19-0.25-0.65-0.29-1.28-0.26c-0.27,0.01-2.03,0.14-3.63,0.1
			c-0.8,0.07-0.91,0.87-0.94,1.59c-0.05,1.23-0.27,3.87,0.08,4.79c0.12,0.33,0.24,0.3,0.41,0.51c0.67,0.82,1.08,1.35,1.21,2.4
			c0.22,1.83,2.19,2.64,3.56,3.58c0.13,0.09,1.39,0.88,2.05,0.83c0.66-0.05,1.06-1.06,1.14-1.47
			C494.41,306.37,494.23,304.56,493.84,303.58z"/>
	</g>
	<g>
		<path class="st5" d="M483.11,128.51c-1.98-0.59-3.97-1.14-5.98-1.64c-0.18-0.04-0.35-0.06-0.51-0.05
			c-1.05-0.09-2.23,0.72-1.99,2.11c0.86,5.14,0.44,8.19,0.76,13.41c0.14,2.33,8.91,1.97,8.94,1.03c0.13-3.58,0.17-9.42,0.05-13.01
			C484.35,129.57,483.91,128.75,483.11,128.51z"/>
	</g>
	<g>
		<path class="st16" d="M478.43,139.18c0.86-0.66,1.99-0.84,2.79-1.58c0.91-0.84,1.26-3.01-0.52-2.88
			c-0.21,0.02-0.36,0.12-0.46,0.26c-0.77,0.07-1.79,0.7-2.44,1.13c-0.1-0.09-0.23-0.15-0.36-0.15c-0.71,0-1.53,0.34-2.23,0.85
			c0.03,1.36,0.05,2.72,0.09,4.09c0.32,0.03,0.65,0,0.96-0.1C477.16,140.5,477.7,139.73,478.43,139.18z"/>
	</g>
	<g>
		<path class="st5" d="M485.72,117.1c-1.05-1.74-3.36-2.37-5.19-2.78c-2.16-0.49-4.33-1.82-5.85-0.28c-1.75,1.22-2.69,2-3.19,4.17
			c-0.93,4-2.07,10.67-0.9,14.56c0.92,3.08,2.7,4.37,4.2,4.54c2.51,0.28,4.58-1.31,6.09-2.78c1.3-1.27,2.88-3.28,3.34-4.17
			C486.85,125.27,488.84,122.29,485.72,117.1z"/>
	</g>
	<g>
		<path class="st7" d="M486.31,115.39c-2.49-2.06-6.95-2.53-10.09-2.06c-2.05,0.3-3.75,2.07-4.08,2.99
			c-0.14,0.49,0.09,1.1,0.74,1.18c2.06,0.24,4.32,0.45,6.08,1.65c2.19,1.5,1.89,3.46,2.53,5.64c0.04,0.15,0.15,0.27,0.2,0.41
			c0.54,1.8,0.8,1.83,0.96,3.48c0.08,0.82,0.13,1.71,0.64,2.39c0.18,0.23,0.56,0.39,0.85,0.3c1.18-0.34,1.46-1.42,1.93-2.48
			c0.85-1.91,1.72-3.85,2.19-5.9C488.88,120.2,488.63,117.31,486.31,115.39z"/>
	</g>
	<g>
		<path class="st5" d="M483.99,126.49c-0.3-0.66-0.97-1.17-1.84-1.22c-0.96-0.05-1.49,0.48-2,1.07c-0.8,0.91,0.64,1.78,1.63,1.33
			c0.01,0.16,0.03,0.33,0.01,0.45c-0.12,0.62-0.47,1.15-0.92,1.64c-0.93,1.01,1.09,2.06,2.02,1.07
			C483.94,129.7,484.63,127.91,483.99,126.49z"/>
	</g>
	<path class="st14" d="M489.63,190.58c-0.51-3.33-5.56-1.91-5.05,1.39c0.17,1.09,0.33,2.17,0.49,3.25c-0.2-0.08-0.4-0.15-0.61-0.18
		c-0.39-1.38-0.79-2.76-1.21-4.13c-0.91-2.93-4.95-2.21-5.16,0.7c-0.15,2.05-0.23,4.09-0.26,6.13c-0.48-0.05-0.97,0.02-1.42,0.19
		c-0.45-0.18-0.94-0.24-1.42-0.19c-0.03-2.04-0.11-4.09-0.26-6.13c-0.21-2.91-4.25-3.63-5.16-0.7c-0.43,1.37-0.82,2.75-1.21,4.13
		c-0.21,0.03-0.41,0.1-0.61,0.18c0.16-1.08,0.32-2.17,0.49-3.25c0.5-3.3-4.54-4.72-5.05-1.39c-2.51,16.38-4.4,32.55-4.39,49.14
		c0.01,16.97-0.5,37.19,0.32,54.14c0.07,1.41,1.15,2.65,2.63,2.63c1.46-0.02,2.93-0.04,4.39-0.06c1.09-0.01,2.4-0.79,2.54-1.93
		c2.73-23.02,4.87-41.48,7.7-64.53c2.67,22.93,4.55,41.23,7.28,64.23c0.14,1.15,1.45,1.92,2.54,1.93c1.46,0.02,2.93,0.04,4.39,0.06
		c1.48,0.02,2.56-1.23,2.63-2.63c0.83-16.96,0.83-36.88,0.84-53.85C494.03,223.13,492.14,206.95,489.63,190.58z"/>
	<g>
		<path class="st7" d="M495,149.32c-3.37-3.63-7.81-6.57-11.67-9.65c-1.73-1.38-4.21,1.04-2.46,2.46c0.72,0.58,1.45,1.16,2.17,1.74
			c-1.09-0.49-2.38-1.35-3.69-1.85c0.95-1.35-0.59-3.56-2.27-2.51c-3.88,2.4-8.69,4.6-12.04,7.7c-2.59,2.39-2.81,6.44-3.24,9.71
			c-0.64,4.83-0.01,30.51,0.85,29.7c0.14,1.96,0.28,3.93,0.43,5.89c0.02,0.32,0.12,0.6,0.25,0.83c0.26,2.46,0.79,5.17,2.89,6.47
			c2.83,1.76,7.7,1.13,10.86,1.18c3.13,0.05,7.58,0.83,9.69-2.1c1.52-2.11,1.9-5.3,2.03-8.11c0.74,0.07,1.46-0.26,1.62-1.23
			c1.69-10.37,4.51-20.27,7.12-30.42C498.51,155.33,497.67,152.2,495,149.32z"/>
	</g>
	<g>
		<path class="st7" d="M484.75,141.02c0-1.91,0.12-2.18-1.11-2.18c-1.45-0.01-6.32-0.19-7.83,0c-1.5,0.19-0.92,2.43-0.93,3.66
			c-0.02,1.11,1.23,1.39,1.9,0.86c0.05,0.03,0.09,0.06,0.15,0.09c0.19,0.24,0.46,0.43,0.8,0.51c0.48,0.12,0.96,0.07,1.42-0.07
			c0.46,0.32,1.14,0.14,1.54-0.27c0.32,0.55,1.05,0.64,1.58,0.35c0.08,0.13,0.15,0.26,0.25,0.38c0.56,0.73,1.9,0.81,2.15-0.28
			C484.94,142.83,484.75,142.37,484.75,141.02z"/>
	</g>
	<g>
		<path class="st1" d="M500.74,149.08c-0.92-2.2-3.19-3.34-5.2-4.35c-3.15-1.58-6.41-2.93-9.74-4.08c-0.35-0.12-0.75-0.06-0.98,0.08
			c-0.28,0.18-0.42,0.46-0.43,0.89c-0.47,16.11-3.68,32.06-3.32,48.2c0.08,3.55,0.34,7.09,0.83,10.61c0.33,2.35,0.36,7.14,2.26,8.85
			c1.69,1.52,5.13,0.42,7.08,0.07c1.34-0.24,2.73-0.21,3.39-1.62c0.7-1.5,0.9-3.03,0.75-4.76c-0.31-3.68-0.57-7.36-0.64-11.05
			c-0.15-8.19,0.74-16.18,2.95-24.07c1-3.54,2.1-7.06,2.8-10.68C500.97,154.68,501.76,151.52,500.74,149.08z"/>
	</g>
	<g>
		<path class="st1" d="M459.12,166.74c1.55,8.05,1.76,16.09,0.93,24.24c-0.37,3.67-0.94,7.32-1.56,10.96
			c-0.29,1.71-0.22,3.25,0.35,4.8c0.54,1.46,1.93,1.55,3.24,1.9c1.91,0.51,5.25,1.89,7.06,0.52c2.04-1.55,2.47-6.32,2.99-8.63
			c0.78-3.46,1.34-6.97,1.72-10.5c1.7-16.06-0.17-32.22,0.71-48.31c0.02-0.43-0.15-0.76-0.42-0.96c-0.22-0.16-0.54-0.21-0.9-0.12
			c-3.41,0.87-6.78,1.94-10.05,3.25c-2.09,0.84-3.35,2.57-4.45,4.68C457.54,150.91,458.43,163.13,459.12,166.74z"/>
	</g>
	<g>
		<path class="st1" d="M445.65,176.6c2.29-5.87,5.07-11.51,7.92-17.13c2.13-4.2,4.33-8.25,7.13-12c0.03-0.3,0.17-0.61,0.44-0.89
			c0.4-0.42,0.8-0.84,1.2-1.26c1.46-1.53,3.99,0.36,2.87,1.96c-0.06,0.13-0.13,0.26-0.23,0.4c-0.14,0.18-0.25,0.33-0.36,0.46
			c-0.41,0.51-0.82,1.03-1.21,1.55c0.68,0.19,1.25,0.74,1.28,1.46c0.17-0.22,0.34-0.44,0.51-0.66c1.42-1.77,4.04,0.37,2.73,2.2
			c-0.82,1.14-1.62,2.3-2.42,3.46c1.28-0.32,2.93,0.99,2.11,2.38c-3.55,6.04-7.03,12.14-10.67,18.14c-0.22,0.36-0.44,0.76-0.68,1.17
			c1.07,5.23,2.3,10.42,3.73,15.56c0.47,1.7,0.92,3.02-0.44,4.39c-1.19,1.2-3.67,3.37-5.43,3.53c-1.91,0.17-2.48-1.71-3.03-3.18
			c-1.04-2.75-2.07-5.49-3.11-8.24c-0.85-2.27-1.92-4.55-2.39-6.94C445.29,181.29,445.46,177.1,445.65,176.6z"/>
	</g>
	<path class="st18" d="M416.31,162.42c1.29-1.9-1.81-3.63-3.09-1.76c-2.8,4.08-3.15,9.25-3.72,14.03
		c-0.7,5.85-1.12,11.74-1.39,17.62c-0.27,5.82-0.42,11.64-0.57,17.46c-0.07,2.72-0.3,9.32,4.49,7.39c0.72-0.29,1.32-0.9,1.29-1.74
		c-0.08-2.15-0.13-4.3-0.17-6.46c0.38-0.29,0.67-0.73,0.72-1.32c0.93-10.46,1.18-20.95,0.76-31.44c-0.04-1.09-0.76-1.63-1.54-1.69
		c0.02-0.18,0.04-0.35,0.06-0.53C413.64,170.02,413.99,165.81,416.31,162.42z"/>
	<g>
		<path class="st5" d="M435.16,299.7c0.01,0.21,4.41,0.53,4.42,0.38c0.06-1.6,0.39-8.94,0.38-10.97c0-0.28-0.19-0.38-0.38-0.36
			c-0.05-0.11-0.14-0.19-0.27-0.22c-1.11-0.28-3.71-1.34-4.05,0.54C434.96,290.69,435.05,298.1,435.16,299.7z"/>
	</g>
	<path class="st14" d="M438.19,204.94c-2.28,0.01-3.33-1.91-3.15-3.73c-2.73-2.4-6.12-3.61-10.06-4c-0.4-0.04-0.77-0.14-1.1-0.28
		c-0.03,0.13-0.04,0.26-0.04,0.4c0.08,15.23,0.36,30.53,2.12,45.67c1.74,14.92,5.17,38.04,7.69,52.84c0.23,1.33,1.03,1.31,2.44,1.07
		c0.05,0,2.73-0.28,4.03-0.56c0.77-0.17,1.32-0.94,1.34-1.71c0.7-26.84,0.6-61.96,0.69-88.82
		C440.86,206.38,439.29,206.25,438.19,204.94z"/>
	<g>
		<path class="st7" d="M425.48,305.25c1.72,0.02,3.02-0.06,4.71-0.21c1.61-0.15,2.72-0.87,4.55-1.11c1.42-0.18,1.56,0.62,1.89,0.6
			c1.31-0.09,2.63-0.18,3.95-0.27c0.09-0.01,0.67-0.02,0.6-1.07c-0.08-1.67-0.22-3.34-0.43-5c-0.16-0.83-0.9-0.67-1.43-0.65
			c-1.23,0.04-2.52,0.3-3.79,0.33c-1.49,0.04-0.75-0.11-1.91,0.77c-1.99,1.51-5.03,2.86-7.43,3.61c-0.76,0.24-2.74,0.74-3.26,1.49
			C421.58,305.69,424.06,305.23,425.48,305.25z"/>
	</g>
	<g>
		<path class="st5" d="M417.73,298.06c0.01,0.21,4.41,0.53,4.42,0.38c0.06-1.6,0.39-8.94,0.38-10.97c0-0.28-0.19-0.38-0.38-0.36
			c-0.05-0.11-0.14-0.19-0.27-0.22c-1.11-0.28-3.71-1.34-4.05,0.54C417.53,289.04,417.61,296.46,417.73,298.06z"/>
	</g>
	<g>
		<path class="st7" d="M408.05,303.6c1.72,0.02,3.02-0.06,4.71-0.21c1.61-0.15,2.72-0.87,4.55-1.11c1.42-0.18,1.56,0.62,1.89,0.6
			c1.31-0.09,2.63-0.18,3.95-0.27c0.09-0.01,0.67-0.02,0.6-1.07c-0.08-1.67-0.22-3.34-0.43-5c-0.16-0.83-0.9-0.67-1.43-0.65
			c-1.23,0.04-2.52,0.3-3.79,0.33c-1.49,0.04-0.75-0.11-1.91,0.77c-1.99,1.51-5.03,2.86-7.43,3.61c-0.76,0.24-2.74,0.74-3.26,1.49
			C404.15,304.05,406.63,303.59,408.05,303.6z"/>
	</g>
	<g>
		<path class="st5" d="M500.3,194.48l-19.91,1.81c-2.24,0.2-3.89,2.18-3.68,4.42l0.85,9.36c0.2,2.24,2.18,3.89,4.42,3.68l19.91-1.81
			c2.24-0.2,3.89-2.18,3.68-4.42l-0.85-9.36C504.51,195.92,502.54,194.27,500.3,194.48z"/>
	</g>
	<path class="st14" d="M429.52,201.7c0.06-0.64,0.13-1.29,0.19-1.93c0.12-1.28-0.91-1.92-1.89-1.84c0-0.09,0.01-0.18,0.02-0.28
		c0.05-1.44-1.69-2.29-2.74-1.75c-0.52-0.78-1.42-1.22-2.48-1.45c-0.33-0.42-0.73-0.77-1.21-1c-0.03,0.07-0.06,0.13-0.09,0.2
		c-1.58,3.08-4.48,5.6-5.56,8.92c-0.62,1.9-2.27,2.61-3.79,2.42c-0.55,12.17-0.81,24.37-0.12,36.54c0.85,14.99,2.7,37.55,4.34,52.48
		c0.15,1.34,1.1,1.24,2.37,1.21c0.05,0,2.75-0.12,4.05-0.32c0.78-0.12,1.37-0.86,1.44-1.63c2.35-27.46,4.59-62.5,6.27-90.01
		C430.36,202.52,430.01,202,429.52,201.7z"/>
	<g>
		<path class="st5" d="M117.23,236.96c-0.11,0.46-0.21,0.92-0.32,1.38c0.16-0.97,0.32-1.94,0.49-2.91c0.21-1.22-1.53-2.15-2.15-0.87
			c-0.11,0.22-0.21,0.45-0.3,0.68c-0.31,0.06-0.6,0.23-0.78,0.53c-0.01,0.02-0.02,0.04-0.03,0.06c-0.52-0.15-1.12-0.01-1.36,0.52
			c-0.26,0.59-0.49,1.19-0.71,1.8c-0.01-0.53-0.02-1.06-0.06-1.6c-0.1-1.48-2.41-1.46-2.31,0.03c0.28,4.46-0.61,8.77-1.15,13.18
			c-0.48,3.91,0.48,32.55,0.15,38.84c-0.02,0.41-1,2.83-0.28,2.67c0.16-0.03,1.57,2.19,3.17,2.81c1.84,0.71,3.88-0.17,3.72-0.26
			c-3.52-2.03-2.8-8.41-2.78-8.46c0.09-0.3,3.48-32.92,6.94-47.81C119.8,236.1,117.58,235.51,117.23,236.96z"/>
	</g>
	<g>
		<path class="st7" d="M121.42,298.37c-1.91-1.39-4.08-3.22-5.46-4.22c-1.09-0.79-1.92-0.28-3.17-0.7c-2.11-0.7-2.86-2.29-4.21-3.67
			c-0.11-0.11-0.51-0.14-0.66,0.24c-0.5,1.27-1.61,3.87-0.66,5.19c0.1,0.13,0.16,0.26,0.19,0.41c0.16,0.62-0.05,1.45-0.14,2.01
			c-0.03,0.15,0.12,0.31,0.27,0.32c0.18,0.01,0.36,0.02,0.54,0.06c0.14,0.02,0.32-0.12,0.32-0.27c-0.01-0.58,0.07-1.14,0.25-1.68
			c1.27,0.33,2.5,0.33,3.46,0.77c1.28,0.58,1.59,1.06,2.59,1.77c0.76,0.54,2.22,0.66,3.11,0.77c0.91,0.11,2.96,0.56,3.58-0.45
			C121.51,298.75,121.57,298.48,121.42,298.37z"/>
	</g>
	<g>
		<path class="st5" d="M108.22,238.45c-0.07,0.47-0.13,0.93-0.19,1.4c0.07-0.98,0.15-1.96,0.23-2.94c0.1-1.23-1.72-2-2.22-0.68
			c-0.09,0.23-0.17,0.47-0.24,0.7c-0.3,0.09-0.57,0.29-0.73,0.59c-0.01,0.02-0.02,0.04-0.03,0.06c-0.53-0.1-1.12,0.09-1.31,0.64
			c-0.21,0.61-0.38,1.23-0.54,1.86c-0.05-0.53-0.12-1.06-0.2-1.59c-0.23-1.46-2.53-1.24-2.3,0.24c0.68,4.42,0.18,8.79,0.03,13.23
			c-0.13,3.94,3.4,32.37,3.63,38.67c0.01,0.41-0.74,2.91-0.04,2.69c0.15-0.05,1.76,2.04,3.41,2.52c1.9,0.55,3.85-0.52,3.68-0.59
			c-3.68-1.7-3.54-8.13-3.53-8.17c0.07-0.31,0.51-33.1,2.62-48.24C110.71,237.36,108.44,236.98,108.22,238.45z"/>
	</g>
	<path class="st13" d="M154.91,298.09c-0.01,0.2-4.32,0.57-4.33,0.42c-0.07-1.57-0.49-8.77-0.5-10.76c0-0.27,0.18-0.38,0.37-0.36
		c0.05-0.1,0.14-0.19,0.26-0.22c1.09-0.28,3.62-1.36,3.98,0.48C154.99,289.25,155,296.52,154.91,298.09z"/>
	<g>
		<path class="st7" d="M164.47,303.42c-1.69,0.04-2.96-0.02-4.62-0.15c-1.58-0.13-2.68-0.82-4.48-1.03
			c-1.39-0.16-1.52,0.63-1.84,0.61c-1.29-0.07-2.58-0.14-3.88-0.22c-0.09-0.01-0.66-0.02-0.6-1.04c0.06-1.64,0.18-3.28,0.36-4.92
			c0.15-0.81,0.88-0.67,1.4-0.66c1.21,0.02,2.48,0.26,3.72,0.28c1.46,0.02,0.74-0.12,1.88,0.73c1.97,1.46,4.97,2.74,7.33,3.45
			c0.75,0.22,2.69,0.69,3.21,1.42C168.31,303.81,165.86,303.39,164.47,303.42z"/>
	</g>
	<path class="st13" d="M176.09,297.74c-0.01,0.2-4.32,0.57-4.33,0.42c-0.07-1.57-0.49-8.77-0.5-10.76c0-0.27,0.18-0.38,0.37-0.36
		c0.05-0.1,0.14-0.19,0.26-0.22c1.09-0.28,3.62-1.36,3.98,0.48C176.17,288.89,176.18,296.17,176.09,297.74z"/>
	<g>
		<path class="st7" d="M185.65,303.07c-1.69,0.04-2.96-0.02-4.62-0.15c-1.58-0.13-2.68-0.82-4.48-1.03
			c-1.39-0.16-1.52,0.63-1.84,0.61c-1.29-0.07-2.58-0.14-3.88-0.22c-0.09-0.01-0.66-0.02-0.6-1.04c0.06-1.64,0.18-3.28,0.36-4.92
			c0.15-0.81,0.88-0.67,1.4-0.66c1.21,0.02,2.48,0.26,3.72,0.28c1.46,0.02,0.74-0.12,1.88,0.73c1.97,1.46,4.97,2.74,7.33,3.45
			c0.75,0.22,2.69,0.69,3.21,1.42C189.49,303.46,187.04,303.03,185.65,303.07z"/>
	</g>
	<g>
		<path class="st7" d="M117.9,299.24c-2.03-1.22-4.35-2.84-5.81-3.71c-1.15-0.69-1.94-0.11-3.22-0.41c-2.16-0.5-3.05-2.03-4.53-3.28
			c-0.12-0.1-0.52-0.1-0.63,0.3c-0.38,1.31-1.26,4-0.2,5.23c0.11,0.12,0.18,0.25,0.23,0.39c0.22,0.61,0.08,1.45,0.04,2.01
			c-0.01,0.15,0.14,0.3,0.29,0.29c0.18-0.01,0.36-0.01,0.54,0.01c0.15,0.01,0.31-0.14,0.29-0.29c-0.06-0.58-0.03-1.14,0.1-1.69
			c1.3,0.21,2.52,0.1,3.52,0.46c1.33,0.47,1.68,0.92,2.73,1.53c0.81,0.47,2.27,0.46,3.16,0.49c0.92,0.03,3,0.29,3.52-0.77
			C118.03,299.61,118.07,299.33,117.9,299.24z"/>
	</g>
	<g>
		<path class="st5" d="M167.57,132.55c-1.94-0.6-3.88-1.17-5.84-1.68c-0.17-0.05-0.34-0.06-0.5-0.06c-1.03-0.1-2.19,0.68-1.98,2.05
			c0.78,5.06,0.33,8.04,0.59,13.16c0.11,2.29,8.72,2.04,8.76,1.12c0.17-3.51,0.28-9.24,0.2-12.77
			C168.78,133.6,168.36,132.79,167.57,132.55z"/>
	</g>
	<g>
		<path class="st16" d="M162.86,142.95c0.85-0.64,1.96-0.8,2.76-1.51c0.9-0.81,1.27-2.94-0.47-2.83c-0.21,0.01-0.35,0.12-0.45,0.25
			c-0.75,0.06-1.76,0.66-2.4,1.08c-0.1-0.09-0.23-0.15-0.35-0.15c-0.7-0.01-1.51,0.31-2.2,0.81c0.02,1.33,0.02,2.67,0.04,4.01
			c0.31,0.04,0.63,0.01,0.94-0.09C161.6,144.23,162.14,143.49,162.86,142.95z"/>
	</g>
	<g>
		<path class="st5" d="M165.71,117.03c-1.49-1.33-3.57,0.58-5.41,0.73c-2.17,0.17-4.05-1.14-5.03,0.75
			c-1.28,1.65-2.46,3.36-2.31,5.54c0.29,4.02,1.18,10.6,3.41,13.9c1.76,2.61,3.81,3.31,5.26,3.03c2.43-0.47,3.91-2.56,4.89-4.38
			c0.85-1.57,1.74-3.92,1.91-4.89C169.43,126.16,170.15,120.97,165.71,117.03z"/>
	</g>
	<g>
		<path class="st7" d="M171.29,118.73c0.15-1.55-0.54-3.23-2.08-3.8c-0.83-0.31-1.65-0.11-2.49,0.05c-0.56,0.1-1.07,0.06-1.58-0.01
			c-0.92-0.51-2.01-0.56-3.05-0.44c-1.64,0.19-3.12,0.89-4.13,2.03c-0.38-0.43-0.97-0.67-1.64-0.61c-1.28,0.12-2.51,0.92-3.33,1.88
			c-0.79,0.93-1.5,2.34-1.3,3.6c0.16,1.04,0.83,1.27,1.61,1.27c0.99,2,4.05,2.42,6.08,1.39c0.52-0.15,1.05-0.48,1.67-0.31
			c0.89,0.25,1.91,0.87,2.79,0.26c0.3,0.48,0.54,0.98,0.74,1.38c0.07,0.15,0.25,0.78,0.91,1.09c2.47,1.16,1.47,5.46,2.57,7.53
			c0.23,0.43,0.97,0.35,1.07-0.14c0.54-2.66,1.03-5.34,1.23-8.05c0.1-1.35,0.17-3.13-0.95-4.1
			C170.52,121.2,171.18,119.97,171.29,118.73z"/>
	</g>
	<g>
		<path class="st5" d="M167.66,127.94c-0.32-0.63-1.01-1.11-1.86-1.11c-0.94-0.01-1.44,0.54-1.91,1.13
			c-0.74,0.93,0.7,1.71,1.65,1.23c0.02,0.16,0.04,0.32,0.03,0.44c-0.09,0.61-0.41,1.15-0.83,1.65c-0.87,1.04,1.16,1.97,2.03,0.96
			C167.76,131.08,168.35,129.3,167.66,127.94z"/>
	</g>
	<path class="st14" d="M162.86,165.38c0.01,0.19,0.18,0.28,0.32,0.28c0,0.61,0.04,1.22,0.33,1.71c0.06,0.1,0.19,0.15,0.31,0.13
		c-0.01,0.07-0.02,0.15-0.03,0.22c-0.12,0.02-0.23,0.11-0.21,0.27c0.02,0.24,0.02,0.29,0.17,0.49c0.13,0.18,0.49,0.21,0.54-0.07
		c0.04-0.24,0.07-0.47,0.1-0.71c0.03,0,0.06-0.01,0.1-0.03c0.01,0.1,0.07,0.17,0.15,0.21c0.02,0.04,0.04,0.09,0.06,0.13
		c0.12,0.22,0.48,0.18,0.54-0.07c0.17-0.78,0.39-1.65,0.52-2.51c0.15,0,0.29-0.09,0.3-0.28c0.11-4.79-0.08-10.08-1.45-14.71
		c0.26-0.39,0.55-0.65,0.8-1.05c0.17-0.28,0.53-0.72,0.54-1.09c0.01-0.26-0.92-1.65-1.14-2.19c-0.06-0.15-0.23-0.25-0.37-0.26
		c-0.11-0.01-0.21,0.07-0.29,0.2c-0.25,0.43-1.23,2.04-1.22,2.39c0.01,0.27,0.21,0.5,0.34,0.72c0.25,0.4,0.48,0.82,0.7,1.24
		c-0.75,2.16-0.96,4.32-1.02,6.62C162.85,159.8,162.65,162.62,162.86,165.38z"/>
	<g>
		<path class="st1" d="M181.63,205.78c-0.03-2.07-5.62-23.08-6.54-21.84c-0.35-0.78-1.09-1.09-1.84-1.03
			c-0.48-0.81-1.13-1.5-2.02-1.99c-0.72-0.4-1.49-0.62-2.27-0.7c-0.92-0.79-2.39-0.85-2.98,0.17c-2.52-0.97-5.44-1.72-7.91-0.34
			c-0.88,0.49-1.53,1.18-2.01,1.99c-0.74-0.06-1.48,0.25-1.84,1.03c-0.92-1.24-3.56-0.75-3.72,1.31c-0.77,9.63-3.24,15.44-3.15,25.1
			c0.04,4.73,0.45,77.87,0.65,80.16c0.15,1.74,0.19,3.56,0.3,5.34c0.13,2.04,4.16,1.67,6.37,1.72c1.32,0.03,3.56-0.35,3.52-1.71
			c-0.23-7.92,6.19-64.34,6.19-64.34c0.38-3.46,0.44-4.03,0.82-7.49c0.85,5.64,3.62,63.92,3.4,71.84c-0.04,1.36,2.2,1.73,3.52,1.7
			c2.21-0.05,6.24,0.31,6.37-1.73c0.11-1.78,0.14-3.61,0.29-5.34C178.98,287.36,181.8,216.44,181.63,205.78z"/>
	</g>
	<path class="st9" d="M177.24,174.78c-0.3-3.85,4.09-19.63,1.87-22.44c-2.6-3.28-5.71-5.12-9.23-6.14
		c-0.01-0.16-0.04-0.31-0.07-0.43c-0.2-0.84-0.55-1.73-1.53-1.6c-1.06,0.14-2.79,0.73-3.83,1.07c-1.63-0.63-2.84-1.18-4.36-1.3
		c-1.02-0.08-1.78,1.63-2.08,2.58c-3.39,0.86-6.31,1.17-9.42,3.94c-3.98,3.56,1.53,28.65,1.87,34.35c0.32,5.34-2.56,5.74-0.1,10.37
		c0.11,0.21-0.61,4.97,0.48,5.11c6.49,0.8,21.45,0.19,24.02-0.13c2.86-0.36,2.98,4.54,3.7,3.65c0.99-1.21,0.34-9.17,0.9-10.96
		C180.79,188.7,177.52,178.41,177.24,174.78z"/>
	<g>
		<path class="st7" d="M164.59,150.45c0.26-0.39,0.55-0.65,0.8-1.05c0.17-0.28,0.53-0.72,0.54-1.09c0.01-0.26-0.92-1.65-1.14-2.19
			c-0.06-0.15-0.23-0.25-0.37-0.26c-0.11-0.01-0.21,0.07-0.29,0.2c-0.25,0.43-1.23,2.04-1.22,2.39c0.01,0.27,0.21,0.5,0.34,0.72
			c0.25,0.4,0.48,0.82,0.7,1.24c-0.75,2.16-0.96,4.32-1.02,6.62c-0.07,2.77-0.28,5.59-0.07,8.35c0.01,0.19,0.18,0.28,0.32,0.28
			c0,0.61,0.04,1.22,0.33,1.71c0.06,0.1,0.19,0.15,0.31,0.13c-0.01,0.07-0.02,0.15-0.03,0.22c-0.12,0.02-0.23,0.11-0.21,0.27
			c0.02,0.24,0.02,0.29,0.17,0.49c0.13,0.18,0.49,0.21,0.54-0.07c0.04-0.24,0.07-0.47,0.1-0.71c0.03,0,0.06-0.01,0.1-0.03
			c0.01,0.1,0.07,0.17,0.15,0.21c0.02,0.04,0.04,0.09,0.06,0.13c0.12,0.22,0.48,0.18,0.54-0.07c0.17-0.78,0.39-1.65,0.52-2.51
			c0.15,0,0.29-0.09,0.3-0.28C166.14,160.37,165.96,155.08,164.59,150.45z"/>
	</g>
	<g>
		<path class="st1" d="M180.89,177.45c0.08-1.39,0.19-2.77,0.21-4.07c0.16-7.13,1.24-14.21,1.31-21.34
			c-0.14-0.18-0.28-0.36-0.42-0.53c-1.14-1.49-2.72-2.79-5.51-3.8c-1.83-0.83-3.74-1.48-5.41-2.02c-0.68-0.22-0.88,0.01-1.26,0.65
			c-2.2,5.61-4.48,17.38-5.38,21.79c-0.59-5.72-3.64-15.84-5.58-21.52c-0.5-0.92-0.38-1.15-1.06-0.93
			c-3.86,1.26-10.57,3.73-12.98,7.19c-2.68,3.84-0.11,8.11,0.05,12.61c0.19,5.48,1.87,7.95,1.85,13.45
			c-0.03,5.81-1.62,30.19-1.13,32.75c0.25,1.28,3.15,2.38,4.95,2.38c3.41,0,5.95-1.49,8.13-3.44c2.43-2.18,5.6-20.5,5.79-23.12
			c0.19,2.62,2.5,19.88,6.15,22.82c2.28,1.84,8.15,4.17,9.93,3.47c1.32-0.52,1.47-1.61,1.72-2.9c0.49-2.55-0.81-26.15-0.84-31.96
			c0-0.85-1.28-1.95-1.12-2.75C180.47,176.62,180.68,177.04,180.89,177.45z"/>
	</g>
	<g>
		<path class="st1" d="M156.56,177.95c-0.2,0.12-0.41,0.24-0.61,0.35c-0.06-0.86-0.83-1.66-1.77-1.74
			c-0.36-0.03-0.76-0.01-1.19,0.02c0.14-0.68,0.12-1.39-0.08-2.13c-0.44-1.62-1.26-2.41-2.26-2.65c-0.58-1.02-2.28-1.44-3.12-0.14
			c-0.27,0.42-0.99-2.29-2.12-3.21c0.05-1.26,0.04-2.53-0.02-3.81c-0.01-0.2-0.06-0.38-0.12-0.55c0.01,0,0.02-0.02,0.02-0.02
			c1.65-0.77,4.08-3.11,2.62-3.38c1.79-3.46,0.82-6.35,4.01-8.6c1.81-1.28,0.1-4.28-1.76-3c-4.33,2.97-4.84,3.28-6.1,5.11
			c-2.98,4.33-8.69,20.61-8.71,25.95c-0.02,4.68,3.46,8.02,8.22,8.5c5.39,0.55,10.44-2.16,14.96-4.76
			C160.5,182.79,158.52,176.82,156.56,177.95z"/>
	</g>
	<g>
		<path class="st57" d="M158.83,146.63c-0.5-0.92-0.38-1.15-1.06-0.93c-1.06,0.34-2.34,0.78-3.68,1.31
			c-0.31,1.25-0.55,2.56-0.2,3.62c0.16,0.49,0.38,0.77,0.77,1.13c0.3,0.27,0.85,0.37,1.1,0.66c0.93,1.05,1.03,2.66,1,3.96
			c-0.13,5.64,4.29,9.81,7.45,14.09c0.12,0.16,0.27,0.23,0.43,0.24c-0.05-0.67-0.12-1.48-0.23-2.55
			C163.83,162.42,160.77,152.3,158.83,146.63z"/>
	</g>
	<g>
		<path class="st57" d="M169.76,146.52c0.5-0.92,0.38-1.15,1.06-0.93c1.06,0.34,2.34,0.78,3.68,1.31c0.31,1.25,0.55,2.56,0.2,3.62
			c-0.16,0.49-0.38,0.77-0.77,1.13c-0.3,0.27-0.85,0.37-1.1,0.66c-0.93,1.05-1.03,2.66-1,3.96c0.13,5.64-4.02,10.16-7.18,14.44
			c-0.12,0.16,0.16-0.02,0,0c0.05-0.67-0.58-1.59-0.47-2.66C164.77,162.31,167.82,152.19,169.76,146.52z"/>
	</g>
	<path class="st58" d="M181.69,167.52c-0.16,1.81-0.52,3.57-1.09,5.3c-0.12,0.36,0.44,0.51,0.56,0.15c0.59-1.78,0.96-3.59,1.11-5.46
		C182.3,167.15,181.72,167.15,181.69,167.52z"/>
	<g>
		<path class="st57" d="M143.76,175.31c-1.27,0.34-2.54,0.67-3.81,1.02c-0.36,0.1-0.21,0.65,0.15,0.56
			c1.27-0.34,2.54-0.68,3.81-1.02C144.27,175.78,144.12,175.22,143.76,175.31z"/>
	</g>
	<g>
		<path class="st57" d="M148.87,154.7c-0.08-0.36-0.63-0.21-0.55,0.15c0.77,3.66,0.12,7.33-0.51,10.97
			c-0.58,3.36-1.22,6.7-2.32,9.93c-0.12,0.36,0.44,0.51,0.56,0.15c1.21-3.58,1.88-7.3,2.5-11.02
			C149.13,161.5,149.6,158.09,148.87,154.7z"/>
	</g>
	<g>
		<path class="st1" d="M188.07,165.67c-1.19-4.6-2.72-9.08-5.23-13.13c-0.07-0.21-0.19-0.42-0.35-0.63l-0.36-0.45
			c-0.28-0.34-0.62-0.5-0.97-0.54c-1.46-1.32-3.62,1-2.27,2.64l0.71,0.86c0.17,0.2,0.36,0.34,0.57,0.43
			c0.47,0.81,0.91,1.63,1.3,2.47c-0.74,0.12-1.36,0.66-1.27,1.65c0.01,0.07,0.02,0.15,0.02,0.22c-0.4,0.26-0.68,0.71-0.7,1.33
			c-1.18,2.12-0.76,5.68-0.36,8.23c-1.05-0.14-11.83,11.98-11.62,13.4c0.58,3.85,10.68,6.19,16.25,5.79
			c3.68-0.27,6.82-1.71,7.25-3.52C192.06,180.3,189.1,169.64,188.07,165.67z"/>
	</g>
	<path class="st9" d="M170.22,177.88c-0.17-0.79-0.99-0.92-1.41-1.66c-0.84-1.49-4.37-0.83-5.76-0.35
		c-2.41,0.84-9.74,4.63-11.03,5.43c-0.32,0.2,0.03,0.66,0.34,0.47c0.04-0.03,0.09-0.05,0.13-0.08c0.02,0.03,0.04,0.05,0.06,0.07
		c-0.09,0.05-0.18,0.09-0.27,0.14c-0.03,0.02-0.05,0.03-0.07,0.04c-0.3,0.17-0.02,0.62,0.28,0.51c0.28-0.11,0.56-0.22,0.84-0.33
		c-0.19,0.1-0.38,0.2-0.56,0.3c-0.03,0.02-0.05,0.03-0.08,0.04c-0.21,0.12-0.12,0.4,0.05,0.5c-0.01,0.01-0.03,0.01-0.04,0.02
		c-0.29,0.17-0.01,0.65,0.28,0.51c0.02-0.01,0.04-0.02,0.06-0.03c0.02,0.08,0.07,0.15,0.15,0.18c0.02,0.02,0.03,0.05,0.05,0.07
		c-0.33,0.16-0.13,0.7,0.21,0.54c1.23-0.58,3.76-1.52,5.14-1.62c1.18-0.09,2.35,0.08,3.53,0.09c1.36,0.01,3.73-0.85,3.9-1.86
		c0.04-0.23-0.17-0.38-0.39-0.32c-1.09,0.3-2.15,0.43-3.26,0.4c0.72-0.93,2.23-1.07,3.03-1.22
		C166.17,179.58,170.45,178.94,170.22,177.88z"/>
	<path class="st9" d="M160.43,181.23c-0.19,0.78,0.49,1.26,0.54,2.1c0.1,1.71,3.57,2.67,5.02,2.84c2.53,0.3,10.78,0.11,12.29-0.05
		c0.37-0.04,0.27-0.61-0.1-0.57c-0.05,0.01-0.1,0.01-0.15,0.01c0-0.03-0.01-0.06-0.03-0.09c0.1,0,0.2-0.01,0.3-0.01
		c0.03,0,0.06,0,0.08,0c0.34-0.02,0.29-0.55-0.03-0.58c-0.3-0.03-0.6-0.05-0.9-0.07c0.21-0.01,0.42-0.01,0.64-0.03
		c0.03,0,0.06,0,0.09,0c0.24-0.02,0.29-0.31,0.17-0.47c0.02,0,0.03,0,0.05,0c0.33-0.02,0.3-0.58-0.03-0.58c-0.02,0-0.04,0-0.07,0
		c0.01-0.08,0-0.16-0.05-0.23c0-0.03-0.01-0.06-0.02-0.08c0.37,0,0.42-0.57,0.05-0.58c-1.36-0.02-4.04-0.28-5.33-0.79
		c-1.1-0.44-2.08-1.1-3.13-1.62c-1.21-0.61-3.72-0.88-4.32-0.04c-0.14,0.19-0.01,0.42,0.21,0.46c1.11,0.21,2.12,0.56,3.11,1.07
		c-1.06,0.52-2.48-0.02-3.26-0.23C164.82,181.47,160.69,180.17,160.43,181.23z"/>
	<g>
		<path class="st1" d="M158.03,181.04c-0.61-1.18-1.21-2.37-1.82-3.55c-0.65-1.25-2.45-0.29-2.1,0.94
			c-0.28,0.25-0.53,0.63-0.73,1.07c-0.06-0.05-0.11-0.09-0.17-0.13c-0.36-0.24-0.82-0.18-1.18,0c-1.8,0.89-1.4,4.68,0.01,5.77
			c0.18,0.14,0.35,0.23,0.52,0.31c0.03,0.71,0.59,1.37,1.43,1.12c1.43-0.43,4.55-1.41,4.89-3.11
			C159.04,182.6,158.39,181.74,158.03,181.04z"/>
	</g>
	<g>
		<path class="st1" d="M179.97,183.03c-0.04-0.68-0.47-1.04-0.95-1.12c-0.27-0.34-0.71-0.5-1.12-0.46
			c-0.01-0.19-0.02-0.38-0.03-0.57c-0.05-0.7-0.69-1.14-1.28-1.15c-0.01-1.4-2.22-1.36-2.32,0.09c-0.16,2.28-0.21,4.55-0.18,6.83
			c0.02,1.16,1.27,1.42,1.96,0.8c0.3,0.26,0.72,0.39,1.09,0.26c0.24-0.09,0.42-0.19,0.57-0.32c0.65,0.5,1.74,0.21,1.86-0.89
			c0.08-0.74,0.17-1.48,0.25-2.22C179.94,183.89,180,183.48,179.97,183.03z"/>
	</g>
	<g>
		<path class="st57" d="M177.52,155.34c0.08-0.36,0.63-0.21,0.55,0.15c-0.77,3.66-0.12,7.33,0.51,10.97
			c0.58,3.36,1.22,6.7,2.32,9.93c0.12,0.36-0.44,0.51-0.56,0.15c-1.21-3.58-1.88-7.3-2.5-11.02
			C177.26,162.14,176.79,158.74,177.52,155.34z"/>
	</g>
	<g>
		<path class="st57" d="M185.38,176.61c-1.28,0.02-2.53,0.2-3.76,0.56c-0.36,0.1-0.21,0.66,0.15,0.56c1.18-0.33,2.38-0.51,3.6-0.54
			C185.75,177.19,185.75,176.61,185.38,176.61z"/>
	</g>
	<g>
		<path class="st7" d="M109.31,193.25c-0.38-0.79-1.88-0.7-2.22,0.27c-0.02,0.07-0.05,0.14-0.07,0.21
			c-0.11-0.07-0.23-0.12-0.36-0.14c-0.15-0.63-0.4-1.2-0.84-1.69c-0.59-0.66-1.74-0.3-1.95,0.52c-0.19,0.73-0.37,1.47-0.54,2.21
			c0.12-0.76,0.23-1.52,0.36-2.27c0.24-1.46-3.44,5.6-4.1,6.94c-10.13,20.47-0.27,75.17,0.28,76.43c1.09,2.49,6.82,1.85,8.96,1.66
			c0.71-0.06,1.76-0.05,1.76-2.18c0.02-25.69,2.16-56.88,3.01-82.56C113.63,191.86,109.75,193.4,109.31,193.25z"/>
	</g>
	<g>
		<path class="st7" d="M120.31,194.34c-0.1-1.3-8.33-1.09-8.38-0.1c-0.38,6.96-0.34,18.69-0.33,25.65c-0.12,0.17-0.2,0.37-0.22,0.62
			c-0.81,10.89-1.83,21.76-3.04,32.6c-0.07,0.64,0.42,1.03,0.97,1.12c-0.18,1.09-0.32,2.18-0.44,3.28c-0.37,1.99-0.67,3.99-0.87,6
			c-0.31,3.25-0.98,8.16,0.72,11.29c-0.06-0.02-0.12-0.03-0.18-0.05c-1.46-0.39-2.08,1.87-0.62,2.26c1.7,0.46,6.79,0.5,8.12-1.13
			c0.79-0.97,7.6-46.57,7.46-54.06C123.36,214.06,120.94,202.09,120.31,194.34z"/>
	</g>
	<g>
		<path class="st5" d="M116.46,151.06c-1.68-0.83-3.37-1.64-5.08-2.39c-0.15-0.07-0.3-0.1-0.44-0.12c-0.92-0.22-2.08,0.41-2.08,1.8
			c0.02,5.13-1.01,10.11-1.48,15.25c-0.21,2.3,7.85,1.03,8.02,0.12c0.64-3.48,1.52-9.17,1.93-12.69
			C117.41,152.26,117.14,151.4,116.46,151.06z"/>
	</g>
	<g>
		<path class="st16" d="M114.1,153.69c-0.59-0.12-1.25,0.17-1.19,0.96c0.04,0.55,0.46,0.84,0.76,1.2c0.49,0.61,0.71,1.38,1.15,2.01
			c0.43,0.62,1.04,0.97,1.69,1.2c0.21-1.37,0.5-3.49,0.67-4.76C117.36,154.29,116.17,154.13,114.1,153.69z"/>
	</g>
	<g>
		<path class="st5" d="M122.52,146.76c0.69-0.59,1.32-1.47,0.77-2.34c-0.35-0.55-2.45-3.12-2.71-3.51c-0.59-1.51-1.24-5.54-4.54-6.7
			c-1.66-1.32-5.29,1.69-7.34,2.42c-1.73,0.62-2.37,1.75-3.18,3.57c-2.42,5.43-0.75,6.54,2.43,11.19c0.55,0.81,2.45,1.51,3.33,2.3
			c1.53,1.38,8.23,1.41,10.42,0.26c1.65-0.86,1.56-2.86,1.02-6.19C122.66,147.43,122.59,147.09,122.52,146.76z"/>
	</g>
	<g>
		<path class="st7" d="M124.8,171.75c0.22-3.56-0.13-7.3-3.06-9.51c-2.89-2.18-7-2.47-10.54-2.44c-0.2-0.11-0.44-0.12-0.75-0.09
			c-4.17,0.33-7.52,0.34-10.28,2.47c-2.87,2.2-2.96,7.06-2.97,10.44c-0.02,4.55-0.17,9.14,0.03,13.69c0.15,3.28,0.61,7.46,3.1,9.74
			c1.01,0.93,8.14,0.28,10.62,0.49c3.2,0.27,8.99,0.9,9.67-0.12c1.81-2.71,2.4-7.52,2.79-10.65
			C123.98,181.11,124.51,176.43,124.8,171.75z"/>
	</g>
	<g>
		<path class="st5" d="M119.96,161.27c-2.67-1.43-5.95-1.61-8.86-1.53c-0.2-0.13-0.44-0.13-0.75-0.1c-2.31,0.24-4.36,0.38-6.21,0.87
			c1.87,3.56,5.2,6.23,9.5,5.85C116.8,166.07,119.13,163.99,119.96,161.27z"/>
	</g>
	<path class="st18" d="M127.25,220.89c-0.14-6.06-0.27-12.12-0.12-18.18c0.15-6.02-0.25-10.2-0.28-16.22
		c-0.01-3.45,0.72-8.72,0.49-12.16c-0.18-2.68-0.11-5.63-0.91-8.23c-1.24-4.01-4.89-5.43-8.69-5.99c-0.81-0.11-1.75-0.07-1.7,1.05
		c0.55,12.22,0.68,23.38,0.64,35.61c-0.02,6.12-0.08,12.23-0.17,18.35c-0.04,3.06-0.09,6.12-0.15,9.17c-0.03,2.01-0.7,5,0.38,6.84
		c0.67,1.14,1.91,1.59,3.15,1.87c1.61,0.36,5.1,1.46,6.62,0.66c1.13-0.59,0.93-2.06,0.94-3.11
		C127.47,227.33,127.33,224.1,127.25,220.89z"/>
	<path class="st18" d="M108.2,160.33c0.02-0.51-0.53-1.05-1.4-1.04c-2.18,0.01-4.34,0.32-6.47,0.76c-4.34,0.9-7.23,4.53-7.92,5.56
		c-4.41,6.67-6.93,15.54-8.24,22.97c-0.71,4-0.86,9.06,3.28,11.28c1.67,0.9,2.68,1,4.58,1.08c-0.63,3.78-2.87,20-3.12,24.35
		c-0.11,2.04-1.24,6.68,1.47,7.52c1.38,0.43,3.56-0.26,4.88-0.49c2.42-0.43,7.22-0.93,8.32-1.66c1.52-1.01,1.22-3.1,1.39-4.83
		c0.31-3.22,0.47-6.44,0.56-9.67c0.16-6.28,0.02-12.57,0.02-18.85C105.57,184.87,107.63,172.72,108.2,160.33z"/>
	<path class="st18" d="M131.68,191.78c-0.11-2.47-0.28-4.93-0.49-7.39c-0.66-7.48-0.66-17.37-7.42-22.18
		c-0.92-0.65-1.78,0.85-0.88,1.5c1.45,1.05,2.54,2.38,3.36,3.89c-0.45,0.06-0.87,0.47-0.79,1.08c0.31,2.27,0.57,4.55,0.78,6.83
		c-0.32,3.67-0.31,7.33-0.11,10.99c-0.02,0.3-0.04,0.61-0.07,0.91c-0.26,0.13-0.46,0.37-0.49,0.74c-0.11,1.64-0.17,3.27-0.19,4.9
		c-0.1,1.68-0.24,3.36-0.42,5.03c-0.02,0.18,0.02,0.33,0.1,0.46c-0.02,0.63-0.02,1.26,0.01,1.91c0.01,0.39,0.23,0.65,0.52,0.78
		c-0.06,0.02-0.12,0.03-0.18,0.05c-1.09,0.29-0.71,0.77,0.39,0.48c2.65-0.7,5.4-1.42,5.92-4.41
		C132.09,195.25,131.78,193.92,131.68,191.78z"/>
	<g>
		<path class="st7" d="M115.77,182.32l-15.45,12.68c-1.74,1.43-1.99,3.99-0.56,5.73l5.96,7.26c1.43,1.74,3.99,1.99,5.73,0.56
			l15.45-12.68c1.74-1.43,1.99-3.99,0.56-5.73l-5.96-7.26C120.07,181.15,117.51,180.9,115.77,182.32z"/>
	</g>
	<path class="st9" d="M118.94,196.17c-0.99-0.27-1.99-0.5-3-0.72c0.02,0.23,0.02,0.45,0.01,0.66c1.6,0.35,3.14,0.84,4.65,1.49
		c0.26,0.11,0.34,0.43,0.12,0.63c-0.24,0.22-1.76-0.03-2.51-0.22c-0.87-0.22-6.01-0.46-6.91-0.66c-0.86-0.19-1.55-0.3-2.35-0.62
		c-1-0.4-6.47-0.25-7.53-0.39c-0.36-0.05-1.44-3.36-1.24-3.46c0.01-0.07,6.82-0.71,6.88-0.78c1.05-1.15,2.72-1.47,4.16-1.85
		c1.04-0.28,2.1-0.54,3.16-0.74c0.47-0.09,0.83-0.22,1.22,0.1c0.16,0.14,0.21,0.33,0.1,0.52c-0.4,0.67-1.14,0.79-1.86,1.01
		c-0.25,0.08-0.5,0.13-0.76,0.19c0.07,0,0.15,0,0.22,0c2.78,0,5.49,0.18,8.06,1.32c0.44,0.19,0.23,0.81-0.24,0.7
		c-1.93-0.45-3.87-0.7-5.83-0.75c0.02,0.01,0.05,0.02,0.07,0.02c0.04,0.01,0.07,0.03,0.1,0.06c2.4,0.36,5.33,0.63,7.23,2.05
		c0.3,0.22,0.12,0.8-0.23,0.68c-1.45-0.49-2.65-0.69-3.96-1.04c-0.95-0.26-1.93-0.48-2.91-0.62c0.03,0.12,0.07,0.23,0.1,0.35
		c2.16,0.35,4.67,0.76,6.35,2.1c0.23,0.19,0.2,0.75-0.14,0.67C121.15,196.68,119.88,196.42,118.94,196.17z"/>
	<path class="st18" d="M107.22,190.74c-0.05-0.27-0.34-0.56-0.61-0.61c-1.85-0.33-4.07,0.3-5.97,0.36
		c-2.48,0.07-4.93-0.07-7.39-0.34c-1.11-0.12-1.1,1.61,0,1.74c1.97,0.23,3.93,0.37,5.91,0.37c0.45,0,1.55-0.14,2.69-0.26
		c-0.03,0.02-0.05,0.03-0.08,0.05c-1.88,1.12-3.9,1.9-6.02,2.45c-0.9,0.24-0.76,1.4,0,1.69c0.65,0.25,1.33,0.34,2.02,0.33
		c-0.25,0.14-0.49,0.28-0.74,0.41c-0.38,0.2-0.49,0.52-0.44,0.83c-0.49,0.2-0.96,0.44-1.4,0.75c-0.63,0.45-0.51,1.73,0.44,1.64
		c3.07-0.3,7.57-0.62,10.15-2.44C107.35,196.6,107.52,192.4,107.22,190.74z"/>
	<path class="st9" d="M107.13,207.48c1.27-0.6,2.49-1,3.57-1.65c-0.44,0.11-0.9,0.2-1.37,0.19c-0.64-0.01-2.19-0.1-2.62-0.7
		c-0.13-0.18-0.02-0.44,0.2-0.46c0.93-0.1,1.86,0.1,2.82-0.03c0.54-0.07,1.06-0.2,1.55-0.38c-0.62,0.09-1.34,0.13-1.79-0.27
		c-0.19-0.17-0.11-0.48,0.15-0.52c1.01-0.15,2.58-0.43,3.54-1.13c-0.37-0.02-1.09-0.25-1.02-0.75c0.07-0.48,0.98-0.49,1.31-0.61
		c0.33-0.12,1.04-0.49,1.1-0.5c0.31-0.14,5.24-0.63,5.57-0.73c1.96-1.12,0.19-0.37,2.31-0.46c0.58-0.02,0.52,0.87-0.05,0.9
		c-0.3,0.01-0.62,0.01-0.94,0.01c0.25,0.09,0.34,0.39,0.25,0.61c0.16,0.05,0.32,0.08,0.48,0.13c0.42,0.15,0.39,0.74-0.03,0.86
		c0.29,0.21,0.24,0.78-0.17,0.81c-1.53,0.12-3.21,0.08-4.7,0.45c-1.86,0.46-2.74,1.77-4.01,3.04c-1.64,1.64-3.72,2.12-5.99,2.05
		C106.86,208.32,106.72,207.67,107.13,207.48z"/>
	<path class="st18" d="M129.95,197.17c-1.71,1.23-3.49,2.4-5.33,3.44c0.09-0.46-0.13-0.96-0.54-1.06c1.28-0.69,2.62-1.38,3.97-1.56
		c1.11-0.15,0.64-1.85-0.47-1.69c-1.47,0.2-2.74,0.98-4.06,1.62c-1.57,0.77-3.24,1.46-4.73,2.37c-1.08,0.67-3.39,2.74-2.35,4.29
		c0.97,1.46,4.04-0.02,5.13-0.5c3.28-1.45,6.36-3.3,9.25-5.42C131.71,198.01,130.86,196.52,129.95,197.17z"/>
	<path class="st59" d="M106.8,159.29c-0.32,0-0.65,0.01-0.97,0.03c-1.37,2.54-1.76,5.28-1.36,8.36c0.52,4.08,1.34,8.15,2.1,12.21
		c0.61-6.51,1.33-13,1.63-19.56C108.22,159.83,107.67,159.29,106.8,159.29z"/>
	<path class="st59" d="M117.74,160.1c-0.81-0.1-1.75-0.06-1.7,1.07c0.32,7.07,0.49,13.79,0.58,20.57c0.03-0.06,0.05-0.13,0.07-0.21
		c0.87-4.93,1.95-9.88,2.58-14.84c0.29-2.31,0.15-4.42-0.52-6.41c-0.33-0.06-0.67-0.12-1.01-0.17
		C117.74,160.11,117.74,160.1,117.74,160.1z"/>
	<path class="st59" d="M90.32,188.75c-0.82,0.42-1.61,0.89-2.37,1.41c-0.3,0.21-0.02,0.71,0.29,0.5c0.76-0.52,1.55-0.99,2.37-1.41
		C90.95,189.08,90.65,188.58,90.32,188.75z"/>
	<path class="st59" d="M104.41,189.53c-3.12,0.24-6.24,0.31-9.38,0.24c-2.21-0.05-4.49,0.01-6.1,1.73
		c-0.25,0.27,0.15,0.68,0.41,0.41c1.92-2.02,4.87-1.54,7.39-1.52c2.56,0.02,5.12-0.07,7.68-0.27
		C104.78,190.08,104.79,189.5,104.41,189.53z"/>
	<path class="st59" d="M96.11,165.41c-0.04-0.36-0.61-0.37-0.58,0c0.81,7.78-2.05,15.29-4.32,22.6c-0.11,0.36,0.45,0.51,0.56,0.16
		C94.05,180.82,96.95,173.23,96.11,165.41z"/>
	<path class="st59" d="M124.33,172.15c-0.01-0.37-0.59-0.37-0.58,0c0.11,4.42,0.39,8.83,0.87,13.22c0.04,0.37,0.62,0.37,0.58,0
		C124.73,180.98,124.44,176.57,124.33,172.15z"/>
	<g>
		<path class="st7" d="M121.22,132.83c-0.73-0.7-1.8-0.92-2.91-0.84c0.09-0.46-0.05-0.9-0.61-1.23c-1.07-0.64-2.43-0.01-3.73,0.81
			c-0.09-0.48-0.45-0.86-1.19-0.98c-1.25-0.19-2.3,0.61-3.12,1.64c-0.76-1.12-2.46-0.04-3.17,0.59c-0.4,0.35-0.72,0.75-0.99,1.19
			c-0.69-0.53-1.64-0.29-2.38,0.58c-0.46,0.54-0.66,1.18-0.47,1.87c0.04,0.17,0.12,0.32,0.21,0.48c-1.29,0.26-1.23,1.97-1.04,3.43
			c-0.28,0-0.58,0.1-0.87,0.34c-0.52,0.43-0.61,1.2-0.48,1.83c0.08,0.38,0.24,0.73,0.48,1.03c0.27,0.32,0.87,0.61,1.24,0.99
			c0.09,0.63,0.27,1.26,0.55,1.91c0.68,1.55,1.83,2.73,3,3.92c0.7,0.71,1.9,2.48,3.09,2.51c0.56,0.01,1.02-0.31,1.33-0.77
			c1.41-2.14-1.54-4.17,1.12-6.25c0.9-0.71,1.92-0.74,2.47-1.93c0.23-0.5-0.05-0.96,0.06-1.83c0.04-0.29,0.08-0.56,0.13-0.82
			c0.22-0.04,0.43-0.12,0.62-0.2c0.86-0.38,1.85-1.22,2.01-2.19c0.01-0.06,0.01-0.13,0.01-0.19c1.1-0.38,2.09-1.04,2.46-2.09
			c0.11-0.31,0.12-0.56,0.08-0.79C120.55,135.61,122.9,134.44,121.22,132.83z"/>
	</g>
	<g>
		<path class="st57" d="M162.33,201.14c-0.97,3.31-2.03,6.83-4.72,9.17c-2.7,2.34-6.41,3.07-9.88,3.21c-0.37,0.02-0.37,0.6,0,0.58
			c3.49-0.15,7.15-0.86,9.95-3.1c3-2.4,4.18-6.16,5.22-9.71C163,200.94,162.44,200.79,162.33,201.14z"/>
	</g>
	<g>
		<path class="st57" d="M180,212.78c-7.29,1.83-11.33-5.94-13.1-11.63c-0.11-0.36-0.67-0.2-0.56,0.15c1.08,3.44,2.45,7.05,5.18,9.54
			c2.34,2.13,5.51,3.28,8.64,2.49C180.52,213.25,180.36,212.69,180,212.78z"/>
	</g>
	<path class="st9" d="M120.95,142.2c-0.22-0.64-0.97-1.78-1.01-1.8c-0.7-0.71-1.73-0.54-2.15,0.46c-0.16,0.39-0.23,0.85-0.23,1.32
		c-2.12,1.06-4.28,2.02-6.5,2.87c-0.35,0.13-0.2,0.7,0.16,0.56c2.17-0.83,4.3-1.77,6.39-2.8c0.11,0.76,0.4,1.51,0.83,2.04
		c0.7,0.85,1.87,0.86,2.46-0.14C121.33,143.98,121.25,143.06,120.95,142.2z M120.49,144.03c-0.16,0.66-0.43,1.04-1.3,0.62
		c-0.49-0.23-0.79-1.06-0.91-1.55c-0.09-0.37-0.15-0.75-0.13-1.13c0.03-0.66,0.84-1.91,1.46-1.1c0.34,0.49,0.62,0.99,0.79,1.56
		C120.5,142.77,120.53,143.84,120.49,144.03z"/>
	<path class="st18" d="M442.55,187.17c4.49-11.32,9.2-19.27,5.7-26.1c-1.97-3.84-8.19-8.57-12.41-9.24
		c-3.7-0.59-2.59-2.12-6.78-0.96c-0.43-0.2-0.94-0.23-1.49,0.02c-4.67,2.14-9.55,4.82-13.38,8.29c-3.61,3.27-3.09,8.95-2.59,13.36
		c0.67,5.91,2.28,11.65,2.08,17.64c-0.21,6.45-2.37,14.83-3.03,21.23c-0.08,0.78-0.43,3.33,2.5,3.17c3.57-0.2,8.56-12.33,9.21-13.78
		c0.72,2.84,3.87,8.26,5.58,10.47c2.72,3.5,10.52,9.09,14.17,3.37c1.77-2.77,1.19-8.19,0.87-11.18
		C442.41,198.19,440.48,192.38,442.55,187.17z"/>
	<path class="st59" d="M435.58,151.79c-0.33,0.6-0.62,1.21-0.94,1.79l-3.57,6.4c-0.19,0.34-0.05,0.62,0.19,0.76
		c-0.32,0.66-0.61,1.33-0.91,1.9c-1.39,2.69-2.64,5.44-3.79,8.24c-0.17,0.43,0.07,0.78,0.4,0.86c-0.1,0.15-0.2,0.31-0.3,0.46
		c-0.51,0.82-0.99,1.66-1.45,2.51c-0.18,0.26-0.33,0.53-0.43,0.79c-0.04,0.07-0.08,0.14-0.12,0.21c-0.16,0.31-0.64,1.51-1.08,2.19
		c-0.12-0.21-0.23-0.43-0.36-0.65c0.22-0.08,0.4-0.26,0.36-0.54c-0.02-0.18-0.05-0.35-0.07-0.53c-0.91-6.45-0.28-12.91,0.41-19.35
		c0.03-0.24-0.11-0.41-0.3-0.5c0.13-0.55,0.22-1.1,0.28-1.66c0.07-0.28,0.14-0.56,0.21-0.84c0.06-0.22,0-0.39-0.12-0.52
		c0.01-0.23,0.02-0.46,0.02-0.69c-1.97,1.02-3.92,2.15-5.76,3.41c-0.71,1.41-1.38,2.83-1.88,4.28c-0.81,2.37,0.06,4.46,0.69,6.8
		c0.71,2.61,1.32,5.28,2.37,7.78c0.74,1.76,1.89,4.77,3.53,5.88c0.14,0.1,0.32,0.1,0.48,0.04c0.2,0.28,0.59,0.41,0.86,0.06
		c2.21-2.88,4.36-5.83,6.71-8.61c2.15-2.55,4.59-4.85,6.71-7.44c1.61-1.96,3.11-4.11,3.91-6.54c0.44-1.34,0.39-2.61,0.08-3.85
		c-2-1.33-4.11-2.32-5.87-2.61C435.74,151.82,435.67,151.8,435.58,151.79z"/>
	<g>
		<path class="st7" d="M435.84,151.83c-3.7-0.59-2.59-2.12-6.78-0.96c-0.43-0.2-0.94-0.23-1.49,0.02c-1.46,0.67-2.94,1.4-4.4,2.18
			c-0.71,9.06-1.52,18.76-0.04,27.67c0.1,0.61,1,0.51,1.15-0.01c2.73-10.03,7.27-19.47,11.66-28.88
			C435.91,151.85,435.87,151.84,435.84,151.83z"/>
	</g>
	<g>
		<path class="st5" d="M432.73,140.23c-1.98-0.59-3.97-1.14-5.98-1.64c-0.18-0.04-0.35-0.06-0.51-0.05
			c-1.05-0.09-2.23,0.72-1.99,2.11c0.86,5.14,0.44,8.19,0.76,13.41c0.14,2.33,8.91,1.97,8.94,1.03c0.13-3.58,0.17-9.42,0.05-13.01
			C433.97,141.29,433.53,140.47,432.73,140.23z"/>
	</g>
	<g>
		<path class="st16" d="M428.05,150.9c0.86-0.66,1.99-0.84,2.79-1.58c0.91-0.84,1.26-3.01-0.52-2.88c-0.21,0.02-0.36,0.12-0.46,0.26
			c-0.77,0.07-1.79,0.7-2.44,1.13c-0.1-0.09-0.23-0.15-0.36-0.15c-0.71,0-1.53,0.34-2.23,0.85c0.03,1.36,0.05,2.72,0.09,4.09
			c0.32,0.03,0.65,0,0.96-0.1C426.78,152.22,427.33,151.45,428.05,150.9z"/>
	</g>
	<g>
		<path class="st5" d="M433.85,127.39c-1.21-1.63-3.58-2.03-5.44-2.27c-2.2-0.28-4.48-1.39-5.84,0.29
			c-1.62,1.38-2.48,2.25-2.78,4.46c-0.54,4.07-1.03,10.82,0.51,14.58c1.22,2.98,3.11,4.09,4.62,4.11c2.52,0.03,4.44-1.74,5.79-3.35
			c1.17-1.39,2.55-3.55,2.93-4.48C435.77,135.42,437.46,132.26,433.85,127.39z"/>
	</g>
	<g>
		<path class="st7" d="M434.27,125.64c-2.68-1.81-7.16-1.84-10.24-1.08c-2.01,0.5-3.53,2.42-3.77,3.37c-0.09,0.5,0.19,1.09,0.85,1.1
			c2.07,0.04,4.35,0.03,6.21,1.06c2.33,1.28,2.22,3.26,3.06,5.37c0.06,0.15,0.18,0.26,0.24,0.39c0.71,1.74,0.97,1.74,1.29,3.37
			c0.16,0.8,0.29,1.69,0.87,2.32c0.2,0.21,0.6,0.33,0.87,0.22c1.14-0.45,1.31-1.55,1.68-2.66c0.66-1.99,1.34-4,1.61-6.08
			C437.3,130.18,436.77,127.32,434.27,125.64z"/>
	</g>
	<g>
		<path class="st5" d="M433.04,136.91c-0.36-0.63-1.08-1.07-1.95-1.04c-0.96,0.04-1.44,0.62-1.89,1.25
			c-0.71,0.98,0.81,1.71,1.75,1.16c0.02,0.16,0.06,0.33,0.05,0.45c-0.06,0.63-0.36,1.19-0.76,1.72c-0.83,1.1,1.29,1.95,2.12,0.87
			C433.3,140.11,433.81,138.26,433.04,136.91z"/>
	</g>
	<g>
		<path class="st7" d="M430.69,145.24c2.33-3.41,1.72-8.66,1.04-12.38c-0.1-0.52-0.66-0.51-0.96-0.21
			c-0.31-0.45-1.16-0.36-1.07,0.28c0.41,3.16,0.54,7-1.24,9.8c-1.23,1.93-3.25,3.32-5.58,2.64c-1.36-0.4-2.16-0.88-3.09-2.57
			c0.14,0.6,0.31,1.16,0.51,1.67c1.22,2.98,3.11,4.09,4.62,4.11c0.15,0,0.29,0,0.43-0.01c1-0.11,2.02-0.49,3.01-1.12
			C429.27,146.81,430.04,146.01,430.69,145.24z"/>
	</g>
	<g>
		<path class="st57" d="M494.06,183.92c-0.02-0.12-0.17-0.23-0.29-0.22c-2.85,0.2-5.68,0.51-8.5,0.92
			c-0.16,0.02-0.22,0.14-0.21,0.26c-0.02,0.04-0.04,0.08-0.04,0.13c-0.09,0.92-0.77,2.93,0.2,3.53c1.08,0.67,3.35-0.13,4.46-0.35
			c0.96-0.19,1.93-0.38,2.89-0.58c0.47-0.1,1.15-0.14,1.47-0.57C494.61,186.28,494.21,184.77,494.06,183.92z M493.32,186.63
			c-0.55,0.55-1.61,0.56-2.36,0.71c-0.87,0.17-1.73,0.36-2.6,0.52c-0.5,0.09-1.06,0.27-1.56,0.25c-0.41-0.02-1.24-0.05-1.45-0.51
			c-0.2-0.46,0.13-1.77,0.22-2.41c1.69-0.24,3.39-0.45,5.09-0.62c0.48-0.05,2.08-0.45,2.53-0.22
			C493.95,184.72,493.71,186.24,493.32,186.63z"/>
	</g>
	<g>
		<path class="st57" d="M461.46,187.04c0.32,0.43,1,0.48,1.47,0.57c0.96,0.2,1.93,0.39,2.89,0.58c1.11,0.22,3.38,1.02,4.46,0.35
			c0.97-0.6,0.29-2.61,0.2-3.53c0-0.05-0.02-0.09-0.04-0.13c0.01-0.12-0.05-0.24-0.21-0.26c-2.82-0.41-5.66-0.72-8.5-0.92
			c-0.12-0.01-0.27,0.1-0.29,0.22C461.28,184.77,460.89,186.28,461.46,187.04z M462.29,184.34c0.45-0.23,2.06,0.17,2.53,0.22
			c1.7,0.17,3.4,0.38,5.09,0.62c0.1,0.64,0.42,1.96,0.22,2.41c-0.2,0.46-1.04,0.5-1.45,0.51c-0.5,0.02-1.07-0.16-1.56-0.25
			c-0.87-0.16-1.73-0.35-2.6-0.52c-0.75-0.15-1.8-0.16-2.36-0.71C461.78,186.24,461.55,184.72,462.29,184.34z"/>
	</g>
	<path class="st59" d="M417.1,196.4c0-0.05-0.01-0.1-0.03-0.14c0.02-0.12-0.02-0.24-0.18-0.28c-1.26-0.33-2.53-0.64-3.8-0.93
		c-0.04,0.19-0.1,0.38-0.17,0.57c1.2,0.27,2.4,0.56,3.59,0.87c0.02,0.65,0.2,1.99-0.05,2.42c-0.25,0.44-1.09,0.38-1.49,0.35
		c-0.5-0.03-1.04-0.27-1.52-0.42c-0.34-0.1-0.68-0.21-1.02-0.32c-0.02,0.2-0.05,0.4-0.09,0.59c1.14,0.4,3.09,1.28,4.16,0.77
		C417.53,199.39,417.08,197.32,417.1,196.4z"/>
	<g>
		<path class="st7" d="M434.73,152.17c-0.11-1.67-0.22-2.25-1.87-2.22c-2.25,0.05-5.09-0.27-7.26,0.4
			c-2.35,0.72-0.51,2.23-1.73,3.86c-0.43,0.57,0.32,1.27,0.8,0.86c0.01,0.26,0.02,0.53,0.03,0.79c0.02,0.67,1.07,0.73,1.18,0.07
			c0.04-0.22,0.07-0.45,0.11-0.67c0.09,0.03,0.18,0.03,0.27,0.02c0.05,0.39,0.52,0.64,0.85,0.5c0.06,0.33,0.43,0.52,0.74,0.47
			c0.11,0.5,0.99,0.57,1.18-0.05c0.02-0.05,0.03-0.1,0.05-0.15c0.72,0.21,1.49,0.44,2.22,0.42c0.13,0,0.24-0.02,0.34-0.04
			c0.14,0.04,0.3,0.03,0.44-0.03c0.17,0.22,0.46,0.33,0.77,0.12C434.33,155.51,434.84,153.93,434.73,152.17z"/>
	</g>
	<path class="st18" d="M459.08,186.13c0.3-3.67-2.57-7.76-4.05-10.94c-2.06-4.43-4.12-8.86-6.19-13.29
		c-0.96-2.05-4.3-0.88-3.34,1.21c0.23,0.5,0.47,1,0.7,1.5c-0.71-0.66-1.54-1.14-2.54-1.28c-1.29-0.18-2.53,1.05-2,2.36
		c0.05,0.13,0.1,0.25,0.15,0.37c-0.41,0.31-0.69,0.76-0.68,1.28c-0.22,0.38-0.27,0.86-0.03,1.4c2.49,5.74,4.98,11.48,7.45,17.22
		c-2.48,2.05-4.91,4.14-7.3,6.29c-1.13,1.02-3.09,2.27-3.45,3.89c-0.39,1.76,0.94,3.84,1.55,5.39c0.53,1.35,2.06,1.46,3.04,0.56
		c3.35-3.11,6.86-6.05,10.52-8.78C455.42,191.43,458.79,189.64,459.08,186.13z"/>
	<path class="st59" d="M411.87,171.55c0-0.38-0.59-0.37-0.59,0.01c-0.08,6.6,2.53,12.9,2.02,19.53c-0.5,6.46-2.84,12.66-2.65,19.2
		c0.01,0.38,0.6,0.38,0.59-0.01c-0.17-6.53,2.15-12.73,2.65-19.2C414.4,184.45,411.8,178.15,411.87,171.55z"/>
	<path class="st59" d="M452.93,184.09c-1.22,0.07-2.44,0.19-3.65,0.34c-0.37,0.04-0.37,0.63,0.01,0.59
		c1.22-0.14,2.43-0.25,3.65-0.33C453.32,184.65,453.31,184.07,452.93,184.09z"/>
	<path class="st59" d="M452.34,187.63c-0.76-0.64-1.57-1.19-2.43-1.68c-0.33-0.19-0.62,0.33-0.29,0.51
		c0.82,0.46,1.59,0.99,2.31,1.59C452.22,188.3,452.63,187.88,452.34,187.63z"/>
	<path class="st59" d="M444.22,175.83c-1.27-1.83-2.31-3.76-3.15-5.82c-0.14-0.35-0.71-0.19-0.56,0.16c0.84,2.11,1.91,4.1,3.21,5.97
		C443.93,176.44,444.44,176.14,444.22,175.83z"/>
	<path class="st9" d="M488.61,211.1c0.42-1.05,0.96-1.96,1.66-2.84c0.3,1.14-0.5,2.43-0.87,3.15c-0.35,0.69-0.71,2.59,0.29,3.01
		c3.2,1.36,3.74-1.16,4.2-2.55c0.38-1.16,0.9-3.61,1.36-6.02c1.46-1.91,3.42-3.14,5.05-4.9c0.42-0.46-2.73-2.24-3.08-1.98
		c-0.74,0.56-4.15,4.51-4.26,4.73c-0.03,0.05-0.94,0.06-1.75,0.54c-1.01,0.6-1.49,1.82-2.21,2.75c-0.83,1.07-1.59,3.48-0.89,4.23
		C488.28,211.39,488.53,211.31,488.61,211.1z"/>
	<g>
		<path class="st1" d="M512.08,181.56c-1.39-6.15-3.31-12.14-5.29-18.11c-1.48-4.46-3.06-8.8-5.28-12.92
			c0.01-0.3-0.08-0.62-0.3-0.94c-0.33-0.48-0.67-0.95-1-1.43c-1.22-1.73-4-0.24-3.13,1.51c0.04,0.14,0.09,0.28,0.17,0.42
			c0.11,0.2,0.2,0.36,0.29,0.51c0.33,0.57,0.66,1.14,0.96,1.71c-0.7,0.09-1.34,0.55-1.48,1.25c-0.14-0.24-0.27-0.49-0.41-0.73
			c-1.14-1.96-4.05-0.23-3.03,1.77c0.64,1.25,1.27,2.51,1.88,3.78c-1.22-0.51-3.04,0.55-2.44,2.04c2.62,6.5,5.16,13.05,7.87,19.51
			c0.16,0.38,0.32,0.82,0.5,1.26c-1.84,5.01-3.81,9.96-5.99,14.84c-0.72,1.61-1.36,2.85-0.21,4.41c1,1.36,3.13,3.87,4.85,4.29
			c1.86,0.45,2.7-1.32,3.47-2.69c1.43-2.56,2.86-5.12,4.29-7.69c1.18-2.11,2.57-4.22,3.39-6.51
			C511.75,186.25,512.61,183.91,512.08,181.56z"/>
	</g>
	<g>
		<path class="st57" d="M506.75,179.4c-1.2-0.02-2.37,0.14-3.52,0.47c-0.35,0.1-0.2,0.66,0.15,0.56c1.1-0.32,2.22-0.47,3.37-0.45
			C507.12,179.99,507.12,179.41,506.75,179.4z"/>
	</g>
	<g>
		<path class="st57" d="M507.02,183.29c-1.11-0.42-2.2-0.9-3.27-1.44c-0.33-0.17-0.62,0.33-0.29,0.5c1.11,0.56,2.24,1.06,3.4,1.5
			C507.22,183.98,507.36,183.42,507.02,183.29z"/>
	</g>
	<g>
		<path class="st57" d="M471.95,165.29c0.88,3.18,1.76,6.37,2.65,9.55c0.06-11.04-0.63-22.1-0.03-33.13
			c0.02-0.43-0.15-0.76-0.42-0.96c-0.22-0.16-0.54-0.21-0.9-0.12c-0.94,0.24-1.88,0.5-2.82,0.77c-0.59,1.12-1.19,2.24-1.76,3.37
			c-0.45,0.87-1,1.55-0.51,2.5c0.44,0.86,1.74,0.85,2.11,1.79c0.47,1.21-0.9,3.99-0.97,5.32
			C469.13,157.91,471.01,161.92,471.95,165.29z"/>
	</g>
	<g>
		<path class="st57" d="M485.14,165.31c-1.13,3.1-2.42,6.21-3.55,9.31c0.81-11.01,2.53-21.98,2.79-33.02
			c0.01-0.43,0.21-0.75,0.5-0.92c0.23-0.15,0.56-0.17,0.91-0.05c0.92,0.31,1.84,0.65,2.75,0.99c0.5,1.16,1.01,2.33,1.49,3.5
			c0.38,0.9,0.87,1.62,0.31,2.53c-0.51,0.82-1.8,0.71-2.24,1.62c-0.56,1.17,0.58,4.05,0.55,5.38
			C488.54,158.18,486.34,162.02,485.14,165.31z"/>
	</g>
	<g>
		<path class="st7" d="M489.79,118.72c-0.2-0.96-0.92-1.65-1.16-2.65c-0.18-0.73-0.21-1.29-0.62-1.95c-0.71-1.14-1.95-1.89-3.3-1.97
			c-0.6-0.04-1.38,0.36-1.91,0.32c-1.59-0.13-1.67-0.91-2.65-1.62c-1.31-0.95-2.48-1.7-4.19-1.39c-1.31,0.24-2.53,1.13-2.99,2.41
			c-0.14,0.39-0.23,0.82-0.2,1.24c-1.43-0.09-2.73,0.37-2.8,2.12c-0.1,2.55,3.17,3.44,5.47,3.13c2.01,0.21,4.41-0.19,6.13-0.6
			c0.1,0.03,0.21,0.06,0.31,0.09c0.13,0.39,0.33,0.76,0.58,1.1c-0.24,0.7-0.19,1.42,0.3,1.99c-0.19,0.45-0.06,1.01,0.55,1.14
			C485.56,122.59,490.52,122.27,489.79,118.72z"/>
	</g>
	<g>
		<path class="st7" d="M477.21,134.8c-1.57-0.04-2.77-0.95-4.25-1.14c-0.77-0.1-1.38,0.17-1.78,0.62c0.98,2,2.39,2.89,3.61,3.02
			c2.47,0.27,4.53-1.27,6.03-2.72C479.64,134.46,478.41,134.83,477.21,134.8z"/>
	</g>
	<g>
		<path class="st5" d="M279.35,210.91c-0.5-2.49-0.41-5.06-1.39-7.44c-0.18-0.44-0.58-0.63-0.94-0.6c-0.36-0.08-0.75,0.09-0.94,0.42
			c-0.47,0.06-0.93,0.47-0.81,1.08c0.29,1.38,0.51,2.75,0.64,4.16c0.01,0.09,0.03,0.17,0.06,0.24c0.07,0.72,0.15,1.44,0.2,2.17
			c0.06,0.81,0.91,1.04,1.4,0.68c0.06,0.05,0.14,0.08,0.22,0.08C278.23,212.38,279.52,211.89,279.35,210.91z"/>
	</g>
	<g>
		<path class="st7" d="M284.7,210.57l-18.73-6.97c-2.11-0.78-4.45,0.29-5.23,2.39l-3.28,8.81c-0.78,2.11,0.29,4.45,2.39,5.23
			l18.73,6.97c2.11,0.78,4.45-0.29,5.23-2.39l3.28-8.81C287.88,213.7,286.81,211.35,284.7,210.57z"/>
	</g>
	<g>
		<path class="st5" d="M275.56,204.38c-0.02,0.05-0.03,0.09-0.05,0.14c0-0.09,0-0.18,0-0.28c0-0.22-0.2-0.31-0.36-0.27
			c0-0.05-0.01-0.1-0.01-0.15c-0.04-0.36-0.62-0.37-0.58,0c0.17,1.47-0.16,2.88-0.21,4.35c-0.03,0.8,0.03,1.55,0.74,2.02
			c0.13,0.08,0.33,0.03,0.4-0.1c0.38-0.73,0.39-1.48,0.44-2.29c0.07-1.11,0.13-2.23,0.2-3.34
			C276.16,204.1,275.68,204.09,275.56,204.38z"/>
	</g>
	<g>
		<path class="st7" d="M278.74,194.3c-0.18-1.95-0.19-4.06-1.22-5.78c-0.56-0.93-1.76-0.62-2.1,0.23c0-0.06-0.01-0.13-0.01-0.19
			c-0.06-1.49-2.38-1.5-2.32,0c0.17,4.9,0.95,10.19,0.42,15.06c-0.07,0.63,0.59,1.18,1.17,1.17c1.07-0.01,1.94-0.57,3.06-0.37
			c0.79,0.13,1.43-0.32,1.48-1.13C279.44,200.32,279.02,197.25,278.74,194.3z"/>
	</g>
	<path class="st13" d="M241.3,294.28c-0.04,0.2-4.36,0.02-4.35-0.13c0.13-1.57,0.62-8.76,0.87-10.74c0.03-0.27,0.23-0.35,0.41-0.31
		c0.06-0.1,0.16-0.17,0.29-0.19c1.11-0.14,3.77-0.89,3.88,0.98C242.51,285.52,241.59,292.74,241.3,294.28z"/>
	<g>
		<path class="st7" d="M233.63,299.58c0.41-0.79,1.08-1.41,1.46-2.23c0.29-0.63,0.48-1.29,0.63-1.97c0.04-0.2,0.08-0.4,0.12-0.59
			c0.06-0.35,0.12-0.69,0.18-1.04c0.07-0.7,0.22-1.55,0.68-2.03c0.22-0.23,0.68-0.23,1.29-0.13c0.26,0.04,2.01,0.34,3.6,0.47
			c0.79,0.15,0.82,0.96,0.78,1.67c-0.07,1.23-0.12,3.88-0.56,4.76c-0.15,0.31-0.27,0.28-0.46,0.47c-0.75,0.75-1.21,1.24-1.44,2.26
			c-0.4,1.8-2.44,2.41-3.9,3.21c-0.14,0.08-1.47,0.73-2.12,0.62c-0.65-0.11-0.95-1.16-0.99-1.57
			C232.78,302.29,233.14,300.51,233.63,299.58z"/>
	</g>
	<path class="st14" d="M239.8,293.85c0.36,0.1,0.55-0.45,0.19-0.55c-0.78-0.22-1.57-0.36-2.37-0.42c-0.37-0.02-0.41,0.56-0.04,0.58
		C238.33,293.51,239.07,293.64,239.8,293.85z M237.15,294.97c0.75,0.1,1.48,0.27,2.19,0.53c0.35,0.13,0.58-0.41,0.22-0.54
		c-0.76-0.27-1.54-0.46-2.34-0.57C236.85,294.34,236.78,294.92,237.15,294.97z M236.48,296.71c0.74,0.12,1.48,0.27,2.21,0.44
		c0.36,0.08,0.43-0.49,0.07-0.58c-0.73-0.17-1.47-0.32-2.21-0.44C236.18,296.07,236.11,296.65,236.48,296.71z"/>
	<path class="st13" d="M260.57,295.54c0.02,0.2,4.34,0.45,4.34,0.31c0.03-1.57,0.26-8.78,0.21-10.77c-0.01-0.27-0.19-0.37-0.38-0.35
		c-0.05-0.1-0.14-0.18-0.27-0.21c-1.09-0.25-3.66-1.26-3.96,0.58C260.25,286.7,260.43,293.98,260.57,295.54z"/>
	<g>
		<path class="st7" d="M267.67,301.58c-0.33-0.83-0.93-1.51-1.23-2.37c-0.22-0.65-0.35-1.33-0.43-2.02c-0.02-0.21-0.04-0.4-0.06-0.6
			c-0.03-0.35-0.05-0.7-0.07-1.05c0-0.71-0.06-1.56-0.48-2.09c-0.19-0.25-0.65-0.29-1.28-0.26c-0.27,0.01-2.03,0.14-3.63,0.1
			c-0.8,0.07-0.91,0.87-0.94,1.59c-0.05,1.23-0.27,3.87,0.08,4.79c0.12,0.33,0.24,0.3,0.41,0.51c0.67,0.82,1.08,1.35,1.21,2.4
			c0.22,1.83,2.19,2.64,3.56,3.58c0.13,0.09,1.39,0.88,2.05,0.83c0.66-0.05,1.06-1.06,1.14-1.47
			C268.24,304.37,268.06,302.56,267.67,301.58z"/>
	</g>
	<path class="st14" d="M264.35,295.1c0.37,0.01,0.4-0.57,0.02-0.58c-0.81-0.03-1.61,0.03-2.4,0.18c-0.37,0.07-0.23,0.63,0.13,0.57
		C262.85,295.12,263.6,295.07,264.35,295.1z M264.61,296.06c-0.81,0.02-1.6,0.14-2.39,0.33c-0.36,0.09-0.19,0.65,0.17,0.56
		c0.74-0.18,1.48-0.28,2.23-0.31C265,296.63,264.99,296.05,264.61,296.06z M265.11,297.86c-0.75,0.05-1.5,0.12-2.25,0.22
		c-0.37,0.05-0.36,0.63,0.02,0.58c0.75-0.1,1.5-0.17,2.25-0.22C265.49,298.42,265.48,297.84,265.11,297.86z"/>
	<g>
		<path class="st7" d="M266.55,190.99c-0.32-0.79-1.05-1.13-1.79-1.1c-0.45-0.83-1.07-1.54-1.93-2.07c-1.99-1.22-4.34-1-6.53-0.4
			c-2.17-0.85-4.56-1.35-6.71-0.31c-0.91,0.44-1.6,1.09-2.13,1.87c-0.74-0.1-1.49,0.16-1.89,0.92c-0.85-1.29-3.51-0.96-3.79,1.09
			c-1.34,9.56-2.61,11.84-3.09,21.48c-0.23,4.73-3.56,70.99-3.5,73.29c0.05,1.74-0.02,3.57-0.01,5.35c0.01,2.04,4.05,1.92,6.26,2.09
			c1.31,0.1,3.57-0.14,3.61-1.5c0.23-7.92,7.86-53.71,7.86-53.71c0.53-3.14,1.07-6.27,1.6-9.41l1.59,37.67
			c0.55,7.89,1.5,18.19,0.95,26.1c-0.09,1.36,2.13,1.82,3.44,1.85c2.21,0.05,6.22,0.57,6.43-1.46c0.19-1.78,0.29-3.6,0.51-5.33
			c0.29-2.28,1.7-42.52,1.94-47.25c0.48-9.64,1.43-23.99,1.71-34.64C271.12,203.45,267.52,189.79,266.55,190.99z"/>
	</g>
	<g>
		<path class="st60" d="M247.62,207.4c0.05-0.36-0.5-0.52-0.56-0.15c-3.62,23.99-4.39,48.27-5.51,72.47
			c-0.21,4.5-0.44,8.99-0.69,13.48c0.2,0.01,0.39,0.02,0.57,0.04c1.24-21.64,1.7-43.33,3.69-64.92
			C245.76,221.32,246.58,214.35,247.62,207.4z M252.15,202.96c-2.89,23.03-5.01,46.16-6.39,69.33c-0.39,6.51-0.71,13.03-0.98,19.54
			c-0.01,0.14,0.07,0.23,0.18,0.26c0.04-0.11,0.07-0.23,0.07-0.36c0.04-1.28,0.27-3.55,0.63-6.45c1-21.01,2.59-41.98,4.82-62.9
			c0.69-6.49,1.45-12.96,2.25-19.44C252.77,202.59,252.19,202.59,252.15,202.96z M268.65,211.88c-2.03,22.78-3.37,45.62-4.04,68.49
			c-0.13,4.64-0.23,9.28-0.31,13.93c0.2-0.01,0.4-0.03,0.58-0.06c0.36-20.96,1.28-41.9,2.78-62.81c0.47-6.52,0.99-13.03,1.57-19.54
			C269.26,211.51,268.68,211.51,268.65,211.88z M260.67,201.09c-1.27,23.95-2.64,47.9-4.1,71.84c0.11,1.53,0.22,3.1,0.31,4.68
			c1.13-18.19,2.18-36.39,3.19-54.59c0.4-7.31,0.8-14.62,1.18-21.93C261.27,200.71,260.69,200.71,260.67,201.09z M241.74,209.03
			c-2.52,22.61-1.78,45.41-3.43,68.07c-0.38,5.23-0.88,10.44-1.46,15.65c0.18,0.05,0.37,0.1,0.57,0.14
			c1.14-10.09,1.87-20.22,2.27-30.37c0.45-11.36,0.58-22.72,1.14-34.08c0.32-6.48,0.78-12.96,1.49-19.41
			C242.36,208.66,241.78,208.66,241.74,209.03z M265.98,202.24c-3.53,25-4.6,50.26-5.11,75.47c-0.11,5.51-0.2,11.02-0.28,16.53
			c0.18,0,0.38,0.01,0.58,0.02c0.34-23.46,0.79-46.95,2.9-70.33c0.65-7.2,1.46-14.38,2.46-21.54
			C266.59,202.03,266.03,201.88,265.98,202.24z M257.47,198.72c-1.77,13.98-3.46,27.96-5.08,41.96c-0.01,0.07,0.01,0.13,0.04,0.17
			c0.29-1.78,0.47-2.82,0.47-2.82c0.44-2.57,0.87-5.13,1.31-7.7c1.26-10.54,2.54-21.08,3.84-31.61
			C258.09,198.35,257.51,198.36,257.47,198.72z"/>
	</g>
	<g>
		<path class="st5" d="M339.59,296.47c-0.01-1.57-0.23-15.69-0.33-17.68c-0.01-0.27-0.2-0.37-0.39-0.34
			c-0.06-0.1-0.15-0.18-0.28-0.21c-1.1-0.23-3.69-1.16-3.95,0.69c-0.15,1.11,0.23,11.85,0.39,14.62c0.02,0.28,0.03,0.54,0.05,0.79
			c0.02,2.77-1.92,3.34-3.68,4.81c-0.48,0.4-2.37,1.77-2.37,1.77c0.17,0.2,9.96-0.22,10.9-1.5
			C340.41,299.42,339.59,296.51,339.59,296.47z"/>
	</g>
	<g>
		<path class="st7" d="M326.06,302.2c2.03-1.22,4.71-3.09,6.17-3.96c1.15-0.69,0.77,2.39,2.09,2.35c2.03-0.07,3.75-0.76,5.04-1.14
			c0.15-0.04,0.91-0.43,1.07-0.05c0.17,0.43,0.43,0.43,0.03,0.93c-0.11,0.12-0.18,0.25-0.23,0.39c-0.22,0.61-0.08,1.45-0.04,2.01
			c0.01,0.15-0.14,0.3-0.29,0.29c-0.18-0.01-2.93,0.02-3.11,0.03c-0.15,0.01-0.2-0.07-0.22-0.22c-0.03-0.23-0.02-0.49-0.03-0.54
			c-1.3,0.21-2.77,0.12-3.82,0.73c-0.81,0.47-2.27,0.46-3.16,0.49c-0.92,0.03-3,0.29-3.52-0.77
			C325.94,302.57,325.9,302.29,326.06,302.2z"/>
	</g>
	<g>
		<path class="st5" d="M353.39,294.66c-0.01-1.57-0.23-15.69-0.33-17.68c-0.01-0.27-0.2-0.37-0.39-0.34
			c-0.06-0.1-0.15-0.18-0.28-0.21c-1.1-0.23-3.69-1.16-3.95,0.69c-0.15,1.11,0.23,11.85,0.39,14.62c0.02,0.28,0.03,0.54,0.05,0.79
			c0.02,2.77-1.92,3.34-3.68,4.81c-0.48,0.4-2.37,1.77-2.37,1.77c0.17,0.2,9.96-0.22,10.9-1.5
			C354.22,297.61,353.4,294.7,353.39,294.66z"/>
	</g>
	<g>
		<path class="st7" d="M339.87,300.39c2.03-1.22,4.71-3.09,6.17-3.96c1.15-0.69,0.77,2.39,2.09,2.35c2.03-0.07,3.75-0.76,5.04-1.14
			c0.15-0.04,0.91-0.43,1.07-0.05c0.17,0.43,0.43,0.43,0.03,0.93c-0.11,0.12-0.18,0.25-0.23,0.39c-0.22,0.61-0.08,1.45-0.04,2.01
			c0.01,0.15-0.14,0.3-0.29,0.29c-0.18-0.01-2.93,0.02-3.11,0.03c-0.15,0.01-0.2-0.07-0.22-0.22c-0.03-0.23-0.02-0.49-0.03-0.54
			c-1.3,0.21-2.77,0.12-3.82,0.73c-0.81,0.47-2.27,0.46-3.16,0.49c-0.92,0.03-3,0.29-3.52-0.77
			C339.74,300.77,339.71,300.49,339.87,300.39z"/>
	</g>
	<g>
		<path class="st7" d="M345.73,225.53c0.04-0.68,0.08-1.35,0.12-2.03c0.1-1.63-2.49-1.86-2.86-0.33c-0.22-0.19-0.49-0.3-0.77-0.35
			c-0.46-1.12-2.15-1.42-2.65-0.13c-0.7-0.08-1.47,0.27-1.68,1.07c-0.63,2.51-1.21,5.04-1.74,7.57c0.05-2.23,0.06-4.46-0.02-6.69
			c-0.06-1.64-2.52-1.9-2.89-0.27c-0.29,1.3-0.55,2.6-0.8,3.9c0-0.04,0-0.07,0-0.11c0.07-1.87-2.82-1.74-2.9,0.12
			c-0.56,13.51,1.24,26.91,0.72,40.42c-0.12,3.08-0.22,6.16-0.17,9.24c0.04,2.03-0.04,7.15,0.91,7.8c0.79,0.55,1.58,0.56,3.15,0.49
			c3.31-0.15,3.67-0.17,6.98-0.32c0.84-0.04,1.36-0.72,1.4-1.52c0.91-19.12,4.4-38.39,4.59-57.53
			C347.12,225.97,346.44,225.53,345.73,225.53z"/>
	</g>
	<g>
		<path class="st7" d="M339.75,223.58c0.77,19.13,3.3,38.88,4.8,57.97c0.06,0.79,0.61,1.46,1.45,1.47c3.31,0.04,5.22-0.55,8.53-0.5
			c1.57,0.02,3.1-0.33,3.39-1.94c0.18-0.99,0.03-4.95,0-6.98c-0.04-3.08,0.41-35.66-0.56-49.15c-0.13-1.85-3.03-1.89-2.9-0.03
			c0,0.04,0,0.07,0.01,0.11c-0.29-1.3-0.59-2.59-0.92-3.88c-0.41-1.61-2.87-1.28-2.88,0.36c-0.01,2.23,0.06,4.46,0.18,6.69
			c-0.61-2.52-1.26-5.02-1.97-7.52c-0.23-0.79-1.01-1.12-1.71-1.02c-0.54-1.28-2.21-0.93-2.64,0.21c-0.28,0.05-0.55,0.18-0.76,0.37
			c-0.42-1.52-3-1.21-2.85,0.42c0.06,0.67,0.12,1.35,0.18,2.02C340.38,222.21,339.71,222.67,339.75,223.58z"/>
	</g>
	<path class="st9" d="M303.09,193.23c-0.69-0.45-1.33,0.05-2.1-0.01c-0.81-0.07-2.32-0.05-3.14-0.9c1.11-0.14,2.17-0.12,3.28,0.06
		c0.23,0.04,0.42-0.13,0.36-0.36c-0.28-0.99-2.73-1.59-4.07-1.44c-1.17,0.13-2.32,0.42-3.5,0.45c-1.38,0.04-3.99-0.64-5.28-1.08
		c-0.35-0.12-0.5,0.43-0.15,0.56c-0.02,0.02-0.03,0.05-0.05,0.07c-0.07,0.04-0.11,0.12-0.13,0.2c-0.02-0.01-0.04-0.01-0.06-0.02
		c-0.31-0.12-0.53,0.4-0.23,0.53c0.01,0.01,0.03,0.01,0.04,0.02c-0.16,0.11-0.22,0.41,0,0.5c0.02,0.01,0.05,0.02,0.07,0.03
		c0.2,0.09,0.4,0.16,0.6,0.25c-0.29-0.08-0.58-0.17-0.87-0.24c-0.31-0.08-0.54,0.4-0.23,0.53c0.02,0.01,0.05,0.02,0.07,0.03
		c0.1,0.04,0.19,0.08,0.28,0.12c-0.02,0.02-0.04,0.04-0.05,0.07c-0.04-0.02-0.09-0.04-0.13-0.06c-0.33-0.16-0.63,0.34-0.29,0.5
		c1.36,0.67,9.05,3.67,11.54,4.25c1.43,0.34,2.11,0.44,2.79-1.13c0.34-0.77,0.77-1.13,1.23-1.79c0.1-0.14,0.28-0.2,0.33-0.37
		C303.53,193.59,303.42,193.44,303.09,193.23z"/>
	<path class="st9" d="M294.27,193.57c0.03,0.17,0.2,0.26,0.27,0.41c0.36,0.73,0.73,1.14,0.95,1.95c0.45,1.65,1.14,1.65,2.6,1.52
		c2.54-0.22,10.58-2.07,12.03-2.53c0.36-0.11,0.14-0.65-0.22-0.54c-0.05,0.01-0.09,0.03-0.14,0.04c-0.01-0.03-0.02-0.05-0.04-0.08
		c0.1-0.03,0.2-0.05,0.29-0.07c0.03-0.01,0.05-0.01,0.08-0.02c0.33-0.09,0.17-0.6-0.15-0.56c-0.3,0.03-0.6,0.07-0.9,0.12
		c0.21-0.05,0.41-0.1,0.62-0.16c0.03-0.01,0.06-0.01,0.08-0.02c0.23-0.06,0.22-0.36,0.07-0.5c0.01,0,0.03-0.01,0.04-0.01
		c0.32-0.09,0.18-0.63-0.15-0.56c-0.02,0-0.04,0.01-0.07,0.01c0-0.08-0.04-0.16-0.1-0.21c-0.01-0.03-0.02-0.05-0.04-0.08
		c0.36-0.07,0.3-0.64-0.07-0.57c-1.34,0.25-4.02,0.54-5.38,0.3c-1.16-0.21-2.26-0.66-3.4-0.96c-1.31-0.35-3.82-0.1-4.24,0.83
		c-0.1,0.22,0.07,0.41,0.3,0.41c1.13-0.02,2.18,0.12,3.26,0.42c-0.93,0.72-2.43,0.48-3.24,0.43c-0.77-0.05-1.34-0.64-2.08-0.29
		C294.33,193.01,294.21,193.15,294.27,193.57z"/>
	<g>
		<path class="st5" d="M356.96,220.74c0.17,0.03,0.31-0.11,0.48-0.13c0.8-0.12,1.31-0.35,2.15-0.32c1.71,0.08,1.92-0.58,2.24-2.01
			c0.57-2.49,1.25-10.71,1.24-12.23c0-0.37-0.58-0.33-0.58,0.04c0,0.05,0,0.1,0,0.15c-0.03,0-0.06,0.01-0.09,0.02
			c0.01-0.1,0.01-0.2,0.02-0.3c0-0.03,0-0.06,0.01-0.08c0.01-0.34-0.52-0.35-0.58-0.03c-0.06,0.29-0.11,0.59-0.16,0.89
			c0.01-0.21,0.03-0.42,0.04-0.64c0-0.03,0-0.06,0.01-0.09c0.01-0.24-0.28-0.32-0.45-0.22c0-0.02,0-0.03,0-0.05
			c0.01-0.33-0.55-0.36-0.58-0.03c0,0.02-0.01,0.04-0.01,0.07c-0.08-0.02-0.16-0.01-0.23,0.03c-0.03,0-0.06,0-0.09,0.01
			c0.04-0.37-0.52-0.48-0.57-0.11c-0.17,1.35-0.71,3.99-1.35,5.21c-0.55,1.04-1.31,1.95-1.94,2.94c-0.73,1.14-1.26,3.61-0.5,4.29
			c0.18,0.16,0.41,0.05,0.48-0.16c0.32-1.08,0.78-2.04,1.39-2.98c0.41,1.11-0.28,2.46-0.57,3.22c-0.28,0.72-1.01,1.08-0.91,1.89
			C356.44,220.52,356.53,220.67,356.96,220.74z"/>
	</g>
	<path class="st13" d="M262.53,135.37c0.06-0.4,0.17-0.87,0.21-1.32c-0.75-0.52-1.75-0.49-2.49,0.1c-0.96,0.77-1.14,2.11-0.77,3.23
		c0.24,0.7,1.05,2.49,2.06,1.99c0.2-0.1,0.35-0.26,0.46-0.44C262.18,137.74,262.35,136.55,262.53,135.37z"/>
	<path class="st9" d="M263.3,141.22c-1.69-0.8-3.4-1.57-5.12-2.29c-0.15-0.06-0.3-0.09-0.45-0.11c-0.93-0.21-2.08,0.45-2.04,1.84
		c0.12,5.13-0.81,10.13-1.18,15.28c-0.17,2.3,7.87,0.88,8.02-0.04c0.57-3.49,1.34-9.2,1.68-12.73
		C264.28,142.4,263.99,141.55,263.3,141.22z"/>
	<g>
		<path class="st61" d="M260.99,143.9c-0.59-0.11-1.24,0.2-1.17,0.99c0.05,0.55,0.48,0.83,0.78,1.19c0.5,0.6,0.73,1.36,1.19,1.99
			c0.45,0.61,1.06,0.95,1.71,1.17c0.18-1.38,0.43-3.5,0.58-4.77C264.26,144.43,263.07,144.29,260.99,143.9z"/>
	</g>
	<path class="st9" d="M271.77,138.31c0.81-0.4,1.65-1.08,1.34-2.07c-0.2-0.63-0.68-1.19-0.99-1.77c-0.22-0.42-0.42-0.85-0.58-1.29
		c-0.18-1.61-0.43-3.24-0.6-5.04c-0.21-2.18-1.66-3.66-3.2-5.07c-1.28-1.7-2.91-0.09-5.08,0.11c-1.83,0.16-4.2-1.37-5.45,0.19
		c-3.71,4.64-2.62,10.44-0.72,15.74c0.33,0.92,1.99,2.08,2.64,3.07c1.13,1.72,7.6,3.44,10.02,2.89c1.81-0.41,2.24-2.37,2.56-5.73
		C271.74,138.98,271.76,138.65,271.77,138.31z"/>
	<g>
		<path class="st7" d="M268.18,121.68c-1.6-0.38-3.51-0.14-5.16-0.39c-1.18-0.18-2.14-0.26-3.32-0.05c-2.33,0.41-4.66,1.54-6.1,3.31
			c-3.83,4.68-0.27,10.92,1.68,15.56c0.13,0.31,0.52,0.48,0.72,0.28c0.9-0.92,3.52-5.14,4.61-6.04c0.76-0.63,1.49-0.74,2.28-1.21
			c0.94-0.56,1.14-1.04,1.43-2.04c0.53-1.8,0.7-2.6,1.61-2.89c0.71-0.23,1.95-0.24,3.5-0.44
			C273.5,127.23,271.08,122.36,268.18,121.68z"/>
	</g>
	<path class="st9" d="M261.66,133.63c-0.06-0.04-0.21-0.06-0.32-0.09c-0.2-0.06-0.42-0.12-0.63-0.13c-0.36-0.01-0.71,0.1-1.02,0.27
		c-0.68,0.38-1.02,1.12-1.12,1.86c-0.19,1.43,0.25,3.25,1.69,3.85c1.05,0.43,1.56-1.2,0.55-1.66c-0.38-0.17-0.47-0.95-0.5-1.31
		c-0.02-0.23-0.04-0.57,0.02-0.8c0.11-0.41,0.2-0.42,0.58-0.38c0.51,0.06,0.81,0.35,1.34,0.12c0.4-0.17,0.54-0.48,0.6-0.89
		C262.96,133.8,262.2,133.45,261.66,133.63z"/>
	<path class="st9" d="M345.01,144.49c1.77-0.62,3.54-1.22,5.33-1.75c0.16-0.05,0.31-0.06,0.45-0.06c0.94-0.11,2.02,0.66,1.85,2.04
		c-0.64,5.09-0.22,10.16-0.38,15.32c-0.07,2.31-7.92,0.07-7.97-0.85c-0.21-3.53-0.4-9.29-0.38-12.83
		C343.92,145.56,344.3,144.74,345.01,144.49z"/>
	<g>
		<path class="st61" d="M347.04,147.38c0.6-0.05,1.22,0.32,1.07,1.1c-0.1,0.54-0.56,0.78-0.9,1.1c-0.56,0.54-0.87,1.28-1.38,1.86
			c-0.51,0.57-1.15,0.84-1.82,0.99c-0.04-1.39-0.07-3.53-0.09-4.81C343.73,147.58,344.92,147.56,347.04,147.38z"/>
	</g>
	<path class="st9" d="M337.46,140.72c-0.77-0.48-1.98-0.86-1.57-1.8c0.26-0.6,1.93-3.09,2.13-3.51c0.35-1.58,0.35-2.94,0.71-4.71
		c0.43-2.14,1.01-2.69,2.69-3.94c1.44-1.56,3.92-0.57,6.05-0.16c1.81,0.35,4.32-0.93,5.4,0.74c3.22,4.99,1.55,10.65-0.88,15.73
		c-0.42,0.89-2.19,1.87-2.93,2.78c-1.3,1.6-7.33,2.65-9.68,1.86c-1.76-0.59-1.98-2.59-1.96-5.96
		C337.42,141.4,337.44,141.06,337.46,140.72z"/>
	<g>
		<path class="st16" d="M346.38,138.81c-0.02-0.4-0.08-0.88-0.08-1.33c0.8-0.44,1.79-0.31,2.46,0.35c0.88,0.87,0.92,2.21,0.43,3.29
			c-0.31,0.67-1.3,2.37-2.25,1.77c-0.19-0.12-0.32-0.29-0.41-0.49C346.48,141.21,346.43,140.01,346.38,138.81z"/>
	</g>
	<path class="st19" d="M272.31,157.86c-2.09-3.22-5.44-5.06-9.15-6.07c0.55-1.26,1.08-2.98-0.2-2.97c-0.76,0-1.69,0.27-2.34,0.66
		c-0.6,0.37-0.98,0.95-1.3,1.56c-0.11-0.01-0.22-0.03-0.34-0.04c-0.35-1.21-1.12-2.16-2.43-2.82c-0.38-0.19-1.02-0.65-1.37-0.21
		c-0.18,0.22-0.2,0.68-0.27,0.94c-0.15,0.59-0.3,1.18-0.44,1.77c-4.81,0.57-9.92,1.64-12.41,5.97c-1.23,2.13-1.64,4.55-1.95,6.92
		c-0.46,3.58,4.7,10.66,4.46,14.26c-0.47,7.04-6.05,10.64-5.76,17.68c0.09,2.15,0.36,4.16,2.33,5.52c1.97,1.36,4.6,1.53,6.83,2.35
		c0.6,0.22,1.07,0.01,1.33-0.36c1.62,0.03,3.18-1.29,4.23-1.41c3.43-0.38,8.24,0.44,11.32-1.19c3.01-1.6,3.87-5.86,4.84-8.71
		c1.41-4.14,2.45-8.39,3.26-12.66C274.2,172.46,276.29,164.01,272.31,157.86z"/>
	<g>
		<path class="st60" d="M292.92,188.69c-0.47-0.52-1.56-0.71-2.18-0.95c-0.19-0.07-0.32,0.06-0.34,0.22
			c-0.47,0.24-0.53,0.88-0.68,1.36c-0.41,1.33-0.73,2.68-0.94,4.05c-0.09,0.57-0.21,0.88,0.22,1.27c0.42,0.38,1.43,0.64,1.98,0.5
			c0.7-0.18,0.71-0.85,0.9-1.49c0.35-1.13,0.72-2.26,1.06-3.4C293.09,189.71,293.35,189.16,292.92,188.69z"/>
	</g>
	<g>
		<path class="st7" d="M275.29,156.81c-1.14-1.49-2.72-2.79-5.51-3.8c-1.83-0.83-3.74-1.48-5.41-2.02
			c-0.68-0.22-0.88,0.01-1.26,0.65c-1.12,2.84-2.25,7.26-3.22,11.51c-1.25-4.09-3.36-8.63-4.93-12.4c-0.39-0.97-0.46-0.9-1.17-0.76
			c-3.98,0.79-10.37,2.3-13.24,5.38c-5.16,5.53,0.98,21.41,0.31,26.87c-0.71,5.77-4.68,25.75-4.49,28.35
			c0.09,1.3,0.88,2.2,2.66,2.41c3.38,0.4,9-0.82,11.4-2.5c2.67-1.88,6.49-6.05,6.89-8.92c0.18,3.49,2.14,8.04,5.78,10.98
			c2.28,1.84,7.57,2.89,9.35,2.19c1.32-0.52,1.47-1.61,1.72-2.9c0.49-2.55-0.81-22.08-0.84-27.89
			C273.31,183.09,279.37,161.59,275.29,156.81z"/>
	</g>
	<g>
		<path class="st7" d="M275.4,185.38c0.28-2.13,0.51-4.27,0.73-6.41c0.39-3.84,0.67-7.7,0.67-11.56c0-2.13-0.06-4.29-0.3-6.41
			c-0.1-0.91-0.04-1.67-0.95-2.1c-0.48-0.22-0.92-0.09-1.29,0.21c-0.08,0.06-0.16,0.12-0.23,0.2c-0.62,0.58-0.23,1.37,0.38,1.72
			c-0.31,0.36-0.02,3.08-0.01,3.37c0.06,1.43,0.08,2.85,0.06,4.28c0,0.13-0.01,0.27-0.01,0.4c-0.63-0.52-1.8-0.38-1.92,0.63
			c-0.16,1.35-0.36,2.69-0.59,4.02c-0.52-0.02-1.05,0.26-1.21,0.91c-0.82,3.47-1.64,6.94-2.47,10.41c-0.06,0.26-0.05,0.48,0.02,0.66
			c-0.87,0.38-1.79,0.7-2.72,1c-1.12,0.36-0.94,2.04,0.18,2.25c2.37,0.44,6.29,1.96,8.37,0
			C275.08,188.05,275.23,186.61,275.4,185.38z"/>
	</g>
	<g>
		<path class="st7" d="M259.35,155.55c0.26-0.39,0.55-0.65,0.8-1.05c0.17-0.28,0.53-0.72,0.54-1.09c0.01-0.26-0.92-1.65-1.14-2.19
			c-0.06-0.15-0.23-0.25-0.37-0.26c-0.11-0.01-0.21,0.07-0.29,0.2c-0.25,0.43-1.23,2.04-1.22,2.39c0.01,0.27,0.21,0.5,0.34,0.72
			c0.25,0.4,0.48,0.82,0.7,1.24c-0.75,2.16-0.96,4.32-1.02,6.62c-0.07,2.77-0.28,5.59-0.07,8.35c0.01,0.19,0.18,0.28,0.32,0.28
			c0,0.61,0.04,1.22,0.33,1.71c0.06,0.1,0.19,0.15,0.31,0.13c-0.01,0.07-0.02,0.15-0.03,0.22c-0.12,0.02-0.23,0.11-0.21,0.27
			c0.02,0.24,0.02,0.29,0.17,0.49c0.13,0.18,0.49,0.21,0.54-0.07c0.04-0.24,0.07-0.47,0.1-0.71c0.03,0,0.06-0.01,0.1-0.03
			c0.01,0.1,0.07,0.17,0.15,0.21c0.02,0.04,0.04,0.09,0.06,0.13c0.12,0.22,0.48,0.18,0.54-0.07c0.17-0.78,0.39-1.65,0.52-2.51
			c0.15,0,0.29-0.09,0.3-0.28C260.9,165.47,260.71,160.17,259.35,155.55z"/>
	</g>
	<g>
		<path class="st60" d="M262.74,173.37c-0.11-0.67-0.25-1.46-0.46-2.52c-0.43-2.2-1.29-5.03-2.32-7.99
			c-0.02,0.1-0.04,0.19-0.07,0.29c-1.25-4.09-3.36-8.63-4.93-12.4c-0.39-0.97-0.46-0.9-1.17-0.76c-1.09,0.22-2.36,0.49-3.69,0.83
			c-0.19,1.24-0.29,2.53,0.14,3.52c0.21,0.47,0.45,0.73,0.87,1.05c0.32,0.25,0.88,0.29,1.16,0.56c1.02,0.97,1.26,2.56,1.35,3.85
			c0.38,5.62,5.15,9.38,8.68,13.36C262.42,173.31,262.58,173.37,262.74,173.37z"/>
	</g>
	<g>
		<path class="st60" d="M267.65,152.12c-1.13-0.43-2.25-0.81-3.27-1.14c-0.68-0.22-0.88,0.01-1.26,0.65
			c-1.12,2.84-2.25,7.26-3.22,11.51c-0.09-0.29-0.19-0.6-0.29-0.89c-0.4,1.46-0.78,2.92-1.11,4.33c1.06,0.58,1.78,1.72,1.82,3
			c0.02,0.71,0.2,1.47,0.42,2.26c2.3-3.15,4.3-6.55,4.21-10.49c-0.03-1.3,0.07-2.9,1-3.96c0.25-0.29,0.8-0.39,1.1-0.66
			c0.39-0.36,0.61-0.64,0.77-1.13C268.15,154.58,267.94,153.32,267.65,152.12z"/>
	</g>
	<g>
		<path class="st7" d="M283.97,183.36c-3.45-2.09-6.96-4.09-10.4-6.2c-3.94-2.42-7.83-4.98-11.34-8c-3.65-3.14-6.32-7.04-9.69-10.42
			c-1.08-1.08-2.73,0.04-2.44,1.42c0.24,1.2,0.56,2.37,0.94,3.5c-0.03,0.07-0.06,0.14-0.07,0.22c-0.11,0.65-0.11,1.29-0.05,1.93
			c-0.95-2.25-1.64-4.63-1.99-7.13c-0.26-1.84-1.62,2.17-1.37,3.99c2.21,16.23,15.29,22.9,29.25,28.79c1.83,0.77,3.67,1.5,5.52,2.21
			c1.68,0.64,7.02,2.58,7.6,0.88c0.69-2.02,1.31-4.19,1.75-6.13C292.09,186.58,286.21,184.72,283.97,183.36z"/>
	</g>
	<g>
		<path class="st60" d="M242.41,193.22c0.32,0.42,0.98,0.46,1.45,0.55c0.95,0.18,1.89,0.36,2.84,0.53c1.09,0.21,3.33,0.96,4.38,0.29
			c0.95-0.6,0.25-2.57,0.16-3.47c-0.01-0.05-0.02-0.09-0.05-0.13c0.01-0.12-0.05-0.23-0.21-0.25c-2.78-0.37-5.56-0.63-8.36-0.8
			c-0.12-0.01-0.26,0.1-0.28,0.22C242.21,190.99,241.84,192.47,242.41,193.22z M243.19,190.55c0.44-0.23,2.02,0.14,2.49,0.18
			c1.67,0.14,3.34,0.33,5.01,0.55c0.1,0.63,0.44,1.92,0.25,2.36c-0.19,0.46-1.01,0.5-1.41,0.52c-0.49,0.03-1.05-0.14-1.53-0.23
			c-0.85-0.15-1.7-0.32-2.56-0.48c-0.74-0.14-1.77-0.14-2.32-0.67C242.71,192.42,242.47,190.93,243.19,190.55z"/>
	</g>
	<g>
		<path class="st60" d="M271.69,190.57c-0.02-0.12-0.16-0.22-0.28-0.22c-2.8,0.16-5.58,0.43-8.36,0.8
			c-0.16,0.02-0.22,0.13-0.21,0.25c-0.02,0.04-0.04,0.08-0.05,0.13c-0.1,0.9-0.79,2.86,0.16,3.47c1.05,0.67,3.29-0.08,4.38-0.29
			c0.95-0.18,1.9-0.35,2.84-0.53c0.47-0.09,1.13-0.12,1.45-0.55C272.2,192.89,271.84,191.4,271.69,190.57z M270.93,193.21
			c-0.55,0.53-1.58,0.53-2.32,0.67c-0.85,0.16-1.7,0.33-2.56,0.48c-0.49,0.08-1.04,0.25-1.53,0.23c-0.4-0.02-1.22-0.07-1.41-0.52
			c-0.19-0.45,0.15-1.74,0.25-2.36c1.67-0.22,3.33-0.4,5.01-0.55c0.47-0.04,2.05-0.41,2.49-0.18
			C271.58,191.34,271.33,192.83,270.93,193.21z"/>
	</g>
	<g>
		<path class="st60" d="M270.65,188.2c-10.61-4.52-19.89-11.67-26.96-20.77c-0.23-0.29-0.64,0.12-0.41,0.41
			c7.07,9.14,16.45,16.35,27.08,20.86C270.69,188.85,270.99,188.35,270.65,188.2z"/>
	</g>
	<g>
		<path class="st7" d="M270.22,144.45c-1.48-1.1-3.18-1.91-4.54-3.09c-2.52-2.19-1.8-7.24-1.43-10.2c0.09-0.74-1.06-0.72-1.15,0
			c0,0.02-0.01,0.05-0.01,0.07c-0.34-0.25-0.94-0.1-0.94,0.44c0,0.31,0.01,0.62,0.01,0.92c-0.29-0.64-1.36-0.35-1.1,0.34
			c1.15,3.01-0.64,6.29,0.43,9.3c0.25,0.71,0.65,1.31,1.13,1.85c2.31,0.78,5.12,1.25,6.54,0.92
			C269.58,144.9,269.93,144.71,270.22,144.45z"/>
	</g>
	<g>
		<path class="st1" d="M357.18,156.04c-1.84-3.67-5.1-3.67-9.04-3.39c-9.6,0.67-11.74,3.21-16.88,9.73
			c-3.28,4.16-10.1,14.38-13.47,18.47c-3.07,3.72-6.07,8.24-10.57,10.3c-0.47,0.21-0.66,0.85-0.54,1.32
			c0.29,0.91,0.44,1.84,0.43,2.8c0.03,0.66,0.51,1.12,1.17,1.17c7.57,0.54,15.03-2.95,21.38-7.02c-0.51,6.58-0.91,13.16-1.2,19.75
			c-0.21,4.81-0.36,9.62-0.45,14.43c-0.07,3.41-0.8,7.77,1.37,10.72c3.82,5.18,13.47,3.36,18.68,2.21c3.19-0.7,9.91-3.09,10.76-6.55
			c2.33-9.54-3.29-30.21-1.94-45.46C357.42,178.56,360.01,161.68,357.18,156.04z"/>
	</g>
	<g>
		<path class="st1" d="M361.85,177.57c-0.43-7.81-1.11-15.77-5.3-22.58c-0.78-1.27-2.79-0.11-2.01,1.17c1.17,1.9,2.03,3.9,2.7,5.96
			c-0.57,0.06-1.13,0.47-1.11,1.14c0.07,1.85,0.16,3.71,0.26,5.57c-0.27,0.18-0.47,0.49-0.46,0.92c0.22,8.15-0.59,16.31,0.37,24.4
			c-0.26,3.27-0.36,6.59-0.09,9.86c0.11,1.27,0.29,2.85,1.52,3.48c-0.08,0.09-0.17,0.18-0.27,0.25c-1.2,0.86-0.15,2.79,1.18,2.02
			c1.56-0.91,3.08-1.44,4.84-1.73c0.45-0.08,0.91-0.66,0.86-1.13C363.17,197.15,362.39,187.38,361.85,177.57z"/>
	</g>
	<g>
		<path class="st57" d="M340.08,159.5c-0.2-0.31-0.7-0.02-0.5,0.29c5.97,9.16-2.17,20.17-7.36,27.6c-0.21,0.31,0.29,0.6,0.5,0.29
			C338.04,180.12,346.21,168.83,340.08,159.5z"/>
	</g>
	<g>
		<path class="st1" d="M352.38,154.08c0.2-0.22,0-0.56-0.28-0.49c-0.03,0.01-0.07,0.01-0.11,0.02c-0.05-0.07-0.13-0.12-0.23-0.12
			c0.08-0.25,0.08-0.51-0.06-0.77c-0.03-0.05-0.06-0.1-0.1-0.14c-1.08-0.07-2.26-0.02-3.5,0.07c-3.47,0.24-5.96,0.73-7.97,1.56
			c1.2,0.09,2.48,0.54,3.59,0.72c1.17,0.19,2.35,0.33,3.53,0.4C349.07,155.46,351.05,155.51,352.38,154.08z"/>
	</g>
	<path class="st18" d="M360.46,165.65c-0.03-2.75-0.39-5.49-0.8-8.2c-0.53-3.53-1.18-7.05-1.42-10.61
		c-0.22-3.37,0.33-7.98,0.21-11.35c-0.16-4.71-2.03-8.77-6.81-9.73c-3.91-0.78-8.6-1.51-11.32,1.77c-0.02,0.02-0.02,0.04-0.03,0.06
		c-0.2,0.16-0.31,0.43-0.13,0.71c0.87,1.36,2.28,2.04,3.26,3.27c1.21,1.53-0.55,3.62,2.61,5.97c4.04,3.01,1.99,9.55,2.72,14.39
		c0.72,4.86,1.6,10.26,3.33,14.87c1.1,2.93,3.46,4.61,6.63,4.33c0.18-0.02,0.31-0.1,0.4-0.2c0.13,0,0.27-0.04,0.39-0.17
		C360.75,169.51,360.48,167.26,360.46,165.65z"/>
	<path class="st9" d="M345.49,137.23c0.06-0.03,0.22-0.04,0.33-0.06c0.2-0.04,0.43-0.08,0.64-0.07c0.36,0.02,0.7,0.17,0.98,0.37
		c0.64,0.45,0.9,1.21,0.93,1.97c0.04,1.44-0.58,3.21-2.07,3.65c-1.09,0.32-1.43-1.35-0.38-1.71c0.39-0.13,0.56-0.9,0.63-1.25
		c0.05-0.22,0.1-0.57,0.06-0.8c-0.07-0.42-0.15-0.44-0.54-0.43c-0.51,0.01-0.84,0.27-1.34-0.01c-0.38-0.21-0.48-0.53-0.51-0.95
		C344.18,137.27,344.97,137,345.49,137.23z"/>
	<g>
		<path class="st57" d="M359.85,208.9c-0.91-2.78-0.82-6.01-0.97-8.91c-0.17-3.11-0.26-6.23-0.27-9.35
			c-0.02-6.14,0.28-12.28,0.86-18.39c0.04-0.37-0.54-0.37-0.58,0c-0.61,6.3-0.9,12.63-0.86,18.96c0.02,3.12,0.12,6.23,0.29,9.35
			c0.16,2.79,0.09,5.83,0.96,8.5C359.41,209.41,359.97,209.26,359.85,208.9z"/>
	</g>
	<g>
		<path class="st60" d="M257.07,201.02c-1.67,7-8,11.7-15.19,11.26c-0.38-0.02-0.37,0.56,0,0.58c7.42,0.46,14.05-4.45,15.75-11.69
			C257.71,200.81,257.15,200.66,257.07,201.02z"/>
	</g>
	<g>
		<path class="st60" d="M267.9,214.26c-2.86-0.47-5.82-2.31-7.44-4.72c-1.68-2.5-2.26-5.51-2.82-8.41
			c-0.07-0.37-0.63-0.21-0.56,0.15c0.59,3.13,1.25,6.39,3.19,9c1.72,2.3,4.64,4.08,7.47,4.54
			C268.12,214.89,268.28,214.32,267.9,214.26z"/>
	</g>
</g>
<g>
	<g>
		<path class="st1" d="M208.33,145.26L208.33,145.26c-0.65,0-1.17-0.53-1.17-1.17v-2.49h-2.34c-0.63,0-1.15-0.51-1.15-1.15l0,0
			c0-0.63,0.51-1.15,1.15-1.15h2.34v-2.5c0-0.65,0.53-1.17,1.17-1.17h0c0.65,0,1.17,0.53,1.17,1.17v2.5h2.35
			c0.63,0,1.15,0.51,1.15,1.15l0,0c0,0.63-0.51,1.15-1.15,1.15h-2.35v2.49C209.5,144.73,208.98,145.26,208.33,145.26z"/>
	</g>
</g>
<g>
	<g>
		<path class="st7" d="M67.33,279.26L67.33,279.26c-0.65,0-1.17-0.53-1.17-1.17v-2.49h-2.34c-0.63,0-1.15-0.51-1.15-1.15l0,0
			c0-0.63,0.51-1.15,1.15-1.15h2.34v-2.5c0-0.65,0.53-1.17,1.17-1.17l0,0c0.65,0,1.17,0.53,1.17,1.17v2.5h2.35
			c0.63,0,1.15,0.51,1.15,1.15l0,0c0,0.63-0.51,1.15-1.15,1.15H68.5v2.49C68.5,278.73,67.98,279.26,67.33,279.26z"/>
	</g>
</g>
<g>
	<g>
		<path class="st7" d="M519.33,274.26L519.33,274.26c-0.65,0-1.17-0.53-1.17-1.17v-2.49h-2.34c-0.63,0-1.15-0.51-1.15-1.15l0,0
			c0-0.63,0.51-1.15,1.15-1.15h2.34v-2.5c0-0.65,0.53-1.17,1.17-1.17l0,0c0.65,0,1.17,0.53,1.17,1.17v2.5h2.35
			c0.63,0,1.15,0.51,1.15,1.15l0,0c0,0.63-0.51,1.15-1.15,1.15h-2.35v2.49C520.5,273.73,519.98,274.26,519.33,274.26z"/>
	</g>
</g>
<g>
	<path class="st18" d="M385.33,102.26L385.33,102.26c-0.65,0-1.17-0.53-1.17-1.17v-2.49h-2.34c-0.63,0-1.15-0.51-1.15-1.15l0,0
		c0-0.63,0.51-1.15,1.15-1.15h2.34v-2.5c0-0.65,0.53-1.17,1.17-1.17l0,0c0.65,0,1.17,0.53,1.17,1.17v2.5h2.35
		c0.63,0,1.15,0.51,1.15,1.15l0,0c0,0.63-0.51,1.15-1.15,1.15h-2.35v2.49C386.5,101.73,385.98,102.26,385.33,102.26z"/>
</g>
</svg>
