<?xml version="1.0" encoding="utf-8"?>
<!-- Generator: Adobe Illustrator 23.0.1, SVG Export Plug-In . SVG Version: 6.00 Build 0)  -->
<svg version="1.1" id="Layer_1" xmlns="http://www.w3.org/2000/svg" xmlns:xlink="http://www.w3.org/1999/xlink" x="0px" y="0px"
	 viewBox="0 0 558 340" style="enable-background:new 0 0 558 340;" xml:space="preserve">
<style type="text/css">
	.st0{opacity:0.1;}
	.st1{fill:#0093FD;}
	.st2{opacity:0.08;}
	.st3{fill:#F5F5F5;}
	.st4{fill:#F4F3EE;}
	.st5{fill:#E6E6E6;}
	.st6{fill:#FFD931;}
	.st7{fill:#1F263A;}
	.st8{fill:#284F4C;}
	.st9{fill:#FFFFFF;}
	.st10{fill:#B3B3B3;}
	.st11{fill:#2992FA;}
	.st12{fill:#27374D;}
	.st13{fill:#DE614B;}
	.st14{fill:#2C294C;}
	.st15{fill:#EAEAEA;}
	.st16{fill:#D6D6D6;}
	.st17{fill:#223359;}
	.st18{fill:#FCD846;}
	.st19{fill:#DADAEA;}
	.st20{fill:#E8BC05;}
	.st21{fill:#CECECE;}
	.st22{opacity:0.4;fill:#E6E6E6;}
	.st23{opacity:0.4;}
	.st24{fill:#2A2BEE;}
	.st25{fill:url(#SVGID_1_);}
	.st26{fill:url(#SVGID_2_);}
	.st27{fill:none;stroke:#2A2BEE;stroke-width:8;stroke-miterlimit:10;}
	.st28{fill:none;stroke:url(#SVGID_3_);stroke-width:8;stroke-miterlimit:10;}
	.st29{fill:none;stroke:url(#SVGID_4_);stroke-width:7;stroke-miterlimit:10;}
	.st30{fill:url(#SVGID_5_);}
	.st31{fill:url(#SVGID_6_);}
	.st32{fill:url(#SVGID_7_);}
	.st33{fill:url(#SVGID_8_);}
	.st34{fill:url(#SVGID_9_);}
	.st35{fill:url(#SVGID_10_);}
	.st36{fill:url(#SVGID_11_);}
	.st37{fill:url(#SVGID_12_);}
	.st38{fill:url(#SVGID_13_);}
	.st39{fill:url(#SVGID_14_);}
	.st40{fill:url(#SVGID_15_);}
	.st41{fill:url(#SVGID_16_);}
	.st42{fill:url(#SVGID_17_);}
	.st43{fill:url(#SVGID_18_);}
	.st44{fill:url(#SVGID_19_);}
	.st45{fill:url(#SVGID_20_);}
	.st46{fill:#F9FBFF;}
	.st47{fill:#EDF5FC;}
	.st48{fill:none;stroke:#2A2BEE;stroke-width:3;stroke-miterlimit:10;}
	.st49{fill:url(#SVGID_21_);}
	.st50{fill:url(#SVGID_22_);}
	.st51{fill:url(#SVGID_23_);}
	.st52{fill:url(#SVGID_24_);}
	.st53{fill:url(#SVGID_25_);}
	.st54{fill:#DBDBDB;}
	.st55{fill:#AF9279;}
	.st56{fill:#F7DABC;}
	.st57{fill:#027FCC;}
	.st58{fill:#747489;}
	.st59{fill:#E2B705;}
	.st60{fill:#263556;}
	.st61{fill:#E0E0E0;}
	.st62{fill:#C4C4C4;}
	.st63{fill:#006EB2;}
	.st64{fill:#B8B8C9;}
	.st65{fill:#9393AB;}
	.st66{fill:#E5B900;}
	.st67{fill:#5578A3;}
	.st68{opacity:0.3;fill:#DADAEA;}
	.st69{fill:#C6C6C6;}
	.st70{fill:#0469BC;}
	.st71{opacity:0.2;}
	.st72{fill:#C1C1C1;}
	.st73{fill:#F2F2F2;}
	.st74{opacity:0.51;fill:#E6E1FF;}
	.st75{fill:#709FE0;}
	.st76{fill:#5183BF;}
	.st77{fill:#D1D1D1;}
	.st78{fill:#D6AE05;}
	.st79{fill:#DCDAE0;}
	.st80{fill:#F3F3F5;}
	.st81{fill:#D9924E;}
	.st82{fill:#C2C2ED;}
	.st83{fill:#636375;}
	.st84{fill:#543237;}
	.st85{fill:#3F3E66;}
	.st86{fill:#585866;}
	.st87{fill:#A04B40;}
	.st88{fill:#B7743D;}
	.st89{fill:#0074D3;}
</style>
<g class="st2">
	<path class="st1" d="M396.17,80.59c0-24.16-11.57-37.86-37.59-40.4c-19.92-1.94-39.78,11.54-48.19,30.63
		c-5.81,13.18-6.96,28.86-15.83,40c-9.78,12.27-26.04,15.61-40.4,20.93c-35.21,13.03-65.62,45.29-69.47,84.33
		c-0.83,8.41-0.4,17.15,2.74,24.93c4.53,11.22,14.24,19.32,24.69,24.59c16.41,8.28,35.48,10.6,53.25,6.47
		c22-5.12,42.02-19.71,64.56-19.95c21.33-0.23,40.54,12.4,60.39,20.62c15.09,6.25,31.41,10.08,47.52,8.18
		c16.11-1.9,31.99-10.07,41.27-24.06c12.39-18.69,10.94-44.74,1.13-65.05c-9.81-20.31-26.7-35.81-44.29-49.11
		c-10.29-7.79-21.1-15.15-29.3-25.31S397,97,396.06,80.49"/>
</g>
<g>
	<path class="st9" d="M269.05,170.51h-28.77c-2.25,0-4.07-1.82-4.07-4.07V142.9c0-2.25,1.82-4.07,4.07-4.07h28.77
		c2.25,0,4.07,1.82,4.07,4.07v23.54C273.12,168.69,271.29,170.51,269.05,170.51z"/>
	<path class="st9" d="M226.71,166.39h46.41v4.12h-46.41c-0.85,0-1.54-0.69-1.54-1.54v-1.03
		C225.16,167.08,225.85,166.39,226.71,166.39z"/>
	<g>
		<path class="st5" d="M190.81,142.95c0.04-0.1,0.07-0.2,0.11-0.3c1.01-2.77-3.42-3.76-4.44-1.05c-2.12,5.61-3.83,11.37-5.05,17.25
			c-0.7,3.39-1.31,8.27,2.87,9.67c4.74,1.59,4.74-4.07,5.15-7.12c0.73-5.53,2.76-10.75,3.27-16.31
			C192.83,143.9,191.87,143.12,190.81,142.95z"/>
	</g>
	<g>
		<path class="st5" d="M252.93,272.36c-0.07-2.06-0.51-20.59-0.48-23.21c0-0.36,0.24-0.49,0.49-0.47c0.07-0.14,0.18-0.24,0.35-0.29
			c1.43-0.35,4.78-1.72,5.21,0.7c0.26,1.45,0.31,15.55,0.24,19.18c-0.01,0.37-0.01,0.71-0.02,1.04c0.12,3.63,2.69,4.28,5.08,6.12
			c0.65,0.5,0.12,1.58-0.69,1.12c-0.31-0.18-0.63-0.36-0.94-0.54c-0.27,0.18-0.63,0.22-0.95-0.01c-0.25-0.18-0.51-0.35-0.76-0.52
			c-0.21,0.27-0.6,0.4-0.98,0.26c-1.75-0.67-4.19-1.73-5.48-3.36C253.37,272.42,252.93,272.41,252.93,272.36z"/>
	</g>
	<g>
		<path class="st7" d="M270.51,279.19c-2.72-1.49-5.86-3.5-7.81-4.56c-1.55-0.84-2.55-0.05-4.24-0.37c-2.86-0.55-4.11-2.5-6.1-4.07
			c-0.16-0.12-0.68-0.1-0.82,0.42c-0.44,1.73-1.44,5.31,0.01,6.87c0.15,0.15,0.25,0.32,0.32,0.5c0.32,0.78,0.18,1.9,0.15,2.64
			c-0.01,0.2,0.2,0.39,0.4,0.37c0.24-0.02,0.47-0.03,0.71-0.02c0.19,0.01,0.4-0.2,0.37-0.4c-0.11-0.76-0.1-1.49,0.05-2.23
			c1.71,0.21,3.31,0.01,4.63,0.42c1.76,0.54,2.25,1.12,3.66,1.86c1.08,0.57,3,0.49,4.17,0.47c1.21-0.01,3.95,0.23,4.58-1.19
			C270.7,279.68,270.73,279.31,270.51,279.19z"/>
	</g>
	<g>
		<path class="st5" d="M211.03,263.65c1.13-1.73,11.45-17.12,12.98-19.24c0.21-0.29,0.48-0.27,0.67-0.1
			c0.13-0.07,0.29-0.09,0.45-0.03c1.37,0.54,4.9,1.35,3.85,3.58c-0.63,1.34-8.71,12.88-10.86,15.82c-0.22,0.3-0.42,0.58-0.62,0.84
			c-1.99,3.03-0.27,5.05,0.62,7.93c0.24,0.79-0.82,1.36-1.21,0.52c-0.15-0.33-0.31-0.65-0.46-0.98c-0.32-0.01-0.64-0.18-0.77-0.55
			c-0.1-0.29-0.21-0.58-0.32-0.86c-0.33,0.1-0.72-0.02-0.95-0.36c-1.05-1.56-2.43-3.83-2.54-5.91
			C211.35,263.95,211,263.7,211.03,263.65z"/>
	</g>
	<g>
		<path class="st7" d="M221.46,279.37c-1.37-2.79-2.77-6.24-3.75-8.23c-0.78-1.58-2.06-1.51-3.25-2.75
			c-2.02-2.1-1.91-4.41-2.64-6.84c-0.06-0.19-0.5-0.48-0.91-0.13c-1.36,1.17-4.24,3.51-3.95,5.62c0.03,0.21,0.02,0.4-0.03,0.6
			c-0.19,0.82-0.95,1.66-1.4,2.24c-0.12,0.16-0.06,0.43,0.11,0.53c0.21,0.12,0.4,0.25,0.59,0.39c0.15,0.12,0.44,0.06,0.53-0.11
			c0.35-0.68,0.78-1.28,1.32-1.79c1.28,1.16,2.7,1.92,3.55,3.01c1.13,1.46,1.2,2.21,1.92,3.64c0.55,1.09,2.17,2.13,3.14,2.79
			c1,0.69,3.1,2.46,4.43,1.67C221.33,279.87,221.57,279.59,221.46,279.37z"/>
	</g>
	<g>
		<path class="st7" d="M264.87,234.86c-0.53-4.45-1.12-8.9-1.76-13.34c-1.02-7.05-1.25-15.99-6.66-21.33
			c-2.83-2.8-6.64-4.19-10.22-5.73c-4.3-1.85-8.59-3.71-12.9-5.54c-2.1-0.89-4.07,0.3-4.87,1.89c-2.08,0.74-3.38,3.43-1.41,5.63
			c0.19,0.21,0.38,0.42,0.56,0.63c-0.03-0.02-0.05-0.03-0.08-0.05c-2.89-1.63-6.16,1.63-5,4.28c-2.85-0.22-5.47,3.73-2.8,5.88
			c0.34,0.28,0.68,0.55,1.03,0.83c0.37,0.29,0.75,0.5,1.14,0.63c3.67,2.3,7.35,4.59,11.01,6.89c4.08,2.55,5.43,4.62,6.01,9.38
			c1.11,9.15,2.79,18.1,5.49,26.92c0.4,1.3,1.83,2.73,3.33,2.53c4.31-0.57,8.62-1.14,12.93-1.71c2.9-0.39,5.17-1.37,5.52-4.61
			C266.64,243.93,265.36,238.96,264.87,234.86z"/>
	</g>
	<g>
		<path class="st7" d="M235.21,242.59c1.6-4.19,3.14-8.4,4.63-12.64c2.36-6.72,6.31-14.75,4-21.98c-1.21-3.79-3.94-6.79-6.4-9.82
			c-2.95-3.63-5.89-7.27-8.86-10.89c-1.45-1.76-3.74-1.62-5.19-0.58c-2.18-0.31-4.59,1.47-3.86,4.33c0.07,0.27,0.14,0.55,0.21,0.82
			c-0.02-0.03-0.03-0.05-0.05-0.08c-1.8-2.78-6.21-1.42-6.42,1.47c-2.42-1.52-6.57,0.77-5.2,3.91c0.18,0.4,0.35,0.8,0.53,1.21
			c0.19,0.43,0.43,0.79,0.71,1.08c2.19,3.74,4.38,7.47,6.56,11.21c2.43,4.15,2.67,6.61,0.97,11.1c-3.26,8.62-5.92,17.33-7.62,26.4
			c-0.25,1.33,0.35,3.27,1.77,3.79c4.08,1.49,8.17,2.99,12.25,4.48c2.75,1,5.21,1.18,7.03-1.53
			C232.57,251.45,233.74,246.45,235.21,242.59z"/>
	</g>
	<g>
		<g>
			<path class="st7" d="M355.17,234.52c-0.18-15.48-0.37-30.96-0.54-46.44c-0.01-0.99,1.52-0.99,1.53,0
				c0.17,13.48,0.32,26.96,0.48,40.45c0.08,6.49,0.15,12.98,0.23,19.47c0.04,3.5,0.08,6.99,0.12,10.49
				c0.02,1.39-0.17,3.12,0.05,4.49c-0.37,1.55,0.31,2.58,2.03,3.11c0.51,0.17,1.02,0.35,1.53,0.52c0.74-12.12,0.36-24.26,0.29-36.39
				c-0.07-12.84,0.03-25.69,0.33-38.53c0.02-0.98,1.54-0.98,1.52,0c-0.26,12.84-0.38,25.68-0.31,38.53
				c0.07,12.48,0.48,24.97-0.35,37.44c-0.03,0.47-0.47,0.91-0.97,0.74c-1.87-0.63-4.49-0.92-5.44-2.82
				c-1.02-2.06-0.22-6.31-0.25-8.6C355.35,249.5,355.26,242.01,355.17,234.52z"/>
		</g>
		<g>
			<path class="st1" d="M370.08,200.41c-0.21,3.82-2.57,6.15-7.48,6.15c-13.87,0-22.68,0.68-36.54-0.07
				c-3.46-0.19-19.07-0.22-23.58-0.7c-3.3-0.35-4.37-0.63-4.54-5.59c-0.12-3.32-0.11-8.85,0.39-12.08c0.2-1.3,0.54-2.6,1.52-3.38
				c1.46-1.15,4.24-1.04,5.87-1.23c1.84-0.2,3.68-0.33,5.53-0.39c0.01-1.68,0.02-3.13,0.02-4.15c-0.35-5.62,1.77-7.54,2.71-8.15
				c12.1-7.87,25.82-8.72,39.9-6.56c3.19,0.49,6.41,1.1,9.49,2.51c2.17,0.99,5.31,2.25,6.24,5.7
				C370.7,176.61,370.4,194.73,370.08,200.41z"/>
		</g>
	</g>
	<g>
		<path class="st5" d="M326.41,106.88c-0.57-0.56-1.15-1.11-1.72-1.67c1.06,0.48,2.15-1.01,1.25-1.87
			c-5.43-5.22-10.99-10.33-16.76-15.18c-0.48-0.41-1.1-0.98-1.8-1.59c-0.02-0.09-0.04-0.17-0.08-0.26
			c-3.02-6.93-9.14-20.29-12.29-29.04c-0.68-1.9,0.25-2.01-3.55,0.61c-1.11,0.77-1.14-1.44-1.01-0.25
			c0.39,3.41,1.95,10.45,2.65,13.85c1.05,5.16,1.37,12.48,4.64,16.81c1.01,2.98,4.1,6.08,5.44,7.62
			c4.97,5.69,10.1,11.25,15.35,16.69c1.02,1.06,2.64-0.56,1.62-1.62c-0.05-0.06-0.11-0.11-0.16-0.17c0.99,0.25,1.98-0.88,1.21-1.79
			c0.04,0.03,0.09,0.07,0.13,0.11c1.14,0.89,2.77-0.63,1.63-1.63c-0.57-0.5-1.13-1-1.7-1.49c1.24,0.91,2.48,1.81,3.75,2.69
			C326.1,109.45,327.32,107.79,326.41,106.88z"/>
	</g>
	<g>
		<path class="st5" d="M237.59,110.03c0.55-0.58,1.12-1.14,1.68-1.71c-1.05,0.51-2.18-0.95-1.3-1.84
			c5.3-5.36,10.72-10.6,16.36-15.61c0.47-0.42,1.07-1,1.76-1.64c0.01-0.09,0.04-0.17,0.07-0.26c2.84-7,8.62-20.52,11.54-29.35
			c0.64-1.92-0.3-2.01,3.56,0.52c1.13,0.74,1.11-1.47,1-0.27c-0.3,3.42-1.68,10.49-2.29,13.91c-0.92,5.18-1.34,12.46-3.75,17.32
			c-1.4,2.82-4.39,5.79-5.7,7.36c-4.83,5.82-9.81,11.5-14.92,17.07c-1,1.09-2.65-0.49-1.66-1.57c0.05-0.06,0.11-0.12,0.16-0.17
			c-0.98,0.28-2-0.83-1.26-1.76c-0.04,0.04-0.08,0.07-0.13,0.11c-1.12,0.91-2.78-0.56-1.67-1.59c0.55-0.51,1.11-1.02,1.66-1.54
			c-1.21,0.94-2.44,1.87-3.68,2.79C237.96,112.59,236.7,110.96,237.59,110.03z"/>
	</g>
	<g>
		<path class="st5" d="M298.23,46.94c-0.08-0.16-0.27-0.21-0.43-0.18c-0.61,0.12-0.91,2.41-1.06,3.21
			c-0.32,1.67-1.11,1.68-1.14,1.73c0-0.16,0.01-0.48,0.01-0.49c0.3-2.9,0.65-5.38,0.39-8.29c-0.08-0.95-0.99-1.02-1.1-0.4
			c-0.21,1.18-0.29,2.16-0.35,3.36c-0.04,0.63-0.05,1.25-0.1,1.88c0-0.03-0.25,1.66-0.5,2.34c-0.08-2.61,0.09-4.44,0-6.45
			c-0.04-1.01,0.3-3.11-0.65-3.18c-0.17-0.01-0.36,0.03-0.43,0.18c-0.41,0.8-0.49,2.9-0.55,4.15c-0.05,0.91-0.1,1.82-0.19,2.73
			c-0.01,0.1-0.39,2.05-0.64,3.02c0-0.06,0-0.12,0-0.18c-0.03-1.7-0.07-3.39-0.1-5.09c-0.02-0.93,0.49-3.29-0.46-3.86
			c-0.21-0.13-0.5-0.01-0.56,0.23c-0.43,1.56-0.53,3.1-0.52,4.71c0,0.35-0.04,3.14-0.25,4.67c-0.05-0.3-0.1-0.59-0.16-0.89
			c-0.15-1-0.29-1.99-0.39-3c-0.14-1.28-0.03-2.69-0.63-3.85c-0.15-0.29-0.63-0.22-0.7,0.09c-0.66,2.94-0.09,6.35,0.63,9.37
			c0.18,2.04,0.1,4.65,1.37,6.16c1.33,1.58,2.92,0.77,4.59,0.32c1.79-0.48,2.5-0.8,2.67-2.75c0.14-1.65,1.52-6.34,1.54-6.77
			C298.54,48.84,298.61,47.71,298.23,46.94z"/>
	</g>
	<g>
		<path class="st5" d="M266.92,49.11c0.1-0.15,0.3-0.16,0.45-0.11c0.59,0.21,0.53,2.52,0.56,3.34c0.06,1.7,0.84,1.83,0.86,1.88
			c0.02-0.15,0.06-0.48,0.06-0.49c0.16-2.91,0.19-5.42,0.89-8.25c0.23-0.93,1.14-0.85,1.15-0.22c0.03,1.2-0.05,2.18-0.17,3.37
			c-0.06,0.62-0.14,1.25-0.19,1.87c0-0.03-0.01,1.68,0.13,2.39c0.48-2.56,0.6-4.4,0.99-6.37c0.2-0.99,0.18-3.12,1.14-3.04
			c0.17,0.01,0.35,0.09,0.4,0.24c0.28,0.85,0.04,2.94-0.09,4.19c-0.09,0.91-0.18,1.82-0.23,2.73c-0.01,0.1,0.07,2.08,0.17,3.08
			c0.01-0.06,0.02-0.12,0.03-0.18c0.29-1.67,0.59-3.34,0.88-5.01c0.16-0.91,0.02-3.32,1.05-3.74c0.23-0.09,0.49,0.07,0.52,0.31
			c0.19,1.61,0.04,3.14-0.21,4.73c-0.05,0.35-0.45,3.11-0.48,4.65c0.1-0.28,0.19-0.57,0.29-0.85c0.3-0.96,0.59-1.93,0.85-2.9
			c0.33-1.24,0.45-2.65,1.21-3.71c0.19-0.26,0.65-0.12,0.68,0.2c0.2,3-0.89,6.29-2.06,9.16c-0.49,1.99-0.82,4.58-2.31,5.87
			c-1.56,1.36-3.01,0.31-4.58-0.39c-1.69-0.75-2.35-1.18-2.21-3.13c0.12-1.65-0.52-6.5-0.48-6.93
			C266.32,50.94,266.43,49.82,266.92,49.11z"/>
	</g>
	<g>
		<path class="st5" d="M317.82,268.46c-0.01-2.07-0.36-23.72-0.49-26.34c-0.02-0.36-0.26-0.48-0.51-0.45
			c-0.07-0.13-0.19-0.24-0.36-0.27c-1.44-0.3-4.84-1.53-5.18,0.91c-0.2,1.46,0.36,18.68,0.57,22.31c0.02,0.37,0.04,0.71,0.06,1.04
			c0.02,3.63-2.52,4.38-4.83,6.32c-0.63,0.53-0.06,1.59,0.73,1.09c0.31-0.19,0.61-0.38,0.92-0.58c0.27,0.16,0.64,0.2,0.95-0.05
			c0.24-0.19,0.49-0.37,0.74-0.55c0.22,0.26,0.61,0.38,0.99,0.22c1.72-0.74,4.12-1.9,5.35-3.58
			C317.38,268.53,317.82,268.51,317.82,268.46z"/>
	</g>
	<g>
		<path class="st7" d="M300.52,275.97c2.66-1.6,5.71-3.73,7.63-4.87c1.51-0.9,2.55-0.15,4.22-0.54c2.84-0.66,4-2.66,5.94-4.31
			c0.15-0.13,0.68-0.13,0.83,0.39c0.51,1.72,1.65,5.25,0.26,6.86c-0.14,0.16-0.23,0.33-0.3,0.51c-0.29,0.79-0.11,1.91-0.05,2.64
			c0.02,0.2-0.19,0.39-0.38,0.38c-0.24-0.01-0.47-0.01-0.71,0.01c-0.19,0.02-0.41-0.19-0.38-0.38c0.08-0.76,0.04-1.5-0.14-2.22
			c-1.7,0.28-3.31,0.14-4.61,0.6c-1.74,0.61-2.2,1.2-3.59,2.01c-1.06,0.61-2.98,0.6-4.15,0.64c-1.21,0.03-3.94,0.38-4.62-1.01
			C300.36,276.47,300.31,276.1,300.52,275.97z"/>
	</g>
	<g>
		<path class="st5" d="M341.72,269.01c-0.01-2.07-0.3-20.59-0.43-23.21c-0.02-0.36-0.26-0.48-0.51-0.45
			c-0.07-0.13-0.19-0.24-0.36-0.27c-1.44-0.3-4.84-1.53-5.18,0.91c-0.2,1.46,0.31,15.55,0.51,19.18c0.02,0.37,0.04,0.71,0.06,1.04
			c0.02,3.63-2.52,4.38-4.83,6.32c-0.63,0.53-0.06,1.59,0.73,1.09c0.31-0.19,0.61-0.38,0.92-0.58c0.27,0.16,0.64,0.2,0.95-0.05
			c0.24-0.19,0.49-0.37,0.74-0.55c0.22,0.26,0.61,0.38,0.99,0.22c1.72-0.74,4.12-1.9,5.35-3.58
			C341.29,269.09,341.72,269.06,341.72,269.01z"/>
	</g>
	<g>
		<path class="st7" d="M324.43,276.53c2.66-1.6,5.71-3.73,7.63-4.87c1.51-0.9,2.55-0.15,4.22-0.54c2.84-0.66,4-2.66,5.94-4.31
			c0.15-0.13,0.68-0.13,0.83,0.39c0.51,1.72,1.65,5.25,0.26,6.86c-0.14,0.16-0.23,0.33-0.3,0.51c-0.29,0.79-0.11,1.91-0.05,2.64
			c0.02,0.2-0.19,0.39-0.38,0.38c-0.24-0.01-0.47-0.01-0.71,0.01c-0.19,0.01-0.41-0.19-0.38-0.38c0.08-0.76,0.04-1.5-0.14-2.22
			c-1.7,0.28-3.31,0.14-4.61,0.6c-1.74,0.61-2.2,1.2-3.59,2.01c-1.06,0.61-2.98,0.6-4.15,0.64c-1.21,0.03-3.94,0.38-4.62-1.01
			C324.26,277.02,324.21,276.66,324.43,276.53z"/>
	</g>
	<g>
		<path class="st7" d="M359.88,179.8c-0.01-0.11-0.04-0.22-0.06-0.33c-0.21-3.08-0.73-6.16-1.14-9.18
			c-0.87-6.29-1.93-12.54-3.15-18.77c-0.46-2.33-3.45-3.04-5.28-1.99c-0.96-2.76-4.51-2.89-6.02-0.64c-1.77-1.08-4.7-0.25-5.34,1.99
			c-0.1,0.35-0.19,0.71-0.29,1.07c-1.23-1.13-3.41-1.06-4.74,0.03c-1.25-0.72-2.77-0.79-3.76,0.31c0-0.56,0-1.12,0-1.69
			c0-0.16-0.01-0.3-0.03-0.45c0.01-0.27,0.02-0.54,0.03-0.81c0.08-4.32-6.45-4.39-6.81-0.25c-0.14,0.39-0.23,0.82-0.22,1.32
			c0.02,0.76,0.03,1.52,0.03,2.28c-0.53,7.82-2.18,15.22-3.83,22.94c-0.23,1.07-0.41,2.18-0.55,3.3c-0.08,0.09-0.15,0.18-0.22,0.28
			c-2.69,3.88-16.7,18.42-17.9,22.17c-1.19,3.7,2.12,37.23,2.64,46.31c0.18,3.03-0.6,9.29,4.47,9.32c3.7,0.02,7.04-0.16,10.61-0.03
			c1.5,0.05,3.1-1.58,3.07-3.2c-0.17-10.29-0.27-18.44,0.68-31.22c1.6-21.42,3.16-18.31,10.22-27.49
			c-0.42,2.3-5.82,12.01-6.07,14.32c-0.87,8.25,1.23,35.91,2.32,43.98c0.45,3.34,1.26,4.72,4.2,4.59c3.15-0.14,8.39,0.38,10.95-0.3
			c1.33-0.35,2.21-1.61,2.25-2.96c0.39-12.23-1.6-22.7-0.49-36.76C345.72,214.52,361.01,191.56,359.88,179.8z"/>
	</g>
	<g>
		<path class="st7" d="M352.82,93.43c-0.55-0.55-1.12-0.91-1.69-1.1c-1.6-1.03-3.76-1.1-5.28,0.31c-0.33,0.31-0.59,0.66-0.79,1.03
			c-1.09,0.07-2.18,0.8-2.29,2.18c-0.18,2.14,0.02,4.4,1.69,5.94c1.73,1.59,6.3,2,8.51,2.16
			C358.89,104.38,355.54,96.15,352.82,93.43z"/>
	</g>
	<g>
		<polygon class="st7" points="424.1,287.21 420.8,285.54 420.8,172.9 424.1,172.9 		"/>
	</g>
	<g>
		<polygon class="st7" points="397.24,276.67 393.94,275.51 393.94,170.74 397.24,170.74 		"/>
	</g>
	<polygon class="st14" points="394.39,275.61 395.59,272.53 424.1,283.66 424.11,287.21 	"/>
	<g>
		<path class="st7" d="M191.85,287.08c0.01,0,0-3.54,0-3.54V172.78h-3.3v109.47l-23.56-9.2V170.61h-3.3v104.77l2,0.7l28.14,10.99
			L191.85,287.08z"/>
	</g>
	<path class="st54" d="M438.11,180.02H145.94c-2.59,0-4.7-2.1-4.7-4.7v-0.11c0-2.59,2.1-4.7,4.7-4.7h292.17c2.59,0,4.7,2.1,4.7,4.7
		v0.11C442.81,177.91,440.7,180.02,438.11,180.02z"/>
	<g>
		<path class="st9" d="M346.37,87.93c-2.58-0.67-5.16-1.29-7.76-1.85c-0.23-0.05-0.45-0.06-0.65-0.05c-1.36-0.07-2.83,1.02-2.47,2.8
			c1.33,6.58,0.92,10.52,1.57,17.22c0.29,3,11.55,2.15,11.55,0.94c0.01-4.61-0.19-12.13-0.51-16.75
			C348.02,89.23,347.41,88.2,346.37,87.93z"/>
	</g>
	<path class="st13" d="M226.41,89.32c-2.39-1.18-4.79-2.31-7.23-3.38c-0.22-0.09-0.43-0.15-0.63-0.18
		c-1.32-0.34-2.98,0.43-2.99,2.25c-0.03,6.71-1.22,10.49-1.95,17.18c-0.32,2.99,10.87,4.44,11.12,3.26
		c0.95-4.52,2.27-11.92,2.89-16.5C227.76,90.93,227.38,89.8,226.41,89.32z"/>
	<g>
		<path class="st15" d="M340.82,101.86c1.07-0.89,2.53-1.16,3.53-2.15c1.13-1.11,1.49-3.93-0.79-3.69
			c-0.27,0.03-0.46,0.17-0.58,0.36c-0.98,0.12-2.27,0.97-3.09,1.56c-0.13-0.11-0.31-0.19-0.47-0.18c-0.91,0.03-2.08-1.19-2.95-0.49
			c0.1,1.75,0.31,5.18,0.41,6.94c0.41,0.03,0.83-0.02,1.23-0.17C339.24,103.61,339.91,102.61,340.82,101.86z"/>
	</g>
	<g>
		<path class="st9" d="M350.47,70.33c-1.48-2.16-4.73-0.38-7.12-0.77c-2.82-0.46-4.8-2.73-6.64-0.63c-2.15,1.7-4.2,3.5-4.68,6.33
			c-0.89,5.21-1.83,13.87-0.03,18.79c1.43,3.89,3.81,5.41,5.75,5.51c3.24,0.16,6.63-2.45,8.65-4.25c1.1-0.98,2.97-3.13,3.49-4.31
			C352.9,84.25,354.88,76.76,350.47,70.33z"/>
	</g>
	<g>
		<path class="st5" d="M216.18,71.52c1.48-2.16,4.73-0.38,7.12-0.77c2.82-0.46,4.8-2.73,6.64-0.63c2.15,1.7,4.2,3.5,4.68,6.33
			c0.89,5.21,1.83,13.87,0.03,18.79c-1.43,3.89-3.81,5.41-5.75,5.51c-3.24,0.16-6.63-2.45-8.65-4.25c-1.1-0.98-2.97-3.13-3.49-4.31
			C213.75,85.44,211.76,77.95,216.18,71.52z"/>
	</g>
	<g>
		<path class="st9" d="M374,148.36c-0.84-3.82-1.85-7.6-2.9-11.37c-0.68-2.42-1.08-6.87-2.97-8.71c-0.86-0.83-2.16-1.23-3.51-1.42
			c-0.4-0.28-0.9-0.29-1.34-0.13c-0.85-0.05-1.68-0.05-2.37-0.05c-0.66,0-1.18,0.42-1.41,0.97c-0.8,0.14-1.52,0.84-1.26,1.86
			c1.78,7.14,4.03,14.15,6.81,20.96c0.06,0.15,0.12,0.29,0.18,0.44c0.21,0.51,0.18,1.08-0.08,1.57
			c-2.06,3.96-11.15,12.41-12.56,13.72c-2.71,0.97-5.04,0.5-7.84-0.35c-1.33-0.4-1.61-0.48-2.96,0.11c-1.14,0.5-5.61,2.1-4.31,4.16
			c0.44,0.7,1.26,0.71,1.99,0.74c2.67,0.09,4.99-0.67,7.71-0.2c2.79,0.48,4.98-0.17,7.15-1.63c5.07-1.29,10.33-5.05,14.17-8.02
			c3.34-2.58,5.94-5.22,5.88-8.74C374.69,151.03,374.28,149.64,374,148.36z"/>
	</g>
	<path class="st13" d="M353.04,86.26c-0.27-1.66-2.32-1.35-2.94-0.11c-0.19,0.38,0.3,0.65,0.58,0.44c-0.05,0.1-0.09,0.2-0.14,0.29
		c-0.38,0.76-0.76,1.5-0.99,2.32c-0.06,0.21,0.05,0.39,0.21,0.48c0.01,0.01,0.01,0.03,0.02,0.04c-0.05,0.05-0.11,0.1-0.15,0.14
		c-0.25,0.24-0.13,0.76,0.28,0.69C351.67,90.22,353.33,88.09,353.04,86.26z"/>
	<g>
		<path class="st6" d="M369.77,128.39c-0.83-2.92-1.85-5.81-3.26-8.51c-2.37-4.54-5.84-8.35-10.49-10.58
			c-0.05-0.02-0.1-0.04-0.15-0.06c-2.15-1.28-4.56-2.13-7.01-2.68c-2.33-0.53-8.94-1.62-9.37-1.81c-3.74-1.61-7.5-3.18-11.25-4.76
			c-2.57-1.08-5.82-3.19-8.67-1.96c-2.6,1.13-3.91,4.92-5.18,7.15c-1.41,2.48-3.84,5.02-2.59,7.94c1.48,3.44,6.81,9.91,8.19,13.51
			c2.96,7.69-1.65,23.33,0.86,27.14c0.32,0.49,3.97,1.72,5.18,2.22c4.44,1.84,9.28,1.58,14.06,2.09c3.91,0.41,9,1.1,12.76-0.45
			c3.52-1.45,4.46-2.08,4.71-5.58c0.27-3.87,0.67-10.02,1.72-13.83c2.99,0.09,8.38,0.11,10.99-0.63c0.71-0.2,1.05-0.79,1.13-1.48
			C371.67,133.67,370.45,130.75,369.77,128.39z"/>
	</g>
	<g>
		<path class="st7" d="M360.41,97.54c-0.05-0.94-0.34-1.74-0.54-2.64c-0.43-1.86-0.76-3.4-0.67-5.37c0.08-1.91,0.35-3.55-0.3-5.44
			c-0.43-1.23-1.22-2.16-1.77-3.31c-1.01-2.07-0.86-3.84-1.22-6.02c-0.32-1.97-0.92-3.86-2.22-5.42c-2.54-3.03-6.03-2.88-9.49-2.06
			c-1.16-0.98-2.55-1.47-4.18-1.59c-2.63-0.19-3.49,0.65-5.37,2.25c-2,1.71-4.08,2.25-5.26,4.83c-1.39,3.05-0.66,6.5-1.86,9.61
			c-1.8,4.67-5.82,8.88-2.48,13.6c1.47,2.07,2.13,4.18,4.69,5.13c0.05,0.02,0.11,0.03,0.16,0.05c0.11,0.05,0.22,0.11,0.33,0.16
			c0.11,0.05,0.22,0.05,0.33,0.03c2.06,0.46,3.86-0.89,5.77-1.8c0.67-0.32-0.45-0.51-0.67-0.65c-3.13-1.93-4.52-6.75-4.61-10.06
			c-0.1-3.86,0.11-6.02,1.28-9.67c1.44-2.53,2.1-2.62,5.38-3.91c1.36-0.53,3.66-1.89,4.87-2.64c0.92,2.76,4.38,3.79,5.35,6.72
			c0.94,2.84,0.27,5.19,0.06,8.05c-0.15,2,0.57,3.43,1.07,5.32c0.81,3.12-1.11,7.43,1.48,9.99c1.23,1.22,2.81,1.31,4.38,1.13
			C358.33,103.44,360.58,100.95,360.41,97.54z"/>
	</g>
	<g>
		<path class="st9" d="M348.68,106.47c-0.21-0.05-0.79-2.89-1.06-2.94c-2.74-0.56-7.71,1.4-8.11,1.23
			c-1.59-0.68-3.18-1.36-4.78-2.03c0.98,5.53,3.04,12.1,9.81,11.54c2.46-0.2,4.62-1.41,6.37-3.11c0.78-0.76,1.82-1.88,2.63-3.08
			C352.05,107.42,350.27,106.83,348.68,106.47z"/>
	</g>
	<path class="st55" d="M323.15,117.85c-0.9,1.96-1.76,3.94-2.58,5.94c-0.19,0.45,0.55,0.65,0.73,0.2c0.81-1.93,1.64-3.85,2.51-5.76
		C324.01,117.8,323.36,117.41,323.15,117.85z"/>
	<path class="st55" d="M322.41,123.54c-0.4,1.24-0.74,2.48-1.02,3.75c-0.1,0.48,0.62,0.68,0.73,0.2c0.29-1.27,0.62-2.52,1.01-3.75
		C323.29,123.27,322.56,123.08,322.41,123.54z"/>
	<path class="st55" d="M358.28,135.45c-1.47-4.7-4.4-10.48-2.51-15.38c0.18-0.46-0.55-0.65-0.73-0.2c-2,5.06,0.98,10.96,2.51,15.79
		C357.7,136.12,358.43,135.92,358.28,135.45z"/>
	<g>
		<path class="st1" d="M258.15,103.28c-1.27-3.34-2.98-6.25-5.3-8.97c-0.92-1.08-2.11-1.48-3.16-1.25
			c-0.82,0.19-1.57,1.03-2.13,1.52c-5.35,4.69-10.87,7.93-15.42,10.88c-4.72,3.05-7.7,2.48-13.1,2.61
			c-4.35,0.1-10.64-0.96-14.6,1.28c-0.01,0.01-0.02,0.02-0.03,0.02c-2.96,0.46-6.22,4.22-7.85,6.01c-3.98,4.4-7.32,9.6-10.42,14.64
			c-1.98,3.21-6.93,10.19-4.78,14.18c1.06,1.97,3.35,2.45,5.33,2.93c1.62,0.4,3.25,0.72,4.9,1c-2.77,12.24-4.58,24.66-4.42,37.25
			c-0.58,3.48-0.95,7.13,1.08,10.25c1.86,2.85,5.25,4.28,8.48,4.87c4.6,0.84,9.32,0.24,13.96,0.21c5.62-0.04,9.96,1.39,14.95,3.74
			c5.67,2.66,15.06,5.17,15-4.01c-0.03-4.42-1.79-8.66-3.08-12.81c-0.05-0.16-0.1-0.33-0.15-0.49c-1.46-4.77-1.59-9.83-0.61-14.73
			c3.09-15.44,1.31-32.94,8.17-46.83c3.28-3.36,6.26-7,8.89-10.9c1.58-2.34,4.46-6.29,4.81-9.6
			C258.71,104.56,258.37,103.86,258.15,103.28z"/>
	</g>
	<g>
		<path class="st7" d="M241.04,107.26c-2.48-5.76-10.13-7.54-12.18-13.71c-0.62-1.85-0.4-9.98,1.83-10.65c1.02-0.3,2,0.08,3.03-0.48
			c1.05-0.56,1.69-1.44,2.14-2.53c1.34-3.24-0.09-6.64-4.18-8.97c-7.4-4.22-20.33-4.99-21.45,6.26c-0.35,3.48-1.29,6.08-2.14,9.6
			c-0.83,3.41-2.31,6.62-3.53,9.9c-0.81,2.16-1.8,4.54-1.45,6.9c0.47,3.17,3.7,4.36,4.8,7.18c1.66,4.25,4.28,6.62,9.16,6.17
			c2.87-0.27,5.31-1.71,7.98-2.62c2.47-0.84,4.35-0.91,6.86-0.28c1.29,0.33,2.54,0.82,3.89,0.83
			C240.12,114.89,242.76,111.25,241.04,107.26z"/>
	</g>
	<g>
		<g>
			<path class="st7" d="M220.78,294.4c3.36-26.1,6.9-52.19,10.71-78.23c0.14-0.97,1.61-0.56,1.47,0.41
				c-3.71,25.85-7.28,51.72-10.62,77.62c-0.21,1.17-0.14,1.77-0.12,1.9c0.06,0.3,0.23,0.4,0.48,0.43c2.79-1.67,5.53-3.42,8.2-5.28
				c3.32-2.33,8.44-4.94,9.14-9.32c0.43-2.71-0.24-5.93-0.36-8.68c-0.15-3.5-0.31-7-0.46-10.5c-0.59-13.5-1.19-27-1.78-40.5
				c-0.04-0.98,1.48-0.98,1.53,0c0.69,15.5,1.37,31,2.05,46.5c0.18,3.99,0.48,8,0.53,12c0.02,1.87-0.02,3.44-1.21,4.99
				c-1.83,2.38-5.08,4.28-7.5,6.02c-3,2.16-6.1,4.15-9.27,6.05c-0.01,0.01-0.86,0.34-1.53,0.15c-0.67-0.18-1.15-0.88-1.26-1.29
				C220.61,296.07,220.78,294.43,220.78,294.4z"/>
		</g>
		<g>
			<path class="st7" d="M176.5,295.73c3.36-26.1,6.9-52.19,10.71-78.23c0.14-0.97,1.61-0.56,1.47,0.41
				c-3.71,25.85-7.28,51.72-10.62,77.62c-0.21,1.17-0.14,1.77-0.12,1.9c0.06,0.3,0.23,0.4,0.48,0.43c2.79-1.67,5.53-3.42,8.2-5.28
				c3.32-2.33,8.44-4.94,9.14-9.32c0.43-2.71-0.24-5.93-0.36-8.68c-0.15-3.5-0.31-7-0.46-10.5c-0.59-13.5-1.19-27-1.78-40.5
				c-0.04-0.98,1.48-0.98,1.53,0c0.69,15.5,1.37,31,2.05,46.5c0.18,3.99,0.48,8,0.53,12c0.02,1.87-0.02,3.44-1.21,4.99
				c-1.83,2.38-5.08,4.28-7.5,6.02c-3,2.16-6.1,4.15-9.27,6.05c-0.01,0.01-0.86,0.34-1.53,0.15c-0.67-0.18-1.15-0.88-1.26-1.29
				C176.32,297.4,176.5,295.76,176.5,295.73z"/>
		</g>
		<g>
			<path class="st6" d="M179.07,192.43c0.93-3.45,4.07-4.71,6.24-5.7c3.08-1.4,6.3-2.02,9.49-2.51c14.08-2.17,27.8-1.32,39.9,6.56
				c0.94,0.61,3.06,2.53,2.71,8.15c-0.01,1.02,0,2.47,0.02,4.15c1.84,0.07,3.69,0.19,5.53,0.39c1.63,0.18,4.41,0.08,5.87,1.23
				c0.98,0.77,1.32,2.08,1.52,3.38c0.5,3.23,0.51,8.76,0.39,12.08c-0.18,4.96-1.24,5.24-4.54,5.59c-4.51,0.48-20.12,0.51-23.58,0.7
				c-13.86,0.75-22.67,0.07-36.54,0.07c-4.91,0-7.27-2.33-7.48-6.15C178.26,214.68,177.97,196.56,179.07,192.43z"/>
		</g>
	</g>
	<path class="st9" d="M294.4,171.11h28.77c2.25,0,4.07-1.82,4.07-4.07V143.5c0-2.25-1.82-4.07-4.07-4.07H294.4
		c-2.25,0-4.07,1.82-4.07,4.07v23.54C290.33,169.29,292.15,171.11,294.4,171.11z"/>
	<path class="st9" d="M336.74,166.99h-46.41v4.12h46.41c0.85,0,1.54-0.69,1.54-1.54v-1.03
		C338.28,167.69,337.59,166.99,336.74,166.99z"/>
	<g>
		<path class="st1" d="M418.08,150.08c-0.5-0.72-1.34-0.98-2.18-1.03c-1-0.06-1.71-0.15-2.73-0.44c-0.5-0.14-0.96-0.3-1.47-0.34
			c-0.04,0-0.08,0-0.13,0c0.4-1.11,0.77-1.2,2.06-2.28c0.36-0.31,0.72-0.59,1.03-0.96c0.75-0.86,1.24-1.92,1.37-3.06
			c0.6-5.4-5.42-3.39-7.64-0.75c-0.09-0.1-0.17-0.2-0.26-0.29l0-3.31c0.09-0.73,0.43-1.43,0.52-2.18c0.33-2.8-3.07-7.24-5.3-3.57
			c-0.52,0.86-0.21,1.66-0.44,2.56c-0.47,1.87-1.86,2.32-2.73,3.72c-1.12,1.8,0,3.28,0.4,5.08c0.29,1.32,0.07,2.11-0.47,2.93
			c-0.7-2.27-2.2-3.41-4.03-4.78c-1.45-1.08-1.13-3.68-3.48-3.88c-1.52-0.13-2.67,1.05-2.71,2.53c-0.03,1.08,0.61,1.75,1.16,2.61
			c0.42,0.66,0.96,1.13,1.14,1.96c0.13,0.63-0.03,1.33,0.13,1.98c0.1,0.41,0.25,0.8,0.44,1.19c-0.31-0.02-0.61-0.05-0.92-0.13
			c-2.34-0.57-4.67-2.4-7.12-0.75c-1.35,0.91-1.87,2.63-0.92,4.03c0.67,0.99,1.76,1.31,2.85,1.58c1.74,0.44,3.16,1.02,4.69,2
			c1.6,1.03,5.58,3.29,8.05,2.65c0.53,0.07,1.1-0.19,1.28-0.76c0.37-0.43,0.64-1.03,0.75-1.85c0.07-0.54,0.06-1.02-0.03-1.44
			c0.11,0.01,0.21,0.02,0.32,0c0.06,0.97,0.23,1.95,0.4,2.87c0.18,0.96,1.65,0.55,1.47-0.41c-0.05-0.25-0.09-0.48-0.12-0.71
			c0.03,0,0.05,0.01,0.08,0.01c0.37-0.05,0.7-0.18,1-0.37c-0.1,1.41,0.57,2.09,2.87,0.88c0.78-0.41,1.37-0.91,1.86-1.47
			c2.51-0.61,5.31,1.5,7.97,0.27C418.72,153.49,418.99,151.37,418.08,150.08z"/>
	</g>
	<g>
		<path class="st7" d="M400.34,170.11c-4.24,0-7.8-3.21-8.23-7.43l-0.88-8.6h18.23l-0.88,8.6
			C408.14,166.9,404.59,170.11,400.34,170.11z"/>
	</g>
</g>
<g>
	<g>
		<path class="st1" d="M84.12,220.34c-1.62-1.38-3.39-2.53-5.22-3.56c-5.55-4.32-13.97-9.61-14.84-3.9c-0.59,3.91,5.25,6.36,8,7.62
			c1.89,0.87,3.88,1.57,5.91,2.05c1.54,0.36,4.25,1.16,5.79,0.57c0.55-0.21,0.85-0.61,0.89-1.2l0.01-0.18
			c0.02-0.28-0.05-0.51-0.17-0.68C84.46,220.79,84.35,220.54,84.12,220.34z"/>
	</g>
	<g>
		<path class="st1" d="M98.98,215.6c-2.61,3.09-5.11,6.28-7.52,9.53c-0.01-0.16-0.23-6.59-0.31-9.07
			c-0.52-15.06-1.02-30.13-1.57-45.19c-0.03-0.78-1.25-0.79-1.22,0c0.49,15.06,1.03,30.13,1.55,45.19l0.23,6.68
			c-1.43-1.37-4.18-4.06-4.49-4.33c-1.92-1.67-3.88-3.29-5.89-4.85c-0.61-0.47-1.47,0.37-0.86,0.86c2.82,2.22,10.1,9.29,11.3,9.99
			l0.48,13.93c0.26,7.5,0.92,15.13,0.42,22.62c-0.05,0.79,1.18,0.79,1.23,0c0.5-7.3-0.14-14.72-0.4-22.02
			c-0.14-3.96-0.27-7.91-0.41-11.87c2.66-3.63,5.44-7.16,8.31-10.62C100.34,215.86,99.48,215,98.98,215.6z"/>
	</g>
	<g>
		<path class="st1" d="M77.73,208.45c-0.93-1.92-2.09-3.67-3.35-5.36c-3.35-6.18-8.95-14.41-12.03-9.52
			c-2.11,3.34,2.26,7.93,4.27,10.18c1.39,1.55,2.92,3,4.59,4.25c1.27,0.95,3.43,2.77,5.07,2.84c0.59,0.03,1.03-0.22,1.29-0.74
			l0.08-0.16c0.13-0.25,0.16-0.48,0.12-0.69C77.86,209,77.86,208.73,77.73,208.45z"/>
	</g>
	<g>
		<path class="st1" d="M84.09,209.25c0.52-2.07,0.77-4.15,0.9-6.25c1.42-6.88,2.45-16.78-3.05-15.04c-3.77,1.19-3.39,7.52-3.3,10.54
			c0.06,2.08,0.3,4.17,0.77,6.2c0.36,1.54,0.84,4.32,2.05,5.44c0.43,0.4,0.93,0.49,1.47,0.27l0.17-0.07
			c0.26-0.11,0.43-0.27,0.54-0.45C83.84,209.75,84.01,209.55,84.09,209.25z"/>
	</g>
	<g>
		<path class="st1" d="M87.22,178.14c-0.96-1.9-2.15-3.64-3.44-5.3c-3.45-6.12-9.18-14.26-12.18-9.32
			c-2.05,3.37,2.39,7.89,4.44,10.11c1.41,1.53,2.97,2.95,4.66,4.17c1.28,0.93,3.47,2.71,5.12,2.76c0.59,0.02,1.02-0.24,1.28-0.76
			l0.08-0.17c0.12-0.25,0.15-0.49,0.11-0.69C87.37,178.69,87.36,178.42,87.22,178.14z"/>
	</g>
	<g>
		<path class="st1" d="M90.83,175.75c0.96-1.9,2.15-3.64,3.44-5.3c3.45-6.12,9.18-14.26,12.18-9.32c2.05,3.37-2.39,7.89-4.44,10.11
			c-1.41,1.53-2.97,2.95-4.66,4.17c-1.28,0.93-3.47,2.71-5.12,2.76c-0.59,0.02-1.02-0.24-1.28-0.76l-0.08-0.17
			c-0.12-0.25-0.15-0.49-0.11-0.69C90.68,176.29,90.69,176.02,90.83,175.75z"/>
	</g>
	<g>
		<path class="st1" d="M90.23,169.5c0.52-2.07,0.77-4.15,0.9-6.25c1.42-6.88,2.45-16.78-3.05-15.04c-3.77,1.19-3.39,7.52-3.3,10.54
			c0.06,2.08,0.3,4.17,0.77,6.2c0.36,1.54,0.84,4.32,2.05,5.44c0.43,0.4,0.93,0.49,1.47,0.27l0.17-0.07
			c0.26-0.11,0.43-0.27,0.54-0.45C89.98,170.01,90.16,169.8,90.23,169.5z"/>
	</g>
	<g>
		<path class="st1" d="M98.12,224.5c2.12-0.25,4.15-0.77,6.16-1.41c6.94-1.14,16.54-3.73,12.94-8.24c-2.46-3.09-8.23-0.47-11.02,0.7
			c-1.92,0.8-3.79,1.78-5.52,2.94c-1.31,0.88-3.74,2.33-4.35,3.86c-0.22,0.55-0.13,1.04,0.28,1.47l0.13,0.13
			c0.19,0.2,0.4,0.31,0.61,0.34C97.55,224.45,97.81,224.53,98.12,224.5z"/>
	</g>
	<g>
		<path class="st1" d="M102.54,214.85c1.76-1.2,3.34-2.59,4.82-4.08c5.63-4.2,12.97-10.92,7.7-13.27c-3.61-1.61-7.53,3.37-9.47,5.69
			c-1.34,1.6-2.55,3.32-3.54,5.15c-0.76,1.39-2.25,3.79-2.08,5.43c0.06,0.59,0.37,0.98,0.92,1.17l0.17,0.06
			c0.27,0.09,0.5,0.09,0.7,0.02C102.02,215.06,102.29,215.02,102.54,214.85z"/>
	</g>
	<g>
		<path class="st7" d="M93.33,276.54c-9.14,0-16.8-6.92-17.74-16.01L73.7,242h39.28l-1.9,18.53
			C110.14,269.63,102.48,276.54,93.33,276.54z"/>
	</g>
</g>
</svg>
